0
SECTION
2
HEADER
9
$INSUNITS
70
4
0
ENDSEC
0
SECTION
2
TABLES
0
TABLE
2
LTYPE
0
LTYPE
72
65
70
64
2
CONTINUOUS
3
______
73
0
40
0
0
ENDTAB
0
TABLE
2
LAYER
0
ENDTAB
0
ENDSEC
0
SECTION
2
ENTITIES
0
LINE
8
front_outsideCutPath
10
0
20
63
11
0
21
42.02
0
LINE
8
front_outsideCutPath
10
0
20
42.02
11
3
21
42.02
0
LINE
8
front_outsideCutPath
10
3
20
42.02
11
3
21
23.98
0
LINE
8
front_outsideCutPath
10
3
20
23.98
11
0
21
23.98
0
LINE
8
front_outsideCutPath
10
0
20
23.98
11
0
21
5.94
0
LINE
8
front_outsideCutPath
10
0
20
5.94
11
0
21
3
0
LINE
8
front_outsideCutPath
10
0
20
3
11
31.66
21
3
0
LINE
8
front_outsideCutPath
10
31.66
20
3
11
31.66
21
6
0
LINE
8
front_outsideCutPath
10
31.66
20
6
11
49.7
21
6
0
LINE
8
front_outsideCutPath
10
49.7
20
6
11
49.7
21
3
0
LINE
8
front_outsideCutPath
10
49.7
20
3
11
67.74
21
3
0
LINE
8
front_outsideCutPath
10
67.74
20
3
11
67.74
21
6
0
LINE
8
front_outsideCutPath
10
67.74
20
6
11
85.78
21
6
0
LINE
8
front_outsideCutPath
10
85.78
20
6
11
85.78
21
3
0
LINE
8
front_outsideCutPath
10
85.78
20
3
11
103.82
21
3
0
LINE
8
front_outsideCutPath
10
103.82
20
3
11
103.82
21
6
0
LINE
8
front_outsideCutPath
10
103.82
20
6
11
121.86
21
6
0
LINE
8
front_outsideCutPath
10
121.86
20
6
11
121.86
21
3
0
LINE
8
front_outsideCutPath
10
121.86
20
3
11
139.9
21
3
0
LINE
8
front_outsideCutPath
10
139.9
20
3
11
139.9
21
6
0
LINE
8
front_outsideCutPath
10
139.9
20
6
11
157.94
21
6
0
LINE
8
front_outsideCutPath
10
157.94
20
6
11
157.94
21
3
0
LINE
8
front_outsideCutPath
10
157.94
20
3
11
175.98
21
3
0
LINE
8
front_outsideCutPath
10
175.98
20
3
11
175.98
21
6
0
LINE
8
front_outsideCutPath
10
175.98
20
6
11
194.02
21
6
0
LINE
8
front_outsideCutPath
10
194.02
20
6
11
194.02
21
3
0
LINE
8
front_outsideCutPath
10
194.02
20
3
11
212.06
21
3
0
LINE
8
front_outsideCutPath
10
212.06
20
3
11
212.06
21
6
0
LINE
8
front_outsideCutPath
10
212.06
20
6
11
230.1
21
6
0
LINE
8
front_outsideCutPath
10
230.1
20
6
11
230.1
21
3
0
LINE
8
front_outsideCutPath
10
230.1
20
3
11
248.14
21
3
0
LINE
8
front_outsideCutPath
10
248.14
20
3
11
248.14
21
6
0
LINE
8
front_outsideCutPath
10
248.14
20
6
11
266.18
21
6
0
LINE
8
front_outsideCutPath
10
266.18
20
6
11
266.18
21
3
0
LINE
8
front_outsideCutPath
10
266.18
20
3
11
284.22
21
3
0
LINE
8
front_outsideCutPath
10
284.22
20
3
11
284.22
21
6
0
LINE
8
front_outsideCutPath
10
284.22
20
6
11
302.26
21
6
0
LINE
8
front_outsideCutPath
10
302.26
20
6
11
302.26
21
3
0
LINE
8
front_outsideCutPath
10
302.26
20
3
11
320.3
21
3
0
LINE
8
front_outsideCutPath
10
320.3
20
3
11
320.3
21
6
0
LINE
8
front_outsideCutPath
10
320.3
20
6
11
338.34
21
6
0
LINE
8
front_outsideCutPath
10
338.34
20
6
11
338.34
21
3
0
LINE
8
front_outsideCutPath
10
338.34
20
3
11
356.38
21
3
0
LINE
8
front_outsideCutPath
10
356.38
20
3
11
370
21
3
0
LINE
8
front_outsideCutPath
10
370
20
3
11
370
21
23.98
0
LINE
8
front_outsideCutPath
10
370
20
23.98
11
367
21
23.98
0
LINE
8
front_outsideCutPath
10
367
20
23.98
11
367
21
42.02
0
LINE
8
front_outsideCutPath
10
367
20
42.02
11
370
21
42.02
0
LINE
8
front_outsideCutPath
10
370
20
42.02
11
370
21
60.06
0
LINE
8
front_outsideCutPath
10
370
20
60.06
11
370
21
63
0
LINE
8
front_outsideCutPath
10
370
20
63
11
338.34
21
63
0
LINE
8
front_outsideCutPath
10
338.34
20
63
11
338.34
21
60
0
LINE
8
front_outsideCutPath
10
338.34
20
60
11
320.3
21
60
0
LINE
8
front_outsideCutPath
10
320.3
20
60
11
320.3
21
63
0
LINE
8
front_outsideCutPath
10
320.3
20
63
11
302.26
21
63
0
LINE
8
front_outsideCutPath
10
302.26
20
63
11
302.26
21
60
0
LINE
8
front_outsideCutPath
10
302.26
20
60
11
284.22
21
60
0
LINE
8
front_outsideCutPath
10
284.22
20
60
11
284.22
21
63
0
LINE
8
front_outsideCutPath
10
284.22
20
63
11
266.18
21
63
0
LINE
8
front_outsideCutPath
10
266.18
20
63
11
266.18
21
60
0
LINE
8
front_outsideCutPath
10
266.18
20
60
11
248.14
21
60
0
LINE
8
front_outsideCutPath
10
248.14
20
60
11
248.14
21
63
0
LINE
8
front_outsideCutPath
10
248.14
20
63
11
230.1
21
63
0
LINE
8
front_outsideCutPath
10
230.1
20
63
11
230.1
21
60
0
LINE
8
front_outsideCutPath
10
230.1
20
60
11
212.06
21
60
0
LINE
8
front_outsideCutPath
10
212.06
20
60
11
212.06
21
63
0
LINE
8
front_outsideCutPath
10
212.06
20
63
11
194.02
21
63
0
LINE
8
front_outsideCutPath
10
194.02
20
63
11
194.02
21
60
0
LINE
8
front_outsideCutPath
10
194.02
20
60
11
175.98
21
60
0
LINE
8
front_outsideCutPath
10
175.98
20
60
11
175.98
21
63
0
LINE
8
front_outsideCutPath
10
175.98
20
63
11
157.94
21
63
0
LINE
8
front_outsideCutPath
10
157.94
20
63
11
157.94
21
60
0
LINE
8
front_outsideCutPath
10
157.94
20
60
11
139.9
21
60
0
LINE
8
front_outsideCutPath
10
139.9
20
60
11
139.9
21
63
0
LINE
8
front_outsideCutPath
10
139.9
20
63
11
121.86
21
63
0
LINE
8
front_outsideCutPath
10
121.86
20
63
11
121.86
21
60
0
LINE
8
front_outsideCutPath
10
121.86
20
60
11
103.82
21
60
0
LINE
8
front_outsideCutPath
10
103.82
20
60
11
103.82
21
63
0
LINE
8
front_outsideCutPath
10
103.82
20
63
11
85.78
21
63
0
LINE
8
front_outsideCutPath
10
85.78
20
63
11
85.78
21
60
0
LINE
8
front_outsideCutPath
10
85.78
20
60
11
67.74
21
60
0
LINE
8
front_outsideCutPath
10
67.74
20
60
11
67.74
21
63
0
LINE
8
front_outsideCutPath
10
67.74
20
63
11
49.7
21
63
0
LINE
8
front_outsideCutPath
10
49.7
20
63
11
49.7
21
60
0
LINE
8
front_outsideCutPath
10
49.7
20
60
11
31.66
21
60
0
LINE
8
front_outsideCutPath
10
31.66
20
60
11
31.66
21
63
0
LINE
8
front_outsideCutPath
10
31.66
20
63
11
13.62
21
63
0
LINE
8
front_outsideCutPath
10
13.62
20
63
11
0
21
63
0
LINE
8
front_labelLayer
10
175.0595703
20
34.8897755
11
175.0595703
21
34.1339161
0
LINE
8
front_labelLayer
10
175.0595703
20
34.1339161
11
173.4248047
21
34.1339161
0
LINE
8
front_labelLayer
10
173.4248047
20
34.1339161
11
173.4248047
21
28.4679005
0
LINE
8
front_labelLayer
10
173.4248047
20
28.4679005
11
172.4521484
21
28.4679005
0
LINE
8
front_labelLayer
10
172.4521484
20
28.4679005
11
172.4521484
21
34.1339161
0
LINE
8
front_labelLayer
10
172.4521484
20
34.1339161
11
171.3037109
21
34.1339161
0
LINE
8
front_labelLayer
10
171.3037109
20
34.1339161
11
171.3037109
21
34.5733692
0
LINE
8
front_labelLayer
10
171.3037109
20
34.5733692
11
172.4521484
21
34.9249317
0
LINE
8
front_labelLayer
10
172.4521484
20
34.9249317
11
172.4521484
21
35.2823536
0
LINE
8
front_labelLayer
10
175.7158203
20
37.444463
11
175.4638672
21
36.6651661
0
LINE
8
front_labelLayer
10
173.4248047
20
35.3057911
11
173.4248047
21
34.8897755
0
LINE
8
front_labelLayer
10
173.4248047
20
34.8897755
11
175.0595703
21
34.8897755
0
ARC
8
front_labelLayer
10
176.3939878
20
35.3276702
40
3.9420999
50
167.5775974
51
180.6586613
0
ARC
8
front_labelLayer
10
174.5402807
20
35.7598479
40
2.0389557
50
141.743391
51
168.2322243
0
ARC
8
front_labelLayer
10
174.2384611
20
35.9173747
40
1.7055856
50
98.2551559
51
139.6203357
0
ARC
8
front_labelLayer
10
174.503465
20
34.693152
40
2.9564382
50
89.6697083
51
99.9314188
0
ARC
8
front_labelLayer
10
174.5042048
20
34.517416
40
3.1321676
50
81.5640907
51
89.7017719
0
ARC
8
front_labelLayer
10
174.2840129
20
32.9812183
40
4.6840533
50
75.9739752
51
81.6565084
0
ARC
8
front_labelLayer
10
173.9061069
20
31.4137627
40
6.2963805
50
73.296369
51
76.0945804
0
ARC
8
front_labelLayer
10
174.0013033
20
32.1741824
40
4.7231375
50
71.9612944
51
76.5918408
0
ARC
8
front_labelLayer
10
174.3677127
20
33.7285213
40
3.1262025
50
76.5183847
51
83.0216341
0
ARC
8
front_labelLayer
10
174.4953612
20
34.7550396
40
2.0917809
50
83.0760469
51
89.7926919
0
ARC
8
front_labelLayer
10
174.4911596
20
35.5351274
40
1.3117322
50
89.4858803
51
103.4197126
0
ARC
8
front_labelLayer
10
174.372899
20
35.9894767
40
0.8423965
50
102.7677687
51
144.338016
0
ARC
8
front_labelLayer
10
174.6111421
20
35.8361886
40
1.1254209
50
145.068818
51
162.180224
0
ARC
8
front_labelLayer
10
175.4280299
20
35.5613466
40
1.9872601
50
161.8437903
51
171.7846869
0
ARC
8
front_labelLayer
10
176.7603363
20
35.3612371
40
3.3344977
50
171.6527557
51
178.438375
0
ARC
8
front_labelLayer
10
178.0170417
20
35.3076542
40
4.5922372
50
178.1973862
51
180.0232457
0
LINE
8
front_labelLayer
10
179.9287109
20
34.9366505
11
179.7939453
21
34.0343067
0
LINE
8
front_labelLayer
10
177.2041016
20
31.913213
11
177.2041016
21
28.4679005
0
LINE
8
front_labelLayer
10
177.2041016
20
28.4679005
11
176.2314453
21
28.4679005
0
LINE
8
front_labelLayer
10
176.2314453
20
28.4679005
11
176.2314453
21
34.8897755
0
LINE
8
front_labelLayer
10
176.2314453
20
34.8897755
11
177.0341797
21
34.8897755
0
LINE
8
front_labelLayer
10
177.0341797
20
34.8897755
11
177.1455078
21
33.7003224
0
LINE
8
front_labelLayer
10
177.1455078
20
33.7003224
11
177.1923828
21
33.7003224
0
ARC
8
front_labelLayer
10
179.1711184
20
30.5416835
40
4.4652907
50
84.9922934
51
90.1281292
0
ARC
8
front_labelLayer
10
179.2783493
20
31.7431005
40
3.2590999
50
78.489206
51
85.026578
0
ARC
8
front_labelLayer
10
178.8621176
20
29.8499731
40
4.2868345
50
77.4454139
51
81.6359922
0
ARC
8
front_labelLayer
10
179.0489014
20
31.1374215
40
2.9859107
50
81.5884597
51
87.1916805
0
ARC
8
front_labelLayer
10
179.0894613
20
31.8407032
40
2.2814946
50
87.3437172
51
89.965871
0
ARC
8
front_labelLayer
10
179.0800408
20
32.4369068
40
1.685325
50
89.633529
51
137.0880829
0
ARC
8
front_labelLayer
10
179.4935173
20
31.9719116
40
2.3055145
50
135.6207307
51
138.8377984
0
ARC
8
front_labelLayer
10
179.4330455
20
32.0309484
40
2.2211354
50
138.9575867
51
174.5422106
0
ARC
8
front_labelLayer
10
180.1564197
20
31.9177634
40
2.9523215
50
173.6907919
51
180.0883096
0
ARC
8
front_labelLayer
10
180.0541573
20
32.0880095
40
3.2847079
50
139.413952
51
150.6032546
0
ARC
8
front_labelLayer
10
179.4651923
20
32.59269
40
2.5090906
50
124.2321211
51
139.416124
0
ARC
8
front_labelLayer
10
179.1502926
20
33.0680316
40
1.9389618
50
89.679674
51
124.4405597
0
ARC
8
front_labelLayer
10
181.6487952
20
31.6508277
40
5.0241705
50
349.1761875
51
0.3862535
0
ARC
8
front_labelLayer
10
183.3403206
20
31.313618
40
3.2994421
50
330.2506911
51
349.411657
0
ARC
8
front_labelLayer
10
183.8608883
20
31.0430451
40
2.7133237
50
318.1439518
51
329.7566409
0
ARC
8
front_labelLayer
10
183.9548346
20
30.967756
40
2.5931213
50
278.8959193
51
317.9979088
0
ARC
8
front_labelLayer
10
183.7127511
20
32.127602
40
3.7769247
50
269.750271
51
279.803316
0
ARC
8
front_labelLayer
10
183.673488
20
31.4740963
40
3.1234665
50
253.5436764
51
270.4182587
0
ARC
8
front_labelLayer
10
183.5695169
20
31.0719084
40
2.7083379
50
238.8115625
51
253.2428149
0
ARC
8
front_labelLayer
10
183.5359573
20
31.0044216
40
2.6332335
50
207.7946953
51
238.6758065
0
ARC
8
front_labelLayer
10
184.0173988
20
31.2992848
40
3.196831
50
205.655927
51
208.4461015
0
ARC
8
front_labelLayer
10
184.388344
20
31.4538548
40
3.5981914
50
188.9102556
51
205.3171442
0
ARC
8
front_labelLayer
10
185.6382393
20
31.6655456
40
4.8658161
50
179.7744843
51
189.0932809
0
ARC
8
front_labelLayer
10
185.8226074
20
31.7189036
40
5.0502623
50
169.2443
51
180.3880763
0
ARC
8
front_labelLayer
10
184.1075757
20
32.0579025
40
3.3021215
50
150.7111397
51
169.4695388
0
ARC
8
front_labelLayer
10
183.5600801
20
32.3390634
40
2.6871631
50
138.1759262
51
150.2287565
0
ARC
8
front_labelLayer
10
183.4690158
20
32.4089443
40
2.5727172
50
99.1759448
51
137.9832664
0
ARC
8
front_labelLayer
10
183.7196775
20
31.229294
40
3.7777102
50
89.7326505
51
100.0759651
0
ARC
8
front_labelLayer
10
183.7697748
20
31.7387497
40
3.2683746
50
73.5222866
51
90.569223
0
ARC
8
front_labelLayer
10
183.9614463
20
32.4351435
40
2.5462523
50
41.1445648
51
73.2133944
0
ARC
8
front_labelLayer
10
183.5955613
20
32.1206705
40
3.0286962
50
13.5014373
51
41.0703389
0
ARC
8
front_labelLayer
10
182.1819775
20
31.7507542
40
4.4896766
50
1.1277128
51
13.8800049
0
ARC
8
front_labelLayer
10
180.9646367
20
31.6855044
40
5.708215
50
359.9918997
51
1.5420485
0
ARC
8
front_labelLayer
10
186.7057468
20
31.6594215
40
4.9255382
50
179.7059797
51
187.9160518
0
ARC
8
front_labelLayer
10
184.8991881
20
31.3999123
40
3.1004651
50
187.7639021
51
200.0976972
0
ARC
8
front_labelLayer
10
183.9039925
20
31.0352714
40
2.0405702
50
200.0846077
51
216.9131468
0
ARC
8
front_labelLayer
10
183.5405748
20
30.775775
40
1.5941828
50
217.3009662
51
261.7099026
0
ARC
8
front_labelLayer
10
183.7092829
20
31.5808224
40
2.4156789
50
260.5032791
51
270.2477068
0
ARC
8
front_labelLayer
10
183.7414863
20
31.4242865
40
2.2592252
50
269.4481468
51
284.7255902
0
ARC
8
front_labelLayer
10
183.9203358
20
30.7609952
40
1.5722645
50
284.5662271
51
322.6333828
0
ARC
8
front_labelLayer
10
183.5021779
20
31.0630963
40
2.0879971
50
323.0089098
51
342.6390598
0
ARC
8
front_labelLayer
10
182.3061311
20
31.4539973
40
3.346237
50
342.3615989
51
353.7537324
0
ARC
8
front_labelLayer
10
180.5416369
20
31.6666847
40
5.1234339
50
353.5362881
51
0.2014378
0
ARC
8
front_labelLayer
10
180.8119652
20
31.7094675
40
4.8531371
50
359.7075639
51
7.8972796
0
ARC
8
front_labelLayer
10
182.5893237
20
31.9642698
40
3.0576369
50
7.7439775
51
20.0690373
0
ARC
8
front_labelLayer
10
183.5797284
20
32.3277123
40
2.0026542
50
20.0257017
51
37.4350446
0
ARC
8
front_labelLayer
10
183.9083402
20
32.56089
40
1.6000491
50
37.9577657
51
80.4006236
0
ARC
8
front_labelLayer
10
183.721601
20
31.7276763
40
2.4531524
50
79.3453553
51
90.3174832
0
ARC
8
front_labelLayer
10
183.6870237
20
31.8660793
40
2.3148069
50
89.4805965
51
103.8805171
0
ARC
8
front_labelLayer
10
183.4925198
20
32.6067472
40
1.5491469
50
103.468522
51
142.3118961
0
ARC
8
front_labelLayer
10
183.8706456
20
32.3408208
40
2.0110614
50
142.9025417
51
162.3749821
0
ARC
8
front_labelLayer
10
185.0621416
20
31.9437574
40
3.2668997
50
162.0653194
51
173.1674902
0
ARC
8
front_labelLayer
10
186.9200092
20
31.7067979
40
5.1397833
50
173.008626
51
180.2463668
0
LINE
8
front_labelLayer
10
193.7451172
20
28.4679005
11
192.7724609
21
28.4679005
0
LINE
8
front_labelLayer
10
192.7724609
20
28.4679005
11
192.7724609
21
32.6221974
0
LINE
8
front_labelLayer
10
189.3505859
20
31.8370411
11
189.3505859
21
28.4679005
0
LINE
8
front_labelLayer
10
189.3505859
20
28.4679005
11
188.3779297
21
28.4679005
0
LINE
8
front_labelLayer
10
188.3779297
20
28.4679005
11
188.3779297
21
34.8897755
0
LINE
8
front_labelLayer
10
188.3779297
20
34.8897755
11
189.1689453
21
34.8897755
0
LINE
8
front_labelLayer
10
189.1689453
20
34.8897755
11
189.3271484
21
34.0108692
0
LINE
8
front_labelLayer
10
189.3271484
20
34.0108692
11
189.3740234
21
34.0108692
0
LINE
8
front_labelLayer
10
193.7451172
20
32.6573536
11
193.7451172
21
28.4679005
0
ARC
8
front_labelLayer
10
190.0230448
20
32.637964
40
2.7494613
50
359.6714377
51
8.6877277
0
ARC
8
front_labelLayer
10
191.042072
20
32.7995743
40
1.7177251
50
8.4931688
51
22.6579712
0
ARC
8
front_labelLayer
10
191.5598111
20
33.0147295
40
1.1570609
50
22.7024636
51
42.3419466
0
ARC
8
front_labelLayer
10
191.6180091
20
33.0409096
40
1.0965906
50
43.3790826
51
71.5386074
0
ARC
8
front_labelLayer
10
191.4003877
20
32.4328228
40
1.7423518
50
71.0827676
51
84.3691548
0
ARC
8
front_labelLayer
10
191.3026952
20
31.6022038
40
2.5785963
50
84.019816
51
90.1510225
0
ARC
8
front_labelLayer
10
191.2750025
20
31.2370945
40
2.9437708
50
89.59329
51
100.3718138
0
ARC
8
front_labelLayer
10
191.0669686
20
32.3285731
40
1.8326914
50
100.1176426
51
118.1602633
0
ARC
8
front_labelLayer
10
190.8573214
20
32.7396734
40
1.3713426
50
118.5439386
51
139.1926994
0
ARC
8
front_labelLayer
10
191.0401242
20
32.6170106
40
1.5900933
50
140.1519357
51
160.3146409
0
ARC
8
front_labelLayer
10
192.1439845
20
32.203551
40
2.7687713
50
159.9534282
51
171.3801288
0
ARC
8
front_labelLayer
10
193.9471919
20
31.9136926
40
4.595083
50
171.1766023
51
178.3217653
0
ARC
8
front_labelLayer
10
195.5814959
20
31.8396197
40
6.2309104
50
178.0810467
51
180.0237113
0
ARC
8
front_labelLayer
10
191.0379
20
32.9570813
40
1.9695061
50
116.9442908
51
147.6525703
0
ARC
8
front_labelLayer
10
191.2428062
20
32.6143931
40
2.3680009
50
115.8071098
51
117.6068573
0
ARC
8
front_labelLayer
10
191.347704
20
32.3698381
40
2.633859
50
94.3226817
51
115.5454251
0
ARC
8
front_labelLayer
10
191.4107472
20
31.8220789
40
3.1848849
50
89.957926
51
94.7108588
0
ARC
8
front_labelLayer
10
191.4368019
20
31.1668367
40
3.8401995
50
80.5585203
51
90.353845
0
ARC
8
front_labelLayer
10
191.6767911
20
32.5569371
40
2.4295776
50
65.1094033
51
80.7638284
0
ARC
8
front_labelLayer
10
191.9573272
20
33.1783141
40
1.7478587
50
46.5584489
51
64.8782516
0
ARC
8
front_labelLayer
10
191.9797791
20
33.2430404
40
1.6856601
50
19.3848835
51
45.5997148
0
ARC
8
front_labelLayer
10
191.0045752
20
32.8771267
40
2.7271158
50
6.9633496
51
19.8363443
0
ARC
8
front_labelLayer
10
189.5004959
20
32.6749003
40
4.2446576
50
359.7631485
51
7.211566
0
LINE
8
front_labelLayer
10
198.6962891
20
29.2706349
11
198.6962891
21
28.5264942
0
LINE
8
front_labelLayer
10
195.8134766
20
30.3136036
11
195.8134766
21
34.1339161
0
LINE
8
front_labelLayer
10
195.8134766
20
34.1339161
11
194.8935547
21
34.1339161
0
LINE
8
front_labelLayer
10
194.8935547
20
34.1339161
11
194.8935547
21
34.6026661
0
LINE
8
front_labelLayer
10
194.8935547
20
34.6026661
11
195.8134766
21
35.006963
0
LINE
8
front_labelLayer
10
195.8134766
20
35.006963
11
196.2236328
21
36.3780567
0
LINE
8
front_labelLayer
10
196.2236328
20
36.3780567
11
196.7861328
21
36.3780567
0
LINE
8
front_labelLayer
10
196.7861328
20
36.3780567
11
196.7861328
21
34.8897755
0
LINE
8
front_labelLayer
10
196.7861328
20
34.8897755
11
198.6494141
21
34.8897755
0
LINE
8
front_labelLayer
10
198.6494141
20
34.8897755
11
198.6494141
21
34.1339161
0
LINE
8
front_labelLayer
10
198.6494141
20
34.1339161
11
196.7861328
21
34.1339161
0
LINE
8
front_labelLayer
10
196.7861328
20
34.1339161
11
196.7861328
21
30.3546192
0
ARC
8
front_labelLayer
10
197.8240545
20
32.3477753
40
3.1943349
50
269.8803316
51
278.3028128
0
ARC
8
front_labelLayer
10
197.8545795
20
32.0985347
40
2.9433042
50
278.4154565
51
279.0081992
0
ARC
8
front_labelLayer
10
197.4960081
20
34.3892213
40
5.261883
50
278.9590101
51
280.5103943
0
ARC
8
front_labelLayer
10
197.8376466
20
32.5561311
40
3.3972294
50
280.4846699
51
282.6267916
0
ARC
8
front_labelLayer
10
198.1371865
20
31.2253559
40
2.0331605
50
282.58766
51
285.5794473
0
ARC
8
front_labelLayer
10
198.2867347
20
30.6752005
40
1.4630582
50
285.7245036
51
286.256048
0
ARC
8
front_labelLayer
10
198.2873529
20
29.3914164
40
0.9567231
50
287.9889364
51
295.3048339
0
ARC
8
front_labelLayer
10
198.0566165
20
30.0895024
40
1.6919474
50
283.3068834
51
288.1198185
0
ARC
8
front_labelLayer
10
197.8128374
20
31.1063782
40
2.7376329
50
280.0070235
51
283.3735007
0
ARC
8
front_labelLayer
10
197.6496215
20
31.9921374
40
3.6382848
50
279.1865037
51
280.114353
0
ARC
8
front_labelLayer
10
197.5496165
20
32.5610192
40
4.215843
50
275.5260628
51
279.2938845
0
ARC
8
front_labelLayer
10
197.6624496
20
31.3824729
40
3.0319087
50
270.8932098
51
275.5484296
0
ARC
8
front_labelLayer
10
197.6766055
20
30.844244
40
2.4935312
50
270.0034988
51
270.760768
0
ARC
8
front_labelLayer
10
197.6375076
20
30.8908435
40
2.5404337
50
253.7847948
51
270.8852676
0
ARC
8
front_labelLayer
10
197.336534
20
29.8644094
40
1.4707878
50
190.3817671
51
253.8772449
0
ARC
8
front_labelLayer
10
198.8705855
20
30.2791914
40
3.0573026
50
179.3550796
51
192.847783
0
ARC
8
front_labelLayer
10
198.7446949
20
30.3423696
40
1.9586004
50
179.6416535
51
189.7506216
0
ARC
8
front_labelLayer
10
198.0532737
20
30.2190448
40
1.2562889
50
189.5479422
51
205.7873769
0
ARC
8
front_labelLayer
10
197.7691331
20
30.0880196
40
0.9434612
50
206.1294926
51
221.4083587
0
ARC
8
front_labelLayer
10
197.7372679
20
30.0638414
40
0.9035747
50
221.5949308
51
262.3505242
0
ARC
8
front_labelLayer
10
197.8130407
20
30.4534788
40
1.3000387
50
261.3265388
51
270.1913673
0
LINE
8
left_outsideCutPath
10
376
20
63
11
376
21
42.02
0
LINE
8
left_outsideCutPath
10
376
20
42.02
11
373
21
42.02
0
LINE
8
left_outsideCutPath
10
373
20
42.02
11
373
21
23.98
0
LINE
8
left_outsideCutPath
10
373
20
23.98
11
376
21
23.98
0
LINE
8
left_outsideCutPath
10
376
20
23.98
11
376
21
5.94
0
LINE
8
left_outsideCutPath
10
376
20
5.94
11
376
21
3
0
LINE
8
left_outsideCutPath
10
376
20
3
11
391.82
21
3
0
LINE
8
left_outsideCutPath
10
391.82
20
3
11
391.82
21
6
0
LINE
8
left_outsideCutPath
10
391.82
20
6
11
409.86
21
6
0
LINE
8
left_outsideCutPath
10
409.86
20
6
11
409.86
21
3
0
LINE
8
left_outsideCutPath
10
409.86
20
3
11
427.9
21
3
0
LINE
8
left_outsideCutPath
10
427.9
20
3
11
427.9
21
6
0
LINE
8
left_outsideCutPath
10
427.9
20
6
11
445.94
21
6
0
LINE
8
left_outsideCutPath
10
445.94
20
6
11
445.94
21
3
0
LINE
8
left_outsideCutPath
10
445.94
20
3
11
463.98
21
3
0
LINE
8
left_outsideCutPath
10
463.98
20
3
11
463.98
21
6
0
LINE
8
left_outsideCutPath
10
463.98
20
6
11
482.02
21
6
0
LINE
8
left_outsideCutPath
10
482.02
20
6
11
482.02
21
3
0
LINE
8
left_outsideCutPath
10
482.02
20
3
11
500.06
21
3
0
LINE
8
left_outsideCutPath
10
500.06
20
3
11
500.06
21
6
0
LINE
8
left_outsideCutPath
10
500.06
20
6
11
518.1
21
6
0
LINE
8
left_outsideCutPath
10
518.1
20
6
11
518.1
21
3
0
LINE
8
left_outsideCutPath
10
518.1
20
3
11
536.14
21
3
0
LINE
8
left_outsideCutPath
10
536.14
20
3
11
536.14
21
6
0
LINE
8
left_outsideCutPath
10
536.14
20
6
11
554.18
21
6
0
LINE
8
left_outsideCutPath
10
554.18
20
6
11
554.18
21
3
0
LINE
8
left_outsideCutPath
10
554.18
20
3
11
570
21
3
0
LINE
8
left_outsideCutPath
10
570
20
3
11
570
21
23.98
0
LINE
8
left_outsideCutPath
10
570
20
23.98
11
573
21
23.98
0
LINE
8
left_outsideCutPath
10
573
20
23.98
11
573
21
42.02
0
LINE
8
left_outsideCutPath
10
573
20
42.02
11
570
21
42.02
0
LINE
8
left_outsideCutPath
10
570
20
42.02
11
570
21
60.06
0
LINE
8
left_outsideCutPath
10
570
20
60.06
11
570
21
63
0
LINE
8
left_outsideCutPath
10
570
20
63
11
554.18
21
63
0
LINE
8
left_outsideCutPath
10
554.18
20
63
11
554.18
21
60
0
LINE
8
left_outsideCutPath
10
554.18
20
60
11
536.14
21
60
0
LINE
8
left_outsideCutPath
10
536.14
20
60
11
536.14
21
63
0
LINE
8
left_outsideCutPath
10
536.14
20
63
11
518.1
21
63
0
LINE
8
left_outsideCutPath
10
518.1
20
63
11
518.1
21
60
0
LINE
8
left_outsideCutPath
10
518.1
20
60
11
500.06
21
60
0
LINE
8
left_outsideCutPath
10
500.06
20
60
11
500.06
21
63
0
LINE
8
left_outsideCutPath
10
500.06
20
63
11
482.02
21
63
0
LINE
8
left_outsideCutPath
10
482.02
20
63
11
482.02
21
60
0
LINE
8
left_outsideCutPath
10
482.02
20
60
11
463.98
21
60
0
LINE
8
left_outsideCutPath
10
463.98
20
60
11
463.98
21
63
0
LINE
8
left_outsideCutPath
10
463.98
20
63
11
445.94
21
63
0
LINE
8
left_outsideCutPath
10
445.94
20
63
11
445.94
21
60
0
LINE
8
left_outsideCutPath
10
445.94
20
60
11
427.9
21
60
0
LINE
8
left_outsideCutPath
10
427.9
20
60
11
427.9
21
63
0
LINE
8
left_outsideCutPath
10
427.9
20
63
11
409.86
21
63
0
LINE
8
left_outsideCutPath
10
409.86
20
63
11
409.86
21
60
0
LINE
8
left_outsideCutPath
10
409.86
20
60
11
391.82
21
60
0
LINE
8
left_outsideCutPath
10
391.82
20
60
11
391.82
21
63
0
LINE
8
left_outsideCutPath
10
391.82
20
63
11
376
21
63
0
LINE
8
left_labelLayer
10
465.5791016
20
37.585088
11
465.5791016
21
28.4679005
0
LINE
8
left_labelLayer
10
465.5791016
20
28.4679005
11
464.6064453
21
28.4679005
0
LINE
8
left_labelLayer
10
464.6064453
20
28.4679005
11
464.6064453
21
37.585088
0
LINE
8
left_labelLayer
10
464.6064453
20
37.585088
11
465.5791016
21
37.585088
0
LINE
8
left_labelLayer
10
472.7158203
20
32.1182911
11
472.7158203
21
31.5030567
0
LINE
8
left_labelLayer
10
472.7158203
20
31.5030567
11
468.2919922
21
31.5030567
0
LINE
8
left_labelLayer
10
472.4404297
20
29.6339161
11
472.4404297
21
28.7667286
0
LINE
8
left_labelLayer
10
468.3154297
20
32.2940724
11
471.6728516
21
32.2940724
0
ARC
8
left_labelLayer
10
470.3225102
20
32.1302729
40
3.7796952
50
256.0087872
51
270.4848155
0
ARC
8
left_labelLayer
10
470.0472746
20
31.0617522
40
2.6763442
50
223.546591
51
256.1956946
0
ARC
8
left_labelLayer
10
470.1991096
20
31.1721072
40
2.8625306
50
194.0877348
51
223.0538156
0
ARC
8
left_labelLayer
10
471.5903276
20
31.5525545
40
4.3046172
50
181.35745
51
194.4920037
0
ARC
8
left_labelLayer
10
472.8399277
20
31.625003
40
5.5557479
50
179.9886493
51
181.7991076
0
ARC
8
left_labelLayer
10
472.3914624
20
31.6603632
40
5.1073976
50
168.9539188
51
180.3843335
0
ARC
8
left_labelLayer
10
470.7234077
20
32.0000089
40
3.4051986
50
149.4070986
51
169.1853874
0
ARC
8
left_labelLayer
10
470.2586549
20
32.2455662
40
2.8802742
50
140.1056111
51
148.9067586
0
ARC
8
left_labelLayer
10
469.973137
20
32.5088008
40
2.4924559
50
92.4762692
51
140.5386354
0
ARC
8
left_labelLayer
10
470.1003647
20
31.5686615
40
3.4383022
50
89.963767
51
93.9176825
0
ARC
8
left_labelLayer
10
470.1307255
20
32.0437823
40
2.9633147
50
74.2125972
51
90.5449944
0
ARC
8
left_labelLayer
10
470.3163275
20
32.7276209
40
2.2547878
50
41.2064808
51
74.0232762
0
ARC
8
left_labelLayer
10
469.9648334
20
32.4234299
40
2.7196255
50
11.5994281
51
41.1495961
0
ARC
8
left_labelLayer
10
468.7571183
20
32.1449081
40
3.9587913
50
359.6147679
51
12.0336318
0
ARC
8
left_labelLayer
10
472.1950894
20
31.5810459
40
3.9038763
50
181.1446951
51
190.8007141
0
ARC
8
left_labelLayer
10
470.8178453
20
31.3094133
40
2.5001432
50
190.6005578
51
206.027536
0
ARC
8
left_labelLayer
10
470.2085101
20
31.021346
40
1.8262198
50
206.2950207
51
222.5557692
0
ARC
8
left_labelLayer
10
470.1545147
20
30.9930751
40
1.7673955
50
223.0645008
51
258.1401354
0
ARC
8
left_labelLayer
10
470.3694608
20
31.8781363
40
2.6778901
50
257.5311755
51
270.431936
0
ARC
8
left_labelLayer
10
470.3718604
20
34.3374245
40
5.1371329
50
270.198395
51
292.2090404
0
ARC
8
left_labelLayer
10
470.1249775
20
35.0463506
40
5.8869148
50
291.8255886
51
293.1613531
0
ARC
8
left_labelLayer
10
470.1133542
20
34.1221769
40
5.8391872
50
287.9022784
51
293.4861453
0
ARC
8
left_labelLayer
10
470.5369292
20
32.8152837
40
4.4653667
50
281.9936075
51
287.8851526
0
ARC
8
left_labelLayer
10
470.6395914
20
32.4462988
40
4.0831717
50
275.9054471
51
281.6604086
0
ARC
8
left_labelLayer
10
470.4340771
20
34.3645978
40
6.0124393
50
271.9119944
51
275.9726824
0
ARC
8
left_labelLayer
10
470.3590729
20
36.2748179
40
7.9241062
50
269.9668788
51
271.9931871
0
ARC
8
left_labelLayer
10
470.0721562
20
32.2752635
40
1.9173372
50
89.4422513
51
106.2089337
0
ARC
8
left_labelLayer
10
469.9568084
20
32.6958456
40
1.4812897
50
106.4657236
51
137.9176197
0
ARC
8
left_labelLayer
10
470.2875175
20
32.4054289
40
1.9213825
50
138.0994833
51
160.586613
0
ARC
8
left_labelLayer
10
471.1375974
20
32.0926994
40
2.8271038
50
160.335338
51
172.531533
0
ARC
8
left_labelLayer
10
471.9749094
20
31.9585524
40
3.6748286
50
172.1546118
51
174.7614733
0
ARC
8
left_labelLayer
10
468.3584426
20
32.3129009
40
3.3144624
50
359.6745175
51
8.9224647
0
ARC
8
left_labelLayer
10
469.5427687
20
32.5058683
40
2.1145504
50
8.7342538
51
23.2771895
0
ARC
8
left_labelLayer
10
470.1050189
20
32.7418856
40
1.5048057
50
23.4821679
51
39.7071741
0
ARC
8
left_labelLayer
10
470.243131
20
32.8452369
40
1.3325545
50
40.0823151
51
80.6242999
0
ARC
8
left_labelLayer
10
470.100972
20
32.1935838
40
1.998952
50
79.6468265
51
90.2909786
0
LINE
8
left_labelLayer
10
477.2685547
20
34.8897755
11
477.2685547
21
34.1339161
0
LINE
8
left_labelLayer
10
477.2685547
20
34.1339161
11
475.6337891
21
34.1339161
0
LINE
8
left_labelLayer
10
475.6337891
20
34.1339161
11
475.6337891
21
28.4679005
0
LINE
8
left_labelLayer
10
475.6337891
20
28.4679005
11
474.6611328
21
28.4679005
0
LINE
8
left_labelLayer
10
474.6611328
20
28.4679005
11
474.6611328
21
34.1339161
0
LINE
8
left_labelLayer
10
474.6611328
20
34.1339161
11
473.5126953
21
34.1339161
0
LINE
8
left_labelLayer
10
473.5126953
20
34.1339161
11
473.5126953
21
34.5733692
0
LINE
8
left_labelLayer
10
473.5126953
20
34.5733692
11
474.6611328
21
34.9249317
0
LINE
8
left_labelLayer
10
474.6611328
20
34.9249317
11
474.6611328
21
35.2823536
0
LINE
8
left_labelLayer
10
477.9248047
20
37.444463
11
477.6728516
21
36.6651661
0
LINE
8
left_labelLayer
10
475.6337891
20
35.3057911
11
475.6337891
21
34.8897755
0
LINE
8
left_labelLayer
10
475.6337891
20
34.8897755
11
477.2685547
21
34.8897755
0
ARC
8
left_labelLayer
10
478.6029722
20
35.3276702
40
3.9420999
50
167.5775974
51
180.6586613
0
ARC
8
left_labelLayer
10
476.7492651
20
35.7598479
40
2.0389557
50
141.743391
51
168.2322243
0
ARC
8
left_labelLayer
10
476.4474454
20
35.9173747
40
1.7055856
50
98.2551559
51
139.6203357
0
ARC
8
left_labelLayer
10
476.7124494
20
34.693152
40
2.9564382
50
89.6697083
51
99.9314188
0
ARC
8
left_labelLayer
10
476.7131891
20
34.517416
40
3.1321676
50
81.5640907
51
89.7017719
0
ARC
8
left_labelLayer
10
476.4929973
20
32.9812183
40
4.6840533
50
75.9739752
51
81.6565084
0
ARC
8
left_labelLayer
10
476.1150913
20
31.4137627
40
6.2963805
50
73.296369
51
76.0945804
0
ARC
8
left_labelLayer
10
476.2102876
20
32.1741824
40
4.7231375
50
71.9612944
51
76.5918408
0
ARC
8
left_labelLayer
10
476.5766971
20
33.7285213
40
3.1262025
50
76.5183847
51
83.0216341
0
ARC
8
left_labelLayer
10
476.7043456
20
34.7550396
40
2.0917809
50
83.0760469
51
89.7926919
0
ARC
8
left_labelLayer
10
476.7001439
20
35.5351274
40
1.3117322
50
89.4858803
51
103.4197126
0
ARC
8
left_labelLayer
10
476.5818834
20
35.9894767
40
0.8423965
50
102.7677687
51
144.338016
0
ARC
8
left_labelLayer
10
476.8201265
20
35.8361886
40
1.1254209
50
145.068818
51
162.180224
0
ARC
8
left_labelLayer
10
477.6370143
20
35.5613466
40
1.9872601
50
161.8437903
51
171.7846869
0
ARC
8
left_labelLayer
10
478.9693207
20
35.3612371
40
3.3344977
50
171.6527557
51
178.438375
0
ARC
8
left_labelLayer
10
480.2260261
20
35.3076542
40
4.5922372
50
178.1973862
51
180.0232457
0
LINE
8
left_labelLayer
10
481.3935547
20
29.2706349
11
481.3935547
21
28.5264942
0
LINE
8
left_labelLayer
10
478.5107422
20
30.3136036
11
478.5107422
21
34.1339161
0
LINE
8
left_labelLayer
10
478.5107422
20
34.1339161
11
477.5908203
21
34.1339161
0
LINE
8
left_labelLayer
10
477.5908203
20
34.1339161
11
477.5908203
21
34.6026661
0
LINE
8
left_labelLayer
10
477.5908203
20
34.6026661
11
478.5107422
21
35.006963
0
LINE
8
left_labelLayer
10
478.5107422
20
35.006963
11
478.9208984
21
36.3780567
0
LINE
8
left_labelLayer
10
478.9208984
20
36.3780567
11
479.4833984
21
36.3780567
0
LINE
8
left_labelLayer
10
479.4833984
20
36.3780567
11
479.4833984
21
34.8897755
0
LINE
8
left_labelLayer
10
479.4833984
20
34.8897755
11
481.3466797
21
34.8897755
0
LINE
8
left_labelLayer
10
481.3466797
20
34.8897755
11
481.3466797
21
34.1339161
0
LINE
8
left_labelLayer
10
481.3466797
20
34.1339161
11
479.4833984
21
34.1339161
0
LINE
8
left_labelLayer
10
479.4833984
20
34.1339161
11
479.4833984
21
30.3546192
0
ARC
8
left_labelLayer
10
480.5213201
20
32.3477753
40
3.1943349
50
269.8803316
51
278.3028128
0
ARC
8
left_labelLayer
10
480.5518451
20
32.0985347
40
2.9433042
50
278.4154565
51
279.0081992
0
ARC
8
left_labelLayer
10
480.1932737
20
34.3892213
40
5.261883
50
278.9590101
51
280.5103943
0
ARC
8
left_labelLayer
10
480.5349122
20
32.5561311
40
3.3972294
50
280.4846699
51
282.6267916
0
ARC
8
left_labelLayer
10
480.8344522
20
31.2253559
40
2.0331605
50
282.58766
51
285.5794473
0
ARC
8
left_labelLayer
10
480.9840003
20
30.6752005
40
1.4630582
50
285.7245036
51
286.256048
0
ARC
8
left_labelLayer
10
480.9846186
20
29.3914164
40
0.9567231
50
287.9889364
51
295.3048339
0
ARC
8
left_labelLayer
10
480.7538821
20
30.0895024
40
1.6919474
50
283.3068834
51
288.1198185
0
ARC
8
left_labelLayer
10
480.510103
20
31.1063782
40
2.7376329
50
280.0070235
51
283.3735007
0
ARC
8
left_labelLayer
10
480.3468871
20
31.9921374
40
3.6382848
50
279.1865037
51
280.114353
0
ARC
8
left_labelLayer
10
480.2468821
20
32.5610192
40
4.215843
50
275.5260628
51
279.2938845
0
ARC
8
left_labelLayer
10
480.3597152
20
31.3824729
40
3.0319087
50
270.8932098
51
275.5484296
0
ARC
8
left_labelLayer
10
480.3738712
20
30.844244
40
2.4935312
50
270.0034988
51
270.760768
0
ARC
8
left_labelLayer
10
480.3347732
20
30.8908435
40
2.5404337
50
253.7847948
51
270.8852676
0
ARC
8
left_labelLayer
10
480.0337996
20
29.8644094
40
1.4707878
50
190.3817671
51
253.8772449
0
ARC
8
left_labelLayer
10
481.5678511
20
30.2791914
40
3.0573026
50
179.3550796
51
192.847783
0
ARC
8
left_labelLayer
10
481.4419606
20
30.3423696
40
1.9586004
50
179.6416535
51
189.7506216
0
ARC
8
left_labelLayer
10
480.7505393
20
30.2190448
40
1.2562889
50
189.5479422
51
205.7873769
0
ARC
8
left_labelLayer
10
480.4663988
20
30.0880196
40
0.9434612
50
206.1294926
51
221.4083587
0
ARC
8
left_labelLayer
10
480.4345336
20
30.0638414
40
0.9035747
50
221.5949308
51
262.3505242
0
ARC
8
left_labelLayer
10
480.5103063
20
30.4534788
40
1.3000387
50
261.3265388
51
270.1913673
0
LINE
8
top_outsideCutPath
10
579
20
200
11
579
21
184.18
0
LINE
8
top_outsideCutPath
10
579
20
184.18
11
576
21
184.18
0
LINE
8
top_outsideCutPath
10
576
20
184.18
11
576
21
166.14
0
LINE
8
top_outsideCutPath
10
576
20
166.14
11
579
21
166.14
0
LINE
8
top_outsideCutPath
10
579
20
166.14
11
579
21
148.1
0
LINE
8
top_outsideCutPath
10
579
20
148.1
11
576
21
148.1
0
LINE
8
top_outsideCutPath
10
576
20
148.1
11
576
21
130.06
0
LINE
8
top_outsideCutPath
10
576
20
130.06
11
579
21
130.06
0
LINE
8
top_outsideCutPath
10
579
20
130.06
11
579
21
112.02
0
LINE
8
top_outsideCutPath
10
579
20
112.02
11
576
21
112.02
0
LINE
8
top_outsideCutPath
10
576
20
112.02
11
576
21
93.98
0
LINE
8
top_outsideCutPath
10
576
20
93.98
11
579
21
93.98
0
LINE
8
top_outsideCutPath
10
579
20
93.98
11
579
21
75.94
0
LINE
8
top_outsideCutPath
10
579
20
75.94
11
576
21
75.94
0
LINE
8
top_outsideCutPath
10
576
20
75.94
11
576
21
57.9
0
LINE
8
top_outsideCutPath
10
576
20
57.9
11
579
21
57.9
0
LINE
8
top_outsideCutPath
10
579
20
57.9
11
579
21
39.86
0
LINE
8
top_outsideCutPath
10
579
20
39.86
11
576
21
39.86
0
LINE
8
top_outsideCutPath
10
576
20
39.86
11
576
21
21.82
0
LINE
8
top_outsideCutPath
10
576
20
21.82
11
579
21
21.82
0
LINE
8
top_outsideCutPath
10
579
20
21.82
11
579
21
6
0
LINE
8
top_outsideCutPath
10
579
20
6
11
607.66
21
6
0
LINE
8
top_outsideCutPath
10
607.66
20
6
11
607.66
21
3
0
LINE
8
top_outsideCutPath
10
607.66
20
3
11
625.7
21
3
0
LINE
8
top_outsideCutPath
10
625.7
20
3
11
625.7
21
6
0
LINE
8
top_outsideCutPath
10
625.7
20
6
11
643.74
21
6
0
LINE
8
top_outsideCutPath
10
643.74
20
6
11
643.74
21
3
0
LINE
8
top_outsideCutPath
10
643.74
20
3
11
661.78
21
3
0
LINE
8
top_outsideCutPath
10
661.78
20
3
11
661.78
21
6
0
LINE
8
top_outsideCutPath
10
661.78
20
6
11
679.82
21
6
0
LINE
8
top_outsideCutPath
10
679.82
20
6
11
679.82
21
3
0
LINE
8
top_outsideCutPath
10
679.82
20
3
11
697.86
21
3
0
LINE
8
top_outsideCutPath
10
697.86
20
3
11
697.86
21
6
0
LINE
8
top_outsideCutPath
10
697.86
20
6
11
715.9
21
6
0
LINE
8
top_outsideCutPath
10
715.9
20
6
11
715.9
21
3
0
LINE
8
top_outsideCutPath
10
715.9
20
3
11
733.94
21
3
0
LINE
8
top_outsideCutPath
10
733.94
20
3
11
733.94
21
6
0
LINE
8
top_outsideCutPath
10
733.94
20
6
11
751.98
21
6
0
LINE
8
top_outsideCutPath
10
751.98
20
6
11
751.98
21
3
0
LINE
8
top_outsideCutPath
10
751.98
20
3
11
770.02
21
3
0
LINE
8
top_outsideCutPath
10
770.02
20
3
11
770.02
21
6
0
LINE
8
top_outsideCutPath
10
770.02
20
6
11
788.06
21
6
0
LINE
8
top_outsideCutPath
10
788.06
20
6
11
788.06
21
3
0
LINE
8
top_outsideCutPath
10
788.06
20
3
11
806.1
21
3
0
LINE
8
top_outsideCutPath
10
806.1
20
3
11
806.1
21
6
0
LINE
8
top_outsideCutPath
10
806.1
20
6
11
824.14
21
6
0
LINE
8
top_outsideCutPath
10
824.14
20
6
11
824.14
21
3
0
LINE
8
top_outsideCutPath
10
824.14
20
3
11
842.18
21
3
0
LINE
8
top_outsideCutPath
10
842.18
20
3
11
842.18
21
6
0
LINE
8
top_outsideCutPath
10
842.18
20
6
11
860.22
21
6
0
LINE
8
top_outsideCutPath
10
860.22
20
6
11
860.22
21
3
0
LINE
8
top_outsideCutPath
10
860.22
20
3
11
878.26
21
3
0
LINE
8
top_outsideCutPath
10
878.26
20
3
11
878.26
21
6
0
LINE
8
top_outsideCutPath
10
878.26
20
6
11
896.3
21
6
0
LINE
8
top_outsideCutPath
10
896.3
20
6
11
896.3
21
3
0
LINE
8
top_outsideCutPath
10
896.3
20
3
11
914.34
21
3
0
LINE
8
top_outsideCutPath
10
914.34
20
3
11
914.34
21
6
0
LINE
8
top_outsideCutPath
10
914.34
20
6
11
932.38
21
6
0
LINE
8
top_outsideCutPath
10
932.38
20
6
11
943
21
6
0
LINE
8
top_outsideCutPath
10
943
20
6
11
943
21
21.82
0
LINE
8
top_outsideCutPath
10
943
20
21.82
11
946
21
21.82
0
LINE
8
top_outsideCutPath
10
946
20
21.82
11
946
21
39.86
0
LINE
8
top_outsideCutPath
10
946
20
39.86
11
943
21
39.86
0
LINE
8
top_outsideCutPath
10
943
20
39.86
11
943
21
57.9
0
LINE
8
top_outsideCutPath
10
943
20
57.9
11
946
21
57.9
0
LINE
8
top_outsideCutPath
10
946
20
57.9
11
946
21
75.94
0
LINE
8
top_outsideCutPath
10
946
20
75.94
11
943
21
75.94
0
LINE
8
top_outsideCutPath
10
943
20
75.94
11
943
21
93.98
0
LINE
8
top_outsideCutPath
10
943
20
93.98
11
946
21
93.98
0
LINE
8
top_outsideCutPath
10
946
20
93.98
11
946
21
112.02
0
LINE
8
top_outsideCutPath
10
946
20
112.02
11
943
21
112.02
0
LINE
8
top_outsideCutPath
10
943
20
112.02
11
943
21
130.06
0
LINE
8
top_outsideCutPath
10
943
20
130.06
11
946
21
130.06
0
LINE
8
top_outsideCutPath
10
946
20
130.06
11
946
21
148.1
0
LINE
8
top_outsideCutPath
10
946
20
148.1
11
943
21
148.1
0
LINE
8
top_outsideCutPath
10
943
20
148.1
11
943
21
166.14
0
LINE
8
top_outsideCutPath
10
943
20
166.14
11
946
21
166.14
0
LINE
8
top_outsideCutPath
10
946
20
166.14
11
946
21
184.18
0
LINE
8
top_outsideCutPath
10
946
20
184.18
11
943
21
184.18
0
LINE
8
top_outsideCutPath
10
943
20
184.18
11
943
21
200
0
LINE
8
top_outsideCutPath
10
943
20
200
11
914.34
21
200
0
LINE
8
top_outsideCutPath
10
914.34
20
200
11
914.34
21
203
0
LINE
8
top_outsideCutPath
10
914.34
20
203
11
896.3
21
203
0
LINE
8
top_outsideCutPath
10
896.3
20
203
11
896.3
21
200
0
LINE
8
top_outsideCutPath
10
896.3
20
200
11
878.26
21
200
0
LINE
8
top_outsideCutPath
10
878.26
20
200
11
878.26
21
203
0
LINE
8
top_outsideCutPath
10
878.26
20
203
11
860.22
21
203
0
LINE
8
top_outsideCutPath
10
860.22
20
203
11
860.22
21
200
0
LINE
8
top_outsideCutPath
10
860.22
20
200
11
842.18
21
200
0
LINE
8
top_outsideCutPath
10
842.18
20
200
11
842.18
21
203
0
LINE
8
top_outsideCutPath
10
842.18
20
203
11
824.14
21
203
0
LINE
8
top_outsideCutPath
10
824.14
20
203
11
824.14
21
200
0
LINE
8
top_outsideCutPath
10
824.14
20
200
11
806.1
21
200
0
LINE
8
top_outsideCutPath
10
806.1
20
200
11
806.1
21
203
0
LINE
8
top_outsideCutPath
10
806.1
20
203
11
788.06
21
203
0
LINE
8
top_outsideCutPath
10
788.06
20
203
11
788.06
21
200
0
LINE
8
top_outsideCutPath
10
788.06
20
200
11
770.02
21
200
0
LINE
8
top_outsideCutPath
10
770.02
20
200
11
770.02
21
203
0
LINE
8
top_outsideCutPath
10
770.02
20
203
11
751.98
21
203
0
LINE
8
top_outsideCutPath
10
751.98
20
203
11
751.98
21
200
0
LINE
8
top_outsideCutPath
10
751.98
20
200
11
733.94
21
200
0
LINE
8
top_outsideCutPath
10
733.94
20
200
11
733.94
21
203
0
LINE
8
top_outsideCutPath
10
733.94
20
203
11
715.9
21
203
0
LINE
8
top_outsideCutPath
10
715.9
20
203
11
715.9
21
200
0
LINE
8
top_outsideCutPath
10
715.9
20
200
11
697.86
21
200
0
LINE
8
top_outsideCutPath
10
697.86
20
200
11
697.86
21
203
0
LINE
8
top_outsideCutPath
10
697.86
20
203
11
679.82
21
203
0
LINE
8
top_outsideCutPath
10
679.82
20
203
11
679.82
21
200
0
LINE
8
top_outsideCutPath
10
679.82
20
200
11
661.78
21
200
0
LINE
8
top_outsideCutPath
10
661.78
20
200
11
661.78
21
203
0
LINE
8
top_outsideCutPath
10
661.78
20
203
11
643.74
21
203
0
LINE
8
top_outsideCutPath
10
643.74
20
203
11
643.74
21
200
0
LINE
8
top_outsideCutPath
10
643.74
20
200
11
625.7
21
200
0
LINE
8
top_outsideCutPath
10
625.7
20
200
11
625.7
21
203
0
LINE
8
top_outsideCutPath
10
625.7
20
203
11
607.66
21
203
0
LINE
8
top_outsideCutPath
10
607.66
20
203
11
607.66
21
200
0
LINE
8
top_outsideCutPath
10
607.66
20
200
11
589.62
21
200
0
LINE
8
top_outsideCutPath
10
589.62
20
200
11
579
21
200
0
LINE
8
top_labelLayer
10
743.6951471
20
97.296875
11
743.6951471
21
94.8164063
0
LINE
8
top_labelLayer
10
734.0857721
20
100.7734375
11
734.0857721
21
113.5078125
0
LINE
8
top_labelLayer
10
734.0857721
20
113.5078125
11
731.0193658
21
113.5078125
0
LINE
8
top_labelLayer
10
731.0193658
20
113.5078125
11
731.0193658
21
115.0703125
0
LINE
8
top_labelLayer
10
731.0193658
20
115.0703125
11
734.0857721
21
116.4179688
0
LINE
8
top_labelLayer
10
734.0857721
20
116.4179688
11
735.4529596
21
120.9882813
0
LINE
8
top_labelLayer
10
735.4529596
20
120.9882813
11
737.3279596
21
120.9882813
0
LINE
8
top_labelLayer
10
737.3279596
20
120.9882813
11
737.3279596
21
116.0273438
0
LINE
8
top_labelLayer
10
737.3279596
20
116.0273438
11
743.5388971
21
116.0273438
0
LINE
8
top_labelLayer
10
743.5388971
20
116.0273438
11
743.5388971
21
113.5078125
0
LINE
8
top_labelLayer
10
743.5388971
20
113.5078125
11
737.3279596
21
113.5078125
0
LINE
8
top_labelLayer
10
737.3279596
20
113.5078125
11
737.3279596
21
100.9101563
0
ARC
8
top_labelLayer
10
740.7876941
20
107.5540118
40
10.6477851
50
269.8803559
51
278.3028353
0
ARC
8
top_labelLayer
10
740.8892323
20
106.7246769
40
9.8124991
50
278.4154494
51
279.0081024
0
ARC
8
top_labelLayer
10
739.6945027
20
114.357115
40
17.5378705
50
278.9589396
51
280.5104777
0
ARC
8
top_labelLayer
10
740.8329379
20
108.2487983
40
11.3243749
50
280.4847583
51
282.6268276
0
ARC
8
top_labelLayer
10
741.8315244
20
103.8123886
40
6.7769723
50
282.5876383
51
285.5795268
0
ARC
8
top_labelLayer
10
742.3324182
20
101.9701915
40
4.8679477
50
285.7240514
51
286.2565691
0
ARC
8
top_labelLayer
10
742.3320536
20
97.6994217
40
3.1890127
50
287.9888003
51
295.3048452
0
ARC
8
top_labelLayer
10
741.5628904
20
100.0264844
40
5.6398776
50
283.3069101
51
288.1198
0
ARC
8
top_labelLayer
10
740.7503342
20
103.4158861
40
9.1253075
50
280.0070079
51
283.3735352
0
ARC
8
top_labelLayer
10
740.2062188
20
106.3689081
40
12.127975
50
279.1864031
51
280.114225
0
ARC
8
top_labelLayer
10
739.8729643
20
108.2643351
40
14.0523194
50
275.5260139
51
279.2939672
0
ARC
8
top_labelLayer
10
740.2490064
20
104.3364932
40
10.1065206
50
270.8932467
51
275.5483935
0
ARC
8
top_labelLayer
10
740.2962527
20
102.5422211
40
8.3117522
50
270.0031492
51
270.7604201
0
ARC
8
top_labelLayer
10
740.1658774
20
102.6975756
40
8.4681176
50
253.7847919
51
270.8852537
0
ARC
8
top_labelLayer
10
739.1626307
20
99.2761238
40
4.9026264
50
190.3817674
51
253.8772384
0
ARC
8
top_labelLayer
10
744.2761576
20
100.6587318
40
10.191031
50
179.3550907
51
192.8477645
0
ARC
8
top_labelLayer
10
743.8565273
20
100.8693251
40
6.5286954
50
179.6416642
51
189.7505901
0
ARC
8
top_labelLayer
10
741.5517764
20
100.4582459
40
4.1876443
50
189.5479704
51
205.7873484
0
ARC
8
top_labelLayer
10
740.6046166
20
100.0214834
40
3.1448578
50
206.1294578
51
221.4083873
0
ARC
8
top_labelLayer
10
740.4984098
20
99.9408951
40
3.0119144
50
221.5949107
51
262.3505242
0
ARC
8
top_labelLayer
10
740.7509887
20
101.2397428
40
4.3335169
50
261.3266111
51
270.1913275
0
ARC
8
top_labelLayer
10
749.7022122
20
105.2308474
40
16.7472217
50
349.1761914
51
0.3862666
0
ARC
8
top_labelLayer
10
755.3406018
20
104.1068241
40
10.998156
50
330.2507055
51
349.4116437
0
ARC
8
top_labelLayer
10
757.0758097
20
103.2049332
40
9.0444529
50
318.1439772
51
329.7566141
0
ARC
8
top_labelLayer
10
757.3889977
20
102.9539441
40
8.6437358
50
278.8959152
51
317.9979127
0
ARC
8
top_labelLayer
10
756.5820472
20
106.820122
40
12.5897728
50
269.7502922
51
279.8033185
0
ARC
8
top_labelLayer
10
756.4511763
20
104.6417604
40
10.4115691
50
253.5436902
51
270.4182498
0
ARC
8
top_labelLayer
10
756.1046002
20
103.3011132
40
9.0277851
50
238.8115622
51
253.2428275
0
ARC
8
top_labelLayer
10
755.9927438
20
103.0761682
40
8.7774509
50
207.7947035
51
238.6757932
0
ARC
8
top_labelLayer
10
757.5977126
20
104.0591411
40
10.6562989
50
205.6560185
51
208.4461418
0
ARC
8
top_labelLayer
10
758.8340241
20
104.5742723
40
11.9939667
50
188.9102462
51
205.3171411
0
ARC
8
top_labelLayer
10
763.0002932
20
105.2799056
40
16.2193343
50
179.7744651
51
189.0932919
0
ARC
8
top_labelLayer
10
763.6149021
20
105.4577709
40
16.8342037
50
169.244298
51
180.388077
0
ARC
8
top_labelLayer
10
757.8981391
20
106.5877674
40
11.0070767
50
150.7111535
51
169.4695443
0
ARC
8
top_labelLayer
10
756.073166
20
107.5249578
40
8.9572318
50
138.1759422
51
150.2287436
0
ARC
8
top_labelLayer
10
755.7695991
20
107.7579097
40
8.5757205
50
99.1759366
51
137.9832747
0
ARC
8
top_labelLayer
10
756.6051363
20
103.8257705
40
12.5923353
50
89.7326345
51
100.0759754
0
ARC
8
top_labelLayer
10
756.7721311
20
105.523932
40
10.8945744
50
73.5222762
51
90.5692242
0
ARC
8
top_labelLayer
10
757.4110348
20
107.8452371
40
8.4875082
50
41.1445613
51
73.2133882
0
ARC
8
top_labelLayer
10
756.1914201
20
106.796994
40
10.095653
50
13.501438
51
41.0703422
0
ARC
8
top_labelLayer
10
751.4794736
20
105.563939
40
14.9655881
50
1.1277152
51
13.8800077
0
ARC
8
top_labelLayer
10
747.4209094
20
105.34644
40
19.0281441
50
359.9919
51
1.5419869
0
ARC
8
top_labelLayer
10
766.5586266
20
105.2594927
40
16.4183832
50
179.7059633
51
187.9160742
0
ARC
8
top_labelLayer
10
760.5368702
20
104.3944741
40
10.3349129
50
187.7639221
51
200.0976823
0
ARC
8
top_labelLayer
10
757.2195115
20
103.1789904
40
6.8018877
50
200.0845909
51
216.9131622
0
ARC
8
top_labelLayer
10
756.0081294
20
102.3140062
40
5.31394
50
217.3009524
51
261.7099121
0
ARC
8
top_labelLayer
10
756.5704958
20
104.9975614
40
8.0523242
50
260.5033178
51
270.2476713
0
ARC
8
top_labelLayer
10
756.6778338
20
104.475733
40
7.5307698
50
269.4481634
51
284.7255676
0
ARC
8
top_labelLayer
10
757.2740007
20
102.2647428
40
5.2408817
50
284.5662286
51
322.6333842
0
ARC
8
top_labelLayer
10
755.8801362
20
103.2717489
40
6.9599955
50
323.0089188
51
342.6390535
0
ARC
8
top_labelLayer
10
751.8933759
20
104.5747376
40
11.1540646
50
342.3615698
51
353.7537633
0
ARC
8
top_labelLayer
10
746.0115741
20
105.2837115
40
17.0782096
50
353.536312
51
0.2014239
0
ARC
8
top_labelLayer
10
746.91275
20
105.4263185
40
16.1771391
50
359.7075596
51
7.8972675
0
ARC
8
top_labelLayer
10
752.8372698
20
106.2756532
40
10.1921474
50
7.7439872
51
20.0690174
0
ARC
8
top_labelLayer
10
756.1386426
20
107.4871325
40
6.6755145
50
20.0257072
51
37.4350486
0
ARC
8
top_labelLayer
10
757.2340153
20
108.2643925
40
5.3334969
50
37.9577619
51
80.4006227
0
ARC
8
top_labelLayer
10
756.611551
20
105.4870248
40
8.1771633
50
79.3453381
51
90.3174814
0
ARC
8
top_labelLayer
10
756.496293
20
105.9483493
40
7.7160303
50
89.4805916
51
103.880499
0
ARC
8
top_labelLayer
10
755.8479472
20
108.4172491
40
5.1638235
50
103.4685193
51
142.3118911
0
ARC
8
top_labelLayer
10
757.1083882
20
107.530818
40
6.7035612
50
142.902582
51
162.3749538
0
ARC
8
top_labelLayer
10
761.0800324
20
106.2072797
40
10.8896786
50
162.0653199
51
173.1674776
0
ARC
8
top_labelLayer
10
767.2728459
20
105.4174236
40
17.1325447
50
173.0086159
51
180.2463847
0
LINE
8
top_labelLayer
10
775.3748346
20
97.375
11
775.1404596
21
97.375
0
LINE
8
top_labelLayer
10
775.3748346
20
93.8203125
11
775.3748346
21
85.0117188
0
LINE
8
top_labelLayer
10
775.3748346
20
85.0117188
11
772.1326471
21
85.0117188
0
LINE
8
top_labelLayer
10
772.1326471
20
85.0117188
11
772.1326471
21
116.0273438
0
LINE
8
top_labelLayer
10
772.1326471
20
116.0273438
11
774.7693658
21
116.0273438
0
LINE
8
top_labelLayer
10
774.7693658
20
116.0273438
11
775.2185846
21
113.0976563
0
LINE
8
top_labelLayer
10
775.2185846
20
113.0976563
11
775.3748346
21
113.0976563
0
LINE
8
top_labelLayer
10
775.3748346
20
106.0664063
11
775.3748346
21
105.34375
0
ARC
8
top_labelLayer
10
782.0389088
20
104.0645693
40
9.8342526
50
255.7755372
51
270.3185509
0
ARC
8
top_labelLayer
10
781.7582687
20
102.8177127
40
8.5567335
50
245.9801612
51
255.5455732
0
ARC
8
top_labelLayer
10
781.2146914
20
101.5536181
40
7.1808618
50
215.5850217
51
245.8361615
0
ARC
8
top_labelLayer
10
744.6995353
20
93.5282875
40
30.6830094
50
2.950321
51
7.2020924
0
ARC
8
top_labelLayer
10
749.6636898
20
93.8060275
40
25.7111487
50
0.0318332
51
2.9015927
0
ARC
8
top_labelLayer
10
782.5167228
20
108.0819002
40
8.7272204
50
132.3565004
51
144.9195899
0
ARC
8
top_labelLayer
10
781.1797884
20
109.5404567
40
6.748649
50
115.4006102
51
132.3118399
0
ARC
8
top_labelLayer
10
781.7012861
20
108.2709317
40
8.1194761
50
97.706634
51
114.882147
0
ARC
8
top_labelLayer
10
782.0654904
20
105.9089142
40
10.5090919
50
89.8468301
51
97.9474287
0
ARC
8
top_labelLayer
10
782.1939283
20
106.4803339
40
9.9381415
50
74.1923569
51
90.5785158
0
ARC
8
top_labelLayer
10
782.8815923
20
108.9801394
40
7.3455743
50
38.052341
51
74.0417312
0
ARC
8
top_labelLayer
10
780.9848956
20
107.526402
40
9.7352111
50
16.3356002
51
37.9090581
0
ARC
8
top_labelLayer
10
776.0022269
20
105.9917085
40
14.9485556
50
4.5766552
51
16.6088792
0
ARC
8
top_labelLayer
10
769.8679459
20
105.3804728
40
21.1123893
50
359.9003398
51
4.9018173
0
ARC
8
top_labelLayer
10
771.9709343
20
105.2315964
40
19.0096999
50
350.6562847
51
0.338036
0
ARC
8
top_labelLayer
10
778.5980349
20
104.1043994
40
12.2875722
50
335.8305888
51
350.8254888
0
ARC
8
top_labelLayer
10
781.5131646
20
102.8461873
40
9.1129431
50
321.3161437
51
335.5436139
0
ARC
8
top_labelLayer
10
782.6276412
20
101.9380576
40
7.6753836
50
274.0640059
51
321.4081022
0
ARC
8
top_labelLayer
10
782.1084462
20
105.2267986
40
10.9963399
50
269.9225642
51
275.5481767
0
ARC
8
top_labelLayer
10
781.558055
20
104.3222952
40
9.342006
50
89.5904284
51
100.3501722
0
ARC
8
top_labelLayer
10
780.8919021
20
107.8218729
40
5.7797506
50
100.0868153
51
118.1917851
0
ARC
8
top_labelLayer
10
780.2094819
20
109.1528175
40
4.2843893
50
118.5569437
51
141.024342
0
ARC
8
top_labelLayer
10
781.2493521
20
108.4193084
40
5.5548008
50
141.8890352
51
160.5973165
0
ARC
8
top_labelLayer
10
784.9038695
20
107.0783571
40
9.447375
50
160.2895617
51
171.245309
0
ARC
8
top_labelLayer
10
790.9126352
20
106.1095488
40
15.533649
50
171.0868485
51
178.3247414
0
ARC
8
top_labelLayer
10
796.0091062
20
105.8673662
40
20.6352316
50
178.0662786
51
179.4473369
0
ARC
8
top_labelLayer
10
796.8117157
20
105.2600402
40
21.4370446
50
179.7762644
51
185.7075319
0
ARC
8
top_labelLayer
10
788.3598898
20
104.3892011
40
12.9405392
50
185.5924881
51
194.2050626
0
ARC
8
top_labelLayer
10
782.9456881
20
102.9840295
40
7.3471414
50
193.9430431
51
208.0218413
0
ARC
8
top_labelLayer
10
780.7550749
20
101.8696025
40
4.8899808
50
208.5536435
51
217.5605597
0
ARC
8
top_labelLayer
10
780.576618
20
101.7953811
40
4.7035364
50
218.1690497
51
253.8047105
0
ARC
8
top_labelLayer
10
781.4490314
20
104.4851197
40
7.5303731
50
253.1382386
51
266.8483141
0
ARC
8
top_labelLayer
10
781.6936709
20
107.3701855
40
10.4248771
50
266.3775722
51
270.0510514
0
ARC
8
top_labelLayer
10
781.7767846
20
102.407776
40
5.4629623
50
269.2256967
51
292.0430417
0
ARC
8
top_labelLayer
10
781.8504946
20
101.9685025
40
5.0290621
50
293.1429682
51
324.1353947
0
ARC
8
top_labelLayer
10
780.7550651
20
102.8959265
40
6.4610871
50
323.1616025
51
325.0152305
0
ARC
8
top_labelLayer
10
779.5826574
20
103.622854
40
7.8388108
50
325.5753843
51
344.150456
0
ARC
8
top_labelLayer
10
775.5262621
20
104.8219654
40
12.068569
50
343.9336227
51
355.1137442
0
ARC
8
top_labelLayer
10
770.3480622
20
105.3474021
40
17.2729024
50
354.8402199
51
0.1174596
0
ARC
8
top_labelLayer
10
771.2600825
20
105.4653836
40
16.3610542
50
359.7108379
51
7.8610433
0
ARC
8
top_labelLayer
10
777.2089593
20
106.3133804
40
10.3521331
50
7.7149617
51
19.8859633
0
ARC
8
top_labelLayer
10
780.4806843
20
107.4951404
40
6.8735216
50
19.8991439
51
35.8980151
0
ARC
8
top_labelLayer
10
781.9400249
20
108.6003329
40
5.0434976
50
35.44816
51
85.2266616
0
ARC
8
top_labelLayer
10
781.6351627
20
106.6885314
40
6.9755386
50
84.0379069
51
90.0848334
0
LINE
8
back_outsideCutPath
10
0
20
126
11
0
21
105.02
0
LINE
8
back_outsideCutPath
10
0
20
105.02
11
3
21
105.02
0
LINE
8
back_outsideCutPath
10
3
20
105.02
11
3
21
86.98
0
LINE
8
back_outsideCutPath
10
3
20
86.98
11
0
21
86.98
0
LINE
8
back_outsideCutPath
10
0
20
86.98
11
0
21
68.94
0
LINE
8
back_outsideCutPath
10
0
20
68.94
11
0
21
66
0
LINE
8
back_outsideCutPath
10
0
20
66
11
31.66
21
66
0
LINE
8
back_outsideCutPath
10
31.66
20
66
11
31.66
21
69
0
LINE
8
back_outsideCutPath
10
31.66
20
69
11
49.7
21
69
0
LINE
8
back_outsideCutPath
10
49.7
20
69
11
49.7
21
66
0
LINE
8
back_outsideCutPath
10
49.7
20
66
11
67.74
21
66
0
LINE
8
back_outsideCutPath
10
67.74
20
66
11
67.74
21
69
0
LINE
8
back_outsideCutPath
10
67.74
20
69
11
85.78
21
69
0
LINE
8
back_outsideCutPath
10
85.78
20
69
11
85.78
21
66
0
LINE
8
back_outsideCutPath
10
85.78
20
66
11
103.82
21
66
0
LINE
8
back_outsideCutPath
10
103.82
20
66
11
103.82
21
69
0
LINE
8
back_outsideCutPath
10
103.82
20
69
11
121.86
21
69
0
LINE
8
back_outsideCutPath
10
121.86
20
69
11
121.86
21
66
0
LINE
8
back_outsideCutPath
10
121.86
20
66
11
139.9
21
66
0
LINE
8
back_outsideCutPath
10
139.9
20
66
11
139.9
21
69
0
LINE
8
back_outsideCutPath
10
139.9
20
69
11
157.94
21
69
0
LINE
8
back_outsideCutPath
10
157.94
20
69
11
157.94
21
66
0
LINE
8
back_outsideCutPath
10
157.94
20
66
11
175.98
21
66
0
LINE
8
back_outsideCutPath
10
175.98
20
66
11
175.98
21
69
0
LINE
8
back_outsideCutPath
10
175.98
20
69
11
194.02
21
69
0
LINE
8
back_outsideCutPath
10
194.02
20
69
11
194.02
21
66
0
LINE
8
back_outsideCutPath
10
194.02
20
66
11
212.06
21
66
0
LINE
8
back_outsideCutPath
10
212.06
20
66
11
212.06
21
69
0
LINE
8
back_outsideCutPath
10
212.06
20
69
11
230.1
21
69
0
LINE
8
back_outsideCutPath
10
230.1
20
69
11
230.1
21
66
0
LINE
8
back_outsideCutPath
10
230.1
20
66
11
248.14
21
66
0
LINE
8
back_outsideCutPath
10
248.14
20
66
11
248.14
21
69
0
LINE
8
back_outsideCutPath
10
248.14
20
69
11
266.18
21
69
0
LINE
8
back_outsideCutPath
10
266.18
20
69
11
266.18
21
66
0
LINE
8
back_outsideCutPath
10
266.18
20
66
11
284.22
21
66
0
LINE
8
back_outsideCutPath
10
284.22
20
66
11
284.22
21
69
0
LINE
8
back_outsideCutPath
10
284.22
20
69
11
302.26
21
69
0
LINE
8
back_outsideCutPath
10
302.26
20
69
11
302.26
21
66
0
LINE
8
back_outsideCutPath
10
302.26
20
66
11
320.3
21
66
0
LINE
8
back_outsideCutPath
10
320.3
20
66
11
320.3
21
69
0
LINE
8
back_outsideCutPath
10
320.3
20
69
11
338.34
21
69
0
LINE
8
back_outsideCutPath
10
338.34
20
69
11
338.34
21
66
0
LINE
8
back_outsideCutPath
10
338.34
20
66
11
356.38
21
66
0
LINE
8
back_outsideCutPath
10
356.38
20
66
11
370
21
66
0
LINE
8
back_outsideCutPath
10
370
20
66
11
370
21
86.98
0
LINE
8
back_outsideCutPath
10
370
20
86.98
11
367
21
86.98
0
LINE
8
back_outsideCutPath
10
367
20
86.98
11
367
21
105.02
0
LINE
8
back_outsideCutPath
10
367
20
105.02
11
370
21
105.02
0
LINE
8
back_outsideCutPath
10
370
20
105.02
11
370
21
123.06
0
LINE
8
back_outsideCutPath
10
370
20
123.06
11
370
21
126
0
LINE
8
back_outsideCutPath
10
370
20
126
11
338.34
21
126
0
LINE
8
back_outsideCutPath
10
338.34
20
126
11
338.34
21
123
0
LINE
8
back_outsideCutPath
10
338.34
20
123
11
320.3
21
123
0
LINE
8
back_outsideCutPath
10
320.3
20
123
11
320.3
21
126
0
LINE
8
back_outsideCutPath
10
320.3
20
126
11
302.26
21
126
0
LINE
8
back_outsideCutPath
10
302.26
20
126
11
302.26
21
123
0
LINE
8
back_outsideCutPath
10
302.26
20
123
11
284.22
21
123
0
LINE
8
back_outsideCutPath
10
284.22
20
123
11
284.22
21
126
0
LINE
8
back_outsideCutPath
10
284.22
20
126
11
266.18
21
126
0
LINE
8
back_outsideCutPath
10
266.18
20
126
11
266.18
21
123
0
LINE
8
back_outsideCutPath
10
266.18
20
123
11
248.14
21
123
0
LINE
8
back_outsideCutPath
10
248.14
20
123
11
248.14
21
126
0
LINE
8
back_outsideCutPath
10
248.14
20
126
11
230.1
21
126
0
LINE
8
back_outsideCutPath
10
230.1
20
126
11
230.1
21
123
0
LINE
8
back_outsideCutPath
10
230.1
20
123
11
212.06
21
123
0
LINE
8
back_outsideCutPath
10
212.06
20
123
11
212.06
21
126
0
LINE
8
back_outsideCutPath
10
212.06
20
126
11
194.02
21
126
0
LINE
8
back_outsideCutPath
10
194.02
20
126
11
194.02
21
123
0
LINE
8
back_outsideCutPath
10
194.02
20
123
11
175.98
21
123
0
LINE
8
back_outsideCutPath
10
175.98
20
123
11
175.98
21
126
0
LINE
8
back_outsideCutPath
10
175.98
20
126
11
157.94
21
126
0
LINE
8
back_outsideCutPath
10
157.94
20
126
11
157.94
21
123
0
LINE
8
back_outsideCutPath
10
157.94
20
123
11
139.9
21
123
0
LINE
8
back_outsideCutPath
10
139.9
20
123
11
139.9
21
126
0
LINE
8
back_outsideCutPath
10
139.9
20
126
11
121.86
21
126
0
LINE
8
back_outsideCutPath
10
121.86
20
126
11
121.86
21
123
0
LINE
8
back_outsideCutPath
10
121.86
20
123
11
103.82
21
123
0
LINE
8
back_outsideCutPath
10
103.82
20
123
11
103.82
21
126
0
LINE
8
back_outsideCutPath
10
103.82
20
126
11
85.78
21
126
0
LINE
8
back_outsideCutPath
10
85.78
20
126
11
85.78
21
123
0
LINE
8
back_outsideCutPath
10
85.78
20
123
11
67.74
21
123
0
LINE
8
back_outsideCutPath
10
67.74
20
123
11
67.74
21
126
0
LINE
8
back_outsideCutPath
10
67.74
20
126
11
49.7
21
126
0
LINE
8
back_outsideCutPath
10
49.7
20
126
11
49.7
21
123
0
LINE
8
back_outsideCutPath
10
49.7
20
123
11
31.66
21
123
0
LINE
8
back_outsideCutPath
10
31.66
20
123
11
31.66
21
126
0
LINE
8
back_outsideCutPath
10
31.66
20
126
11
13.62
21
126
0
LINE
8
back_outsideCutPath
10
13.62
20
126
11
0
21
126
0
LINE
8
back_labelLayer
10
173.5332031
20
92.3262381
11
173.4628906
21
92.3262381
0
LINE
8
back_labelLayer
10
173.4628906
20
92.3262381
11
173.2578125
21
91.5000662
0
LINE
8
back_labelLayer
10
173.2578125
20
91.5000662
11
172.5605469
21
91.5000662
0
LINE
8
back_labelLayer
10
172.5605469
20
91.5000662
11
172.5605469
21
100.6172537
0
LINE
8
back_labelLayer
10
172.5605469
20
100.6172537
11
173.5332031
21
100.6172537
0
LINE
8
back_labelLayer
10
173.5332031
20
100.6172537
11
173.5332031
21
98.4024099
0
LINE
8
back_labelLayer
10
173.4863281
20
97.0664724
11
173.5332031
21
97.0664724
0
ARC
8
back_labelLayer
10
175.5780065
20
95.0547779
40
2.9727752
50
74.2393332
51
90.5623791
0
ARC
8
back_labelLayer
10
175.7745759
20
95.7759025
40
2.2253795
50
38.5631365
51
74.0670293
0
ARC
8
back_labelLayer
10
175.2687086
20
95.382563
40
2.8661373
50
16.470949
51
38.4075058
0
ARC
8
back_labelLayer
10
173.8113969
20
94.9255931
40
4.3932818
50
5.1338576
51
16.7973472
0
ARC
8
back_labelLayer
10
171.9716115
20
94.7301625
40
6.2432464
50
359.8779482
51
5.4093355
0
ARC
8
back_labelLayer
10
172.5120411
20
94.6832174
40
5.7029019
50
350.6562674
51
0.3380322
0
ARC
8
back_labelLayer
10
174.5001545
20
94.3450601
40
3.6862806
50
335.8306125
51
350.8254761
0
ARC
8
back_labelLayer
10
175.3747035
20
93.9675929
40
2.7338811
50
321.3161481
51
335.5436283
0
ARC
8
back_labelLayer
10
175.7090452
20
93.6951553
40
2.302615
50
274.0640048
51
321.408102
0
ARC
8
back_labelLayer
10
175.5532881
20
94.6817669
40
3.2988911
50
269.9225382
51
275.548169
0
ARC
8
back_labelLayer
10
175.5324249
20
94.3331084
40
2.9502753
50
255.775545
51
270.3185612
0
ARC
8
back_labelLayer
10
175.4482368
20
93.9590609
40
2.5670296
50
245.9801732
51
255.5455494
0
ARC
8
back_labelLayer
10
175.285161
20
93.5798248
40
2.1542601
50
215.5850365
51
245.8361552
0
ARC
8
back_labelLayer
10
153.2544795
20
98.3852604
40
20.2787309
50
358.1123001
51
0.0484545
0
ARC
8
back_labelLayer
10
158.8982141
20
98.1957776
40
14.6318179
50
355.7238409
51
358.1258953
0
ARC
8
back_labelLayer
10
161.3235799
20
98.0296983
40
12.2008297
50
355.4719252
51
355.6523316
0
ARC
8
back_labelLayer
10
175.3471649
20
95.8015479
40
2.2114456
50
95.1835189
51
145.1108942
0
ARC
8
back_labelLayer
10
175.5415407
20
94.7054365
40
3.3219812
50
89.8743098
51
96.8145131
0
ARC
8
back_labelLayer
10
175.3878399
20
94.4797847
40
2.733248
50
89.5731324
51
100.7324144
0
ARC
8
back_labelLayer
10
175.1855044
20
95.5020583
40
1.6911979
50
100.4469533
51
119.6700583
0
ARC
8
back_labelLayer
10
174.9978763
20
95.852852
40
1.2935634
50
120.1402921
51
142.4249147
0
ARC
8
back_labelLayer
10
175.3082927
20
95.647501
40
1.6650202
50
143.3382407
51
161.2559637
0
ARC
8
back_labelLayer
10
176.6063952
20
95.1866334
40
3.0424327
50
160.892661
51
171.2333996
0
ARC
8
back_labelLayer
10
178.7734056
20
94.8370466
40
5.2374293
50
171.0667963
51
177.8456831
0
ARC
8
back_labelLayer
10
181.0271442
20
94.7224218
40
7.4939433
50
177.6176651
51
180.0425001
0
ARC
8
back_labelLayer
10
179.9642765
20
94.6917489
40
6.4311224
50
179.7762537
51
185.7075129
0
ARC
8
back_labelLayer
10
177.4287143
20
94.4304983
40
3.8821564
50
185.5924947
51
194.2050809
0
ARC
8
back_labelLayer
10
175.8044605
20
94.008947
40
2.2041437
50
193.9430385
51
208.0218289
0
ARC
8
back_labelLayer
10
175.1472868
20
93.6746252
40
1.4670075
50
208.5536459
51
217.5604811
0
ARC
8
back_labelLayer
10
175.0937376
20
93.652352
40
1.4110603
50
218.169049
51
253.8047254
0
ARC
8
back_labelLayer
10
175.3554605
20
94.4592649
40
2.2591027
50
253.1382111
51
266.8483427
0
ARC
8
back_labelLayer
10
175.4288541
20
95.3247992
40
3.1274686
50
266.377576
51
270.0510487
0
ARC
8
back_labelLayer
10
175.4523894
20
94.1361975
40
1.9389767
50
269.386872
51
285.8630812
0
ARC
8
back_labelLayer
10
175.5964424
20
93.6155708
40
1.3988063
50
286.0163031
51
326.8497346
0
ARC
8
back_labelLayer
10
174.9011617
20
94.076169
40
2.2328013
50
326.7105011
51
343.6661615
0
ARC
8
back_labelLayer
10
173.5996596
20
94.4738672
40
3.5936539
50
343.4171074
51
353.636939
0
ARC
8
back_labelLayer
10
171.6338487
20
94.7071274
40
5.5732239
50
353.4934644
51
0.2205633
0
ARC
8
back_labelLayer
10
171.4605071
20
94.7518408
40
5.7465713
50
359.7680977
51
6.3095029
0
ARC
8
back_labelLayer
10
173.6251515
20
95.0002452
40
3.5677506
50
6.1648536
51
16.0396515
0
ARC
8
back_labelLayer
10
175.0195473
20
95.4111738
40
2.114119
50
15.7779489
51
32.0151334
0
ARC
8
back_labelLayer
10
175.4543041
20
95.6601393
40
1.6136143
50
32.7034147
51
35.5241062
0
ARC
8
back_labelLayer
10
175.6134045
20
95.7732167
40
1.418424
50
35.5408339
51
79.8011224
0
ARC
8
back_labelLayer
10
175.4229237
20
94.9634367
40
2.2495683
50
78.6781706
51
90.3749311
0
LINE
8
back_labelLayer
10
184.5839844
20
91.5000662
11
183.8632813
21
91.5000662
0
LINE
8
back_labelLayer
10
183.8632813
20
91.5000662
11
183.6699219
21
92.4141287
0
LINE
8
back_labelLayer
10
183.6699219
20
92.4141287
11
183.6230469
21
92.4141287
0
LINE
8
back_labelLayer
10
182.5449219
20
95.3145193
11
183.6347656
21
95.3496756
0
LINE
8
back_labelLayer
10
183.6347656
20
95.3496756
11
183.6347656
21
95.7481131
0
LINE
8
back_labelLayer
10
180.453125
20
96.7324881
11
180.1542969
21
97.4766287
0
LINE
8
back_labelLayer
10
184.5839844
20
95.8828787
11
184.5839844
21
91.5000662
0
LINE
8
back_labelLayer
10
183.6113281
20
94.0781912
11
183.6113281
21
94.6582693
0
LINE
8
back_labelLayer
10
183.6113281
20
94.6582693
11
182.6386719
21
94.6172537
0
ARC
8
back_labelLayer
10
180.4584029
20
94.9127703
40
4.0321435
50
314.7445046
51
321.7071778
0
ARC
8
back_labelLayer
10
181.4490369
20
93.9062082
40
2.6198811
50
304.8485825
51
314.8530935
0
ARC
8
back_labelLayer
10
181.9249155
20
93.2288455
40
1.792075
50
294.393314
51
304.7371502
0
ARC
8
back_labelLayer
10
181.7623398
20
93.6500974
40
2.2430155
50
281.2979345
51
293.7313643
0
ARC
8
back_labelLayer
10
181.5474189
20
94.6917002
40
3.3065461
50
272.9334734
51
281.4139438
0
ARC
8
back_labelLayer
10
181.4761806
20
95.760023
40
4.3771457
50
269.9538677
51
273.1490891
0
ARC
8
back_labelLayer
10
181.4515696
20
94.3677506
40
2.9849464
50
258.6719706
51
270.4047602
0
ARC
8
back_labelLayer
10
181.2442337
20
93.3759352
40
1.9717449
50
238.3273386
51
258.9183453
0
ARC
8
back_labelLayer
10
181.101344
20
93.1152513
40
1.67493
50
227.7689098
51
237.8050375
0
ARC
8
back_labelLayer
10
181.0566586
20
93.0528703
40
1.598731
50
192.0827705
51
227.4520684
0
ARC
8
back_labelLayer
10
181.8809044
20
93.2560537
40
2.4473875
50
179.5457484
51
192.6949147
0
ARC
8
back_labelLayer
10
181.1151855
20
93.3446667
40
1.6830154
50
115.4904586
51
182.3568144
0
ARC
8
back_labelLayer
10
181.9580558
20
91.7986717
40
3.4425815
50
101.3568001
51
117.0798788
0
ARC
8
back_labelLayer
10
182.6349622
20
88.6354309
40
6.6773054
50
92.4696209
51
101.7064895
0
ARC
8
back_labelLayer
10
182.8295276
20
85.8173898
40
9.5013931
50
91.7165003
51
92.9095693
0
ARC
8
back_labelLayer
10
180.8411057
20
95.7630673
40
2.7937
50
359.6933036
51
8.0035545
0
ARC
8
back_labelLayer
10
181.8979043
20
95.9170193
40
1.7257677
50
7.8272768
51
20.6041678
0
ARC
8
back_labelLayer
10
182.4959323
20
96.1457945
40
1.0854913
50
20.409421
51
41.4479502
0
ARC
8
back_labelLayer
10
182.5842913
20
96.1943622
40
0.9873594
50
42.7295771
51
71.0380235
0
ARC
8
back_labelLayer
10
182.3762653
20
95.6287334
40
1.5899429
50
70.5716508
51
83.9928608
0
ARC
8
back_labelLayer
10
182.2768861
20
94.8214917
40
2.4031951
50
83.6506448
51
90.1753505
0
ARC
8
back_labelLayer
10
182.2943185
20
94.0580143
40
3.1667583
50
90.4484768
51
103.7665587
0
ARC
8
back_labelLayer
10
182.6667172
20
92.4875952
40
4.7806981
50
103.6226649
51
112.431976
0
ARC
8
back_labelLayer
10
183.3049729
20
90.876035
40
6.5139142
50
112.2121803
51
115.9641468
0
ARC
8
back_labelLayer
10
182.2828099
20
93.5293239
40
4.4846162
50
106.3568591
51
118.3349664
0
ARC
8
back_labelLayer
10
182.4738255
20
92.9392631
40
5.1046175
50
104.5161785
51
106.5489317
0
ARC
8
back_labelLayer
10
182.333741
20
93.5229299
40
4.5044833
50
90.0714346
51
104.6520951
0
ARC
8
back_labelLayer
10
182.3514185
20
93.9195054
40
4.1079706
50
81.5679708
51
90.3248874
0
ARC
8
back_labelLayer
10
182.5889369
20
95.4668648
40
2.5425215
50
68.2273531
51
81.7494287
0
ARC
8
back_labelLayer
10
182.9197563
20
96.2899746
40
1.6554219
50
47.8683504
51
68.2933959
0
ARC
8
back_labelLayer
10
182.9734534
20
96.3971876
40
1.5402246
50
19.2330748
51
46.6741427
0
ARC
8
back_labelLayer
10
182.0790144
20
96.0644542
40
2.4944244
50
6.3378902
51
19.6815283
0
ARC
8
back_labelLayer
10
180.756784
20
95.8960575
40
3.8272231
50
359.802705
51
6.6583281
0
ARC
8
back_labelLayer
10
181.6856835
20
94.8635466
40
2.6780057
50
269.5792024
51
282.0413563
0
ARC
8
back_labelLayer
10
181.8810266
20
93.9970892
40
1.7898903
50
281.7120698
51
306.4594187
0
ARC
8
back_labelLayer
10
181.9676418
20
93.854646
40
1.6239241
50
306.988121
51
313.8559335
0
ARC
8
back_labelLayer
10
181.9573371
20
93.851695
40
1.6289633
50
314.1892037
51
347.4269676
0
ARC
8
back_labelLayer
10
181.1413591
20
94.0561766
40
2.4699835
50
346.9177285
51
0.2824826
0
ARC
8
back_labelLayer
10
180.5135717
20
94.0782481
40
3.0977565
50
359.817002
51
359.9989473
0
ARC
8
back_labelLayer
10
182.870043
20
87.4791292
40
7.1418733
50
91.8565033
51
96.4478297
0
ARC
8
back_labelLayer
10
182.5479669
20
90.2661613
40
4.3363077
50
96.3545538
51
102.9952934
0
ARC
8
back_labelLayer
10
182.1107707
20
92.1236882
40
2.4280561
50
102.7995518
51
113.2432871
0
ARC
8
back_labelLayer
10
181.7503591
20
92.9856587
40
1.4938409
50
113.5886773
51
121.6805132
0
ARC
8
back_labelLayer
10
181.4999549
20
93.3670178
40
1.0378795
50
120.9734143
51
172.4179896
0
ARC
8
back_labelLayer
10
181.9893887
20
93.2692556
40
1.5362738
50
171.2121787
51
180.2057777
0
ARC
8
back_labelLayer
10
181.8431168
20
93.252253
40
1.3900392
50
179.5265923
51
192.7787119
0
ARC
8
back_labelLayer
10
181.3728893
20
93.1382682
40
0.9062749
50
192.3264384
51
222.0580014
0
ARC
8
back_labelLayer
10
181.3378976
20
93.1173357
40
0.8663085
50
222.5804076
51
229.254767
0
ARC
8
back_labelLayer
10
181.4561056
20
93.2695214
40
1.0588064
50
229.7837093
51
254.2724202
0
ARC
8
back_labelLayer
10
181.6135203
20
93.7940904
40
1.6064327
50
253.9396607
51
266.4533898
0
ARC
8
back_labelLayer
10
181.663765
20
94.3732114
40
2.1875996
50
266.0782307
51
270.0589456
0
LINE
8
back_labelLayer
10
190.8710938
20
97.7051443
11
190.5722656
21
96.8789724
0
LINE
8
back_labelLayer
10
190.7773438
20
92.5781912
11
190.7773438
21
91.7168631
0
ARC
8
back_labelLayer
10
189.1232738
20
95.0179612
40
3.6352149
50
256.424394
51
270.4889698
0
ARC
8
back_labelLayer
10
188.8327866
20
93.8842072
40
2.4650047
50
221.7976422
51
256.8020409
0
ARC
8
back_labelLayer
10
189.1140892
20
94.0920505
40
2.8134329
50
196.0166703
51
221.1349315
0
ARC
8
back_labelLayer
10
190.5278995
20
94.5241828
40
4.2916679
50
183.5913751
51
196.3539482
0
ARC
8
back_labelLayer
10
192.1117342
20
94.6637141
40
5.8812689
50
179.938879
51
183.9815045
0
ARC
8
back_labelLayer
10
191.5970909
20
94.7045419
40
5.3667334
50
169.897848
51
180.3689025
0
ARC
8
back_labelLayer
10
189.7288103
20
95.0501449
40
3.46682
50
153.0875062
51
170.1051237
0
ARC
8
back_labelLayer
10
189.0199437
20
95.3888614
40
2.6814778
50
138.6550104
51
152.6853581
0
ARC
8
back_labelLayer
10
188.8876403
20
95.4852755
40
2.518506
50
101.4912894
51
138.3133959
0
ARC
8
back_labelLayer
10
189.1913736
20
94.2211713
40
3.8180555
50
89.589172
51
102.1787765
0
ARC
8
back_labelLayer
10
189.21473
20
93.6498031
40
4.3893274
50
77.7702497
51
89.9475253
0
ARC
8
back_labelLayer
10
189.1316475
20
93.1914485
40
4.8549058
50
74.6797288
51
77.9578633
0
ARC
8
back_labelLayer
10
189.580428
20
94.8173033
40
3.1682547
50
70.0945641
51
74.738659
0
ARC
8
back_labelLayer
10
190.0072764
20
95.9870872
40
1.9230324
50
63.5033897
51
70.1860855
0
ARC
8
back_labelLayer
10
190.2132121
20
96.417959
40
1.4455638
50
62.9283816
51
63.1892037
0
ARC
8
back_labelLayer
10
188.9744407
20
92.8578016
40
4.326992
50
68.3294447
51
74.8831287
0
ARC
8
back_labelLayer
10
188.7461509
20
92.0483115
40
5.1680141
50
74.7801998
51
77.4497259
0
ARC
8
back_labelLayer
10
188.9858308
20
93.17332
40
4.0178191
50
77.2998899
51
81.73451
0
ARC
8
back_labelLayer
10
189.1606364
20
94.3913529
40
2.7873091
50
81.6910386
51
87.507868
0
ARC
8
back_labelLayer
10
189.1943707
20
95.0217562
40
2.1560444
50
87.6750501
51
89.9749727
0
ARC
8
back_labelLayer
10
189.1470956
20
95.0208438
40
2.1574956
50
88.7194153
51
112.5667653
0
ARC
8
back_labelLayer
10
188.9937903
20
95.5277097
40
1.631466
50
114.4265695
51
161.6632823
0
ARC
8
back_labelLayer
10
190.5167168
20
94.9316187
40
3.2657465
50
160.1418231
51
175.1368058
0
ARC
8
back_labelLayer
10
192.6128409
20
94.6962396
40
5.3745794
50
174.5309694
51
180.1549277
0
ARC
8
back_labelLayer
10
191.9487461
20
94.657381
40
4.7105276
50
179.7041152
51
188.0743712
0
ARC
8
back_labelLayer
10
190.2520746
20
94.4091396
40
2.9958176
50
187.931529
51
200.3885643
0
ARC
8
back_labelLayer
10
189.3346716
20
94.0692871
40
2.0174894
50
200.4183306
51
216.6392485
0
ARC
8
back_labelLayer
10
188.9500701
20
93.7943456
40
1.5448292
50
216.9695252
51
261.3103063
0
ARC
8
back_labelLayer
10
189.1198031
20
94.5856776
40
2.3532155
50
260.1359782
51
270.2691969
0
ARC
8
back_labelLayer
10
189.1119683
20
96.3040992
40
4.071655
50
270.2658342
51
286.2891394
0
ARC
8
back_labelLayer
10
188.8644355
20
97.2272255
40
5.0271998
50
286.0460783
51
292.3653814
0
ARC
8
back_labelLayer
10
189.5236383
20
94.1832006
40
2.7666945
50
282.0344333
51
296.9454504
0
ARC
8
back_labelLayer
10
189.2391042
20
95.465479
40
4.0801314
50
272.5980297
51
282.1878686
0
ARC
8
back_labelLayer
10
189.157504
20
96.7169204
40
5.3340428
50
269.9655509
51
272.8643153
0
LINE
8
back_labelLayer
10
193.2148438
20
94.7871756
11
193.2617188
21
94.7871756
0
LINE
8
back_labelLayer
10
194.0292969
20
95.7246756
11
196.1035156
21
97.9219412
0
LINE
8
back_labelLayer
10
196.1035156
20
97.9219412
11
197.2578125
21
97.9219412
0
LINE
8
back_labelLayer
10
197.2578125
20
97.9219412
11
194.65625
21
95.1856131
0
LINE
8
back_labelLayer
10
194.65625
20
95.1856131
11
197.4394531
21
91.5000662
0
LINE
8
back_labelLayer
10
197.4394531
20
91.5000662
11
196.2617188
21
91.5000662
0
LINE
8
back_labelLayer
10
196.2617188
20
91.5000662
11
193.9941406
21
94.5352224
0
LINE
8
back_labelLayer
10
193.9941406
20
94.5352224
11
193.2617188
21
93.9024099
0
LINE
8
back_labelLayer
10
193.2617188
20
93.9024099
11
193.2617188
21
91.5000662
0
LINE
8
back_labelLayer
10
193.2617188
20
91.5000662
11
192.3007813
21
91.5000662
0
LINE
8
back_labelLayer
10
192.3007813
20
91.5000662
11
192.3007813
21
100.6172537
0
LINE
8
back_labelLayer
10
192.3007813
20
100.6172537
11
193.2617188
21
100.6172537
0
LINE
8
back_labelLayer
10
193.2617188
20
100.6172537
11
193.2617188
21
95.7832693
0
ARC
8
back_labelLayer
10
197.9613981
20
91.4605407
40
5.7579063
50
142.3233098
51
144.7075007
0
ARC
8
back_labelLayer
10
201.0278146
20
89.0953581
40
9.6305021
50
140.433157
51
142.3365947
0
ARC
8
back_labelLayer
10
205.0245086
20
85.80535
40
14.8071472
50
139.2799497
51
140.4702965
0
ARC
8
back_labelLayer
10
209.6430178
20
81.8337452
40
20.8984743
50
138.3417333
51
139.2877472
0
ARC
8
back_labelLayer
10
186.7799073
20
95.7953991
40
6.4818228
50
358.2739657
51
359.8927793
0
ARC
8
back_labelLayer
10
181.7380391
20
95.9359007
40
11.525641
50
357.5041615
51
358.330763
0
ARC
8
back_labelLayer
10
174.1889895
20
96.2693472
40
19.0820504
50
356.6325274
51
357.490971
0
ARC
8
back_labelLayer
10
161.6489128
20
97.000698
40
31.6434346
50
356.0328996
51
356.6443179
0
ARC
8
back_labelLayer
10
152.0864506
20
97.6479644
40
41.2277678
50
356.0210568
51
356.0549279
0
LINE
8
right_outsideCutPath
10
376
20
126
11
376
21
105.02
0
LINE
8
right_outsideCutPath
10
376
20
105.02
11
373
21
105.02
0
LINE
8
right_outsideCutPath
10
373
20
105.02
11
373
21
86.98
0
LINE
8
right_outsideCutPath
10
373
20
86.98
11
376
21
86.98
0
LINE
8
right_outsideCutPath
10
376
20
86.98
11
376
21
68.94
0
LINE
8
right_outsideCutPath
10
376
20
68.94
11
376
21
66
0
LINE
8
right_outsideCutPath
10
376
20
66
11
391.82
21
66
0
LINE
8
right_outsideCutPath
10
391.82
20
66
11
391.82
21
69
0
LINE
8
right_outsideCutPath
10
391.82
20
69
11
409.86
21
69
0
LINE
8
right_outsideCutPath
10
409.86
20
69
11
409.86
21
66
0
LINE
8
right_outsideCutPath
10
409.86
20
66
11
427.9
21
66
0
LINE
8
right_outsideCutPath
10
427.9
20
66
11
427.9
21
69
0
LINE
8
right_outsideCutPath
10
427.9
20
69
11
445.94
21
69
0
LINE
8
right_outsideCutPath
10
445.94
20
69
11
445.94
21
66
0
LINE
8
right_outsideCutPath
10
445.94
20
66
11
463.98
21
66
0
LINE
8
right_outsideCutPath
10
463.98
20
66
11
463.98
21
69
0
LINE
8
right_outsideCutPath
10
463.98
20
69
11
482.02
21
69
0
LINE
8
right_outsideCutPath
10
482.02
20
69
11
482.02
21
66
0
LINE
8
right_outsideCutPath
10
482.02
20
66
11
500.06
21
66
0
LINE
8
right_outsideCutPath
10
500.06
20
66
11
500.06
21
69
0
LINE
8
right_outsideCutPath
10
500.06
20
69
11
518.1
21
69
0
LINE
8
right_outsideCutPath
10
518.1
20
69
11
518.1
21
66
0
LINE
8
right_outsideCutPath
10
518.1
20
66
11
536.14
21
66
0
LINE
8
right_outsideCutPath
10
536.14
20
66
11
536.14
21
69
0
LINE
8
right_outsideCutPath
10
536.14
20
69
11
554.18
21
69
0
LINE
8
right_outsideCutPath
10
554.18
20
69
11
554.18
21
66
0
LINE
8
right_outsideCutPath
10
554.18
20
66
11
570
21
66
0
LINE
8
right_outsideCutPath
10
570
20
66
11
570
21
86.98
0
LINE
8
right_outsideCutPath
10
570
20
86.98
11
573
21
86.98
0
LINE
8
right_outsideCutPath
10
573
20
86.98
11
573
21
105.02
0
LINE
8
right_outsideCutPath
10
573
20
105.02
11
570
21
105.02
0
LINE
8
right_outsideCutPath
10
570
20
105.02
11
570
21
123.06
0
LINE
8
right_outsideCutPath
10
570
20
123.06
11
570
21
126
0
LINE
8
right_outsideCutPath
10
570
20
126
11
554.18
21
126
0
LINE
8
right_outsideCutPath
10
554.18
20
126
11
554.18
21
123
0
LINE
8
right_outsideCutPath
10
554.18
20
123
11
536.14
21
123
0
LINE
8
right_outsideCutPath
10
536.14
20
123
11
536.14
21
126
0
LINE
8
right_outsideCutPath
10
536.14
20
126
11
518.1
21
126
0
LINE
8
right_outsideCutPath
10
518.1
20
126
11
518.1
21
123
0
LINE
8
right_outsideCutPath
10
518.1
20
123
11
500.06
21
123
0
LINE
8
right_outsideCutPath
10
500.06
20
123
11
500.06
21
126
0
LINE
8
right_outsideCutPath
10
500.06
20
126
11
482.02
21
126
0
LINE
8
right_outsideCutPath
10
482.02
20
126
11
482.02
21
123
0
LINE
8
right_outsideCutPath
10
482.02
20
123
11
463.98
21
123
0
LINE
8
right_outsideCutPath
10
463.98
20
123
11
463.98
21
126
0
LINE
8
right_outsideCutPath
10
463.98
20
126
11
445.94
21
126
0
LINE
8
right_outsideCutPath
10
445.94
20
126
11
445.94
21
123
0
LINE
8
right_outsideCutPath
10
445.94
20
123
11
427.9
21
123
0
LINE
8
right_outsideCutPath
10
427.9
20
123
11
427.9
21
126
0
LINE
8
right_outsideCutPath
10
427.9
20
126
11
409.86
21
126
0
LINE
8
right_outsideCutPath
10
409.86
20
126
11
409.86
21
123
0
LINE
8
right_outsideCutPath
10
409.86
20
123
11
391.82
21
123
0
LINE
8
right_outsideCutPath
10
391.82
20
123
11
391.82
21
126
0
LINE
8
right_outsideCutPath
10
391.82
20
126
11
376
21
126
0
LINE
8
right_labelLayer
10
464.2841797
20
99.3515978
11
464.1494141
21
98.4492541
0
LINE
8
right_labelLayer
10
461.5595703
20
96.3281603
11
461.5595703
21
92.8828478
0
LINE
8
right_labelLayer
10
461.5595703
20
92.8828478
11
460.5869141
21
92.8828478
0
LINE
8
right_labelLayer
10
460.5869141
20
92.8828478
11
460.5869141
21
99.3047228
0
LINE
8
right_labelLayer
10
460.5869141
20
99.3047228
11
461.3896484
21
99.3047228
0
LINE
8
right_labelLayer
10
461.3896484
20
99.3047228
11
461.5009766
21
98.1152697
0
LINE
8
right_labelLayer
10
461.5009766
20
98.1152697
11
461.5478516
21
98.1152697
0
ARC
8
right_labelLayer
10
463.5265872
20
94.9566308
40
4.4652907
50
84.9922934
51
90.1281292
0
ARC
8
right_labelLayer
10
463.633818
20
96.1580478
40
3.2590999
50
78.489206
51
85.026578
0
ARC
8
right_labelLayer
10
463.2175864
20
94.2649205
40
4.2868345
50
77.4454139
51
81.6359922
0
ARC
8
right_labelLayer
10
463.4043702
20
95.5523689
40
2.9859107
50
81.5884597
51
87.1916805
0
ARC
8
right_labelLayer
10
463.4449301
20
96.2556505
40
2.2814946
50
87.3437172
51
89.965871
0
ARC
8
right_labelLayer
10
463.4355096
20
96.8518542
40
1.685325
50
89.633529
51
137.0880829
0
ARC
8
right_labelLayer
10
463.8489861
20
96.3868589
40
2.3055145
50
135.6207307
51
138.8377984
0
ARC
8
right_labelLayer
10
463.7885143
20
96.4458957
40
2.2211354
50
138.9575867
51
174.5422106
0
ARC
8
right_labelLayer
10
464.5118885
20
96.3327107
40
2.9523215
50
173.6907919
51
180.0883096
0
ARC
8
right_labelLayer
10
464.409626
20
96.5029568
40
3.2847079
50
139.413952
51
150.6032546
0
ARC
8
right_labelLayer
10
463.820661
20
97.0076374
40
2.5090906
50
124.2321211
51
139.416124
0
ARC
8
right_labelLayer
10
463.5057614
20
97.4829789
40
1.9389618
50
89.679674
51
124.4405597
0
LINE
8
right_labelLayer
10
466.4580078
20
99.3047228
11
466.4580078
21
92.8828478
0
LINE
8
right_labelLayer
10
466.4580078
20
92.8828478
11
465.4853516
21
92.8828478
0
LINE
8
right_labelLayer
10
465.4853516
20
92.8828478
11
465.4853516
21
99.3047228
0
LINE
8
right_labelLayer
10
465.4853516
20
99.3047228
11
466.4580078
21
99.3047228
0
ARC
8
right_labelLayer
10
466.4811336
20
101.0516243
40
1.0778339
50
170.8452476
51
180.3544122
0
ARC
8
right_labelLayer
10
466.077635
20
101.1190881
40
0.6687457
50
155.9679298
51
171.0514946
0
ARC
8
right_labelLayer
10
465.8821946
20
101.2057937
40
0.4549362
50
133.7879252
51
155.9171857
0
ARC
8
right_labelLayer
10
465.9543503
20
101.1260228
40
0.5624631
50
92.6446546
51
133.4710021
0
ARC
8
right_labelLayer
10
465.9771405
20
100.9470152
40
0.7424733
50
89.9692443
51
93.7641536
0
ARC
8
right_labelLayer
10
465.9864197
20
101.1164804
40
0.5730769
50
46.3708348
51
90.8879139
0
ARC
8
right_labelLayer
10
466.0434537
20
101.1753607
40
0.4911058
50
17.7252486
51
46.4473265
0
ARC
8
right_labelLayer
10
465.7775004
20
101.0837753
40
0.7723423
50
4.9426659
51
18.1901932
0
ARC
8
right_labelLayer
10
465.439142
20
101.0471947
40
1.1126181
50
359.8847744
51
5.31818
0
ARC
8
right_labelLayer
10
465.545434
20
101.0381222
40
1.006347
50
349.8344246
51
0.3891471
0
ARC
8
right_labelLayer
10
465.9117974
20
100.9697765
40
0.6336776
50
332.632169
51
350.0706087
0
ARC
8
right_labelLayer
10
466.0543948
20
100.8993616
40
0.4746805
50
313.6153908
51
332.2678154
0
ARC
8
right_labelLayer
10
465.9856713
20
100.9619375
40
0.5674292
50
269.1788288
51
314.280739
0
ARC
8
right_labelLayer
10
465.9710919
20
101.012381
40
0.617848
50
250.5000603
51
270.5978888
0
ARC
8
right_labelLayer
10
465.9523935
20
100.942462
40
0.5457276
50
225.1300567
51
249.900185
0
ARC
8
right_labelLayer
10
465.9231211
20
100.9101255
40
0.5021629
50
197.7934066
51
224.894131
0
ARC
8
right_labelLayer
10
466.1971184
20
101.0040213
40
0.791767
50
184.9925882
51
198.2040513
0
ARC
8
right_labelLayer
10
466.5516778
20
101.042563
40
1.1483601
50
179.8805448
51
185.3687518
0
LINE
8
right_labelLayer
10
471.5556641
20
99.3047228
11
473.7763672
21
99.3047228
0
LINE
8
right_labelLayer
10
473.7763672
20
99.3047228
11
473.7763672
21
98.6894884
0
LINE
8
right_labelLayer
10
473.7763672
20
98.6894884
11
472.5869141
21
98.5488634
0
LINE
8
right_labelLayer
10
470.3955078
20
93.9023791
11
471.5322266
21
93.9023791
0
LINE
8
right_labelLayer
10
471.2216797
20
93.0293322
11
470.0556641
21
93.0293322
0
ARC
8
right_labelLayer
10
471.3474189
20
97.5679414
40
1.5806822
50
29.4583921
51
38.3576804
0
ARC
8
right_labelLayer
10
470.7014822
20
97.1992019
40
2.3244532
50
23.1845517
51
29.542204
0
ARC
8
right_labelLayer
10
470.0847944
20
96.9257358
40
2.9990126
50
21.2507909
51
23.3487608
0
ARC
8
right_labelLayer
10
471.1327629
20
97.3425219
40
1.8712583
50
6.8505143
51
20.9871995
0
ARC
8
right_labelLayer
10
470.6057665
20
97.2710691
40
2.4030286
50
359.8710362
51
7.0432357
0
ARC
8
right_labelLayer
10
470.7791384
20
97.2424754
40
2.2297712
50
342.5649978
51
0.5957657
0
ARC
8
right_labelLayer
10
471.1903784
20
97.1289172
40
1.8034611
50
310.6097657
51
342.0923769
0
ARC
8
right_labelLayer
10
470.9597717
20
97.3971542
40
2.1571989
50
284.931571
51
310.6222763
0
ARC
8
right_labelLayer
10
470.6711955
20
98.408359
40
3.2086678
50
272.5334736
51
285.2579877
0
ARC
8
right_labelLayer
10
470.5970018
20
99.4216782
40
4.2243779
50
269.9691413
51
272.931276
0
ARC
8
right_labelLayer
10
470.5877884
20
98.323227
40
3.1259338
50
263.4836445
51
270.1271716
0
ARC
8
right_labelLayer
10
470.5368529
20
97.8394975
40
2.6395524
50
259.4962766
51
263.3905106
0
ARC
8
right_labelLayer
10
470.8520017
20
93.7074561
40
1.7307979
50
117.3934666
51
128.4095245
0
ARC
8
right_labelLayer
10
470.4064291
20
94.2602217
40
1.0208477
50
128.088195
51
147.1400144
0
ARC
8
right_labelLayer
10
470.1663791
20
94.4213147
40
0.7318163
50
147.5369392
51
180.2591989
0
ARC
8
right_labelLayer
10
469.9386479
20
94.4117739
40
0.5041161
50
179.291892
51
198.3580686
0
ARC
8
right_labelLayer
10
469.8442616
20
94.3869683
40
0.4067678
50
199.2291879
51
239.5691196
0
ARC
8
right_labelLayer
10
469.9223912
20
94.4948882
40
0.539543
50
238.2197789
51
239.8462927
0
ARC
8
right_labelLayer
10
469.984955
20
94.6235378
40
0.6822922
50
240.7302324
51
254.5026952
0
ARC
8
right_labelLayer
10
470.1711716
20
95.2652271
40
1.3504311
50
254.1636384
51
262.2123264
0
ARC
8
right_labelLayer
10
470.3186714
20
96.2954334
40
2.3911312
50
262.05552
51
267.2084009
0
ARC
8
right_labelLayer
10
470.3899334
20
97.6023523
40
3.6999776
50
267.0918559
51
270.0863228
0
ARC
8
right_labelLayer
10
471.5534897
20
89.9209616
40
3.9814742
50
81.574402
51
90.3059903
0
ARC
8
right_labelLayer
10
471.7718843
20
91.3452733
40
2.5405456
50
68.3671191
51
81.7399437
0
ARC
8
right_labelLayer
10
472.0571253
20
92.0742438
40
1.7577673
50
52.1879451
51
68.2500743
0
ARC
8
right_labelLayer
10
472.2567182
20
92.3431804
40
1.4229537
50
8.6201291
51
51.8982617
0
ARC
8
right_labelLayer
10
471.5571832
20
92.1951652
40
2.1371744
50
359.7430879
51
9.7326459
0
ARC
8
right_labelLayer
10
471.5885171
20
92.1591121
40
2.1059852
50
340.5268813
51
0.7201681
0
ARC
8
right_labelLayer
10
471.8979356
20
92.0820714
40
1.7888436
50
302.9903728
51
339.5494431
0
ARC
8
right_labelLayer
10
471.5738636
20
92.4937101
40
2.3110592
50
303.1867453
51
304.1726087
0
ARC
8
right_labelLayer
10
471.2704103
20
93.0189379
40
2.9169114
50
286.2542199
51
302.5279884
0
ARC
8
right_labelLayer
10
470.7195213
20
94.8360292
40
4.8156087
50
276.4939992
51
286.4953466
0
ARC
8
right_labelLayer
10
470.3758064
20
97.7093072
40
7.7093426
50
269.7544984
51
276.6169554
0
ARC
8
right_labelLayer
10
470.317102
20
95.4495131
40
5.4495383
50
262.5634902
51
270.2699068
0
ARC
8
right_labelLayer
10
470.0501961
20
93.4712004
40
3.453331
50
251.2102033
51
262.7063923
0
ARC
8
right_labelLayer
10
469.6654916
20
92.3420339
40
2.2604294
50
235.9668216
51
251.2229017
0
ARC
8
right_labelLayer
10
469.2577377
20
91.7603284
40
1.5502024
50
208.903617
51
236.423153
0
ARC
8
right_labelLayer
10
469.2951708
20
91.7446374
40
1.5757101
50
182.2079908
51
207.7461672
0
ARC
8
right_labelLayer
10
469.7716622
20
91.7922349
40
2.0538891
50
179.9785438
51
183.0227078
0
ARC
8
right_labelLayer
10
469.204783
20
91.8190966
40
1.4872385
50
138.3916167
51
181.0052657
0
ARC
8
right_labelLayer
10
469.3618371
20
91.6779515
40
1.6983938
50
113.8121326
51
138.3496219
0
ARC
8
right_labelLayer
10
469.6597485
20
91.0346394
40
2.4072561
50
102.2870611
51
114.1172949
0
ARC
8
right_labelLayer
10
469.5661398
20
94.305328
40
1.0094899
50
216.5861421
51
245.4968716
0
ARC
8
right_labelLayer
10
469.7104839
20
94.4278079
40
1.1984578
50
215.4649337
51
217.1748205
0
ARC
8
right_labelLayer
10
469.4699457
20
94.2540712
40
0.9017458
50
182.1767379
51
215.341533
0
ARC
8
right_labelLayer
10
469.6843304
20
94.2770649
40
1.1169477
50
179.9838832
51
182.9377112
0
ARC
8
right_labelLayer
10
469.6796322
20
94.2867814
40
1.1122892
50
161.7226161
51
180.4843343
0
ARC
8
right_labelLayer
10
469.5573344
20
94.3201532
40
0.9857178
50
144.4963509
51
161.3351101
0
ARC
8
right_labelLayer
10
469.8833248
20
94.0771985
40
1.3922222
50
132.7258731
51
144.1480304
0
ARC
8
right_labelLayer
10
470.4058229
20
93.5192314
40
2.1566263
50
125.2212676
51
132.8654987
0
ARC
8
right_labelLayer
10
470.9310562
20
92.7898872
40
3.0553827
50
121.2352113
51
125.3795488
0
ARC
8
right_labelLayer
10
469.9999036
20
96.9774405
40
1.7051452
50
215.1640888
51
247.4747894
0
ARC
8
right_labelLayer
10
470.3181527
20
97.2342822
40
2.1134043
50
212.4712708
51
215.8875177
0
ARC
8
right_labelLayer
10
470.2344963
20
97.1744342
40
2.0107037
50
183.0160731
51
212.3123155
0
ARC
8
right_labelLayer
10
470.6757767
20
97.2236175
40
2.4540974
50
179.9760181
51
183.6206942
0
ARC
8
right_labelLayer
10
471.0317483
20
97.2483805
40
2.8101689
50
166.819593
51
180.4839499
0
ARC
8
right_labelLayer
10
470.0995037
20
97.4837511
40
1.8488881
50
132.3287739
51
167.3340751
0
ARC
8
right_labelLayer
10
470.2242255
20
97.3044734
40
2.0656095
50
106.2189005
51
131.5377521
0
ARC
8
right_labelLayer
10
470.539795
20
96.2826833
40
3.1349245
50
93.6329817
51
106.5408696
0
ARC
8
right_labelLayer
10
470.6428145
20
95.1260881
40
4.2958247
50
89.9380282
51
94.0267731
0
ARC
8
right_labelLayer
10
470.6594943
20
95.6936692
40
3.7282605
50
82.5852258
51
90.1849288
0
ARC
8
right_labelLayer
10
470.7734146
20
96.5750909
40
2.8395079
50
74.0089192
51
82.5694669
0
ARC
8
right_labelLayer
10
469.6320579
20
91.7914378
40
0.9768748
50
179.2207828
51
200.9355106
0
ARC
8
right_labelLayer
10
469.5158857
20
91.7645384
40
0.8589166
50
202.0286872
51
236.1457594
0
ARC
8
right_labelLayer
10
469.6910194
20
91.9869196
40
1.1413622
50
235.0635676
51
238.5039582
0
ARC
8
right_labelLayer
10
469.894505
20
92.350389
40
1.5576789
50
239.1066008
51
254.4863109
0
ARC
8
right_labelLayer
10
470.1658886
20
93.2861161
40
2.5319258
50
254.2324423
51
263.4937082
0
ARC
8
right_labelLayer
10
470.3363525
20
94.7299304
40
3.9857609
50
263.4108489
51
270.1457342
0
ARC
8
right_labelLayer
10
470.3544876
20
95.7406754
40
4.9964994
50
269.9082945
51
270.0000525
0
ARC
8
right_labelLayer
10
470.3778009
20
97.2828717
40
6.5387373
50
269.7957564
51
275.3990873
0
ARC
8
right_labelLayer
10
470.6225237
20
94.7705227
40
4.0145143
50
275.2957006
51
283.3515841
0
ARC
8
right_labelLayer
10
471.0212298
20
93.1283227
40
2.3246455
50
283.1370735
51
295.8573035
0
ARC
8
right_labelLayer
10
471.3166536
20
92.4833678
40
1.6154917
50
296.404847
51
301.8009309
0
ARC
8
right_labelLayer
10
471.4324895
20
92.3237054
40
1.4188276
50
301.2230521
51
318.6238272
0
ARC
8
right_labelLayer
10
471.6937353
20
92.0823831
40
1.0633115
50
319.0765393
51
1.1406878
0
ARC
8
right_labelLayer
10
471.4409016
20
92.1139761
40
1.3159757
50
359.5460992
51
10.9904864
0
ARC
8
right_labelLayer
10
471.9492121
20
92.2173655
40
0.7972906
50
10.6609371
51
30.9361145
0
ARC
8
right_labelLayer
10
472.1103846
20
92.306809
40
0.6130957
50
31.509603
51
58.0777113
0
ARC
8
right_labelLayer
10
471.9593334
20
92.0363448
40
0.9226463
50
58.9971827
51
73.8586696
0
ARC
8
right_labelLayer
10
471.6540124
20
91.0368203
40
1.9677104
50
73.4099726
51
81.5906809
0
ARC
8
right_labelLayer
10
471.395327
20
89.3627891
40
3.6615911
50
81.4171898
51
86.5757103
0
ARC
8
right_labelLayer
10
471.2367905
20
86.840366
40
6.1889847
50
86.5054417
51
90.1398913
0
ARC
8
right_labelLayer
10
470.0417539
20
90.7935102
40
2.2358652
50
89.6435401
51
100.0208816
0
ARC
8
right_labelLayer
10
469.9012268
20
91.5579767
40
1.4586183
50
99.8103054
51
116.8229444
0
ARC
8
right_labelLayer
10
469.7643364
20
91.8466605
40
1.1392544
50
117.2304444
51
130.502363
0
ARC
8
right_labelLayer
10
469.6940534
20
91.93699
40
1.0249358
50
130.794473
51
169.0413581
0
ARC
8
right_labelLayer
10
470.2116279
20
91.8150994
40
1.5563891
50
168.2580642
51
180.3819984
0
ARC
8
right_labelLayer
10
471.081154
20
97.2335596
40
1.8985924
50
179.5617319
51
191.652928
0
ARC
8
right_labelLayer
10
470.4210423
20
97.0909391
40
1.2232958
50
191.355523
51
213.3660168
0
ARC
8
right_labelLayer
10
470.2625136
20
96.9994034
40
1.0406088
50
213.9573784
51
227.7971132
0
ARC
8
right_labelLayer
10
470.4004363
20
97.1666832
40
1.2572167
50
228.2620821
51
254.7341102
0
ARC
8
right_labelLayer
10
470.5766399
20
97.7707121
40
1.8863578
50
254.4016348
51
267.4348936
0
ARC
8
right_labelLayer
10
470.6226153
20
98.3873149
40
2.5044676
50
267.0154665
51
270.0322156
0
ARC
8
right_labelLayer
10
470.65266
20
98.0016275
40
2.1189732
50
269.2256608
51
284.3773503
0
ARC
8
right_labelLayer
10
470.9414727
20
96.995405
40
1.0729672
50
282.7796786
51
346.4828402
0
ARC
8
right_labelLayer
10
470.0779919
20
97.2399906
40
1.9700268
50
345.4362465
51
0.7465919
0
ARC
8
right_labelLayer
10
469.9566173
20
97.2955677
40
2.0914481
50
359.180651
51
15.0431737
0
ARC
8
right_labelLayer
10
470.9042908
20
97.5720142
40
1.1046999
50
13.9535587
51
77.667375
0
ARC
8
right_labelLayer
10
470.6323938
20
96.5976451
40
2.11544
50
76.1095378
51
90.7028214
0
ARC
8
right_labelLayer
10
470.5916961
20
96.6720771
40
2.0409021
50
89.585931
51
101.333435
0
ARC
8
right_labelLayer
10
470.4458459
20
97.3677135
40
1.3301833
50
101.0620337
51
121.9739087
0
ARC
8
right_labelLayer
10
470.3433456
20
97.5521069
40
1.1195381
50
122.5211393
51
134.9967207
0
ARC
8
right_labelLayer
10
470.3855474
20
97.5268215
40
1.1673195
50
135.5839838
51
163.0015985
0
ARC
8
right_labelLayer
10
471.0019801
20
97.3247761
40
1.8159356
50
162.5911813
51
175.7343048
0
ARC
8
right_labelLayer
10
471.7412821
20
97.2519428
40
2.5586679
50
175.339271
51
180.0864506
0
LINE
8
right_labelLayer
10
480.4619141
20
92.8828478
11
479.4892578
21
92.8828478
0
LINE
8
right_labelLayer
10
479.4892578
20
92.8828478
11
479.4892578
21
97.0371447
0
LINE
8
right_labelLayer
10
476.0673828
20
96.2402697
11
476.0673828
21
92.8828478
0
LINE
8
right_labelLayer
10
476.0673828
20
92.8828478
11
475.0947266
21
92.8828478
0
LINE
8
right_labelLayer
10
475.0947266
20
92.8828478
11
475.0947266
21
102.0000353
0
LINE
8
right_labelLayer
10
475.0947266
20
102.0000353
11
476.0673828
21
102.0000353
0
LINE
8
right_labelLayer
10
476.0673828
20
102.0000353
11
476.0673828
21
99.2402697
0
LINE
8
right_labelLayer
10
476.0205078
20
98.4140978
11
476.0791016
21
98.4140978
0
LINE
8
right_labelLayer
10
480.4619141
20
97.0723009
11
480.4619141
21
92.8828478
0
ARC
8
right_labelLayer
10
476.7398417
20
97.0529114
40
2.7494613
50
359.6714377
51
8.6877277
0
ARC
8
right_labelLayer
10
477.7588689
20
97.2145216
40
1.7177251
50
8.4931688
51
22.6579712
0
ARC
8
right_labelLayer
10
478.276608
20
97.4296768
40
1.1570609
50
22.7024636
51
42.3419466
0
ARC
8
right_labelLayer
10
478.334806
20
97.4558569
40
1.0965906
50
43.3790826
51
71.5386074
0
ARC
8
right_labelLayer
10
478.1171846
20
96.8477702
40
1.7423518
50
71.0827676
51
84.3691548
0
ARC
8
right_labelLayer
10
478.0194921
20
96.0171511
40
2.5785963
50
84.019816
51
90.1510225
0
ARC
8
right_labelLayer
10
477.9917331
20
95.6524151
40
2.943398
50
89.5919484
51
100.3595211
0
ARC
8
right_labelLayer
10
477.7833127
20
96.74769
40
1.8285162
50
100.1067785
51
118.0847599
0
ARC
8
right_labelLayer
10
477.5713359
20
97.16364
40
1.3617782
50
118.4551334
51
139.6705879
0
ARC
8
right_labelLayer
10
477.784151
20
97.0181784
40
1.6183774
50
140.6208301
51
160.5048649
0
ARC
8
right_labelLayer
10
478.9059017
20
96.6029099
40
2.814456
50
160.1566894
51
171.5313037
0
ARC
8
right_labelLayer
10
480.7209333
20
96.3153373
40
4.6520795
50
171.3202155
51
178.3406773
0
ARC
8
right_labelLayer
10
482.3447627
20
96.242791
40
6.2773802
50
178.1079722
51
180.0230129
0
ARC
8
right_labelLayer
10
467.3177391
20
99.2298349
40
8.7496499
50
357.8674237
51
0.0683305
0
ARC
8
right_labelLayer
10
470.2902866
20
99.1164211
40
5.7749414
50
354.9828039
51
357.894422
0
ARC
8
right_labelLayer
10
472.2529561
20
98.9455135
40
3.8048454
50
351.9713565
51
354.9618426
0
ARC
8
right_labelLayer
10
477.7266158
20
97.3835206
40
1.9432942
50
119.8315832
51
147.9725932
0
ARC
8
right_labelLayer
10
477.9619228
20
97.0220477
40
2.3740474
50
116.6658011
51
120.4183294
0
ARC
8
right_labelLayer
10
478.0058668
20
96.9066195
40
2.4969514
50
96.6652577
51
116.378227
0
ARC
8
right_labelLayer
10
478.1005352
20
96.2534532
40
3.1567438
50
89.8927306
51
96.995895
0
ARC
8
right_labelLayer
10
478.1308084
20
95.4640761
40
3.9461906
50
80.686286
51
90.3537369
0
ARC
8
right_labelLayer
10
478.3765255
20
96.9093333
40
2.4802343
50
65.6022834
51
80.8844314
0
ARC
8
right_labelLayer
10
478.6715813
20
97.5738677
40
1.7531739
50
46.7401012
51
65.4130355
0
ARC
8
right_labelLayer
10
478.6916388
20
97.637191
40
1.6935578
50
19.2204257
51
45.7660745
0
ARC
8
right_labelLayer
10
477.7151095
20
97.2751849
40
2.7349038
50
6.4734097
51
19.6467774
0
ARC
8
right_labelLayer
10
476.2559831
20
97.0873863
40
4.205958
50
359.7944994
51
6.7744191
0
LINE
8
right_labelLayer
10
485.4130859
20
93.6855822
11
485.4130859
21
92.9414416
0
LINE
8
right_labelLayer
10
482.5302734
20
94.7285509
11
482.5302734
21
98.5488634
0
LINE
8
right_labelLayer
10
482.5302734
20
98.5488634
11
481.6103516
21
98.5488634
0
LINE
8
right_labelLayer
10
481.6103516
20
98.5488634
11
481.6103516
21
99.0176134
0
LINE
8
right_labelLayer
10
481.6103516
20
99.0176134
11
482.5302734
21
99.4219103
0
LINE
8
right_labelLayer
10
482.5302734
20
99.4219103
11
482.9404297
21
100.7930041
0
LINE
8
right_labelLayer
10
482.9404297
20
100.7930041
11
483.5029297
21
100.7930041
0
LINE
8
right_labelLayer
10
483.5029297
20
100.7930041
11
483.5029297
21
99.3047228
0
LINE
8
right_labelLayer
10
483.5029297
20
99.3047228
11
485.3662109
21
99.3047228
0
LINE
8
right_labelLayer
10
485.3662109
20
99.3047228
11
485.3662109
21
98.5488634
0
LINE
8
right_labelLayer
10
485.3662109
20
98.5488634
11
483.5029297
21
98.5488634
0
LINE
8
right_labelLayer
10
483.5029297
20
98.5488634
11
483.5029297
21
94.7695666
0
ARC
8
right_labelLayer
10
484.5408514
20
96.7627227
40
3.1943349
50
269.8803316
51
278.3028128
0
ARC
8
right_labelLayer
10
484.5713763
20
96.513482
40
2.9433042
50
278.4154565
51
279.0081992
0
ARC
8
right_labelLayer
10
484.212805
20
98.8041686
40
5.261883
50
278.9590101
51
280.5103943
0
ARC
8
right_labelLayer
10
484.5544435
20
96.9710784
40
3.3972294
50
280.4846699
51
282.6267916
0
ARC
8
right_labelLayer
10
484.8539834
20
95.6403032
40
2.0331605
50
282.58766
51
285.5794473
0
ARC
8
right_labelLayer
10
485.0035315
20
95.0901478
40
1.4630582
50
285.7245036
51
286.256048
0
ARC
8
right_labelLayer
10
485.0041498
20
93.8063637
40
0.9567231
50
287.9889364
51
295.3048339
0
ARC
8
right_labelLayer
10
484.7734133
20
94.5044497
40
1.6919474
50
283.3068834
51
288.1198185
0
ARC
8
right_labelLayer
10
484.5296343
20
95.5213255
40
2.7376329
50
280.0070235
51
283.3735007
0
ARC
8
right_labelLayer
10
484.3664184
20
96.4070847
40
3.6382848
50
279.1865037
51
280.114353
0
ARC
8
right_labelLayer
10
484.2664134
20
96.9759665
40
4.215843
50
275.5260628
51
279.2938845
0
ARC
8
right_labelLayer
10
484.3792464
20
95.7974202
40
3.0319087
50
270.8932098
51
275.5484296
0
ARC
8
right_labelLayer
10
484.3934024
20
95.2591913
40
2.4935312
50
270.0034988
51
270.760768
0
ARC
8
right_labelLayer
10
484.3543044
20
95.3057908
40
2.5404337
50
253.7847948
51
270.8852676
0
ARC
8
right_labelLayer
10
484.0533309
20
94.2793568
40
1.4707878
50
190.3817671
51
253.8772449
0
ARC
8
right_labelLayer
10
485.5873824
20
94.6941387
40
3.0573026
50
179.3550796
51
192.847783
0
ARC
8
right_labelLayer
10
485.4614918
20
94.7573169
40
1.9586004
50
179.6416535
51
189.7506216
0
ARC
8
right_labelLayer
10
484.7700706
20
94.6339921
40
1.2562889
50
189.5479422
51
205.7873769
0
ARC
8
right_labelLayer
10
484.48593
20
94.5029669
40
0.9434612
50
206.1294926
51
221.4083587
0
ARC
8
right_labelLayer
10
484.4540648
20
94.4787887
40
0.9035747
50
221.5949308
51
262.3505242
0
ARC
8
right_labelLayer
10
484.5298376
20
94.8684261
40
1.3000387
50
261.3265388
51
270.1913673
0
LINE
8
bottom_outsideCutPath
10
579
20
403
11
579
21
387.18
0
LINE
8
bottom_outsideCutPath
10
579
20
387.18
11
576
21
387.18
0
LINE
8
bottom_outsideCutPath
10
576
20
387.18
11
576
21
369.14
0
LINE
8
bottom_outsideCutPath
10
576
20
369.14
11
579
21
369.14
0
LINE
8
bottom_outsideCutPath
10
579
20
369.14
11
579
21
351.1
0
LINE
8
bottom_outsideCutPath
10
579
20
351.1
11
576
21
351.1
0
LINE
8
bottom_outsideCutPath
10
576
20
351.1
11
576
21
333.06
0
LINE
8
bottom_outsideCutPath
10
576
20
333.06
11
579
21
333.06
0
LINE
8
bottom_outsideCutPath
10
579
20
333.06
11
579
21
315.02
0
LINE
8
bottom_outsideCutPath
10
579
20
315.02
11
576
21
315.02
0
LINE
8
bottom_outsideCutPath
10
576
20
315.02
11
576
21
296.98
0
LINE
8
bottom_outsideCutPath
10
576
20
296.98
11
579
21
296.98
0
LINE
8
bottom_outsideCutPath
10
579
20
296.98
11
579
21
278.94
0
LINE
8
bottom_outsideCutPath
10
579
20
278.94
11
576
21
278.94
0
LINE
8
bottom_outsideCutPath
10
576
20
278.94
11
576
21
260.9
0
LINE
8
bottom_outsideCutPath
10
576
20
260.9
11
579
21
260.9
0
LINE
8
bottom_outsideCutPath
10
579
20
260.9
11
579
21
242.86
0
LINE
8
bottom_outsideCutPath
10
579
20
242.86
11
576
21
242.86
0
LINE
8
bottom_outsideCutPath
10
576
20
242.86
11
576
21
224.82
0
LINE
8
bottom_outsideCutPath
10
576
20
224.82
11
579
21
224.82
0
LINE
8
bottom_outsideCutPath
10
579
20
224.82
11
579
21
209
0
LINE
8
bottom_outsideCutPath
10
579
20
209
11
607.66
21
209
0
LINE
8
bottom_outsideCutPath
10
607.66
20
209
11
607.66
21
206
0
LINE
8
bottom_outsideCutPath
10
607.66
20
206
11
625.7
21
206
0
LINE
8
bottom_outsideCutPath
10
625.7
20
206
11
625.7
21
209
0
LINE
8
bottom_outsideCutPath
10
625.7
20
209
11
643.74
21
209
0
LINE
8
bottom_outsideCutPath
10
643.74
20
209
11
643.74
21
206
0
LINE
8
bottom_outsideCutPath
10
643.74
20
206
11
661.78
21
206
0
LINE
8
bottom_outsideCutPath
10
661.78
20
206
11
661.78
21
209
0
LINE
8
bottom_outsideCutPath
10
661.78
20
209
11
679.82
21
209
0
LINE
8
bottom_outsideCutPath
10
679.82
20
209
11
679.82
21
206
0
LINE
8
bottom_outsideCutPath
10
679.82
20
206
11
697.86
21
206
0
LINE
8
bottom_outsideCutPath
10
697.86
20
206
11
697.86
21
209
0
LINE
8
bottom_outsideCutPath
10
697.86
20
209
11
715.9
21
209
0
LINE
8
bottom_outsideCutPath
10
715.9
20
209
11
715.9
21
206
0
LINE
8
bottom_outsideCutPath
10
715.9
20
206
11
733.94
21
206
0
LINE
8
bottom_outsideCutPath
10
733.94
20
206
11
733.94
21
209
0
LINE
8
bottom_outsideCutPath
10
733.94
20
209
11
751.98
21
209
0
LINE
8
bottom_outsideCutPath
10
751.98
20
209
11
751.98
21
206
0
LINE
8
bottom_outsideCutPath
10
751.98
20
206
11
770.02
21
206
0
LINE
8
bottom_outsideCutPath
10
770.02
20
206
11
770.02
21
209
0
LINE
8
bottom_outsideCutPath
10
770.02
20
209
11
788.06
21
209
0
LINE
8
bottom_outsideCutPath
10
788.06
20
209
11
788.06
21
206
0
LINE
8
bottom_outsideCutPath
10
788.06
20
206
11
806.1
21
206
0
LINE
8
bottom_outsideCutPath
10
806.1
20
206
11
806.1
21
209
0
LINE
8
bottom_outsideCutPath
10
806.1
20
209
11
824.14
21
209
0
LINE
8
bottom_outsideCutPath
10
824.14
20
209
11
824.14
21
206
0
LINE
8
bottom_outsideCutPath
10
824.14
20
206
11
842.18
21
206
0
LINE
8
bottom_outsideCutPath
10
842.18
20
206
11
842.18
21
209
0
LINE
8
bottom_outsideCutPath
10
842.18
20
209
11
860.22
21
209
0
LINE
8
bottom_outsideCutPath
10
860.22
20
209
11
860.22
21
206
0
LINE
8
bottom_outsideCutPath
10
860.22
20
206
11
878.26
21
206
0
LINE
8
bottom_outsideCutPath
10
878.26
20
206
11
878.26
21
209
0
LINE
8
bottom_outsideCutPath
10
878.26
20
209
11
896.3
21
209
0
LINE
8
bottom_outsideCutPath
10
896.3
20
209
11
896.3
21
206
0
LINE
8
bottom_outsideCutPath
10
896.3
20
206
11
914.34
21
206
0
LINE
8
bottom_outsideCutPath
10
914.34
20
206
11
914.34
21
209
0
LINE
8
bottom_outsideCutPath
10
914.34
20
209
11
932.38
21
209
0
LINE
8
bottom_outsideCutPath
10
932.38
20
209
11
943
21
209
0
LINE
8
bottom_outsideCutPath
10
943
20
209
11
943
21
224.82
0
LINE
8
bottom_outsideCutPath
10
943
20
224.82
11
946
21
224.82
0
LINE
8
bottom_outsideCutPath
10
946
20
224.82
11
946
21
242.86
0
LINE
8
bottom_outsideCutPath
10
946
20
242.86
11
943
21
242.86
0
LINE
8
bottom_outsideCutPath
10
943
20
242.86
11
943
21
260.9
0
LINE
8
bottom_outsideCutPath
10
943
20
260.9
11
946
21
260.9
0
LINE
8
bottom_outsideCutPath
10
946
20
260.9
11
946
21
278.94
0
LINE
8
bottom_outsideCutPath
10
946
20
278.94
11
943
21
278.94
0
LINE
8
bottom_outsideCutPath
10
943
20
278.94
11
943
21
296.98
0
LINE
8
bottom_outsideCutPath
10
943
20
296.98
11
946
21
296.98
0
LINE
8
bottom_outsideCutPath
10
946
20
296.98
11
946
21
315.02
0
LINE
8
bottom_outsideCutPath
10
946
20
315.02
11
943
21
315.02
0
LINE
8
bottom_outsideCutPath
10
943
20
315.02
11
943
21
333.06
0
LINE
8
bottom_outsideCutPath
10
943
20
333.06
11
946
21
333.06
0
LINE
8
bottom_outsideCutPath
10
946
20
333.06
11
946
21
351.1
0
LINE
8
bottom_outsideCutPath
10
946
20
351.1
11
943
21
351.1
0
LINE
8
bottom_outsideCutPath
10
943
20
351.1
11
943
21
369.14
0
LINE
8
bottom_outsideCutPath
10
943
20
369.14
11
946
21
369.14
0
LINE
8
bottom_outsideCutPath
10
946
20
369.14
11
946
21
387.18
0
LINE
8
bottom_outsideCutPath
10
946
20
387.18
11
943
21
387.18
0
LINE
8
bottom_outsideCutPath
10
943
20
387.18
11
943
21
403
0
LINE
8
bottom_outsideCutPath
10
943
20
403
11
914.34
21
403
0
LINE
8
bottom_outsideCutPath
10
914.34
20
403
11
914.34
21
406
0
LINE
8
bottom_outsideCutPath
10
914.34
20
406
11
896.3
21
406
0
LINE
8
bottom_outsideCutPath
10
896.3
20
406
11
896.3
21
403
0
LINE
8
bottom_outsideCutPath
10
896.3
20
403
11
878.26
21
403
0
LINE
8
bottom_outsideCutPath
10
878.26
20
403
11
878.26
21
406
0
LINE
8
bottom_outsideCutPath
10
878.26
20
406
11
860.22
21
406
0
LINE
8
bottom_outsideCutPath
10
860.22
20
406
11
860.22
21
403
0
LINE
8
bottom_outsideCutPath
10
860.22
20
403
11
842.18
21
403
0
LINE
8
bottom_outsideCutPath
10
842.18
20
403
11
842.18
21
406
0
LINE
8
bottom_outsideCutPath
10
842.18
20
406
11
824.14
21
406
0
LINE
8
bottom_outsideCutPath
10
824.14
20
406
11
824.14
21
403
0
LINE
8
bottom_outsideCutPath
10
824.14
20
403
11
806.1
21
403
0
LINE
8
bottom_outsideCutPath
10
806.1
20
403
11
806.1
21
406
0
LINE
8
bottom_outsideCutPath
10
806.1
20
406
11
788.06
21
406
0
LINE
8
bottom_outsideCutPath
10
788.06
20
406
11
788.06
21
403
0
LINE
8
bottom_outsideCutPath
10
788.06
20
403
11
770.02
21
403
0
LINE
8
bottom_outsideCutPath
10
770.02
20
403
11
770.02
21
406
0
LINE
8
bottom_outsideCutPath
10
770.02
20
406
11
751.98
21
406
0
LINE
8
bottom_outsideCutPath
10
751.98
20
406
11
751.98
21
403
0
LINE
8
bottom_outsideCutPath
10
751.98
20
403
11
733.94
21
403
0
LINE
8
bottom_outsideCutPath
10
733.94
20
403
11
733.94
21
406
0
LINE
8
bottom_outsideCutPath
10
733.94
20
406
11
715.9
21
406
0
LINE
8
bottom_outsideCutPath
10
715.9
20
406
11
715.9
21
403
0
LINE
8
bottom_outsideCutPath
10
715.9
20
403
11
697.86
21
403
0
LINE
8
bottom_outsideCutPath
10
697.86
20
403
11
697.86
21
406
0
LINE
8
bottom_outsideCutPath
10
697.86
20
406
11
679.82
21
406
0
LINE
8
bottom_outsideCutPath
10
679.82
20
406
11
679.82
21
403
0
LINE
8
bottom_outsideCutPath
10
679.82
20
403
11
661.78
21
403
0
LINE
8
bottom_outsideCutPath
10
661.78
20
403
11
661.78
21
406
0
LINE
8
bottom_outsideCutPath
10
661.78
20
406
11
643.74
21
406
0
LINE
8
bottom_outsideCutPath
10
643.74
20
406
11
643.74
21
403
0
LINE
8
bottom_outsideCutPath
10
643.74
20
403
11
625.7
21
403
0
LINE
8
bottom_outsideCutPath
10
625.7
20
403
11
625.7
21
406
0
LINE
8
bottom_outsideCutPath
10
625.7
20
406
11
607.66
21
406
0
LINE
8
bottom_outsideCutPath
10
607.66
20
406
11
607.66
21
403
0
LINE
8
bottom_outsideCutPath
10
607.66
20
403
11
589.62
21
403
0
LINE
8
bottom_outsideCutPath
10
589.62
20
403
11
579
21
403
0
LINE
8
bottom_labelLayer
10
698.4413114
20
293.7544116
11
698.2069364
21
293.7544116
0
LINE
8
bottom_labelLayer
10
698.2069364
20
293.7544116
11
697.5233427
21
291.0005054
0
LINE
8
bottom_labelLayer
10
697.5233427
20
291.0005054
11
695.1991239
21
291.0005054
0
LINE
8
bottom_labelLayer
10
695.1991239
20
291.0005054
11
695.1991239
21
321.3911304
0
LINE
8
bottom_labelLayer
10
695.1991239
20
321.3911304
11
698.4413114
21
321.3911304
0
LINE
8
bottom_labelLayer
10
698.4413114
20
321.3911304
11
698.4413114
21
314.0083179
0
LINE
8
bottom_labelLayer
10
698.2850614
20
309.5551929
11
698.4413114
21
309.5551929
0
ARC
8
bottom_labelLayer
10
705.2573227
20
302.849542
40
9.9092532
50
74.2393364
51
90.5623784
0
ARC
8
bottom_labelLayer
10
705.9125561
20
305.2532961
40
7.4179282
50
38.563129
51
74.0670384
0
ARC
8
bottom_labelLayer
10
704.226348
20
303.9421709
40
9.553771
50
16.4709264
51
38.4075301
0
ARC
8
bottom_labelLayer
10
699.3686308
20
302.4189329
40
14.644265
50
5.1338428
51
16.7973384
0
ARC
8
bottom_labelLayer
10
693.236204
20
301.7675013
40
20.8106234
50
359.8779239
51
5.4093639
0
ARC
8
bottom_labelLayer
10
695.0374112
20
301.611008
40
19.0096999
50
350.6562847
51
0.338036
0
ARC
8
bottom_labelLayer
10
701.6645117
20
300.483811
40
12.2875722
50
335.8305888
51
350.8254888
0
ARC
8
bottom_labelLayer
10
704.5796414
20
299.225599
40
9.1129431
50
321.3161437
51
335.5436139
0
ARC
8
bottom_labelLayer
10
705.694118
20
298.3174692
40
7.6753836
50
274.0640059
51
321.4081022
0
ARC
8
bottom_labelLayer
10
705.1749231
20
301.6062102
40
10.9963399
50
269.9225642
51
275.5481767
0
ARC
8
bottom_labelLayer
10
705.1053856
20
300.4439809
40
9.8342526
50
255.7755372
51
270.3185509
0
ARC
8
bottom_labelLayer
10
704.8247456
20
299.1971243
40
8.5567335
50
245.9801612
51
255.5455732
0
ARC
8
bottom_labelLayer
10
704.2811683
20
297.9330298
40
7.1808618
50
215.5850217
51
245.8361615
0
ARC
8
bottom_labelLayer
10
630.8441361
20
313.9511716
40
67.5971995
50
358.1123241
51
0.0484375
0
ARC
8
bottom_labelLayer
10
649.6575329
20
313.319558
40
48.7732081
50
355.7238661
51
358.1258968
0
ARC
8
bottom_labelLayer
10
657.9633869
20
312.748727
40
40.4479432
50
355.4715455
51
355.6529398
0
ARC
8
bottom_labelLayer
10
704.4878497
20
305.3387792
40
7.3714835
50
95.1835124
51
145.1108994
0
ARC
8
bottom_labelLayer
10
705.1357766
20
301.6850658
40
11.0732789
50
89.8743444
51
96.8145428
0
ARC
8
bottom_labelLayer
10
704.6234345
20
300.9329101
40
9.1108169
50
89.5731341
51
100.732428
0
ARC
8
bottom_labelLayer
10
703.9489799
20
304.3404863
40
5.6373187
50
100.446944
51
119.6700751
0
ARC
8
bottom_labelLayer
10
703.3235571
20
305.5097884
40
4.3118815
50
120.1402923
51
142.4248974
0
ARC
8
bottom_labelLayer
10
704.3582657
20
304.8252947
40
5.5500545
50
143.3382269
51
161.2559915
0
ARC
8
bottom_labelLayer
10
708.6852454
20
303.2890732
40
10.1414014
50
160.8926435
51
171.2334238
0
ARC
8
bottom_labelLayer
10
715.9086314
20
302.1237747
40
17.4580761
50
171.0667895
51
177.8456849
0
ARC
8
bottom_labelLayer
10
723.421
20
301.7417012
40
24.9796954
50
177.6176779
51
180.0425242
0
ARC
8
bottom_labelLayer
10
719.8781926
20
301.6394518
40
21.4370446
50
179.7762644
51
185.7075319
0
ARC
8
bottom_labelLayer
10
711.4263667
20
300.7686127
40
12.9405392
50
185.5924881
51
194.2050626
0
ARC
8
bottom_labelLayer
10
706.012165
20
299.3634411
40
7.3471414
50
193.9430431
51
208.0218413
0
ARC
8
bottom_labelLayer
10
703.8215518
20
298.2490141
40
4.8899808
50
208.5536435
51
217.5605597
0
ARC
8
bottom_labelLayer
10
703.6430948
20
298.1747928
40
4.7035364
50
218.1690497
51
253.8047105
0
ARC
8
bottom_labelLayer
10
704.5155082
20
300.8645314
40
7.5303731
50
253.1382386
51
266.8483141
0
ARC
8
bottom_labelLayer
10
704.7601477
20
303.7495972
40
10.4248771
50
266.3775722
51
270.0510514
0
ARC
8
bottom_labelLayer
10
704.8385965
20
299.7876232
40
6.4632692
50
269.386896
51
285.8630704
0
ARC
8
bottom_labelLayer
10
705.3187771
20
298.0521864
40
4.6626864
50
286.0162899
51
326.849735
0
ARC
8
bottom_labelLayer
10
703.0011765
20
299.5875121
40
7.4426671
50
326.7105034
51
343.6661728
0
ARC
8
bottom_labelLayer
10
698.662758
20
300.9131893
40
11.9789222
50
343.4171465
51
353.636913
0
ARC
8
bottom_labelLayer
10
692.1100545
20
301.690715
40
18.5774884
50
353.493474
51
0.2205455
0
ARC
8
bottom_labelLayer
10
691.5324707
20
301.839761
40
19.1550914
50
359.7680748
51
6.30953
0
ARC
8
bottom_labelLayer
10
698.7477746
20
302.6677625
40
11.8925337
50
6.164867
51
16.0396384
0
ARC
8
bottom_labelLayer
10
703.39579
20
304.0375305
40
7.0470653
50
15.7779461
51
32.0151261
0
ARC
8
bottom_labelLayer
10
704.8452406
20
304.8675841
40
5.3784052
50
32.7033974
51
35.524251
0
ARC
8
bottom_labelLayer
10
705.375316
20
305.2443395
40
4.7280803
50
35.5408422
51
79.8011252
0
ARC
8
bottom_labelLayer
10
704.7403821
20
302.5451077
40
7.498527
50
78.6781351
51
90.3749487
0
ARC
8
bottom_labelLayer
10
721.4405641
20
301.610259
40
16.7472217
50
349.1761914
51
0.3862666
0
ARC
8
bottom_labelLayer
10
727.0789537
20
300.4862357
40
10.998156
50
330.2507055
51
349.4116437
0
ARC
8
bottom_labelLayer
10
728.8141615
20
299.5843448
40
9.0444529
50
318.1439772
51
329.7566141
0
ARC
8
bottom_labelLayer
10
729.1273496
20
299.3333557
40
8.6437358
50
278.8959152
51
317.9979127
0
ARC
8
bottom_labelLayer
10
728.320399
20
303.1995337
40
12.5897728
50
269.7502922
51
279.8033185
0
ARC
8
bottom_labelLayer
10
728.1895281
20
301.021172
40
10.4115691
50
253.5436902
51
270.4182498
0
ARC
8
bottom_labelLayer
10
727.842952
20
299.6805248
40
9.0277851
50
238.8115622
51
253.2428275
0
ARC
8
bottom_labelLayer
10
727.7310957
20
299.4555798
40
8.7774509
50
207.7947035
51
238.6757932
0
ARC
8
bottom_labelLayer
10
729.3360645
20
300.4385527
40
10.6562989
50
205.6560185
51
208.4461418
0
ARC
8
bottom_labelLayer
10
730.572376
20
300.9536839
40
11.9939667
50
188.9102462
51
205.3171411
0
ARC
8
bottom_labelLayer
10
734.7386451
20
301.6593172
40
16.2193343
50
179.7744651
51
189.0932919
0
ARC
8
bottom_labelLayer
10
735.3532539
20
301.8371825
40
16.8342037
50
169.244298
51
180.388077
0
ARC
8
bottom_labelLayer
10
729.636491
20
302.967179
40
11.0070767
50
150.7111535
51
169.4695443
0
ARC
8
bottom_labelLayer
10
727.8115178
20
303.9043694
40
8.9572318
50
138.1759422
51
150.2287436
0
ARC
8
bottom_labelLayer
10
727.5079509
20
304.1373213
40
8.5757205
50
99.1759366
51
137.9832747
0
ARC
8
bottom_labelLayer
10
728.3434882
20
300.2051821
40
12.5923353
50
89.7326345
51
100.0759754
0
ARC
8
bottom_labelLayer
10
728.510483
20
301.9033436
40
10.8945744
50
73.5222762
51
90.5692242
0
ARC
8
bottom_labelLayer
10
729.1493867
20
304.2246487
40
8.4875082
50
41.1445613
51
73.2133882
0
ARC
8
bottom_labelLayer
10
727.929772
20
303.1764056
40
10.095653
50
13.501438
51
41.0703422
0
ARC
8
bottom_labelLayer
10
723.2178254
20
301.9433507
40
14.9655881
50
1.1277152
51
13.8800077
0
ARC
8
bottom_labelLayer
10
719.1592613
20
301.7258516
40
19.0281441
50
359.9919
51
1.5419869
0
ARC
8
bottom_labelLayer
10
738.2969784
20
301.6389044
40
16.4183832
50
179.7059633
51
187.9160742
0
ARC
8
bottom_labelLayer
10
732.2752221
20
300.7738857
40
10.3349129
50
187.7639221
51
200.0976823
0
ARC
8
bottom_labelLayer
10
728.9578634
20
299.558402
40
6.8018877
50
200.0845909
51
216.9131622
0
ARC
8
bottom_labelLayer
10
727.7464812
20
298.6934179
40
5.31394
50
217.3009524
51
261.7099121
0
ARC
8
bottom_labelLayer
10
728.3088477
20
301.376973
40
8.0523242
50
260.5033178
51
270.2476713
0
ARC
8
bottom_labelLayer
10
728.4161856
20
300.8551446
40
7.5307698
50
269.4481634
51
284.7255676
0
ARC
8
bottom_labelLayer
10
729.0123525
20
298.6441545
40
5.2408817
50
284.5662286
51
322.6333842
0
ARC
8
bottom_labelLayer
10
727.618488
20
299.6511606
40
6.9599955
50
323.0089188
51
342.6390535
0
ARC
8
bottom_labelLayer
10
723.6317277
20
300.9541492
40
11.1540646
50
342.3615698
51
353.7537633
0
ARC
8
bottom_labelLayer
10
717.7499259
20
301.6631231
40
17.0782096
50
353.536312
51
0.2014239
0
ARC
8
bottom_labelLayer
10
718.6511018
20
301.8057302
40
16.1771391
50
359.7075596
51
7.8972675
0
ARC
8
bottom_labelLayer
10
724.5756216
20
302.6550648
40
10.1921474
50
7.7439872
51
20.0690174
0
ARC
8
bottom_labelLayer
10
727.8769945
20
303.8665441
40
6.6755145
50
20.0257072
51
37.4350486
0
ARC
8
bottom_labelLayer
10
728.9723671
20
304.6438042
40
5.3334969
50
37.9577619
51
80.4006227
0
ARC
8
bottom_labelLayer
10
728.3499029
20
301.8664365
40
8.1771633
50
79.3453381
51
90.3174814
0
ARC
8
bottom_labelLayer
10
728.2346448
20
302.3277609
40
7.7160303
50
89.4805916
51
103.880499
0
ARC
8
bottom_labelLayer
10
727.5862991
20
304.7966607
40
5.1638235
50
103.4685193
51
142.3118911
0
ARC
8
bottom_labelLayer
10
728.8467401
20
303.9102296
40
6.7035612
50
142.902582
51
162.3749538
0
ARC
8
bottom_labelLayer
10
732.8183842
20
302.5866913
40
10.8896786
50
162.0653199
51
173.1674776
0
ARC
8
bottom_labelLayer
10
739.0111977
20
301.7968352
40
17.1325447
50
173.0086159
51
180.2463847
0
LINE
8
bottom_labelLayer
10
753.7147489
20
293.6762866
11
753.7147489
21
291.1958179
0
LINE
8
bottom_labelLayer
10
744.1053739
20
297.1528491
11
744.1053739
21
309.8872241
0
LINE
8
bottom_labelLayer
10
744.1053739
20
309.8872241
11
741.0389677
21
309.8872241
0
LINE
8
bottom_labelLayer
10
741.0389677
20
309.8872241
11
741.0389677
21
311.4497241
0
LINE
8
bottom_labelLayer
10
741.0389677
20
311.4497241
11
744.1053739
21
312.7973804
0
LINE
8
bottom_labelLayer
10
744.1053739
20
312.7973804
11
745.4725614
21
317.3676929
0
LINE
8
bottom_labelLayer
10
745.4725614
20
317.3676929
11
747.3475614
21
317.3676929
0
LINE
8
bottom_labelLayer
10
747.3475614
20
317.3676929
11
747.3475614
21
312.4067554
0
LINE
8
bottom_labelLayer
10
747.3475614
20
312.4067554
11
753.5584989
21
312.4067554
0
LINE
8
bottom_labelLayer
10
753.5584989
20
312.4067554
11
753.5584989
21
309.8872241
0
LINE
8
bottom_labelLayer
10
753.5584989
20
309.8872241
11
747.3475614
21
309.8872241
0
LINE
8
bottom_labelLayer
10
747.3475614
20
309.8872241
11
747.3475614
21
297.2895679
0
ARC
8
bottom_labelLayer
10
750.8072959
20
303.9334235
40
10.6477851
50
269.8803559
51
278.3028353
0
ARC
8
bottom_labelLayer
10
750.9088341
20
303.1040886
40
9.8124991
50
278.4154494
51
279.0081024
0
ARC
8
bottom_labelLayer
10
749.7141046
20
310.7365266
40
17.5378705
50
278.9589396
51
280.5104777
0
ARC
8
bottom_labelLayer
10
750.8525397
20
304.6282099
40
11.3243749
50
280.4847583
51
282.6268276
0
ARC
8
bottom_labelLayer
10
751.8511263
20
300.1918002
40
6.7769723
50
282.5876383
51
285.5795268
0
ARC
8
bottom_labelLayer
10
752.35202
20
298.3496031
40
4.8679477
50
285.7240514
51
286.2565691
0
ARC
8
bottom_labelLayer
10
752.3516555
20
294.0788333
40
3.1890127
50
287.9888003
51
295.3048452
0
ARC
8
bottom_labelLayer
10
751.5824922
20
296.405896
40
5.6398776
50
283.3069101
51
288.1198
0
ARC
8
bottom_labelLayer
10
750.7699361
20
299.7952977
40
9.1253075
50
280.0070079
51
283.3735352
0
ARC
8
bottom_labelLayer
10
750.2258206
20
302.7483197
40
12.127975
50
279.1864031
51
280.114225
0
ARC
8
bottom_labelLayer
10
749.8925662
20
304.6437467
40
14.0523194
50
275.5260139
51
279.2939672
0
ARC
8
bottom_labelLayer
10
750.2686083
20
300.7159048
40
10.1065206
50
270.8932467
51
275.5483935
0
ARC
8
bottom_labelLayer
10
750.3158546
20
298.9216327
40
8.3117522
50
270.0031492
51
270.7604201
0
ARC
8
bottom_labelLayer
10
750.1854792
20
299.0769872
40
8.4681176
50
253.7847919
51
270.8852537
0
ARC
8
bottom_labelLayer
10
749.1822326
20
295.6555354
40
4.9026264
50
190.3817674
51
253.8772384
0
ARC
8
bottom_labelLayer
10
754.2957594
20
297.0381434
40
10.191031
50
179.3550907
51
192.8477645
0
ARC
8
bottom_labelLayer
10
753.8761291
20
297.2487368
40
6.5286954
50
179.6416642
51
189.7505901
0
ARC
8
bottom_labelLayer
10
751.5713783
20
296.8376576
40
4.1876443
50
189.5479704
51
205.7873484
0
ARC
8
bottom_labelLayer
10
750.6242184
20
296.400895
40
3.1448578
50
206.1294578
51
221.4083873
0
ARC
8
bottom_labelLayer
10
750.5180116
20
296.3203067
40
3.0119144
50
221.5949107
51
262.3505242
0
ARC
8
bottom_labelLayer
10
750.7705906
20
297.6191544
40
4.3335169
50
261.3266111
51
270.1913275
0
LINE
8
bottom_labelLayer
10
767.8358427
20
293.6762866
11
767.8358427
21
291.1958179
0
LINE
8
bottom_labelLayer
10
758.2264677
20
297.1528491
11
758.2264677
21
309.8872241
0
LINE
8
bottom_labelLayer
10
758.2264677
20
309.8872241
11
755.1600614
21
309.8872241
0
LINE
8
bottom_labelLayer
10
755.1600614
20
309.8872241
11
755.1600614
21
311.4497241
0
LINE
8
bottom_labelLayer
10
755.1600614
20
311.4497241
11
758.2264677
21
312.7973804
0
LINE
8
bottom_labelLayer
10
758.2264677
20
312.7973804
11
759.5936552
21
317.3676929
0
LINE
8
bottom_labelLayer
10
759.5936552
20
317.3676929
11
761.4686552
21
317.3676929
0
LINE
8
bottom_labelLayer
10
761.4686552
20
317.3676929
11
761.4686552
21
312.4067554
0
LINE
8
bottom_labelLayer
10
761.4686552
20
312.4067554
11
767.6795927
21
312.4067554
0
LINE
8
bottom_labelLayer
10
767.6795927
20
312.4067554
11
767.6795927
21
309.8872241
0
LINE
8
bottom_labelLayer
10
767.6795927
20
309.8872241
11
761.4686552
21
309.8872241
0
LINE
8
bottom_labelLayer
10
761.4686552
20
309.8872241
11
761.4686552
21
297.2895679
0
ARC
8
bottom_labelLayer
10
764.9283897
20
303.9334235
40
10.6477851
50
269.8803559
51
278.3028353
0
ARC
8
bottom_labelLayer
10
765.0299279
20
303.1040886
40
9.8124991
50
278.4154494
51
279.0081024
0
ARC
8
bottom_labelLayer
10
763.8351983
20
310.7365266
40
17.5378705
50
278.9589396
51
280.5104777
0
ARC
8
bottom_labelLayer
10
764.9736335
20
304.6282099
40
11.3243749
50
280.4847583
51
282.6268276
0
ARC
8
bottom_labelLayer
10
765.97222
20
300.1918002
40
6.7769723
50
282.5876383
51
285.5795268
0
ARC
8
bottom_labelLayer
10
766.4731138
20
298.3496031
40
4.8679477
50
285.7240514
51
286.2565691
0
ARC
8
bottom_labelLayer
10
766.4727492
20
294.0788333
40
3.1890127
50
287.9888003
51
295.3048452
0
ARC
8
bottom_labelLayer
10
765.703586
20
296.405896
40
5.6398776
50
283.3069101
51
288.1198
0
ARC
8
bottom_labelLayer
10
764.8910298
20
299.7952977
40
9.1253075
50
280.0070079
51
283.3735352
0
ARC
8
bottom_labelLayer
10
764.3469144
20
302.7483197
40
12.127975
50
279.1864031
51
280.114225
0
ARC
8
bottom_labelLayer
10
764.0136599
20
304.6437467
40
14.0523194
50
275.5260139
51
279.2939672
0
ARC
8
bottom_labelLayer
10
764.389702
20
300.7159048
40
10.1065206
50
270.8932467
51
275.5483935
0
ARC
8
bottom_labelLayer
10
764.4369483
20
298.9216327
40
8.3117522
50
270.0031492
51
270.7604201
0
ARC
8
bottom_labelLayer
10
764.306573
20
299.0769872
40
8.4681176
50
253.7847919
51
270.8852537
0
ARC
8
bottom_labelLayer
10
763.3033263
20
295.6555354
40
4.9026264
50
190.3817674
51
253.8772384
0
ARC
8
bottom_labelLayer
10
768.4168532
20
297.0381434
40
10.191031
50
179.3550907
51
192.8477645
0
ARC
8
bottom_labelLayer
10
767.9972229
20
297.2487368
40
6.5286954
50
179.6416642
51
189.7505901
0
ARC
8
bottom_labelLayer
10
765.692472
20
296.8376576
40
4.1876443
50
189.5479704
51
205.7873484
0
ARC
8
bottom_labelLayer
10
764.7453122
20
296.400895
40
3.1448578
50
206.1294578
51
221.4083873
0
ARC
8
bottom_labelLayer
10
764.6391054
20
296.3203067
40
3.0119144
50
221.5949107
51
262.3505242
0
ARC
8
bottom_labelLayer
10
764.8916843
20
297.6191544
40
4.3335169
50
261.3266111
51
270.1913275
0
ARC
8
bottom_labelLayer
10
773.8429078
20
301.610259
40
16.7472217
50
349.1761914
51
0.3862666
0
ARC
8
bottom_labelLayer
10
779.4812974
20
300.4862357
40
10.998156
50
330.2507055
51
349.4116437
0
ARC
8
bottom_labelLayer
10
781.2165053
20
299.5843448
40
9.0444529
50
318.1439772
51
329.7566141
0
ARC
8
bottom_labelLayer
10
781.5296933
20
299.3333557
40
8.6437358
50
278.8959152
51
317.9979127
0
ARC
8
bottom_labelLayer
10
780.7227428
20
303.1995337
40
12.5897728
50
269.7502922
51
279.8033185
0
ARC
8
bottom_labelLayer
10
780.5918719
20
301.021172
40
10.4115691
50
253.5436902
51
270.4182498
0
ARC
8
bottom_labelLayer
10
780.2452958
20
299.6805248
40
9.0277851
50
238.8115622
51
253.2428275
0
ARC
8
bottom_labelLayer
10
780.1334394
20
299.4555798
40
8.7774509
50
207.7947035
51
238.6757932
0
ARC
8
bottom_labelLayer
10
781.7384082
20
300.4385527
40
10.6562989
50
205.6560185
51
208.4461418
0
ARC
8
bottom_labelLayer
10
782.9747197
20
300.9536839
40
11.9939667
50
188.9102462
51
205.3171411
0
ARC
8
bottom_labelLayer
10
787.1409888
20
301.6593172
40
16.2193343
50
179.7744651
51
189.0932919
0
ARC
8
bottom_labelLayer
10
787.7555977
20
301.8371825
40
16.8342037
50
169.244298
51
180.388077
0
ARC
8
bottom_labelLayer
10
782.0388347
20
302.967179
40
11.0070767
50
150.7111535
51
169.4695443
0
ARC
8
bottom_labelLayer
10
780.2138616
20
303.9043694
40
8.9572318
50
138.1759422
51
150.2287436
0
ARC
8
bottom_labelLayer
10
779.9102947
20
304.1373213
40
8.5757205
50
99.1759366
51
137.9832747
0
ARC
8
bottom_labelLayer
10
780.7458319
20
300.2051821
40
12.5923353
50
89.7326345
51
100.0759754
0
ARC
8
bottom_labelLayer
10
780.9128267
20
301.9033436
40
10.8945744
50
73.5222762
51
90.5692242
0
ARC
8
bottom_labelLayer
10
781.5517304
20
304.2246487
40
8.4875082
50
41.1445613
51
73.2133882
0
ARC
8
bottom_labelLayer
10
780.3321157
20
303.1764056
40
10.095653
50
13.501438
51
41.0703422
0
ARC
8
bottom_labelLayer
10
775.6201692
20
301.9433507
40
14.9655881
50
1.1277152
51
13.8800077
0
ARC
8
bottom_labelLayer
10
771.561605
20
301.7258516
40
19.0281441
50
359.9919
51
1.5419869
0
ARC
8
bottom_labelLayer
10
790.6993222
20
301.6389044
40
16.4183832
50
179.7059633
51
187.9160742
0
ARC
8
bottom_labelLayer
10
784.6775658
20
300.7738857
40
10.3349129
50
187.7639221
51
200.0976823
0
ARC
8
bottom_labelLayer
10
781.3602071
20
299.558402
40
6.8018877
50
200.0845909
51
216.9131622
0
ARC
8
bottom_labelLayer
10
780.148825
20
298.6934179
40
5.31394
50
217.3009524
51
261.7099121
0
ARC
8
bottom_labelLayer
10
780.7111914
20
301.376973
40
8.0523242
50
260.5033178
51
270.2476713
0
ARC
8
bottom_labelLayer
10
780.8185294
20
300.8551446
40
7.5307698
50
269.4481634
51
284.7255676
0
ARC
8
bottom_labelLayer
10
781.4146963
20
298.6441545
40
5.2408817
50
284.5662286
51
322.6333842
0
ARC
8
bottom_labelLayer
10
780.0208318
20
299.6511606
40
6.9599955
50
323.0089188
51
342.6390535
0
ARC
8
bottom_labelLayer
10
776.0340715
20
300.9541492
40
11.1540646
50
342.3615698
51
353.7537633
0
ARC
8
bottom_labelLayer
10
770.1522697
20
301.6631231
40
17.0782096
50
353.536312
51
0.2014239
0
ARC
8
bottom_labelLayer
10
771.0534456
20
301.8057302
40
16.1771391
50
359.7075596
51
7.8972675
0
ARC
8
bottom_labelLayer
10
776.9779654
20
302.6550648
40
10.1921474
50
7.7439872
51
20.0690174
0
ARC
8
bottom_labelLayer
10
780.2793382
20
303.8665441
40
6.6755145
50
20.0257072
51
37.4350486
0
ARC
8
bottom_labelLayer
10
781.3747109
20
304.6438042
40
5.3334969
50
37.9577619
51
80.4006227
0
ARC
8
bottom_labelLayer
10
780.7522466
20
301.8664365
40
8.1771633
50
79.3453381
51
90.3174814
0
ARC
8
bottom_labelLayer
10
780.6369886
20
302.3277609
40
7.7160303
50
89.4805916
51
103.880499
0
ARC
8
bottom_labelLayer
10
779.9886428
20
304.7966607
40
5.1638235
50
103.4685193
51
142.3118911
0
ARC
8
bottom_labelLayer
10
781.2490838
20
303.9102296
40
6.7035612
50
142.902582
51
162.3749538
0
ARC
8
bottom_labelLayer
10
785.220728
20
302.5866913
40
10.8896786
50
162.0653199
51
173.1674776
0
ARC
8
bottom_labelLayer
10
791.4135415
20
301.7968352
40
17.1325447
50
173.0086159
51
180.2463847
0
LINE
8
bottom_labelLayer
10
826.8006864
20
291.0005054
11
823.5584989
21
291.0005054
0
LINE
8
bottom_labelLayer
10
823.5584989
20
291.0005054
11
823.5584989
21
304.9262866
0
LINE
8
bottom_labelLayer
10
813.1483427
20
302.9536304
11
813.1483427
21
291.0005054
0
LINE
8
bottom_labelLayer
10
813.1483427
20
291.0005054
11
809.9061552
21
291.0005054
0
LINE
8
bottom_labelLayer
10
809.9061552
20
291.0005054
11
809.9061552
21
304.9262866
0
LINE
8
bottom_labelLayer
10
799.5155302
20
302.2309741
11
799.5155302
21
291.0005054
0
LINE
8
bottom_labelLayer
10
799.5155302
20
291.0005054
11
796.2733427
21
291.0005054
0
LINE
8
bottom_labelLayer
10
796.2733427
20
291.0005054
11
796.2733427
21
312.4067554
0
LINE
8
bottom_labelLayer
10
796.2733427
20
312.4067554
11
798.9100614
21
312.4067554
0
LINE
8
bottom_labelLayer
10
798.9100614
20
312.4067554
11
799.4374052
21
309.4770679
0
LINE
8
bottom_labelLayer
10
799.4374052
20
309.4770679
11
799.5936552
21
309.4770679
0
LINE
8
bottom_labelLayer
10
812.4842802
20
309.1645679
11
812.6405302
21
309.1645679
0
LINE
8
bottom_labelLayer
10
826.8006864
20
304.9653491
11
826.8006864
21
291.0005054
0
ARC
8
bottom_labelLayer
10
813.9939114
20
304.9772287
40
9.5647232
50
359.694839
51
8.1471445
0
ARC
8
bottom_labelLayer
10
817.516899
20
305.4985888
40
6.0034304
50
7.9864721
51
20.7949507
0
ARC
8
bottom_labelLayer
10
819.4643151
20
306.2445717
40
3.9180372
50
20.7071105
51
40.0217621
0
ARC
8
bottom_labelLayer
10
819.8915302
20
306.5240924
40
3.4116616
50
41.0408108
51
73.1792619
0
ARC
8
bottom_labelLayer
10
819.2733506
20
304.6543998
40
5.3804855
50
72.639548
51
86.256802
0
ARC
8
bottom_labelLayer
10
819.0753129
20
302.5174354
40
7.5260442
50
85.8144504
51
90.0685282
0
ARC
8
bottom_labelLayer
10
819.002557
20
301.7010551
40
8.3426626
50
89.562143
51
101.296173
0
ARC
8
bottom_labelLayer
10
818.3742128
20
304.7091527
40
5.2698272
50
101.0032287
51
121.78405
0
ARC
8
bottom_labelLayer
10
817.8965156
20
305.5619768
40
4.2934976
50
122.3597193
51
140.2884138
0
ARC
8
bottom_labelLayer
10
818.7559467
20
304.9318123
40
5.3576457
50
140.9765347
51
161.1699396
0
ARC
8
bottom_labelLayer
10
821.9936045
20
303.7796048
40
8.7940313
50
160.8731829
51
172.5272431
0
ARC
8
bottom_labelLayer
10
827.4036069
20
303.0324418
40
14.2553061
50
172.3776437
51
180.1829677
0
ARC
8
bottom_labelLayer
10
831.1162671
20
302.9537581
40
17.9679243
50
179.8942567
51
180.0004075
0
ARC
8
bottom_labelLayer
10
800.3415676
20
304.9772287
40
9.5647232
50
359.694839
51
8.1471445
0
ARC
8
bottom_labelLayer
10
803.8645552
20
305.4985888
40
6.0034304
50
7.9864721
51
20.7949507
0
ARC
8
bottom_labelLayer
10
805.8119714
20
306.2445717
40
3.9180372
50
20.7071105
51
40.0217621
0
ARC
8
bottom_labelLayer
10
806.2480697
20
306.530231
40
3.4009311
50
41.0610735
51
72.8993571
0
ARC
8
bottom_labelLayer
10
805.6181798
20
304.6549811
40
5.3787337
50
72.3600981
51
85.956183
0
ARC
8
bottom_labelLayer
10
805.4049486
20
302.4512236
40
7.5922578
50
85.523813
51
90.0793316
0
ARC
8
bottom_labelLayer
10
805.3322218
20
301.9910487
40
8.0526657
50
89.5573303
51
101.4832178
0
ARC
8
bottom_labelLayer
10
804.7141515
20
304.8868449
40
5.0918725
50
101.1546381
51
123.0655708
0
ARC
8
bottom_labelLayer
10
804.2940261
20
305.6186875
40
4.2495967
50
123.7020659
51
142.3021911
0
ARC
8
bottom_labelLayer
10
805.2781519
20
304.951046
40
5.4370409
50
143.0769766
51
161.3913808
0
ARC
8
bottom_labelLayer
10
809.2451093
20
303.5500065
40
9.6438806
50
161.0234413
51
171.4469126
0
ARC
8
bottom_labelLayer
10
815.8123563
20
302.5212673
40
16.2911403
50
171.3041946
51
178.3501552
0
ARC
8
bottom_labelLayer
10
822.0884459
20
302.2409551
40
22.572918
50
178.0975995
51
180.0253343
0
ARC
8
bottom_labelLayer
10
805.086358
20
306.247088
40
6.3720133
50
117.1209502
51
149.5423741
0
ARC
8
bottom_labelLayer
10
805.7366786
20
305.0912265
40
7.6974203
50
93.8343336
51
117.507214
0
ARC
8
bottom_labelLayer
10
805.9162977
20
303.5002201
40
9.2971619
50
89.9662132
51
94.2831295
0
ARC
8
bottom_labelLayer
10
806.0239148
20
302.1829282
40
10.6149435
50
77.5572222
51
90.551296
0
ARC
8
bottom_labelLayer
10
807.008866
20
306.4193838
40
6.265965
50
52.7027032
51
78.0053785
0
ARC
8
bottom_labelLayer
10
807.3597839
20
307.0722779
40
5.5351728
50
22.2097928
51
51.4970514
0
ARC
8
bottom_labelLayer
10
818.5138955
20
305.7985287
40
6.7695376
50
119.4041795
51
150.1828787
0
ARC
8
bottom_labelLayer
10
819.2646529
20
304.6568505
40
8.1332776
50
118.2583569
51
120.0629826
0
ARC
8
bottom_labelLayer
10
819.2625308
20
304.5733642
40
8.2059139
50
95.8635176
51
117.9693208
0
ARC
8
bottom_labelLayer
10
819.5402507
20
302.5652473
40
10.2321432
50
89.9196906
51
96.2617599
0
ARC
8
bottom_labelLayer
10
819.6294097
20
301.5276046
40
11.2700241
50
79.9360985
51
90.3803659
0
ARC
8
bottom_labelLayer
10
820.3803482
20
305.594603
40
7.1344368
50
62.9723234
51
80.1665109
0
ARC
8
bottom_labelLayer
10
821.1653564
20
307.2051357
40
5.3431703
50
44.2290016
51
62.6229123
0
ARC
8
bottom_labelLayer
10
820.9318765
20
307.1019928
40
5.5831257
50
19.5612015
51
43.3161214
0
ARC
8
bottom_labelLayer
10
817.5409931
20
305.8283737
40
9.2049553
50
7.5041917
51
19.9645341
0
ARC
8
bottom_labelLayer
10
811.9300146
20
305.0404242
40
14.8708615
50
359.7107427
51
7.6907269
0
ENDSEC
0
EOF