<svg width="280mm" height="403mm" viewBox="0 0 280 403" xmlns="http://www.w3.org/2000/svg" version="1.1" preserveAspectRatio="xMidYMid meet"><g id="svgGroup" stroke-linecap="round" fill-rule="evenodd" font-size="9pt" stroke="#000" stroke-width="0.25mm" fill="none" style="stroke:#000;stroke-width:0.25mm;fill:none"><path d="M 0 343 L 0 363.98 L 3 363.98 L 3 382.02 L 0 382.02 L 0 400.06 L 0 403 L 9.48 403 L 9.48 400 L 27.52 400 L 27.52 403 L 37 403 L 37 382.02 L 34 382.02 L 34 363.98 L 37 363.98 L 37 345.94 L 37 343 L 27.52 343 L 27.52 346 L 9.48 346 L 9.48 343 L 0 343 Z" id="front_outsideCutPath" stroke="#FF0000" stroke-width="0.1" style="stroke:#FF0000;stroke-width:0.1" vector-effect="non-scaling-stroke"/><path d="M 23.893 375.795 L 23.293 375.795 L 23.293 373.233 Q 23.293 372.924 23.203 372.716 A 0.714 0.714 0 0 0 23.073 372.51 Q 22.852 372.272 22.382 372.272 A 1.815 1.815 0 0 0 22.043 372.301 Q 21.675 372.372 21.472 372.608 Q 21.183 372.944 21.183 373.717 L 21.183 375.795 L 20.583 375.795 L 20.583 371.835 L 21.071 371.835 L 21.168 372.377 L 21.197 372.377 A 1.215 1.215 0 0 1 21.673 371.944 A 1.461 1.461 0 0 1 21.714 371.923 A 1.624 1.624 0 0 1 22.292 371.769 A 1.964 1.964 0 0 1 22.455 371.762 Q 23.17 371.762 23.531 372.107 A 1.039 1.039 0 0 1 23.785 372.505 Q 23.893 372.796 23.893 373.211 L 23.893 375.795 Z M 12.37 371.835 L 12.37 372.301 L 11.362 372.301 L 11.362 375.795 L 10.762 375.795 L 10.762 372.301 L 10.054 372.301 L 10.054 372.03 L 10.762 371.813 L 10.762 371.593 A 2.431 2.431 0 0 1 10.819 371.042 Q 11.031 370.133 12.038 370.133 A 1.932 1.932 0 0 1 12.311 370.154 Q 12.524 370.184 12.775 370.259 L 12.619 370.74 A 2.913 2.913 0 0 0 12.393 370.676 Q 12.278 370.649 12.178 370.637 A 1.29 1.29 0 0 0 12.027 370.628 A 0.809 0.809 0 0 0 11.832 370.65 A 0.519 0.519 0 0 0 11.525 370.854 A 0.694 0.694 0 0 0 11.433 371.039 Q 11.372 371.219 11.363 371.488 A 2.832 2.832 0 0 0 11.362 371.578 L 11.362 371.835 L 12.37 371.835 Z M 26.946 375.3 L 26.946 375.759 Q 26.848 375.806 26.659 375.836 Q 26.482 375.865 26.338 375.867 A 1.536 1.536 0 0 1 26.317 375.867 A 1.567 1.567 0 0 1 25.856 375.805 Q 25.348 375.648 25.215 375.097 A 1.885 1.885 0 0 1 25.168 374.657 L 25.168 372.301 L 24.601 372.301 L 24.601 372.012 L 25.168 371.762 L 25.421 370.917 L 25.768 370.917 L 25.768 371.835 L 26.917 371.835 L 26.917 372.301 L 25.768 372.301 L 25.768 374.631 A 1.208 1.208 0 0 0 25.786 374.843 Q 25.806 374.96 25.852 375.052 A 0.582 0.582 0 0 0 25.938 375.181 A 0.557 0.557 0 0 0 26.28 375.363 A 0.802 0.802 0 0 0 26.404 375.372 A 1.97 1.97 0 0 0 26.693 375.351 A 1.811 1.811 0 0 0 26.711 375.349 Q 26.853 375.326 26.938 375.302 A 0.902 0.902 0 0 0 26.946 375.3 Z M 15.373 371.806 L 15.29 372.362 A 2.643 2.643 0 0 0 15.1 372.327 Q 14.968 372.308 14.856 372.308 A 1.039 1.039 0 0 0 14.088 372.64 A 1.422 1.422 0 0 0 14.034 372.698 A 1.37 1.37 0 0 0 13.704 373.467 A 1.821 1.821 0 0 0 13.693 373.67 L 13.693 375.795 L 13.093 375.795 L 13.093 371.835 L 13.588 371.835 L 13.656 372.568 L 13.685 372.568 A 2.026 2.026 0 0 1 13.912 372.245 A 1.547 1.547 0 0 1 14.216 371.972 A 1.196 1.196 0 0 1 14.899 371.762 A 2.754 2.754 0 0 1 15.146 371.773 A 2.01 2.01 0 0 1 15.373 371.806 Z M 19.044 375.323 A 1.673 1.673 0 0 0 19.243 375.05 Q 19.532 374.556 19.532 373.811 A 3.52 3.52 0 0 0 19.53 373.716 Q 19.521 373.386 19.45 373.106 A 1.868 1.868 0 0 0 19.042 372.315 A 1.57 1.57 0 0 0 18.313 371.845 A 2.015 2.015 0 0 0 17.721 371.762 A 2.33 2.33 0 0 0 17.303 371.798 A 1.587 1.587 0 0 0 16.377 372.303 A 1.657 1.657 0 0 0 16.174 372.585 Q 15.893 373.074 15.893 373.811 Q 15.893 374.436 16.117 374.902 A 1.971 1.971 0 0 0 16.161 374.988 A 1.624 1.624 0 0 0 16.753 375.618 A 1.67 1.67 0 0 0 17.136 375.788 A 1.926 1.926 0 0 0 17.696 375.867 A 2.329 2.329 0 0 0 18.103 375.833 A 1.599 1.599 0 0 0 19.044 375.323 Z M 16.515 373.811 A 3.037 3.037 0 0 0 16.543 374.245 Q 16.575 374.465 16.642 374.644 A 1.258 1.258 0 0 0 16.818 374.967 A 0.983 0.983 0 0 0 17.458 375.344 A 1.49 1.49 0 0 0 17.71 375.365 A 1.393 1.393 0 0 0 18.078 375.319 A 0.97 0.97 0 0 0 18.605 374.969 Q 18.91 374.574 18.91 373.811 A 2.993 2.993 0 0 0 18.882 373.385 Q 18.85 373.168 18.784 372.992 A 1.235 1.235 0 0 0 18.605 372.664 A 0.987 0.987 0 0 0 17.991 372.298 A 1.513 1.513 0 0 0 17.703 372.272 A 1.427 1.427 0 0 0 17.348 372.313 A 0.955 0.955 0 0 0 16.814 372.658 Q 16.599 372.937 16.538 373.412 A 3.169 3.169 0 0 0 16.515 373.811 Z" id="front_labelLayer" stroke="#777777" fill="#777777" style="stroke:#777777;fill:#777777" vector-effect="non-scaling-stroke"/><path d="M 43 343 L 43 363.98 L 40 363.98 L 40 382.02 L 43 382.02 L 43 400.06 L 43 403 L 58.82 403 L 58.82 400 L 76.86 400 L 76.86 403 L 94.9 403 L 94.9 400 L 112.94 400 L 112.94 403 L 130.98 403 L 130.98 400 L 149.02 400 L 149.02 403 L 167.06 403 L 167.06 400 L 185.1 400 L 185.1 403 L 203.14 403 L 203.14 400 L 221.18 400 L 221.18 403 L 237 403 L 237 382.02 L 240 382.02 L 240 363.98 L 237 363.98 L 237 345.94 L 237 343 L 221.18 343 L 221.18 346 L 203.14 346 L 203.14 343 L 185.1 343 L 185.1 346 L 167.06 346 L 167.06 343 L 149.02 343 L 149.02 346 L 130.98 346 L 130.98 343 L 112.94 343 L 112.94 346 L 94.9 346 L 94.9 343 L 76.86 343 L 76.86 346 L 58.82 346 L 58.82 343 L 43 343 Z" id="left_outsideCutPath" stroke="#FF0000" stroke-width="0.1" style="stroke:#FF0000;stroke-width:0.1" vector-effect="non-scaling-stroke"/><path d="M 144.269 371.11 L 144.269 371.866 L 142.634 371.866 L 142.634 377.532 L 141.661 377.532 L 141.661 371.866 L 140.513 371.866 L 140.513 371.427 L 141.661 371.075 L 141.661 370.718 A 3.942 3.942 0 0 1 141.753 369.824 Q 142.097 368.35 143.729 368.35 A 3.132 3.132 0 0 1 144.173 368.384 Q 144.388 368.415 144.628 368.474 A 6.296 6.296 0 0 1 144.925 368.556 L 144.673 369.335 A 4.723 4.723 0 0 0 144.306 369.231 Q 143.973 369.153 143.712 369.153 A 1.312 1.312 0 0 0 143.396 369.189 A 0.842 0.842 0 0 0 142.897 369.519 A 1.125 1.125 0 0 0 142.749 369.819 Q 142.65 370.112 142.636 370.548 A 4.592 4.592 0 0 0 142.634 370.694 L 142.634 371.11 L 144.269 371.11 Z M 139.716 373.882 L 139.716 374.497 L 135.292 374.497 Q 135.312 375.269 135.571 375.788 A 1.826 1.826 0 0 0 135.863 376.214 A 1.767 1.767 0 0 0 136.791 376.737 A 2.678 2.678 0 0 0 137.39 376.8 A 5.137 5.137 0 0 0 139.314 376.419 A 5.887 5.887 0 0 0 139.44 376.366 L 139.44 377.233 A 5.839 5.839 0 0 1 138.908 377.434 A 4.465 4.465 0 0 1 138.465 377.553 A 4.083 4.083 0 0 1 138.06 377.615 Q 137.741 377.649 137.354 377.649 A 3.78 3.78 0 0 1 136.409 377.537 A 2.676 2.676 0 0 1 135.107 376.782 A 2.863 2.863 0 0 1 134.423 375.525 Q 134.304 375.079 134.287 374.549 A 5.556 5.556 0 0 1 134.284 374.374 A 5.107 5.107 0 0 1 134.379 373.361 Q 134.503 372.745 134.792 372.267 A 2.88 2.88 0 0 1 135.049 371.907 A 2.492 2.492 0 0 1 136.865 371.001 A 3.438 3.438 0 0 1 137.103 370.993 A 2.963 2.963 0 0 1 137.937 371.105 A 2.255 2.255 0 0 1 139.013 371.787 A 2.72 2.72 0 0 1 139.629 373.03 A 3.959 3.959 0 0 1 139.716 373.882 Z M 148.394 376.729 L 148.394 377.474 A 0.957 0.957 0 0 1 148.28 377.519 Q 148.159 377.559 147.986 377.59 A 3.638 3.638 0 0 1 147.928 377.599 A 4.216 4.216 0 0 1 147.653 377.635 Q 147.523 377.648 147.407 377.649 A 2.494 2.494 0 0 1 147.374 377.649 A 2.54 2.54 0 0 1 146.625 377.549 Q 145.802 377.295 145.587 376.401 A 3.057 3.057 0 0 1 145.511 375.686 L 145.511 371.866 L 144.591 371.866 L 144.591 371.397 L 145.511 370.993 L 145.921 369.622 L 146.483 369.622 L 146.483 371.11 L 148.347 371.11 L 148.347 371.866 L 146.483 371.866 L 146.483 375.645 A 1.959 1.959 0 0 0 146.512 375.989 Q 146.545 376.178 146.619 376.327 A 0.943 0.943 0 0 0 146.759 376.536 A 0.904 0.904 0 0 0 147.314 376.832 A 1.3 1.3 0 0 0 147.515 376.847 A 3.194 3.194 0 0 0 147.983 376.813 A 2.943 2.943 0 0 0 148.013 376.808 Q 148.253 376.77 148.394 376.729 Z M 132.579 368.415 L 132.579 377.532 L 131.606 377.532 L 131.606 368.415 L 132.579 368.415 Z M 135.315 373.706 L 138.673 373.706 A 3.314 3.314 0 0 0 138.633 373.173 Q 138.545 372.633 138.263 372.297 A 1.333 1.333 0 0 0 137.46 371.84 A 1.999 1.999 0 0 0 137.091 371.807 A 1.917 1.917 0 0 0 136.537 371.884 A 1.481 1.481 0 0 0 135.857 372.311 A 1.921 1.921 0 0 0 135.475 372.956 Q 135.354 373.288 135.315 373.706 Z" id="left_labelLayer" stroke="#777777" fill="#777777" style="stroke:#777777;fill:#777777" vector-effect="non-scaling-stroke"/><path d="M 246 206 L 246 221.82 L 243 221.82 L 243 239.86 L 246 239.86 L 246 257.9 L 243 257.9 L 243 275.94 L 246 275.94 L 246 293.98 L 243 293.98 L 243 312.02 L 246 312.02 L 246 330.06 L 243 330.06 L 243 348.1 L 246 348.1 L 246 366.14 L 243 366.14 L 243 384.18 L 246 384.18 L 246 400 L 252.48 400 L 252.48 403 L 270.52 403 L 270.52 400 L 277 400 L 277 384.18 L 280 384.18 L 280 366.14 L 277 366.14 L 277 348.1 L 280 348.1 L 280 330.06 L 277 330.06 L 277 312.02 L 280 312.02 L 280 293.98 L 277 293.98 L 277 275.94 L 280 275.94 L 280 257.9 L 277 257.9 L 277 239.86 L 280 239.86 L 280 221.82 L 277 221.82 L 277 206 L 270.52 206 L 270.52 203 L 252.48 203 L 252.48 206 L 246 206 Z" id="top_outsideCutPath" stroke="#FF0000" stroke-width="0.1" style="stroke:#FF0000;stroke-width:0.1" vector-effect="non-scaling-stroke"/><path d="M 264.159 304.041 L 264.116 304.041 A 5.676 5.676 0 0 1 264.153 304.46 A 4.757 4.757 0 0 1 264.159 304.698 L 264.159 306.328 L 263.56 306.328 L 263.56 300.59 L 264.047 300.59 L 264.13 301.132 L 264.159 301.132 A 1.615 1.615 0 0 1 264.393 300.867 A 1.249 1.249 0 0 1 264.698 300.662 A 1.502 1.502 0 0 1 265.128 300.536 A 1.944 1.944 0 0 1 265.402 300.518 A 1.839 1.839 0 0 1 265.922 300.587 A 1.359 1.359 0 0 1 266.618 301.056 Q 267.046 301.594 267.046 302.566 Q 267.046 303.542 266.611 304.082 A 1.42 1.42 0 0 1 265.602 304.613 A 2.034 2.034 0 0 1 265.402 304.622 Q 265.016 304.622 264.696 304.48 Q 264.376 304.337 264.159 304.041 Z M 258.299 304.055 L 258.299 304.514 Q 258.201 304.561 258.011 304.592 Q 257.834 304.62 257.69 304.622 A 1.536 1.536 0 0 1 257.67 304.622 A 1.567 1.567 0 0 1 257.208 304.56 Q 256.701 304.404 256.568 303.852 A 1.885 1.885 0 0 1 256.521 303.412 L 256.521 301.056 L 255.954 301.056 L 255.954 300.767 L 256.521 300.518 L 256.774 299.672 L 257.121 299.672 L 257.121 300.59 L 258.27 300.59 L 258.27 301.056 L 257.121 301.056 L 257.121 303.387 A 1.208 1.208 0 0 0 257.138 303.599 Q 257.159 303.715 257.205 303.807 A 0.582 0.582 0 0 0 257.29 303.936 A 0.557 0.557 0 0 0 257.633 304.118 A 0.802 0.802 0 0 0 257.757 304.127 A 1.97 1.97 0 0 0 258.045 304.107 A 1.811 1.811 0 0 0 258.064 304.104 Q 258.205 304.081 258.291 304.057 A 0.902 0.902 0 0 0 258.299 304.055 Z M 262.02 304.079 A 1.673 1.673 0 0 0 262.22 303.805 Q 262.508 303.311 262.508 302.566 A 3.52 3.52 0 0 0 262.507 302.471 Q 262.498 302.141 262.426 301.862 A 1.868 1.868 0 0 0 262.018 301.071 A 1.57 1.57 0 0 0 261.29 300.6 A 2.015 2.015 0 0 0 260.698 300.518 A 2.33 2.33 0 0 0 260.279 300.554 A 1.587 1.587 0 0 0 259.354 301.058 A 1.657 1.657 0 0 0 259.15 301.34 Q 258.87 301.829 258.87 302.566 Q 258.87 303.192 259.094 303.658 A 1.971 1.971 0 0 0 259.137 303.743 A 1.624 1.624 0 0 0 259.729 304.373 A 1.67 1.67 0 0 0 260.113 304.544 A 1.926 1.926 0 0 0 260.673 304.622 A 2.329 2.329 0 0 0 261.079 304.588 A 1.599 1.599 0 0 0 262.02 304.079 Z M 259.491 302.566 A 3.037 3.037 0 0 0 259.52 303 Q 259.552 303.221 259.619 303.399 A 1.258 1.258 0 0 0 259.795 303.723 A 0.983 0.983 0 0 0 260.435 304.1 A 1.49 1.49 0 0 0 260.687 304.12 A 1.393 1.393 0 0 0 261.055 304.074 A 0.97 0.97 0 0 0 261.581 303.724 Q 261.887 303.329 261.887 302.566 A 2.993 2.993 0 0 0 261.858 302.14 Q 261.827 301.923 261.761 301.747 A 1.235 1.235 0 0 0 261.581 301.419 A 0.987 0.987 0 0 0 260.968 301.053 A 1.513 1.513 0 0 0 260.68 301.027 A 1.427 1.427 0 0 0 260.324 301.069 A 0.955 0.955 0 0 0 259.791 301.414 Q 259.575 301.692 259.515 302.167 A 3.169 3.169 0 0 0 259.491 302.566 Z M 264.159 302.433 L 264.159 302.566 A 3.966 3.966 0 0 0 264.179 302.976 Q 264.233 303.497 264.438 303.761 A 0.87 0.87 0 0 0 264.879 304.058 Q 265.027 304.105 265.206 304.116 A 1.929 1.929 0 0 0 265.33 304.12 Q 265.823 304.12 266.111 303.736 A 1.196 1.196 0 0 0 266.134 303.705 A 1.45 1.45 0 0 0 266.333 303.281 Q 266.425 302.97 266.425 302.559 A 3.027 3.027 0 0 0 266.396 302.13 Q 266.334 301.695 266.134 301.423 Q 265.843 301.027 265.316 301.027 A 1.728 1.728 0 0 0 264.993 301.055 Q 264.63 301.124 264.438 301.363 A 1.028 1.028 0 0 0 264.277 301.656 Q 264.175 301.932 264.161 302.341 A 3.818 3.818 0 0 0 264.159 302.433 Z" id="top_labelLayer" stroke="#777777" fill="#777777" style="stroke:#777777;fill:#777777" vector-effect="non-scaling-stroke"/><path d="M 0 280 L 0 300.98 L 3 300.98 L 3 319.02 L 0 319.02 L 0 337.06 L 0 340 L 9.48 340 L 9.48 337 L 27.52 337 L 27.52 340 L 37 340 L 37 319.02 L 34 319.02 L 34 300.98 L 37 300.98 L 37 282.94 L 37 280 L 27.52 280 L 27.52 283 L 9.48 283 L 9.48 280 L 0 280 Z" id="back_outsideCutPath" stroke="#FF0000" stroke-width="0.1" style="stroke:#FF0000;stroke-width:0.1" vector-effect="non-scaling-stroke"/><path d="M 23.566 310.748 L 23.595 310.748 Q 23.714 310.579 23.928 310.33 A 12.889 12.889 0 0 1 24.068 310.17 L 25.347 308.815 L 26.059 308.815 L 24.455 310.502 L 26.171 312.775 L 25.445 312.775 L 24.046 310.903 L 23.595 311.294 L 23.595 312.775 L 23.002 312.775 L 23.002 307.153 L 23.595 307.153 L 23.595 310.134 Q 23.595 310.332 23.566 310.748 Z M 11.429 312.265 L 11.385 312.265 L 11.259 312.775 L 10.829 312.775 L 10.829 307.153 L 11.429 307.153 L 11.429 308.519 A 12.505 12.505 0 0 1 11.422 308.941 Q 11.415 309.141 11.402 309.319 A 7.491 7.491 0 0 1 11.4 309.342 L 11.429 309.342 A 1.364 1.364 0 0 1 12.424 308.764 A 2.049 2.049 0 0 1 12.672 308.75 Q 13.452 308.75 13.884 309.283 A 1.767 1.767 0 0 1 14.194 309.88 Q 14.316 310.273 14.316 310.791 Q 14.316 311.767 13.88 312.307 A 1.42 1.42 0 0 1 12.871 312.838 A 2.034 2.034 0 0 1 12.672 312.847 Q 12.285 312.847 11.965 312.705 Q 11.646 312.562 11.429 312.265 Z M 18.243 312.775 L 17.799 312.775 L 17.68 312.211 L 17.651 312.211 A 2.487 2.487 0 0 1 17.45 312.436 Q 17.255 312.628 17.06 312.715 A 1.383 1.383 0 0 1 16.774 312.805 Q 16.636 312.834 16.475 312.843 A 2.699 2.699 0 0 1 16.325 312.847 A 1.841 1.841 0 0 1 15.95 312.811 Q 15.721 312.764 15.546 312.653 A 1.033 1.033 0 0 1 15.402 312.544 A 0.986 0.986 0 0 1 15.104 312.024 A 1.509 1.509 0 0 1 15.067 311.68 A 1.038 1.038 0 0 1 15.658 310.701 Q 16.132 310.448 16.986 310.423 L 17.658 310.401 L 17.658 310.155 A 1.723 1.723 0 0 0 17.641 309.906 Q 17.623 309.779 17.583 309.677 A 0.669 0.669 0 0 0 17.458 309.467 Q 17.257 309.245 16.816 309.245 A 1.953 1.953 0 0 0 16.367 309.301 Q 16.053 309.375 15.696 309.548 L 15.512 309.089 Q 15.804 308.93 16.153 308.84 Q 16.502 308.75 16.852 308.75 A 2.533 2.533 0 0 1 17.238 308.777 Q 17.661 308.842 17.902 309.064 A 0.95 0.95 0 0 1 18.147 309.442 Q 18.204 309.597 18.228 309.79 A 2.36 2.36 0 0 1 18.243 310.072 L 18.243 312.775 Z M 22.121 308.948 L 21.936 309.458 A 2.668 2.668 0 0 0 21.647 309.362 A 3.187 3.187 0 0 0 21.503 309.326 A 2.478 2.478 0 0 0 21.314 309.291 Q 21.192 309.274 21.087 309.274 A 1.33 1.33 0 0 0 20.547 309.375 Q 19.981 309.625 19.895 310.488 A 3.314 3.314 0 0 0 19.88 310.813 A 2.905 2.905 0 0 0 19.909 311.236 Q 19.972 311.665 20.175 311.933 A 0.953 0.953 0 0 0 20.792 312.302 A 1.451 1.451 0 0 0 21.047 312.323 A 2.511 2.511 0 0 0 21.74 312.223 A 3.1 3.1 0 0 0 22.063 312.11 L 22.063 312.641 Q 21.665 312.847 21.062 312.847 A 2.242 2.242 0 0 1 20.516 312.785 A 1.52 1.52 0 0 1 19.73 312.318 A 1.735 1.735 0 0 1 19.369 311.655 Q 19.29 311.392 19.268 311.076 A 3.627 3.627 0 0 1 19.259 310.82 Q 19.259 309.827 19.738 309.285 A 1.553 1.553 0 0 1 20.588 308.795 A 2.354 2.354 0 0 1 21.102 308.743 Q 21.387 308.743 21.672 308.804 A 2.994 2.994 0 0 1 21.839 308.844 Q 22.006 308.891 22.117 308.947 A 0.878 0.878 0 0 1 22.121 308.948 Z M 12.585 309.252 Q 11.971 309.252 11.7 309.604 A 1.027 1.027 0 0 0 11.551 309.887 Q 11.451 310.168 11.433 310.596 A 4.621 4.621 0 0 0 11.429 310.791 A 3.966 3.966 0 0 0 11.448 311.201 Q 11.503 311.721 11.707 311.985 A 0.87 0.87 0 0 0 12.148 312.283 Q 12.296 312.33 12.476 312.341 A 1.929 1.929 0 0 0 12.6 312.345 A 1.196 1.196 0 0 0 12.939 312.3 A 0.863 0.863 0 0 0 13.423 311.942 Q 13.617 311.654 13.672 311.187 A 3.437 3.437 0 0 0 13.694 310.784 A 3.544 3.544 0 0 0 13.673 310.38 Q 13.622 309.939 13.451 309.672 A 0.995 0.995 0 0 0 13.423 309.631 A 0.875 0.875 0 0 0 12.866 309.279 A 1.387 1.387 0 0 0 12.585 309.252 Z M 17.644 311.185 L 17.644 310.827 L 17.044 310.853 Q 16.446 310.874 16.127 311.015 A 0.921 0.921 0 0 0 16.012 311.075 A 0.64 0.64 0 0 0 15.707 311.539 A 0.947 0.947 0 0 0 15.696 311.687 A 0.857 0.857 0 0 0 15.717 311.884 Q 15.761 312.068 15.893 312.182 A 0.653 0.653 0 0 0 16.138 312.312 Q 16.234 312.341 16.35 312.349 A 1.349 1.349 0 0 0 16.444 312.352 A 1.651 1.651 0 0 0 16.801 312.316 Q 17.049 312.261 17.233 312.123 A 1.001 1.001 0 0 0 17.324 312.045 A 1.005 1.005 0 0 0 17.604 311.543 Q 17.644 311.379 17.644 311.185 Z" id="back_labelLayer" stroke="#777777" fill="#777777" style="stroke:#777777;fill:#777777" vector-effect="non-scaling-stroke"/><path d="M 43 280 L 43 300.98 L 40 300.98 L 40 319.02 L 43 319.02 L 43 337.06 L 43 340 L 58.82 340 L 58.82 337 L 76.86 337 L 76.86 340 L 94.9 340 L 94.9 337 L 112.94 337 L 112.94 340 L 130.98 340 L 130.98 337 L 149.02 337 L 149.02 340 L 167.06 340 L 167.06 337 L 185.1 337 L 185.1 340 L 203.14 340 L 203.14 337 L 221.18 337 L 221.18 340 L 237 340 L 237 319.02 L 240 319.02 L 240 300.98 L 237 300.98 L 237 282.94 L 237 280 L 221.18 280 L 221.18 283 L 203.14 283 L 203.14 280 L 185.1 280 L 185.1 283 L 167.06 283 L 167.06 280 L 149.02 280 L 149.02 283 L 130.98 283 L 130.98 280 L 112.94 280 L 112.94 283 L 94.9 283 L 94.9 280 L 76.86 280 L 76.86 283 L 58.82 283 L 58.82 280 L 43 280 Z" id="right_outsideCutPath" stroke="#FF0000" stroke-width="0.1" style="stroke:#FF0000;stroke-width:0.1" vector-effect="non-scaling-stroke"/><path d="M 147.462 313.117 L 146.489 313.117 L 146.489 308.963 A 2.749 2.749 0 0 0 146.458 308.532 Q 146.422 308.305 146.344 308.124 A 1.157 1.157 0 0 0 146.132 307.791 Q 145.842 307.478 145.288 307.418 A 2.579 2.579 0 0 0 145.013 307.404 A 2.943 2.943 0 0 0 144.462 307.452 Q 143.862 307.567 143.533 307.955 A 1.618 1.618 0 0 0 143.259 308.442 Q 143.093 308.888 143.071 309.55 A 6.277 6.277 0 0 0 143.067 309.76 L 143.067 313.117 L 142.095 313.117 L 142.095 304 L 143.067 304 L 143.067 306.76 A 8.75 8.75 0 0 1 143.061 307.096 Q 143.051 307.376 143.021 307.586 L 143.079 307.586 A 1.943 1.943 0 0 1 143.76 306.931 A 2.374 2.374 0 0 1 143.896 306.856 A 2.497 2.497 0 0 1 144.716 306.613 A 3.157 3.157 0 0 1 145.106 306.59 Q 145.881 306.59 146.401 306.832 A 1.753 1.753 0 0 1 146.873 307.149 Q 147.33 307.584 147.433 308.416 A 4.206 4.206 0 0 1 147.462 308.928 L 147.462 313.117 Z M 138.556 306.695 L 140.776 306.695 L 140.776 307.311 L 139.587 307.451 A 1.581 1.581 0 0 1 139.724 307.655 Q 139.784 307.76 139.838 307.886 A 2.999 2.999 0 0 1 139.88 307.987 A 1.871 1.871 0 0 1 139.991 308.434 A 2.403 2.403 0 0 1 140.009 308.734 A 2.23 2.23 0 0 1 139.906 309.426 A 1.803 1.803 0 0 1 139.364 310.24 Q 138.72 310.803 137.595 310.803 Q 137.308 310.803 137.056 310.756 A 1.731 1.731 0 0 0 136.777 310.936 Q 136.435 311.212 136.435 311.582 Q 136.435 311.838 136.638 311.964 A 0.54 0.54 0 0 0 136.651 311.972 Q 136.826 312.073 137.202 312.093 A 3.7 3.7 0 0 0 137.396 312.098 L 138.532 312.098 A 3.981 3.981 0 0 1 139.137 312.141 Q 139.453 312.189 139.708 312.293 A 1.758 1.758 0 0 1 140.135 312.537 A 1.423 1.423 0 0 1 140.664 313.444 A 2.137 2.137 0 0 1 140.694 313.814 A 2.106 2.106 0 0 1 140.574 314.543 Q 140.374 315.091 139.839 315.44 A 2.917 2.917 0 0 1 139.087 315.781 Q 138.716 315.894 138.264 315.949 A 7.709 7.709 0 0 1 137.343 316 A 5.45 5.45 0 0 1 136.612 315.954 Q 135.87 315.853 135.4 315.531 Q 134.762 315.093 134.721 314.316 A 2.054 2.054 0 0 1 134.718 314.207 Q 134.718 313.621 135.093 313.193 A 1.698 1.698 0 0 1 135.676 312.768 A 2.407 2.407 0 0 1 136.147 312.613 Q 135.901 312.502 135.734 312.268 A 0.902 0.902 0 0 1 135.569 311.78 A 1.117 1.117 0 0 1 135.567 311.723 A 1.112 1.112 0 0 1 135.623 311.364 A 0.986 0.986 0 0 1 135.755 311.107 A 1.392 1.392 0 0 1 135.939 310.9 Q 136.037 310.808 136.162 310.719 A 3.055 3.055 0 0 1 136.347 310.598 A 1.705 1.705 0 0 1 135.606 310.005 A 2.113 2.113 0 0 1 135.535 309.9 A 2.011 2.011 0 0 1 135.227 308.931 A 2.454 2.454 0 0 1 135.222 308.775 A 2.81 2.81 0 0 1 135.296 308.111 A 1.849 1.849 0 0 1 135.854 307.149 A 2.066 2.066 0 0 1 136.647 306.712 Q 137.086 306.578 137.647 306.578 A 3.728 3.728 0 0 1 138.141 306.609 A 2.84 2.84 0 0 1 138.556 306.695 Z M 152.413 312.314 L 152.413 313.059 A 0.957 0.957 0 0 1 152.3 313.104 Q 152.179 313.144 152.005 313.175 A 3.638 3.638 0 0 1 151.947 313.185 A 4.216 4.216 0 0 1 151.672 313.22 Q 151.543 313.233 151.427 313.234 A 2.494 2.494 0 0 1 151.394 313.234 A 2.54 2.54 0 0 1 150.645 313.134 Q 149.822 312.88 149.607 311.986 A 3.057 3.057 0 0 1 149.53 311.271 L 149.53 307.451 L 148.61 307.451 L 148.61 306.982 L 149.53 306.578 L 149.94 305.207 L 150.503 305.207 L 150.503 306.695 L 152.366 306.695 L 152.366 307.451 L 150.503 307.451 L 150.503 311.23 A 1.959 1.959 0 0 0 150.531 311.574 Q 150.565 311.763 150.639 311.913 A 0.943 0.943 0 0 0 150.778 312.121 A 0.904 0.904 0 0 0 151.334 312.417 A 1.3 1.3 0 0 0 151.534 312.432 A 3.194 3.194 0 0 0 152.002 312.398 A 2.943 2.943 0 0 0 152.032 312.394 Q 152.272 312.355 152.413 312.314 Z M 131.284 306.648 L 131.149 307.551 A 4.287 4.287 0 0 0 130.841 307.494 Q 130.627 307.463 130.446 307.463 A 1.685 1.685 0 0 0 129.201 308.001 A 2.306 2.306 0 0 0 129.113 308.096 A 2.221 2.221 0 0 0 128.577 309.343 A 2.952 2.952 0 0 0 128.56 309.672 L 128.56 313.117 L 127.587 313.117 L 127.587 306.695 L 128.39 306.695 L 128.501 307.885 L 128.548 307.885 A 3.285 3.285 0 0 1 128.915 307.36 A 2.509 2.509 0 0 1 129.409 306.918 A 1.939 1.939 0 0 1 130.517 306.578 A 4.465 4.465 0 0 1 130.916 306.595 A 3.259 3.259 0 0 1 131.284 306.648 Z M 133.458 306.695 L 133.458 313.117 L 132.485 313.117 L 132.485 306.695 L 133.458 306.695 Z M 138.222 312.971 L 137.056 312.971 Q 136.571 312.971 136.243 313.14 A 1.139 1.139 0 0 0 136.024 313.287 A 1.025 1.025 0 0 0 135.688 313.868 A 1.556 1.556 0 0 0 135.655 314.195 A 0.977 0.977 0 0 0 135.72 314.558 Q 135.812 314.791 136.037 314.949 A 1.141 1.141 0 0 0 136.095 314.986 Q 136.532 315.255 137.346 315.256 A 4.996 4.996 0 0 0 137.354 315.256 Q 138.448 315.256 139.035 314.964 A 1.615 1.615 0 0 0 139.168 314.89 A 1.419 1.419 0 0 0 139.497 314.614 A 1.063 1.063 0 0 0 139.757 313.896 Q 139.757 313.375 139.435 313.173 Q 139.189 313.019 138.614 312.982 A 6.189 6.189 0 0 0 138.222 312.971 Z M 136.399 309.582 A 1.041 1.041 0 0 0 136.563 309.771 Q 136.907 310.083 137.492 310.114 A 2.504 2.504 0 0 0 137.624 310.117 Q 138.748 310.117 138.985 309.255 A 1.97 1.97 0 0 0 139.048 308.734 A 2.091 2.091 0 0 0 138.976 308.162 Q 138.793 307.519 138.14 307.349 A 2.115 2.115 0 0 0 137.606 307.287 A 2.041 2.041 0 0 0 137.191 307.327 Q 136.936 307.38 136.741 307.504 A 1.12 1.12 0 0 0 136.552 307.656 A 1.167 1.167 0 0 0 136.269 308.132 Q 136.21 308.316 136.191 308.54 A 2.559 2.559 0 0 0 136.183 308.752 Q 136.183 309.26 136.399 309.582 Z M 132.567 304.466 A 0.455 0.455 0 0 0 132.467 304.609 Q 132.403 304.747 132.403 304.955 A 1.148 1.148 0 0 0 132.408 305.065 Q 132.418 305.163 132.445 305.243 A 0.502 0.502 0 0 0 132.567 305.444 A 0.546 0.546 0 0 0 132.765 305.57 A 0.618 0.618 0 0 0 132.978 305.605 A 0.567 0.567 0 0 0 133.382 305.444 A 0.475 0.475 0 0 0 133.475 305.322 Q 133.552 305.176 133.552 304.955 A 1.113 1.113 0 0 0 133.547 304.85 Q 133.538 304.754 133.511 304.675 A 0.491 0.491 0 0 0 133.382 304.469 A 0.573 0.573 0 0 0 132.978 304.311 Q 132.731 304.311 132.567 304.466 Z" id="right_labelLayer" stroke="#777777" fill="#777777" style="stroke:#777777;fill:#777777" vector-effect="non-scaling-stroke"/><path d="M 246 3 L 246 18.82 L 243 18.82 L 243 36.86 L 246 36.86 L 246 54.9 L 243 54.9 L 243 72.94 L 246 72.94 L 246 90.98 L 243 90.98 L 243 109.02 L 246 109.02 L 246 127.06 L 243 127.06 L 243 145.1 L 246 145.1 L 246 163.14 L 243 163.14 L 243 181.18 L 246 181.18 L 246 197 L 252.48 197 L 252.48 200 L 270.52 200 L 270.52 197 L 277 197 L 277 181.18 L 280 181.18 L 280 163.14 L 277 163.14 L 277 145.1 L 280 145.1 L 280 127.06 L 277 127.06 L 277 109.02 L 280 109.02 L 280 90.98 L 277 90.98 L 277 72.94 L 280 72.94 L 280 54.9 L 277 54.9 L 277 36.86 L 280 36.86 L 280 18.82 L 277 18.82 L 277 3 L 270.52 3 L 270.52 0 L 252.48 0 L 252.48 3 L 246 3 Z" id="bottom_outsideCutPath" stroke="#FF0000" stroke-width="0.1" style="stroke:#FF0000;stroke-width:0.1" vector-effect="non-scaling-stroke"/><path d="M 273.673 102.775 L 273.073 102.775 L 273.073 100.199 A 1.769 1.769 0 0 0 273.055 99.938 Q 273.036 99.806 272.994 99.698 A 0.725 0.725 0 0 0 272.871 99.489 Q 272.694 99.282 272.346 99.256 A 1.392 1.392 0 0 0 272.242 99.252 A 1.543 1.543 0 0 0 271.928 99.282 Q 271.741 99.321 271.601 99.41 A 0.794 0.794 0 0 0 271.415 99.574 Q 271.149 99.894 271.147 100.557 A 3.382 3.382 0 0 0 271.147 100.564 L 271.147 102.775 L 270.548 102.775 L 270.548 100.199 A 1.769 1.769 0 0 0 270.53 99.938 Q 270.51 99.806 270.468 99.698 A 0.725 0.725 0 0 0 270.345 99.489 A 0.629 0.629 0 0 0 270.056 99.301 Q 269.952 99.266 269.825 99.256 A 1.405 1.405 0 0 0 269.713 99.252 A 1.49 1.49 0 0 0 269.405 99.282 Q 269.215 99.322 269.073 99.416 A 0.786 0.786 0 0 0 268.887 99.59 A 1.006 1.006 0 0 0 268.738 99.873 Q 268.641 100.147 268.628 100.557 A 4.176 4.176 0 0 0 268.625 100.697 L 268.625 102.775 L 268.026 102.775 L 268.026 98.815 L 268.513 98.815 L 268.611 99.357 L 268.64 99.357 A 1.179 1.179 0 0 1 269.119 98.905 A 1.424 1.424 0 0 1 269.681 98.747 A 1.72 1.72 0 0 1 269.811 98.742 Q 270.386 98.742 270.714 99 A 1.024 1.024 0 0 1 271.025 99.415 L 271.053 99.415 A 1.252 1.252 0 0 1 271.525 98.946 A 1.505 1.505 0 0 1 271.567 98.923 A 1.518 1.518 0 0 1 272.123 98.754 A 1.893 1.893 0 0 1 272.333 98.742 Q 273.005 98.742 273.339 99.088 Q 273.582 99.339 273.648 99.809 A 2.751 2.751 0 0 1 273.673 100.191 L 273.673 102.775 Z M 249.927 102.265 L 249.883 102.265 L 249.757 102.775 L 249.327 102.775 L 249.327 97.153 L 249.927 97.153 L 249.927 98.518 A 12.505 12.505 0 0 1 249.92 98.941 Q 249.913 99.141 249.9 99.319 A 7.491 7.491 0 0 1 249.898 99.342 L 249.927 99.342 A 1.364 1.364 0 0 1 250.922 98.764 A 2.049 2.049 0 0 1 251.17 98.75 Q 251.95 98.75 252.382 99.283 A 1.767 1.767 0 0 1 252.692 99.88 Q 252.814 100.273 252.814 100.791 Q 252.814 101.767 252.378 102.307 A 1.42 1.42 0 0 1 251.369 102.838 A 2.034 2.034 0 0 1 251.17 102.847 Q 250.783 102.847 250.463 102.704 Q 250.143 102.562 249.927 102.265 Z M 260.152 102.28 L 260.152 102.739 Q 260.055 102.786 259.865 102.816 Q 259.688 102.845 259.544 102.847 A 1.536 1.536 0 0 1 259.524 102.847 A 1.567 1.567 0 0 1 259.062 102.785 Q 258.554 102.628 258.422 102.077 A 1.885 1.885 0 0 1 258.374 101.637 L 258.374 99.281 L 257.807 99.281 L 257.807 98.992 L 258.374 98.742 L 258.627 97.897 L 258.974 97.897 L 258.974 98.815 L 260.123 98.815 L 260.123 99.281 L 258.974 99.281 L 258.974 101.611 A 1.208 1.208 0 0 0 258.992 101.824 Q 259.013 101.94 259.058 102.032 A 0.582 0.582 0 0 0 259.144 102.161 A 0.557 0.557 0 0 0 259.487 102.343 A 0.802 0.802 0 0 0 259.61 102.352 A 1.97 1.97 0 0 0 259.899 102.332 A 1.811 1.811 0 0 0 259.917 102.329 Q 260.059 102.306 260.144 102.282 A 0.902 0.902 0 0 0 260.152 102.28 Z M 262.765 102.28 L 262.765 102.739 Q 262.667 102.786 262.477 102.816 Q 262.3 102.845 262.156 102.847 A 1.536 1.536 0 0 1 262.136 102.847 A 1.567 1.567 0 0 1 261.674 102.785 Q 261.167 102.628 261.034 102.077 A 1.885 1.885 0 0 1 260.987 101.637 L 260.987 99.281 L 260.42 99.281 L 260.42 98.992 L 260.987 98.742 L 261.24 97.897 L 261.587 97.897 L 261.587 98.815 L 262.736 98.815 L 262.736 99.281 L 261.587 99.281 L 261.587 101.611 A 1.208 1.208 0 0 0 261.604 101.824 Q 261.625 101.94 261.671 102.032 A 0.582 0.582 0 0 0 261.757 102.161 A 0.557 0.557 0 0 0 262.099 102.343 A 0.802 0.802 0 0 0 262.223 102.352 A 1.97 1.97 0 0 0 262.511 102.332 A 1.811 1.811 0 0 0 262.53 102.329 Q 262.671 102.306 262.757 102.282 A 0.902 0.902 0 0 0 262.765 102.28 Z M 256.792 102.303 A 1.673 1.673 0 0 0 256.991 102.03 Q 257.28 101.536 257.28 100.791 A 3.52 3.52 0 0 0 257.278 100.696 Q 257.269 100.366 257.198 100.086 A 1.868 1.868 0 0 0 256.79 99.295 A 1.57 1.57 0 0 0 256.061 98.825 A 2.015 2.015 0 0 0 255.469 98.742 A 2.33 2.33 0 0 0 255.051 98.778 A 1.587 1.587 0 0 0 254.125 99.283 A 1.657 1.657 0 0 0 253.922 99.565 Q 253.641 100.054 253.641 100.791 Q 253.641 101.416 253.865 101.882 A 1.971 1.971 0 0 0 253.909 101.968 A 1.624 1.624 0 0 0 254.501 102.598 A 1.67 1.67 0 0 0 254.884 102.768 A 1.926 1.926 0 0 0 255.444 102.847 A 2.329 2.329 0 0 0 255.851 102.813 A 1.599 1.599 0 0 0 256.792 102.303 Z M 266.486 102.303 A 1.673 1.673 0 0 0 266.686 102.03 Q 266.974 101.536 266.974 100.791 A 3.52 3.52 0 0 0 266.973 100.696 Q 266.964 100.366 266.893 100.086 A 1.868 1.868 0 0 0 266.485 99.295 A 1.57 1.57 0 0 0 265.756 98.825 A 2.015 2.015 0 0 0 265.164 98.742 A 2.33 2.33 0 0 0 264.745 98.778 A 1.587 1.587 0 0 0 263.82 99.283 A 1.657 1.657 0 0 0 263.616 99.565 Q 263.336 100.054 263.336 100.791 Q 263.336 101.416 263.56 101.882 A 1.971 1.971 0 0 0 263.603 101.968 A 1.624 1.624 0 0 0 264.195 102.598 A 1.67 1.67 0 0 0 264.579 102.768 A 1.926 1.926 0 0 0 265.139 102.847 A 2.329 2.329 0 0 0 265.545 102.813 A 1.599 1.599 0 0 0 266.486 102.303 Z M 254.263 100.791 A 3.037 3.037 0 0 0 254.291 101.225 Q 254.323 101.445 254.39 101.624 A 1.258 1.258 0 0 0 254.566 101.947 A 0.983 0.983 0 0 0 255.206 102.325 A 1.49 1.49 0 0 0 255.459 102.345 A 1.393 1.393 0 0 0 255.826 102.299 A 0.97 0.97 0 0 0 256.353 101.949 Q 256.658 101.554 256.658 100.791 A 2.993 2.993 0 0 0 256.63 100.365 Q 256.599 100.148 256.533 99.972 A 1.235 1.235 0 0 0 256.353 99.644 A 0.987 0.987 0 0 0 255.739 99.278 A 1.513 1.513 0 0 0 255.451 99.252 A 1.427 1.427 0 0 0 255.096 99.294 A 0.955 0.955 0 0 0 254.562 99.639 Q 254.347 99.917 254.286 100.392 A 3.169 3.169 0 0 0 254.263 100.791 Z M 263.957 100.791 A 3.037 3.037 0 0 0 263.986 101.225 Q 264.018 101.445 264.085 101.624 A 1.258 1.258 0 0 0 264.261 101.947 A 0.983 0.983 0 0 0 264.901 102.325 A 1.49 1.49 0 0 0 265.153 102.345 A 1.393 1.393 0 0 0 265.521 102.299 A 0.97 0.97 0 0 0 266.047 101.949 Q 266.353 101.554 266.353 100.791 A 2.993 2.993 0 0 0 266.324 100.365 Q 266.293 100.148 266.227 99.972 A 1.235 1.235 0 0 0 266.047 99.644 A 0.987 0.987 0 0 0 265.434 99.278 A 1.513 1.513 0 0 0 265.146 99.252 A 1.427 1.427 0 0 0 264.79 99.294 A 0.955 0.955 0 0 0 264.257 99.639 Q 264.041 99.917 263.981 100.392 A 3.169 3.169 0 0 0 263.957 100.791 Z M 251.083 99.252 Q 250.469 99.252 250.198 99.604 A 1.027 1.027 0 0 0 250.049 99.887 Q 249.949 100.168 249.931 100.596 A 4.621 4.621 0 0 0 249.927 100.791 A 3.966 3.966 0 0 0 249.946 101.201 Q 250.001 101.721 250.205 101.985 A 0.87 0.87 0 0 0 250.646 102.283 Q 250.794 102.33 250.974 102.341 A 1.929 1.929 0 0 0 251.097 102.345 A 1.196 1.196 0 0 0 251.437 102.299 A 0.863 0.863 0 0 0 251.921 101.942 Q 252.115 101.654 252.17 101.187 A 3.437 3.437 0 0 0 252.192 100.784 A 3.544 3.544 0 0 0 252.171 100.38 Q 252.12 99.939 251.949 99.672 A 0.995 0.995 0 0 0 251.921 99.631 A 0.875 0.875 0 0 0 251.364 99.279 A 1.387 1.387 0 0 0 251.083 99.252 Z" id="bottom_labelLayer" stroke="#777777" fill="#777777" style="stroke:#777777;fill:#777777" vector-effect="non-scaling-stroke"/></g></svg>