0
SECTION
2
HEADER
9
$INSUNITS
70
4
0
ENDSEC
0
SECTION
2
TABLES
0
TABLE
2
LTYPE
0
LTYPE
72
65
70
64
2
CONTINUOUS
3
______
73
0
40
0
0
ENDTAB
0
TABLE
2
LAYER
0
ENDTAB
0
ENDSEC
0
SECTION
2
ENTITIES
0
LINE
8
front_outsideCutPath
10
0
20
63
11
0
21
42.02
0
LINE
8
front_outsideCutPath
10
0
20
42.02
11
3
21
42.02
0
LINE
8
front_outsideCutPath
10
3
20
42.02
11
3
21
23.98
0
LINE
8
front_outsideCutPath
10
3
20
23.98
11
0
21
23.98
0
LINE
8
front_outsideCutPath
10
0
20
23.98
11
0
21
5.94
0
LINE
8
front_outsideCutPath
10
0
20
5.94
11
0
21
3
0
LINE
8
front_outsideCutPath
10
0
20
3
11
9.48
21
3
0
LINE
8
front_outsideCutPath
10
9.48
20
3
11
9.48
21
6
0
LINE
8
front_outsideCutPath
10
9.48
20
6
11
27.52
21
6
0
LINE
8
front_outsideCutPath
10
27.52
20
6
11
27.52
21
3
0
LINE
8
front_outsideCutPath
10
27.52
20
3
11
37
21
3
0
LINE
8
front_outsideCutPath
10
37
20
3
11
37
21
23.98
0
LINE
8
front_outsideCutPath
10
37
20
23.98
11
34
21
23.98
0
LINE
8
front_outsideCutPath
10
34
20
23.98
11
34
21
42.02
0
LINE
8
front_outsideCutPath
10
34
20
42.02
11
37
21
42.02
0
LINE
8
front_outsideCutPath
10
37
20
42.02
11
37
21
60.06
0
LINE
8
front_outsideCutPath
10
37
20
60.06
11
37
21
63
0
LINE
8
front_outsideCutPath
10
37
20
63
11
27.52
21
63
0
LINE
8
front_outsideCutPath
10
27.52
20
63
11
27.52
21
60
0
LINE
8
front_outsideCutPath
10
27.52
20
60
11
9.48
21
60
0
LINE
8
front_outsideCutPath
10
9.48
20
60
11
9.48
21
63
0
LINE
8
front_outsideCutPath
10
9.48
20
63
11
0
21
63
0
LINE
8
front_labelLayer
10
12.3700683
20
34.1653615
11
12.3700683
21
33.6992483
0
LINE
8
front_labelLayer
10
12.3700683
20
33.6992483
11
11.3619629
21
33.6992483
0
LINE
8
front_labelLayer
10
11.3619629
20
33.6992483
11
11.3619629
21
30.2052053
0
LINE
8
front_labelLayer
10
11.3619629
20
30.2052053
11
10.7621582
21
30.2052053
0
LINE
8
front_labelLayer
10
10.7621582
20
30.2052053
11
10.7621582
21
33.6992483
0
LINE
8
front_labelLayer
10
10.7621582
20
33.6992483
11
10.0539551
21
33.6992483
0
LINE
8
front_labelLayer
10
10.0539551
20
33.6992483
11
10.0539551
21
33.9702444
0
LINE
8
front_labelLayer
10
10.0539551
20
33.9702444
11
10.7621582
21
34.1870412
0
LINE
8
front_labelLayer
10
10.7621582
20
34.1870412
11
10.7621582
21
34.4074514
0
LINE
8
front_labelLayer
10
12.7747558
20
35.7407522
11
12.6193847
21
35.2601858
0
LINE
8
front_labelLayer
10
11.3619629
20
34.4219045
11
11.3619629
21
34.1653615
0
LINE
8
front_labelLayer
10
11.3619629
20
34.1653615
11
12.3700683
21
34.1653615
0
ARC
8
front_labelLayer
10
13.1929589
20
34.4353979
40
2.4309613
50
167.5776242
51
180.6586901
0
ARC
8
front_labelLayer
10
12.049842
20
34.7019052
40
1.2573584
50
141.7434168
51
168.232199
0
ARC
8
front_labelLayer
10
11.8637178
20
34.7990475
40
1.051778
50
98.2551622
51
139.620332
0
ARC
8
front_labelLayer
10
12.0271361
20
34.0441187
40
1.8231286
50
89.6696863
51
99.9314437
0
ARC
8
front_labelLayer
10
12.0275905
20
33.9357286
40
1.9315146
50
81.5640679
51
89.701701
0
ARC
8
front_labelLayer
10
11.8917895
20
32.9883267
40
2.8885925
50
75.9740583
51
81.6564083
0
ARC
8
front_labelLayer
10
11.6587755
20
32.0218499
40
3.882737
50
73.2963789
51
76.0946126
0
ARC
8
front_labelLayer
10
11.7174533
20
32.4906774
40
2.9126717
50
71.9613919
51
76.5918264
0
ARC
8
front_labelLayer
10
11.9434296
20
33.4492878
40
1.9277912
50
76.5183536
51
83.0217165
0
ARC
8
front_labelLayer
10
12.0221374
20
34.0822446
40
1.2899614
50
83.0761209
51
89.7926103
0
ARC
8
front_labelLayer
10
12.0195489
20
34.5633236
40
0.8089065
50
89.485919
51
103.4196655
0
ARC
8
front_labelLayer
10
11.9466209
20
34.8435107
40
0.5194777
50
102.7677531
51
144.3380118
0
ARC
8
front_labelLayer
10
12.0935429
20
34.7489801
40
0.6940156
50
145.0688725
51
162.18013
0
ARC
8
front_labelLayer
10
12.5972607
20
34.5795026
40
1.2254522
50
161.843681
51
171.7847802
0
ARC
8
front_labelLayer
10
13.418852
20
34.4560981
40
2.0562515
50
171.6527171
51
178.4384092
0
ARC
8
front_labelLayer
10
14.1940495
20
34.4230436
40
2.8320869
50
178.1973195
51
180.0230455
0
LINE
8
front_labelLayer
10
15.3727051
20
34.1942678
11
15.2895996
21
33.6378225
0
LINE
8
front_labelLayer
10
13.6925293
20
32.3298147
11
13.6925293
21
30.2052053
0
LINE
8
front_labelLayer
10
13.6925293
20
30.2052053
11
13.0927246
21
30.2052053
0
LINE
8
front_labelLayer
10
13.0927246
20
30.2052053
11
13.0927246
21
34.1653615
0
LINE
8
front_labelLayer
10
13.0927246
20
34.1653615
11
13.5877441
21
34.1653615
0
LINE
8
front_labelLayer
10
13.5877441
20
34.1653615
11
13.6563965
21
33.4318654
0
LINE
8
front_labelLayer
10
13.6563965
20
33.4318654
11
13.6853027
21
33.4318654
0
ARC
8
front_labelLayer
10
14.9055196
20
31.4839888
40
2.7536453
50
84.9923121
51
90.1280557
0
ARC
8
front_labelLayer
10
14.9716477
20
32.2249148
40
2.0097755
50
78.4891624
51
85.0265431
0
ARC
8
front_labelLayer
10
14.7149977
20
31.057611
40
2.643418
50
77.4453451
51
81.6361294
0
ARC
8
front_labelLayer
10
14.8301547
20
31.8513935
40
1.8413281
50
81.5884991
51
87.1916697
0
ARC
8
front_labelLayer
10
14.8551751
20
32.2853651
40
1.4066568
50
87.3435157
51
89.9661632
0
ARC
8
front_labelLayer
10
14.849359
20
32.6527586
40
1.0392843
50
89.6335571
51
137.0880782
0
ARC
8
front_labelLayer
10
15.1044325
20
32.365926
40
1.4218634
50
135.620981
51
138.8377556
0
ARC
8
front_labelLayer
10
15.0670425
20
32.4024189
40
1.369698
50
138.9575508
51
174.5422336
0
ARC
8
front_labelLayer
10
15.5131174
20
32.3326197
40
1.8205904
50
173.6907305
51
180.0882763
0
ARC
8
front_labelLayer
10
15.4500534
20
32.4376129
40
2.0255575
50
139.4139147
51
150.6032859
0
ARC
8
front_labelLayer
10
15.0868736
20
32.7488208
40
1.5472795
50
124.2321769
51
139.4161124
0
ARC
8
front_labelLayer
10
14.8926801
20
33.041954
40
1.1956919
50
89.6796594
51
124.4405813
0
ARC
8
front_labelLayer
10
16.4334153
20
32.1680109
40
3.0982469
50
349.1762084
51
0.3862439
0
ARC
8
front_labelLayer
10
17.4765305
20
31.9600644
40
2.0346565
50
330.2506976
51
349.4116589
0
ARC
8
front_labelLayer
10
17.7975369
20
31.7932183
40
1.6732293
50
318.1440179
51
329.7566165
0
ARC
8
front_labelLayer
10
17.8554813
20
31.7467827
40
1.5990914
50
278.8959217
51
317.9979141
0
ARC
8
front_labelLayer
10
17.706197
20
32.4620104
40
2.3290929
50
269.7502566
51
279.8033482
0
ARC
8
front_labelLayer
10
17.6819852
20
32.0590342
40
1.9261459
50
253.5437181
51
270.4182285
0
ARC
8
front_labelLayer
10
17.6178651
20
31.8110019
40
1.6701327
50
238.8115219
51
253.2428526
0
ARC
8
front_labelLayer
10
17.5971749
20
31.7693948
40
1.6238292
50
207.7947194
51
238.6757945
0
ARC
8
front_labelLayer
10
17.8939152
20
31.9511532
40
1.971215
50
205.6558846
51
208.4462915
0
ARC
8
front_labelLayer
10
18.1228025
20
32.0465408
40
2.2188747
50
188.9102186
51
205.3171814
0
ARC
8
front_labelLayer
10
18.8935924
20
32.1770869
40
3.000598
50
179.7744935
51
189.0932543
0
ARC
8
front_labelLayer
10
19.0072738
20
32.2099906
40
3.1143277
50
169.2442985
51
180.3880775
0
ARC
8
front_labelLayer
10
17.9496767
20
32.4190386
40
2.0363135
50
150.7111767
51
169.469528
0
ARC
8
front_labelLayer
10
17.6120574
20
32.5924173
40
1.6570934
50
138.1759787
51
150.2287399
0
ARC
8
front_labelLayer
10
17.5558928
20
32.6355164
40
1.5865082
50
99.1759392
51
137.9832808
0
ARC
8
front_labelLayer
10
17.7104671
20
31.9080803
40
2.3295723
50
89.7326331
51
100.0760174
0
ARC
8
front_labelLayer
10
17.7413612
20
32.2222309
40
2.0154957
50
73.5222732
51
90.5692259
0
ARC
8
front_labelLayer
10
17.8595587
20
32.6516721
40
1.5701886
50
41.1445615
51
73.213398
0
ARC
8
front_labelLayer
10
17.6339289
20
32.4577463
40
1.8676967
50
13.5014473
51
41.070338
0
ARC
8
front_labelLayer
10
16.7622062
20
32.2296297
40
2.7686472
50
1.1277496
51
13.8799805
0
ARC
8
front_labelLayer
10
16.011584
20
32.1894017
40
3.5200077
50
359.9917806
51
1.5419551
0
ARC
8
front_labelLayer
10
19.5518834
20
32.1733104
40
3.0374215
50
179.7059901
51
187.9160453
0
ARC
8
front_labelLayer
10
18.4378291
20
32.0132786
40
1.9119499
50
187.7638981
51
200.0977163
0
ARC
8
front_labelLayer
10
17.8241269
20
31.7884164
40
1.2583496
50
200.0845936
51
216.9131594
0
ARC
8
front_labelLayer
10
17.6000203
20
31.6283932
40
0.9830779
50
217.3009286
51
261.7099371
0
ARC
8
front_labelLayer
10
17.7040574
20
32.1248451
40
1.4896732
50
260.5033219
51
270.2477194
0
ARC
8
front_labelLayer
10
17.7239154
20
32.0283133
40
1.3931921
50
269.4481944
51
284.7256007
0
ARC
8
front_labelLayer
10
17.8342071
20
31.6192802
40
0.969563
50
284.5662247
51
322.6333866
0
ARC
8
front_labelLayer
10
17.5763399
20
31.8055775
40
1.2876016
50
323.0089403
51
342.6390382
0
ARC
8
front_labelLayer
10
16.8387992
20
32.0466272
40
2.063494
50
342.3615617
51
353.7537993
0
ARC
8
front_labelLayer
10
15.7506618
20
32.1777898
40
3.1594652
50
353.5363007
51
0.2014202
0
ARC
8
front_labelLayer
10
15.9173744
20
32.2041704
40
2.992772
50
359.7075882
51
7.8972923
0
ARC
8
front_labelLayer
10
17.0134134
20
32.3612985
40
1.8855457
50
7.7440025
51
20.0690424
0
ARC
8
front_labelLayer
10
17.6241677
20
32.5854236
40
1.234968
50
20.0256884
51
37.4350608
0
ARC
8
front_labelLayer
10
17.8268094
20
32.7292151
40
0.9866974
50
37.9577708
51
80.4006088
0
ARC
8
front_labelLayer
10
17.7116548
20
32.2154067
40
1.512771
50
79.3453446
51
90.3175182
0
ARC
8
front_labelLayer
10
17.6903304
20
32.3007491
40
1.427464
50
89.480564
51
103.880488
0
ARC
8
front_labelLayer
10
17.5703871
20
32.7574942
40
0.9553072
50
103.4685206
51
142.3118974
0
ARC
8
front_labelLayer
10
17.8035683
20
32.5935044
40
1.2401584
50
142.9025748
51
162.3749534
0
ARC
8
front_labelLayer
10
18.538326
20
32.3486492
40
2.0145936
50
162.0653343
51
173.1674748
0
ARC
8
front_labelLayer
10
19.6839644
20
32.2025278
40
3.1694918
50
173.008579
51
180.2464141
0
LINE
8
front_labelLayer
10
23.8928222
20
30.2052053
11
23.2930176
21
30.2052053
0
LINE
8
front_labelLayer
10
23.2930176
20
30.2052053
11
23.2930176
21
32.7670217
0
LINE
8
front_labelLayer
10
21.1828613
20
32.282842
11
21.1828613
21
30.2052053
0
LINE
8
front_labelLayer
10
21.1828613
20
30.2052053
11
20.5830566
21
30.2052053
0
LINE
8
front_labelLayer
10
20.5830566
20
30.2052053
11
20.5830566
21
34.1653615
0
LINE
8
front_labelLayer
10
20.5830566
20
34.1653615
11
21.0708496
21
34.1653615
0
LINE
8
front_labelLayer
10
21.0708496
20
34.1653615
11
21.1684082
21
33.6233694
0
LINE
8
front_labelLayer
10
21.1684082
20
33.6233694
11
21.1973144
21
33.6233694
0
LINE
8
front_labelLayer
10
23.8928222
20
32.7887014
11
23.8928222
21
30.2052053
0
ARC
8
front_labelLayer
10
21.5975654
20
32.7767464
40
1.6954801
50
359.6713699
51
8.6877724
0
ARC
8
front_labelLayer
10
22.2259521
20
32.8764061
40
1.0592559
50
8.4931286
51
22.6580372
0
ARC
8
front_labelLayer
10
22.5452138
20
33.0090817
40
0.7135243
50
22.7024808
51
42.3418709
0
ARC
8
front_labelLayer
10
22.5811069
20
33.0252296
40
0.6762285
50
43.3790323
51
71.5386569
0
ARC
8
front_labelLayer
10
22.4469065
20
32.6502446
40
1.0744464
50
71.0827395
51
84.3691755
0
ARC
8
front_labelLayer
10
22.3866632
20
32.1380478
40
1.5901123
50
84.0197737
51
90.1510657
0
ARC
8
front_labelLayer
10
22.3695845
20
31.9128661
40
1.8153341
50
89.5932823
51
100.3717543
0
ARC
8
front_labelLayer
10
22.2412965
20
32.5859557
40
1.1301573
50
100.1176278
51
118.1602873
0
ARC
8
front_labelLayer
10
22.1120145
20
32.8394652
40
0.8456612
50
118.5439146
51
139.1926791
0
ARC
8
front_labelLayer
10
22.2247384
20
32.7638257
40
0.9805523
50
140.1518664
51
160.3146821
0
ARC
8
front_labelLayer
10
22.9054609
20
32.5088558
40
1.7074127
50
159.9534516
51
171.3801267
0
ARC
8
front_labelLayer
10
24.0174028
20
32.3301122
40
2.8336024
50
171.1765378
51
178.3217821
0
ARC
8
front_labelLayer
10
25.0249671
20
32.2844343
40
3.8421062
50
178.0809345
51
180.0237451
0
ARC
8
front_labelLayer
10
22.2233716
20
32.9735339
40
1.2145285
50
116.9442966
51
147.6525863
0
ARC
8
front_labelLayer
10
22.349914
20
32.761842
40
1.4606775
50
115.8073246
51
117.6065664
0
ARC
8
front_labelLayer
10
22.4144163
20
32.6114044
40
1.6242088
50
94.3226532
51
115.5454538
0
ARC
8
front_labelLayer
10
22.4532949
20
32.2735892
40
1.9640385
50
89.9579519
51
94.7108214
0
ARC
8
front_labelLayer
10
22.4693594
20
31.8695256
40
2.3681467
50
80.5585727
51
90.3537994
0
ARC
8
front_labelLayer
10
22.6173541
20
32.7267746
40
1.4982428
50
65.1094436
51
80.7638346
0
ARC
8
front_labelLayer
10
22.7903478
20
33.1099547
40
1.077853
50
46.5585053
51
64.8781912
0
ARC
8
front_labelLayer
10
22.8041973
20
33.1498753
40
1.03949
50
19.3848683
51
45.5997082
0
ARC
8
front_labelLayer
10
22.2028216
20
32.9242284
40
1.6817211
50
6.9633422
51
19.8363392
0
ARC
8
front_labelLayer
10
21.2753079
20
32.7995218
40
2.6175367
50
359.7631484
51
7.2115719
0
LINE
8
front_labelLayer
10
26.9460449
20
30.7002248
11
26.9460449
21
30.2413381
0
LINE
8
front_labelLayer
10
25.1683105
20
31.3433889
11
25.1683105
21
33.6992483
0
LINE
8
front_labelLayer
10
25.1683105
20
33.6992483
11
24.6010254
21
33.6992483
0
LINE
8
front_labelLayer
10
24.6010254
20
33.6992483
11
24.6010254
21
33.9883108
0
LINE
8
front_labelLayer
10
24.6010254
20
33.9883108
11
25.1683105
21
34.2376272
0
LINE
8
front_labelLayer
10
25.1683105
20
34.2376272
11
25.4212402
21
35.083135
0
LINE
8
front_labelLayer
10
25.4212402
20
35.083135
11
25.7681152
21
35.083135
0
LINE
8
front_labelLayer
10
25.7681152
20
35.083135
11
25.7681152
21
34.1653615
0
LINE
8
front_labelLayer
10
25.7681152
20
34.1653615
11
26.9171387
21
34.1653615
0
LINE
8
front_labelLayer
10
26.9171387
20
34.1653615
11
26.9171387
21
33.6992483
0
LINE
8
front_labelLayer
10
26.9171387
20
33.6992483
11
25.7681152
21
33.6992483
0
LINE
8
front_labelLayer
10
25.7681152
20
33.6992483
11
25.7681152
21
31.3686819
0
ARC
8
front_labelLayer
10
26.4081661
20
32.5977852
40
1.9698303
50
269.8803554
51
278.3028772
0
ARC
8
front_labelLayer
10
26.4276553
20
32.4397978
40
1.810688
50
278.4145587
51
279.0087252
0
ARC
8
front_labelLayer
10
26.2058951
20
33.8565478
40
3.2446872
50
278.9589825
51
280.510434
0
ARC
8
front_labelLayer
10
26.4166471
20
32.7257841
40
2.0944518
50
280.4844949
51
282.6271344
0
ARC
8
front_labelLayer
10
26.6012516
20
31.9056905
40
1.2538383
50
282.5877141
51
285.5793678
0
ARC
8
front_labelLayer
10
26.6935382
20
31.5661674
40
0.9020067
50
285.7248856
51
286.2565552
0
ARC
8
front_labelLayer
10
26.6938714
20
30.7746999
40
0.5899714
50
287.9887918
51
295.3047865
0
ARC
8
front_labelLayer
10
26.5515562
20
31.2052738
40
1.0434516
50
283.3071439
51
288.1196913
0
ARC
8
front_labelLayer
10
26.4012712
20
31.832161
40
1.6880993
50
280.0069275
51
283.3736195
0
ARC
8
front_labelLayer
10
26.3001841
20
32.3809645
40
2.2461233
50
279.1868758
51
280.1136864
0
ARC
8
front_labelLayer
10
26.2389325
20
32.7292608
40
2.5997356
50
275.5260841
51
279.2939555
0
ARC
8
front_labelLayer
10
26.3085073
20
32.002574
40
1.8697262
50
270.8932865
51
275.5483838
0
ARC
8
front_labelLayer
10
26.3172646
20
31.6685713
40
1.5356316
50
270.002589
51
270.7608671
0
ARC
8
front_labelLayer
10
26.2931294
20
31.6993515
40
1.5665988
50
253.7847825
51
270.8852773
0
ARC
8
front_labelLayer
10
26.1075295
20
31.066386
40
0.906986
50
190.3817746
51
253.877236
0
ARC
8
front_labelLayer
10
27.0535387
20
31.3221692
40
1.8853476
50
179.3551196
51
192.8477442
0
ARC
8
front_labelLayer
10
26.9758985
20
31.3611279
40
1.2078069
50
179.6416559
51
189.7505968
0
ARC
8
front_labelLayer
10
26.5495279
20
31.2850807
40
0.7747211
50
189.5480576
51
205.78729
0
ARC
8
front_labelLayer
10
26.3742941
20
31.2042756
40
0.5817955
50
206.1294146
51
221.4084293
0
ARC
8
front_labelLayer
10
26.3546483
20
31.1893686
40
0.557204
50
221.5949282
51
262.3505484
0
ARC
8
front_labelLayer
10
26.401377
20
31.4296708
40
0.8017161
50
261.3266765
51
270.1912217
0
LINE
8
left_outsideCutPath
10
43
20
63
11
43
21
42.02
0
LINE
8
left_outsideCutPath
10
43
20
42.02
11
40
21
42.02
0
LINE
8
left_outsideCutPath
10
40
20
42.02
11
40
21
23.98
0
LINE
8
left_outsideCutPath
10
40
20
23.98
11
43
21
23.98
0
LINE
8
left_outsideCutPath
10
43
20
23.98
11
43
21
5.94
0
LINE
8
left_outsideCutPath
10
43
20
5.94
11
43
21
3
0
LINE
8
left_outsideCutPath
10
43
20
3
11
58.82
21
3
0
LINE
8
left_outsideCutPath
10
58.82
20
3
11
58.82
21
6
0
LINE
8
left_outsideCutPath
10
58.82
20
6
11
76.86
21
6
0
LINE
8
left_outsideCutPath
10
76.86
20
6
11
76.86
21
3
0
LINE
8
left_outsideCutPath
10
76.86
20
3
11
94.9
21
3
0
LINE
8
left_outsideCutPath
10
94.9
20
3
11
94.9
21
6
0
LINE
8
left_outsideCutPath
10
94.9
20
6
11
112.94
21
6
0
LINE
8
left_outsideCutPath
10
112.94
20
6
11
112.94
21
3
0
LINE
8
left_outsideCutPath
10
112.94
20
3
11
130.98
21
3
0
LINE
8
left_outsideCutPath
10
130.98
20
3
11
130.98
21
6
0
LINE
8
left_outsideCutPath
10
130.98
20
6
11
149.02
21
6
0
LINE
8
left_outsideCutPath
10
149.02
20
6
11
149.02
21
3
0
LINE
8
left_outsideCutPath
10
149.02
20
3
11
167.06
21
3
0
LINE
8
left_outsideCutPath
10
167.06
20
3
11
167.06
21
6
0
LINE
8
left_outsideCutPath
10
167.06
20
6
11
185.1
21
6
0
LINE
8
left_outsideCutPath
10
185.1
20
6
11
185.1
21
3
0
LINE
8
left_outsideCutPath
10
185.1
20
3
11
203.14
21
3
0
LINE
8
left_outsideCutPath
10
203.14
20
3
11
203.14
21
6
0
LINE
8
left_outsideCutPath
10
203.14
20
6
11
221.18
21
6
0
LINE
8
left_outsideCutPath
10
221.18
20
6
11
221.18
21
3
0
LINE
8
left_outsideCutPath
10
221.18
20
3
11
237
21
3
0
LINE
8
left_outsideCutPath
10
237
20
3
11
237
21
23.98
0
LINE
8
left_outsideCutPath
10
237
20
23.98
11
240
21
23.98
0
LINE
8
left_outsideCutPath
10
240
20
23.98
11
240
21
42.02
0
LINE
8
left_outsideCutPath
10
240
20
42.02
11
237
21
42.02
0
LINE
8
left_outsideCutPath
10
237
20
42.02
11
237
21
60.06
0
LINE
8
left_outsideCutPath
10
237
20
60.06
11
237
21
63
0
LINE
8
left_outsideCutPath
10
237
20
63
11
221.18
21
63
0
LINE
8
left_outsideCutPath
10
221.18
20
63
11
221.18
21
60
0
LINE
8
left_outsideCutPath
10
221.18
20
60
11
203.14
21
60
0
LINE
8
left_outsideCutPath
10
203.14
20
60
11
203.14
21
63
0
LINE
8
left_outsideCutPath
10
203.14
20
63
11
185.1
21
63
0
LINE
8
left_outsideCutPath
10
185.1
20
63
11
185.1
21
60
0
LINE
8
left_outsideCutPath
10
185.1
20
60
11
167.06
21
60
0
LINE
8
left_outsideCutPath
10
167.06
20
60
11
167.06
21
63
0
LINE
8
left_outsideCutPath
10
167.06
20
63
11
149.02
21
63
0
LINE
8
left_outsideCutPath
10
149.02
20
63
11
149.02
21
60
0
LINE
8
left_outsideCutPath
10
149.02
20
60
11
130.98
21
60
0
LINE
8
left_outsideCutPath
10
130.98
20
60
11
130.98
21
63
0
LINE
8
left_outsideCutPath
10
130.98
20
63
11
112.94
21
63
0
LINE
8
left_outsideCutPath
10
112.94
20
63
11
112.94
21
60
0
LINE
8
left_outsideCutPath
10
112.94
20
60
11
94.9
21
60
0
LINE
8
left_outsideCutPath
10
94.9
20
60
11
94.9
21
63
0
LINE
8
left_outsideCutPath
10
94.9
20
63
11
76.86
21
63
0
LINE
8
left_outsideCutPath
10
76.86
20
63
11
76.86
21
60
0
LINE
8
left_outsideCutPath
10
76.86
20
60
11
58.82
21
60
0
LINE
8
left_outsideCutPath
10
58.82
20
60
11
58.82
21
63
0
LINE
8
left_outsideCutPath
10
58.82
20
63
11
43
21
63
0
LINE
8
left_labelLayer
10
132.5791016
20
37.585088
11
132.5791016
21
28.4679005
0
LINE
8
left_labelLayer
10
132.5791016
20
28.4679005
11
131.6064453
21
28.4679005
0
LINE
8
left_labelLayer
10
131.6064453
20
28.4679005
11
131.6064453
21
37.585088
0
LINE
8
left_labelLayer
10
131.6064453
20
37.585088
11
132.5791016
21
37.585088
0
LINE
8
left_labelLayer
10
139.7158203
20
32.1182911
11
139.7158203
21
31.5030567
0
LINE
8
left_labelLayer
10
139.7158203
20
31.5030567
11
135.2919922
21
31.5030567
0
LINE
8
left_labelLayer
10
139.4404297
20
29.6339161
11
139.4404297
21
28.7667286
0
LINE
8
left_labelLayer
10
135.3154297
20
32.2940724
11
138.6728516
21
32.2940724
0
ARC
8
left_labelLayer
10
137.3225102
20
32.1302729
40
3.7796952
50
256.0087872
51
270.4848155
0
ARC
8
left_labelLayer
10
137.0472746
20
31.0617522
40
2.6763442
50
223.546591
51
256.1956946
0
ARC
8
left_labelLayer
10
137.1991096
20
31.1721072
40
2.8625306
50
194.0877348
51
223.0538156
0
ARC
8
left_labelLayer
10
138.5903276
20
31.5525545
40
4.3046172
50
181.35745
51
194.4920037
0
ARC
8
left_labelLayer
10
139.8399277
20
31.625003
40
5.5557479
50
179.9886493
51
181.7991076
0
ARC
8
left_labelLayer
10
139.3914624
20
31.6603632
40
5.1073976
50
168.9539188
51
180.3843335
0
ARC
8
left_labelLayer
10
137.7234077
20
32.0000089
40
3.4051986
50
149.4070986
51
169.1853874
0
ARC
8
left_labelLayer
10
137.2586549
20
32.2455662
40
2.8802742
50
140.1056111
51
148.9067586
0
ARC
8
left_labelLayer
10
136.973137
20
32.5088008
40
2.4924559
50
92.4762692
51
140.5386354
0
ARC
8
left_labelLayer
10
137.1003647
20
31.5686615
40
3.4383022
50
89.963767
51
93.9176825
0
ARC
8
left_labelLayer
10
137.1307255
20
32.0437823
40
2.9633147
50
74.2125972
51
90.5449944
0
ARC
8
left_labelLayer
10
137.3163275
20
32.7276209
40
2.2547878
50
41.2064808
51
74.0232762
0
ARC
8
left_labelLayer
10
136.9648334
20
32.4234299
40
2.7196255
50
11.5994281
51
41.1495961
0
ARC
8
left_labelLayer
10
135.7571183
20
32.1449081
40
3.9587913
50
359.6147679
51
12.0336318
0
ARC
8
left_labelLayer
10
139.1950894
20
31.5810459
40
3.9038763
50
181.1446951
51
190.8007141
0
ARC
8
left_labelLayer
10
137.8178453
20
31.3094133
40
2.5001432
50
190.6005578
51
206.027536
0
ARC
8
left_labelLayer
10
137.2085101
20
31.021346
40
1.8262198
50
206.2950207
51
222.5557692
0
ARC
8
left_labelLayer
10
137.1545147
20
30.9930751
40
1.7673955
50
223.0645008
51
258.1401354
0
ARC
8
left_labelLayer
10
137.3694608
20
31.8781363
40
2.6778901
50
257.5311755
51
270.431936
0
ARC
8
left_labelLayer
10
137.3718604
20
34.3374245
40
5.1371329
50
270.198395
51
292.2090404
0
ARC
8
left_labelLayer
10
137.1249775
20
35.0463506
40
5.8869148
50
291.8255886
51
293.1613531
0
ARC
8
left_labelLayer
10
137.1133542
20
34.1221769
40
5.8391872
50
287.9022784
51
293.4861453
0
ARC
8
left_labelLayer
10
137.5369292
20
32.8152837
40
4.4653667
50
281.9936075
51
287.8851526
0
ARC
8
left_labelLayer
10
137.6395914
20
32.4462988
40
4.0831717
50
275.9054471
51
281.6604086
0
ARC
8
left_labelLayer
10
137.4340771
20
34.3645978
40
6.0124393
50
271.9119944
51
275.9726824
0
ARC
8
left_labelLayer
10
137.3590729
20
36.2748179
40
7.9241062
50
269.9668788
51
271.9931871
0
ARC
8
left_labelLayer
10
137.0721562
20
32.2752635
40
1.9173372
50
89.4422513
51
106.2089337
0
ARC
8
left_labelLayer
10
136.9568084
20
32.6958456
40
1.4812897
50
106.4657236
51
137.9176197
0
ARC
8
left_labelLayer
10
137.2875175
20
32.4054289
40
1.9213825
50
138.0994833
51
160.586613
0
ARC
8
left_labelLayer
10
138.1375974
20
32.0926994
40
2.8271038
50
160.335338
51
172.531533
0
ARC
8
left_labelLayer
10
138.9749094
20
31.9585524
40
3.6748286
50
172.1546118
51
174.7614733
0
ARC
8
left_labelLayer
10
135.3584426
20
32.3129009
40
3.3144624
50
359.6745175
51
8.9224647
0
ARC
8
left_labelLayer
10
136.5427687
20
32.5058683
40
2.1145504
50
8.7342538
51
23.2771895
0
ARC
8
left_labelLayer
10
137.1050189
20
32.7418856
40
1.5048057
50
23.4821679
51
39.7071741
0
ARC
8
left_labelLayer
10
137.243131
20
32.8452369
40
1.3325545
50
40.0823151
51
80.6242999
0
ARC
8
left_labelLayer
10
137.100972
20
32.1935838
40
1.998952
50
79.6468265
51
90.2909786
0
LINE
8
left_labelLayer
10
144.2685547
20
34.8897755
11
144.2685547
21
34.1339161
0
LINE
8
left_labelLayer
10
144.2685547
20
34.1339161
11
142.6337891
21
34.1339161
0
LINE
8
left_labelLayer
10
142.6337891
20
34.1339161
11
142.6337891
21
28.4679005
0
LINE
8
left_labelLayer
10
142.6337891
20
28.4679005
11
141.6611328
21
28.4679005
0
LINE
8
left_labelLayer
10
141.6611328
20
28.4679005
11
141.6611328
21
34.1339161
0
LINE
8
left_labelLayer
10
141.6611328
20
34.1339161
11
140.5126953
21
34.1339161
0
LINE
8
left_labelLayer
10
140.5126953
20
34.1339161
11
140.5126953
21
34.5733692
0
LINE
8
left_labelLayer
10
140.5126953
20
34.5733692
11
141.6611328
21
34.9249317
0
LINE
8
left_labelLayer
10
141.6611328
20
34.9249317
11
141.6611328
21
35.2823536
0
LINE
8
left_labelLayer
10
144.9248047
20
37.444463
11
144.6728516
21
36.6651661
0
LINE
8
left_labelLayer
10
142.6337891
20
35.3057911
11
142.6337891
21
34.8897755
0
LINE
8
left_labelLayer
10
142.6337891
20
34.8897755
11
144.2685547
21
34.8897755
0
ARC
8
left_labelLayer
10
145.6029722
20
35.3276702
40
3.9420999
50
167.5775974
51
180.6586613
0
ARC
8
left_labelLayer
10
143.7492651
20
35.7598479
40
2.0389557
50
141.743391
51
168.2322243
0
ARC
8
left_labelLayer
10
143.4474454
20
35.9173747
40
1.7055856
50
98.2551559
51
139.6203357
0
ARC
8
left_labelLayer
10
143.7124494
20
34.693152
40
2.9564382
50
89.6697083
51
99.9314188
0
ARC
8
left_labelLayer
10
143.7131891
20
34.517416
40
3.1321676
50
81.5640907
51
89.7017719
0
ARC
8
left_labelLayer
10
143.4929973
20
32.9812183
40
4.6840533
50
75.9739752
51
81.6565084
0
ARC
8
left_labelLayer
10
143.1150913
20
31.4137627
40
6.2963805
50
73.296369
51
76.0945804
0
ARC
8
left_labelLayer
10
143.2102876
20
32.1741824
40
4.7231375
50
71.9612944
51
76.5918408
0
ARC
8
left_labelLayer
10
143.5766971
20
33.7285213
40
3.1262025
50
76.5183847
51
83.0216341
0
ARC
8
left_labelLayer
10
143.7043456
20
34.7550396
40
2.0917809
50
83.0760469
51
89.7926919
0
ARC
8
left_labelLayer
10
143.7001439
20
35.5351274
40
1.3117322
50
89.4858803
51
103.4197126
0
ARC
8
left_labelLayer
10
143.5818834
20
35.9894767
40
0.8423965
50
102.7677687
51
144.338016
0
ARC
8
left_labelLayer
10
143.8201265
20
35.8361886
40
1.1254209
50
145.068818
51
162.180224
0
ARC
8
left_labelLayer
10
144.6370143
20
35.5613466
40
1.9872601
50
161.8437903
51
171.7846869
0
ARC
8
left_labelLayer
10
145.9693207
20
35.3612371
40
3.3344977
50
171.6527557
51
178.438375
0
ARC
8
left_labelLayer
10
147.2260261
20
35.3076542
40
4.5922372
50
178.1973862
51
180.0232457
0
LINE
8
left_labelLayer
10
148.3935547
20
29.2706349
11
148.3935547
21
28.5264942
0
LINE
8
left_labelLayer
10
145.5107422
20
30.3136036
11
145.5107422
21
34.1339161
0
LINE
8
left_labelLayer
10
145.5107422
20
34.1339161
11
144.5908203
21
34.1339161
0
LINE
8
left_labelLayer
10
144.5908203
20
34.1339161
11
144.5908203
21
34.6026661
0
LINE
8
left_labelLayer
10
144.5908203
20
34.6026661
11
145.5107422
21
35.006963
0
LINE
8
left_labelLayer
10
145.5107422
20
35.006963
11
145.9208984
21
36.3780567
0
LINE
8
left_labelLayer
10
145.9208984
20
36.3780567
11
146.4833984
21
36.3780567
0
LINE
8
left_labelLayer
10
146.4833984
20
36.3780567
11
146.4833984
21
34.8897755
0
LINE
8
left_labelLayer
10
146.4833984
20
34.8897755
11
148.3466797
21
34.8897755
0
LINE
8
left_labelLayer
10
148.3466797
20
34.8897755
11
148.3466797
21
34.1339161
0
LINE
8
left_labelLayer
10
148.3466797
20
34.1339161
11
146.4833984
21
34.1339161
0
LINE
8
left_labelLayer
10
146.4833984
20
34.1339161
11
146.4833984
21
30.3546192
0
ARC
8
left_labelLayer
10
147.5213201
20
32.3477753
40
3.1943349
50
269.8803316
51
278.3028128
0
ARC
8
left_labelLayer
10
147.5518451
20
32.0985347
40
2.9433042
50
278.4154565
51
279.0081992
0
ARC
8
left_labelLayer
10
147.1932737
20
34.3892213
40
5.261883
50
278.9590101
51
280.5103943
0
ARC
8
left_labelLayer
10
147.5349122
20
32.5561311
40
3.3972294
50
280.4846699
51
282.6267916
0
ARC
8
left_labelLayer
10
147.8344522
20
31.2253559
40
2.0331605
50
282.58766
51
285.5794473
0
ARC
8
left_labelLayer
10
147.9840003
20
30.6752005
40
1.4630582
50
285.7245036
51
286.256048
0
ARC
8
left_labelLayer
10
147.9846186
20
29.3914164
40
0.9567231
50
287.9889364
51
295.3048339
0
ARC
8
left_labelLayer
10
147.7538821
20
30.0895024
40
1.6919474
50
283.3068834
51
288.1198185
0
ARC
8
left_labelLayer
10
147.510103
20
31.1063782
40
2.7376329
50
280.0070235
51
283.3735007
0
ARC
8
left_labelLayer
10
147.3468871
20
31.9921374
40
3.6382848
50
279.1865037
51
280.114353
0
ARC
8
left_labelLayer
10
147.2468821
20
32.5610192
40
4.215843
50
275.5260628
51
279.2938845
0
ARC
8
left_labelLayer
10
147.3597152
20
31.3824729
40
3.0319087
50
270.8932098
51
275.5484296
0
ARC
8
left_labelLayer
10
147.3738712
20
30.844244
40
2.4935312
50
270.0034988
51
270.760768
0
ARC
8
left_labelLayer
10
147.3347732
20
30.8908435
40
2.5404337
50
253.7847948
51
270.8852676
0
ARC
8
left_labelLayer
10
147.0337996
20
29.8644094
40
1.4707878
50
190.3817671
51
253.8772449
0
ARC
8
left_labelLayer
10
148.5678511
20
30.2791914
40
3.0573026
50
179.3550796
51
192.847783
0
ARC
8
left_labelLayer
10
148.4419606
20
30.3423696
40
1.9586004
50
179.6416535
51
189.7506216
0
ARC
8
left_labelLayer
10
147.7505393
20
30.2190448
40
1.2562889
50
189.5479422
51
205.7873769
0
ARC
8
left_labelLayer
10
147.4663988
20
30.0880196
40
0.9434612
50
206.1294926
51
221.4083587
0
ARC
8
left_labelLayer
10
147.4345336
20
30.0638414
40
0.9035747
50
221.5949308
51
262.3505242
0
ARC
8
left_labelLayer
10
147.5103063
20
30.4534788
40
1.3000387
50
261.3265388
51
270.1913673
0
LINE
8
top_outsideCutPath
10
246
20
200
11
246
21
184.18
0
LINE
8
top_outsideCutPath
10
246
20
184.18
11
243
21
184.18
0
LINE
8
top_outsideCutPath
10
243
20
184.18
11
243
21
166.14
0
LINE
8
top_outsideCutPath
10
243
20
166.14
11
246
21
166.14
0
LINE
8
top_outsideCutPath
10
246
20
166.14
11
246
21
148.1
0
LINE
8
top_outsideCutPath
10
246
20
148.1
11
243
21
148.1
0
LINE
8
top_outsideCutPath
10
243
20
148.1
11
243
21
130.06
0
LINE
8
top_outsideCutPath
10
243
20
130.06
11
246
21
130.06
0
LINE
8
top_outsideCutPath
10
246
20
130.06
11
246
21
112.02
0
LINE
8
top_outsideCutPath
10
246
20
112.02
11
243
21
112.02
0
LINE
8
top_outsideCutPath
10
243
20
112.02
11
243
21
93.98
0
LINE
8
top_outsideCutPath
10
243
20
93.98
11
246
21
93.98
0
LINE
8
top_outsideCutPath
10
246
20
93.98
11
246
21
75.94
0
LINE
8
top_outsideCutPath
10
246
20
75.94
11
243
21
75.94
0
LINE
8
top_outsideCutPath
10
243
20
75.94
11
243
21
57.9
0
LINE
8
top_outsideCutPath
10
243
20
57.9
11
246
21
57.9
0
LINE
8
top_outsideCutPath
10
246
20
57.9
11
246
21
39.86
0
LINE
8
top_outsideCutPath
10
246
20
39.86
11
243
21
39.86
0
LINE
8
top_outsideCutPath
10
243
20
39.86
11
243
21
21.82
0
LINE
8
top_outsideCutPath
10
243
20
21.82
11
246
21
21.82
0
LINE
8
top_outsideCutPath
10
246
20
21.82
11
246
21
6
0
LINE
8
top_outsideCutPath
10
246
20
6
11
252.48
21
6
0
LINE
8
top_outsideCutPath
10
252.48
20
6
11
252.48
21
3
0
LINE
8
top_outsideCutPath
10
252.48
20
3
11
270.52
21
3
0
LINE
8
top_outsideCutPath
10
270.52
20
3
11
270.52
21
6
0
LINE
8
top_outsideCutPath
10
270.52
20
6
11
277
21
6
0
LINE
8
top_outsideCutPath
10
277
20
6
11
277
21
21.82
0
LINE
8
top_outsideCutPath
10
277
20
21.82
11
280
21
21.82
0
LINE
8
top_outsideCutPath
10
280
20
21.82
11
280
21
39.86
0
LINE
8
top_outsideCutPath
10
280
20
39.86
11
277
21
39.86
0
LINE
8
top_outsideCutPath
10
277
20
39.86
11
277
21
57.9
0
LINE
8
top_outsideCutPath
10
277
20
57.9
11
280
21
57.9
0
LINE
8
top_outsideCutPath
10
280
20
57.9
11
280
21
75.94
0
LINE
8
top_outsideCutPath
10
280
20
75.94
11
277
21
75.94
0
LINE
8
top_outsideCutPath
10
277
20
75.94
11
277
21
93.98
0
LINE
8
top_outsideCutPath
10
277
20
93.98
11
280
21
93.98
0
LINE
8
top_outsideCutPath
10
280
20
93.98
11
280
21
112.02
0
LINE
8
top_outsideCutPath
10
280
20
112.02
11
277
21
112.02
0
LINE
8
top_outsideCutPath
10
277
20
112.02
11
277
21
130.06
0
LINE
8
top_outsideCutPath
10
277
20
130.06
11
280
21
130.06
0
LINE
8
top_outsideCutPath
10
280
20
130.06
11
280
21
148.1
0
LINE
8
top_outsideCutPath
10
280
20
148.1
11
277
21
148.1
0
LINE
8
top_outsideCutPath
10
277
20
148.1
11
277
21
166.14
0
LINE
8
top_outsideCutPath
10
277
20
166.14
11
280
21
166.14
0
LINE
8
top_outsideCutPath
10
280
20
166.14
11
280
21
184.18
0
LINE
8
top_outsideCutPath
10
280
20
184.18
11
277
21
184.18
0
LINE
8
top_outsideCutPath
10
277
20
184.18
11
277
21
200
0
LINE
8
top_outsideCutPath
10
277
20
200
11
270.52
21
200
0
LINE
8
top_outsideCutPath
10
270.52
20
200
11
270.52
21
203
0
LINE
8
top_outsideCutPath
10
270.52
20
203
11
252.48
21
203
0
LINE
8
top_outsideCutPath
10
252.48
20
203
11
252.48
21
200
0
LINE
8
top_outsideCutPath
10
252.48
20
200
11
246
21
200
0
LINE
8
top_labelLayer
10
258.2986022
20
101.9449219
11
258.2986022
21
101.4860352
0
LINE
8
top_labelLayer
10
256.5208678
20
102.5880859
11
256.5208678
21
104.9439453
0
LINE
8
top_labelLayer
10
256.5208678
20
104.9439453
11
255.9535827
21
104.9439453
0
LINE
8
top_labelLayer
10
255.9535827
20
104.9439453
11
255.9535827
21
105.2330078
0
LINE
8
top_labelLayer
10
255.9535827
20
105.2330078
11
256.5208678
21
105.4823242
0
LINE
8
top_labelLayer
10
256.5208678
20
105.4823242
11
256.7737975
21
106.327832
0
LINE
8
top_labelLayer
10
256.7737975
20
106.327832
11
257.1206725
21
106.327832
0
LINE
8
top_labelLayer
10
257.1206725
20
106.327832
11
257.1206725
21
105.4100586
0
LINE
8
top_labelLayer
10
257.1206725
20
105.4100586
11
258.269696
21
105.4100586
0
LINE
8
top_labelLayer
10
258.269696
20
105.4100586
11
258.269696
21
104.9439453
0
LINE
8
top_labelLayer
10
258.269696
20
104.9439453
11
257.1206725
21
104.9439453
0
LINE
8
top_labelLayer
10
257.1206725
20
104.9439453
11
257.1206725
21
102.6133789
0
ARC
8
top_labelLayer
10
257.7607234
20
103.8424822
40
1.9698303
50
269.8803554
51
278.3028772
0
ARC
8
top_labelLayer
10
257.7802126
20
103.6844948
40
1.810688
50
278.4145587
51
279.0087252
0
ARC
8
top_labelLayer
10
257.5584524
20
105.1012449
40
3.2446872
50
278.9589825
51
280.510434
0
ARC
8
top_labelLayer
10
257.7692044
20
103.9704812
40
2.0944518
50
280.4844949
51
282.6271344
0
ARC
8
top_labelLayer
10
257.953809
20
103.1503876
40
1.2538383
50
282.5877141
51
285.5793678
0
ARC
8
top_labelLayer
10
258.0460955
20
102.8108645
40
0.9020067
50
285.7248856
51
286.2565552
0
ARC
8
top_labelLayer
10
258.0464287
20
102.0193969
40
0.5899714
50
287.9887918
51
295.3047865
0
ARC
8
top_labelLayer
10
257.9041135
20
102.4499708
40
1.0434516
50
283.3071439
51
288.1196913
0
ARC
8
top_labelLayer
10
257.7538285
20
103.076858
40
1.6880993
50
280.0069275
51
283.3736195
0
ARC
8
top_labelLayer
10
257.6527414
20
103.6256616
40
2.2461233
50
279.1868758
51
280.1136864
0
ARC
8
top_labelLayer
10
257.5914898
20
103.9739579
40
2.5997356
50
275.5260841
51
279.2939555
0
ARC
8
top_labelLayer
10
257.6610646
20
103.2472711
40
1.8697262
50
270.8932865
51
275.5483838
0
ARC
8
top_labelLayer
10
257.6698219
20
102.9132684
40
1.5356316
50
270.002589
51
270.7608671
0
ARC
8
top_labelLayer
10
257.6456867
20
102.9440485
40
1.5665988
50
253.7847825
51
270.8852773
0
ARC
8
top_labelLayer
10
257.4600868
20
102.311083
40
0.906986
50
190.3817746
51
253.877236
0
ARC
8
top_labelLayer
10
258.406096
20
102.5668663
40
1.8853476
50
179.3551196
51
192.8477442
0
ARC
8
top_labelLayer
10
258.3284558
20
102.605825
40
1.2078069
50
179.6416559
51
189.7505968
0
ARC
8
top_labelLayer
10
257.9020852
20
102.5297778
40
0.7747211
50
189.5480576
51
205.78729
0
ARC
8
top_labelLayer
10
257.7268514
20
102.4489726
40
0.5817955
50
206.1294146
51
221.4084293
0
ARC
8
top_labelLayer
10
257.7072056
20
102.4340656
40
0.557204
50
221.5949282
51
262.3505484
0
ARC
8
top_labelLayer
10
257.7539343
20
102.6743679
40
0.8017161
50
261.3266765
51
270.1912217
0
ARC
8
top_labelLayer
10
259.4098983
20
103.4127079
40
3.0982469
50
349.1762084
51
0.3862439
0
ARC
8
top_labelLayer
10
260.4530136
20
103.2047615
40
2.0346565
50
330.2506976
51
349.4116589
0
ARC
8
top_labelLayer
10
260.77402
20
103.0379154
40
1.6732293
50
318.1440179
51
329.7566165
0
ARC
8
top_labelLayer
10
260.8319644
20
102.9914798
40
1.5990914
50
278.8959217
51
317.9979141
0
ARC
8
top_labelLayer
10
260.6826801
20
103.7067075
40
2.3290929
50
269.7502566
51
279.8033482
0
ARC
8
top_labelLayer
10
260.6584683
20
103.3037313
40
1.9261459
50
253.5437181
51
270.4182285
0
ARC
8
top_labelLayer
10
260.5943481
20
103.0556989
40
1.6701327
50
238.8115219
51
253.2428526
0
ARC
8
top_labelLayer
10
260.573658
20
103.0140918
40
1.6238292
50
207.7947194
51
238.6757945
0
ARC
8
top_labelLayer
10
260.8703982
20
103.1958502
40
1.971215
50
205.6558846
51
208.4462915
0
ARC
8
top_labelLayer
10
261.0992856
20
103.2912379
40
2.2188747
50
188.9102186
51
205.3171814
0
ARC
8
top_labelLayer
10
261.8700755
20
103.4217839
40
3.000598
50
179.7744935
51
189.0932543
0
ARC
8
top_labelLayer
10
261.9837569
20
103.4546876
40
3.1143277
50
169.2442985
51
180.3880775
0
ARC
8
top_labelLayer
10
260.9261598
20
103.6637356
40
2.0363135
50
150.7111767
51
169.469528
0
ARC
8
top_labelLayer
10
260.5885405
20
103.8371143
40
1.6570934
50
138.1759787
51
150.2287399
0
ARC
8
top_labelLayer
10
260.5323759
20
103.8802135
40
1.5865082
50
99.1759392
51
137.9832808
0
ARC
8
top_labelLayer
10
260.6869502
20
103.1527774
40
2.3295723
50
89.7326331
51
100.0760174
0
ARC
8
top_labelLayer
10
260.7178443
20
103.466928
40
2.0154957
50
73.5222732
51
90.5692259
0
ARC
8
top_labelLayer
10
260.8360418
20
103.8963692
40
1.5701886
50
41.1445615
51
73.213398
0
ARC
8
top_labelLayer
10
260.6104119
20
103.7024434
40
1.8676967
50
13.5014473
51
41.070338
0
ARC
8
top_labelLayer
10
259.7386893
20
103.4743268
40
2.7686472
50
1.1277496
51
13.8799805
0
ARC
8
top_labelLayer
10
258.9880671
20
103.4340987
40
3.5200077
50
359.9917806
51
1.5419551
0
ARC
8
top_labelLayer
10
262.5283665
20
103.4180075
40
3.0374215
50
179.7059901
51
187.9160453
0
ARC
8
top_labelLayer
10
261.4143122
20
103.2579757
40
1.9119499
50
187.7638981
51
200.0977163
0
ARC
8
top_labelLayer
10
260.80061
20
103.0331134
40
1.2583496
50
200.0845936
51
216.9131594
0
ARC
8
top_labelLayer
10
260.5765034
20
102.8730902
40
0.9830779
50
217.3009286
51
261.7099371
0
ARC
8
top_labelLayer
10
260.6805405
20
103.3695422
40
1.4896732
50
260.5033219
51
270.2477194
0
ARC
8
top_labelLayer
10
260.7003985
20
103.2730103
40
1.3931921
50
269.4481944
51
284.7256007
0
ARC
8
top_labelLayer
10
260.8106902
20
102.8639773
40
0.969563
50
284.5662247
51
322.6333866
0
ARC
8
top_labelLayer
10
260.552823
20
103.0502746
40
1.2876016
50
323.0089403
51
342.6390382
0
ARC
8
top_labelLayer
10
259.8152823
20
103.2913243
40
2.063494
50
342.3615617
51
353.7537993
0
ARC
8
top_labelLayer
10
258.7271449
20
103.4224868
40
3.1594652
50
353.5363007
51
0.2014202
0
ARC
8
top_labelLayer
10
258.8938574
20
103.4488674
40
2.992772
50
359.7075882
51
7.8972923
0
ARC
8
top_labelLayer
10
259.9898965
20
103.6059955
40
1.8855457
50
7.7440025
51
20.0690424
0
ARC
8
top_labelLayer
10
260.6006508
20
103.8301206
40
1.234968
50
20.0256884
51
37.4350608
0
ARC
8
top_labelLayer
10
260.8032925
20
103.9739122
40
0.9866974
50
37.9577708
51
80.4006088
0
ARC
8
top_labelLayer
10
260.6881379
20
103.4601037
40
1.512771
50
79.3453446
51
90.3175182
0
ARC
8
top_labelLayer
10
260.6668135
20
103.5454462
40
1.427464
50
89.480564
51
103.880488
0
ARC
8
top_labelLayer
10
260.5468702
20
104.0021912
40
0.9553072
50
103.4685206
51
142.3118974
0
ARC
8
top_labelLayer
10
260.7800514
20
103.8382015
40
1.2401584
50
142.9025748
51
162.3749534
0
ARC
8
top_labelLayer
10
261.5148091
20
103.5933463
40
2.0145936
50
162.0653343
51
173.1674748
0
ARC
8
top_labelLayer
10
262.6604475
20
103.4472249
40
3.1694918
50
173.008579
51
180.2464141
0
LINE
8
top_labelLayer
10
264.1593444
20
101.959375
11
264.115985
21
101.959375
0
LINE
8
top_labelLayer
10
264.1593444
20
101.3017578
11
264.1593444
21
99.672168
0
LINE
8
top_labelLayer
10
264.1593444
20
99.672168
11
263.5595397
21
99.672168
0
LINE
8
top_labelLayer
10
263.5595397
20
99.672168
11
263.5595397
21
105.4100586
0
LINE
8
top_labelLayer
10
263.5595397
20
105.4100586
11
264.0473327
21
105.4100586
0
LINE
8
top_labelLayer
10
264.0473327
20
105.4100586
11
264.1304381
21
104.8680664
0
LINE
8
top_labelLayer
10
264.1304381
20
104.8680664
11
264.1593444
21
104.8680664
0
LINE
8
top_labelLayer
10
264.1593444
20
103.5672852
11
264.1593444
21
103.4335938
0
ARC
8
top_labelLayer
10
265.392199
20
103.1969516
40
1.819343
50
255.7755585
51
270.3185216
0
ARC
8
top_labelLayer
10
265.3402832
20
102.9662875
40
1.5830069
50
245.9802037
51
255.545548
0
ARC
8
top_labelLayer
10
265.2397184
20
102.73242
40
1.3284602
50
215.5850316
51
245.836153
0
ARC
8
top_labelLayer
10
258.4843938
20
101.2477333
40
5.6763768
50
2.9503092
51
7.2020655
0
ARC
8
top_labelLayer
10
259.4026414
20
101.2991118
40
4.7567037
50
0.0318723
51
2.9015466
0
ARC
8
top_labelLayer
10
265.4805982
20
103.9401484
40
1.6145413
50
132.3565418
51
144.9195888
0
ARC
8
top_labelLayer
10
265.2332607
20
104.2099844
40
1.2485
50
115.4006032
51
132.3118329
0
ARC
8
top_labelLayer
10
265.3297388
20
103.9751195
40
1.5021061
50
97.7066505
51
114.8821291
0
ARC
8
top_labelLayer
10
265.397116
20
103.5381605
40
1.9441708
50
89.8468367
51
97.9474824
0
ARC
8
top_labelLayer
10
265.4208762
20
103.643857
40
1.8385609
50
74.1923814
51
90.5784978
0
ARC
8
top_labelLayer
10
265.5480943
20
104.1063257
40
1.3589314
50
38.0523375
51
74.0417225
0
ARC
8
top_labelLayer
10
265.1972056
20
103.8373845
40
1.8010141
50
16.3355956
51
37.9090529
0
ARC
8
top_labelLayer
10
264.2754146
20
103.5534668
40
2.76548
50
4.576644
51
16.60888
0
ARC
8
top_labelLayer
10
263.1405724
20
103.4403875
40
3.9057896
50
359.9003396
51
4.9018202
0
ARC
8
top_labelLayer
10
263.5296228
20
103.4128455
40
3.5167945
50
350.6562814
51
0.3380327
0
ARC
8
top_labelLayer
10
264.7556275
20
103.2043166
40
2.2732102
50
335.8306192
51
350.8254576
0
ARC
8
top_labelLayer
10
265.2949316
20
102.9715467
40
1.6858988
50
321.3161729
51
335.5436065
0
ARC
8
top_labelLayer
10
265.5011137
20
102.8035404
40
1.4199458
50
274.0640049
51
321.4081084
0
ARC
8
top_labelLayer
10
265.4050602
20
103.4119703
40
2.0343356
50
269.9226318
51
275.5482091
0
ARC
8
top_labelLayer
10
265.3032412
20
103.2446176
40
1.7282781
50
89.5904647
51
100.3501643
0
ARC
8
top_labelLayer
10
265.1800033
20
103.8920423
40
1.0692582
50
100.0868498
51
118.1917455
0
ARC
8
top_labelLayer
10
265.0537546
20
104.1382708
40
0.7926126
50
118.5569576
51
141.0243386
0
ARC
8
top_labelLayer
10
265.2461281
20
104.0025727
40
1.0276361
50
141.8889938
51
160.5973131
0
ARC
8
top_labelLayer
10
265.9222164
20
103.7544956
40
1.7477651
50
160.2895549
51
171.245298
0
ARC
8
top_labelLayer
10
267.0338644
20
103.5752644
40
2.873752
50
171.0868905
51
178.3247154
0
ARC
8
top_labelLayer
10
267.9768276
20
103.5304668
40
3.8176606
50
178.0664115
51
179.4474181
0
ARC
8
top_labelLayer
10
268.1251895
20
103.4181079
40
3.9658753
50
179.776272
51
185.7075065
0
ARC
8
top_labelLayer
10
266.5615819
20
103.2570017
40
2.394002
50
185.5924716
51
194.2050384
0
ARC
8
top_labelLayer
10
265.5599428
20
102.9970421
40
1.3592112
50
193.9430013
51
208.0219035
0
ARC
8
top_labelLayer
10
265.1547111
20
102.7908904
40
0.9046727
50
208.5537453
51
217.5604003
0
ARC
8
top_labelLayer
10
265.1216742
20
102.7771452
40
0.8701539
50
218.1690354
51
253.8047099
0
ARC
8
top_labelLayer
10
265.2830712
20
103.2747472
40
1.3931191
50
253.1382236
51
266.8482984
0
ARC
8
top_labelLayer
10
265.3283322
20
103.8084992
40
1.9286173
50
266.3775098
51
270.0509605
0
ARC
8
top_labelLayer
10
265.3437048
20
102.8904411
40
1.0106506
50
269.2257173
51
292.0430044
0
ARC
8
top_labelLayer
10
265.3573414
20
102.8091733
40
0.9303768
50
293.142967
51
324.1353836
0
ARC
8
top_labelLayer
10
265.1543962
20
102.9809528
40
1.1956576
50
323.1620436
51
325.0151189
0
ARC
8
top_labelLayer
10
264.9377958
20
103.1152262
40
1.4501755
50
325.5753484
51
344.1504786
0
ARC
8
top_labelLayer
10
264.1873645
20
103.3370631
40
2.2326794
50
343.9335935
51
355.1137449
0
ARC
8
top_labelLayer
10
263.2293696
20
103.4342712
40
3.195509
50
354.8402231
51
0.1174266
0
ARC
8
top_labelLayer
10
263.3981159
20
103.4560974
40
3.0267944
50
359.7108113
51
7.8610189
0
ARC
8
top_labelLayer
10
264.4986599
20
103.6129764
40
1.9151421
50
7.7149407
51
19.885959
0
ARC
8
top_labelLayer
10
265.1039228
20
103.8315992
40
1.2716057
50
19.8991628
51
35.897981
0
ARC
8
top_labelLayer
10
265.3739046
20
104.0360616
40
0.933047
50
35.4481584
51
85.2266636
0
ARC
8
top_labelLayer
10
265.317503
20
103.6823401
40
1.2905129
50
84.0379882
51
90.0847354
0
LINE
8
back_outsideCutPath
10
0
20
126
11
0
21
105.02
0
LINE
8
back_outsideCutPath
10
0
20
105.02
11
3
21
105.02
0
LINE
8
back_outsideCutPath
10
3
20
105.02
11
3
21
86.98
0
LINE
8
back_outsideCutPath
10
3
20
86.98
11
0
21
86.98
0
LINE
8
back_outsideCutPath
10
0
20
86.98
11
0
21
68.94
0
LINE
8
back_outsideCutPath
10
0
20
68.94
11
0
21
66
0
LINE
8
back_outsideCutPath
10
0
20
66
11
9.48
21
66
0
LINE
8
back_outsideCutPath
10
9.48
20
66
11
9.48
21
69
0
LINE
8
back_outsideCutPath
10
9.48
20
69
11
27.52
21
69
0
LINE
8
back_outsideCutPath
10
27.52
20
69
11
27.52
21
66
0
LINE
8
back_outsideCutPath
10
27.52
20
66
11
37
21
66
0
LINE
8
back_outsideCutPath
10
37
20
66
11
37
21
86.98
0
LINE
8
back_outsideCutPath
10
37
20
86.98
11
34
21
86.98
0
LINE
8
back_outsideCutPath
10
34
20
86.98
11
34
21
105.02
0
LINE
8
back_outsideCutPath
10
34
20
105.02
11
37
21
105.02
0
LINE
8
back_outsideCutPath
10
37
20
105.02
11
37
21
123.06
0
LINE
8
back_outsideCutPath
10
37
20
123.06
11
37
21
126
0
LINE
8
back_outsideCutPath
10
37
20
126
11
27.52
21
126
0
LINE
8
back_outsideCutPath
10
27.52
20
126
11
27.52
21
123
0
LINE
8
back_outsideCutPath
10
27.52
20
123
11
9.48
21
123
0
LINE
8
back_outsideCutPath
10
9.48
20
123
11
9.48
21
126
0
LINE
8
back_outsideCutPath
10
9.48
20
126
11
0
21
126
0
LINE
8
back_labelLayer
10
11.4288086
20
93.7345135
11
11.3854492
21
93.7345135
0
LINE
8
back_labelLayer
10
11.3854492
20
93.7345135
11
11.2589844
21
93.2250408
0
LINE
8
back_labelLayer
10
11.2589844
20
93.2250408
11
10.8290039
21
93.2250408
0
LINE
8
back_labelLayer
10
10.8290039
20
93.2250408
11
10.8290039
21
98.8473064
0
LINE
8
back_labelLayer
10
10.8290039
20
98.8473064
11
11.4288086
21
98.8473064
0
LINE
8
back_labelLayer
10
11.4288086
20
98.8473064
11
11.4288086
21
97.4814861
0
LINE
8
back_labelLayer
10
11.3999023
20
96.657658
11
11.4288086
21
96.657658
0
ARC
8
back_labelLayer
10
12.68977
20
95.4171073
40
1.8332171
50
74.2393621
51
90.5623567
0
ARC
8
back_labelLayer
10
12.8109885
20
95.8618066
40
1.3723172
50
38.5631341
51
74.0670289
0
ARC
8
back_labelLayer
10
12.4990403
20
95.6192493
40
1.7674474
50
16.4709137
51
38.4075193
0
ARC
8
back_labelLayer
10
11.6003526
20
95.3374477
40
2.7091993
50
5.1338705
51
16.7973216
0
ARC
8
back_labelLayer
10
10.4658517
20
95.2169346
40
3.8499773
50
359.8779308
51
5.4093536
0
ARC
8
back_labelLayer
10
10.799087
20
95.187984
40
3.5167945
50
350.6562814
51
0.3380327
0
ARC
8
back_labelLayer
10
12.0250917
20
94.9794551
40
2.2732102
50
335.8306192
51
350.8254576
0
ARC
8
back_labelLayer
10
12.5643958
20
94.7466851
40
1.6858988
50
321.3161729
51
335.5436065
0
ARC
8
back_labelLayer
10
12.7705779
20
94.5786789
40
1.4199458
50
274.0640049
51
321.4081084
0
ARC
8
back_labelLayer
10
12.6745244
20
95.1871088
40
2.0343356
50
269.9226318
51
275.5482091
0
ARC
8
back_labelLayer
10
12.6616632
20
94.9720901
40
1.819343
50
255.7755585
51
270.3185216
0
ARC
8
back_labelLayer
10
12.6097474
20
94.741426
40
1.5830069
50
245.9802037
51
255.545548
0
ARC
8
back_labelLayer
10
12.5091826
20
94.5075585
40
1.3284602
50
215.5850316
51
245.836153
0
ARC
8
back_labelLayer
10
-1.0765928
20
97.4709084
40
12.5054059
50
358.1123387
51
0.048464
0
ARC
8
back_labelLayer
10
2.4035165
20
97.3540811
40
9.0233369
50
355.7239063
51
358.1258589
0
ARC
8
back_labelLayer
10
3.9326506
20
97.2490449
40
7.4906333
50
355.4717749
51
355.6529812
0
ARC
8
back_labelLayer
10
12.5474179
20
95.8776216
40
1.3637242
50
95.1835038
51
145.1108993
0
ARC
8
back_labelLayer
10
12.6672843
20
95.2016838
40
2.0485573
50
89.8743333
51
96.8145294
0
ARC
8
back_labelLayer
10
12.5725014
20
95.0625386
40
1.6854983
50
89.573133
51
100.7324457
0
ARC
8
back_labelLayer
10
12.4477273
20
95.6929375
40
1.0429037
50
100.4469492
51
119.670084
0
ARC
8
back_labelLayer
10
12.3320244
20
95.9092578
40
0.7976986
50
120.1402987
51
142.4248894
0
ARC
8
back_labelLayer
10
12.5234436
20
95.7826275
40
1.0267585
50
143.3382077
51
161.256001
0
ARC
8
back_labelLayer
10
13.3239359
20
95.4984268
40
1.8761585
50
160.892665
51
171.2334493
0
ARC
8
back_labelLayer
10
14.6602315
20
95.2828482
40
3.2297128
50
171.0667477
51
177.8457088
0
ARC
8
back_labelLayer
10
16.0500754
20
95.2121628
40
4.621268
50
177.6177004
51
180.0425339
0
ARC
8
back_labelLayer
10
15.3946537
20
95.1932464
40
3.9658753
50
179.776272
51
185.7075065
0
ARC
8
back_labelLayer
10
13.8310461
20
95.0321402
40
2.394002
50
185.5924716
51
194.2050384
0
ARC
8
back_labelLayer
10
12.829407
20
94.7721806
40
1.3592112
50
193.9430013
51
208.0219035
0
ARC
8
back_labelLayer
10
12.4241753
20
94.5660289
40
0.9046727
50
208.5537453
51
217.5604003
0
ARC
8
back_labelLayer
10
12.3911384
20
94.5522836
40
0.8701539
50
218.1690354
51
253.8047099
0
ARC
8
back_labelLayer
10
12.5525354
20
95.0498856
40
1.3931191
50
253.1382236
51
266.8482984
0
ARC
8
back_labelLayer
10
12.5977964
20
95.5836377
40
1.9286173
50
266.3775098
51
270.0509605
0
ARC
8
back_labelLayer
10
12.6123071
20
94.8506551
40
1.1957023
50
269.3868567
51
285.8630671
0
ARC
8
back_labelLayer
10
12.70114
20
94.5296013
40
0.8625964
50
286.0162834
51
326.8497538
0
ARC
8
back_labelLayer
10
12.2723826
20
94.8136375
40
1.3768945
50
326.7105097
51
343.6661655
0
ARC
8
back_labelLayer
10
11.4697585
20
95.0588913
40
2.2161187
50
343.4171801
51
353.6368631
0
ARC
8
back_labelLayer
10
10.257505
20
95.2027296
40
3.4368563
50
353.4935144
51
0.2205448
0
ARC
8
back_labelLayer
10
10.1506981
20
95.2303044
40
3.5436669
50
359.7680517
51
6.309553
0
ARC
8
back_labelLayer
10
11.485517
20
95.3834859
40
2.2001058
50
6.1648365
51
16.0396662
0
ARC
8
back_labelLayer
10
12.345388
20
95.6368904
40
1.3037063
50
15.7779567
51
32.0151459
0
ARC
8
back_labelLayer
10
12.6132873
20
95.7902807
40
0.9953054
50
32.7038973
51
35.523899
0
ARC
8
back_labelLayer
10
12.7115991
20
95.8601498
40
0.8746953
50
35.540846
51
79.8011075
0
ARC
8
back_labelLayer
10
12.5941378
20
95.3607927
40
1.3872269
50
78.6781764
51
90.3749945
0
LINE
8
back_labelLayer
10
18.243457
20
93.2250408
11
17.7990234
21
93.2250408
0
LINE
8
back_labelLayer
10
17.7990234
20
93.2250408
11
17.6797852
21
93.7887127
0
LINE
8
back_labelLayer
10
17.6797852
20
93.7887127
11
17.6508789
21
93.7887127
0
LINE
8
back_labelLayer
10
16.9860352
20
95.5772869
11
17.6581055
21
95.5989666
0
LINE
8
back_labelLayer
10
17.6581055
20
95.5989666
11
17.6581055
21
95.8446697
0
LINE
8
back_labelLayer
10
15.6960938
20
96.451701
11
15.5118164
21
96.9105877
0
LINE
8
back_labelLayer
10
18.243457
20
95.9277752
11
18.243457
21
93.2250408
0
LINE
8
back_labelLayer
10
17.6436523
20
94.8148846
11
17.6436523
21
95.1725994
0
LINE
8
back_labelLayer
10
17.6436523
20
95.1725994
11
17.0438477
21
95.1473064
0
ARC
8
back_labelLayer
10
15.6993359
20
95.329551
40
2.4865041
50
314.7445575
51
321.7071872
0
ARC
8
back_labelLayer
10
16.3102498
20
94.7088172
40
1.6155782
50
304.8485074
51
314.8531122
0
ARC
8
back_labelLayer
10
16.6036994
20
94.2911195
40
1.1051105
50
294.3932812
51
304.7371399
0
ARC
8
back_labelLayer
10
16.5034376
20
94.5509094
40
1.3832097
50
281.2980176
51
293.7312961
0
ARC
8
back_labelLayer
10
16.3709058
20
95.1932273
40
2.0390491
50
272.9335275
51
281.4139467
0
ARC
8
back_labelLayer
10
16.326976
20
95.8519922
40
2.699218
50
269.9539103
51
273.1491577
0
ARC
8
back_labelLayer
10
16.3118017
20
94.9934541
40
1.8407249
50
258.672004
51
270.404743
0
ARC
8
back_labelLayer
10
16.1839427
20
94.3818224
40
1.2159048
50
238.3272861
51
258.9183693
0
ARC
8
back_labelLayer
10
16.0958258
20
94.2210672
40
1.0328681
50
227.7688657
51
237.8050457
0
ARC
8
back_labelLayer
10
16.0682729
20
94.1826032
40
0.985884
50
192.0827588
51
227.4520569
0
ARC
8
back_labelLayer
10
16.576557
20
94.3079
40
1.5092217
50
179.5457569
51
192.6949291
0
ARC
8
back_labelLayer
10
16.1043645
20
94.3625446
40
1.0378596
50
115.4904649
51
182.3568217
0
ARC
8
back_labelLayer
10
16.6241366
20
93.4091742
40
2.1229322
50
101.3568223
51
117.0798495
0
ARC
8
back_labelLayer
10
17.0415621
20
91.4585004
40
4.117687
50
92.4696402
51
101.7064742
0
ARC
8
back_labelLayer
10
17.1615449
20
89.7207024
40
5.8592139
50
91.7165228
51
92.9095875
0
ARC
8
back_labelLayer
10
15.9353566
20
95.8538919
40
1.7227736
50
359.6932875
51
8.0035773
0
ARC
8
back_labelLayer
10
16.5870481
20
95.948831
40
1.0642161
50
7.8271979
51
20.6041787
0
ARC
8
back_labelLayer
10
16.9558236
20
96.0899061
40
0.6693877
50
20.4094267
51
41.447911
0
ARC
8
back_labelLayer
10
17.0103118
20
96.1198554
40
0.6088733
50
42.7295941
51
71.0379619
0
ARC
8
back_labelLayer
10
16.8820327
20
95.771064
40
0.9804529
50
70.5715573
51
83.9929309
0
ARC
8
back_labelLayer
10
16.820747
20
95.273268
40
1.4819556
50
83.6506059
51
90.1753765
0
ARC
8
back_labelLayer
10
16.8314958
20
94.8024408
40
1.9528356
50
90.4484592
51
103.7665326
0
ARC
8
back_labelLayer
10
17.0611435
20
93.8340116
40
2.9481027
50
103.622664
51
112.4319585
0
ARC
8
back_labelLayer
10
17.4547928
20
92.8400897
40
4.0170583
50
112.2122546
51
115.964086
0
ARC
8
back_labelLayer
10
16.8243995
20
94.4764176
40
2.7655123
50
106.3568671
51
118.334979
0
ARC
8
back_labelLayer
10
16.9422428
20
94.1123695
40
3.1480307
50
104.5162631
51
106.5488979
0
ARC
8
back_labelLayer
10
16.8558075
20
94.4724713
40
2.7777669
50
90.071446
51
104.652095
0
ARC
8
back_labelLayer
10
16.8667089
20
94.7170417
40
2.5332351
50
81.5679444
51
90.3249072
0
ARC
8
back_labelLayer
10
17.0131786
20
95.6712386
40
1.5678829
50
68.2273116
51
81.7494331
0
ARC
8
back_labelLayer
10
17.2171856
20
96.178822
40
1.0208385
50
47.8682928
51
68.2934381
0
ARC
8
back_labelLayer
10
17.250296
20
96.244932
40
0.9498056
50
19.2330896
51
46.6741454
0
ARC
8
back_labelLayer
10
16.6987347
20
96.0397487
40
1.5382191
50
6.3378561
51
19.681575
0
ARC
8
back_labelLayer
10
15.8833633
20
95.9359016
40
2.3601079
50
359.8027173
51
6.6583785
0
ARC
8
back_labelLayer
10
16.4561724
20
95.2991873
40
1.6514371
50
269.5791729
51
282.0413258
0
ARC
8
back_labelLayer
10
16.5766319
20
94.7648738
40
1.103768
50
281.7121053
51
306.4594011
0
ARC
8
back_labelLayer
10
16.6300766
20
94.6769942
40
1.0013714
50
306.9880012
51
313.8561461
0
ARC
8
back_labelLayer
10
16.6236909
20
94.6752122
40
1.0045278
50
314.1892073
51
347.4269575
0
ARC
8
back_labelLayer
10
16.1204988
20
94.8013086
40
1.5231622
50
346.9177905
51
0.282493
0
ARC
8
back_labelLayer
10
15.7294459
20
94.8148808
40
1.9142064
50
359.8185403
51
0.0001128
0
ARC
8
back_labelLayer
10
17.1865172
20
90.7455846
40
4.4040333
50
91.8564325
51
96.4478861
0
ARC
8
back_labelLayer
10
16.9879028
20
92.4641954
40
2.6739931
50
96.3544868
51
102.9953838
0
ARC
8
back_labelLayer
10
16.7183089
20
93.6096093
40
1.4972998
50
102.7995753
51
113.2433202
0
ARC
8
back_labelLayer
10
16.496056
20
94.1411506
40
0.9212075
50
113.5886072
51
121.6803949
0
ARC
8
back_labelLayer
10
16.341639
20
94.3763276
40
0.6400259
50
120.9734228
51
172.4179837
0
ARC
8
back_labelLayer
10
16.6434443
20
94.3160416
40
0.9473568
50
171.2121082
51
180.2058216
0
ARC
8
back_labelLayer
10
16.5532548
20
94.3055569
40
0.8571903
50
179.5266499
51
192.778777
0
ARC
8
back_labelLayer
10
16.263284
20
94.2352666
40
0.558872
50
192.3265102
51
222.0579384
0
ARC
8
back_labelLayer
10
16.2417084
20
94.222362
40
0.5342305
50
222.5804537
51
229.2547258
0
ARC
8
back_labelLayer
10
16.3145983
20
94.3162035
40
0.6529294
50
229.7836358
51
254.2723961
0
ARC
8
back_labelLayer
10
16.4116733
20
94.6397003
40
0.990645
50
253.9397072
51
266.4532917
0
ARC
8
back_labelLayer
10
16.4426561
20
94.9968416
40
1.3490477
50
266.0782696
51
270.0589019
0
LINE
8
back_labelLayer
10
22.1205078
20
97.0515057
11
21.9362305
21
96.542033
0
LINE
8
back_labelLayer
10
22.0626953
20
93.8898846
11
22.0626953
21
93.3587322
0
ARC
8
back_labelLayer
10
21.0426852
20
95.3944067
40
2.2417132
50
256.4243875
51
270.4889801
0
ARC
8
back_labelLayer
10
20.863551
20
94.69526
40
1.520085
50
221.7976314
51
256.80206
0
ARC
8
back_labelLayer
10
21.0370239
20
94.8234322
40
1.7349526
50
196.0166838
51
221.1349104
0
ARC
8
back_labelLayer
10
21.9088679
20
95.089912
40
2.646525
50
183.5913642
51
196.3539546
0
ARC
8
back_labelLayer
10
22.8856496
20
95.1759581
40
3.6268625
50
179.9388972
51
183.9814335
0
ARC
8
back_labelLayer
10
22.5682186
20
95.2011325
40
3.3094981
50
169.8978586
51
180.3688731
0
ARC
8
back_labelLayer
10
21.4160957
20
95.4142578
40
2.1378681
50
153.0875
51
170.1051516
0
ARC
8
back_labelLayer
10
20.9789663
20
95.6231306
40
1.6535791
50
138.6550195
51
152.6853578
0
ARC
8
back_labelLayer
10
20.8973783
20
95.682586
40
1.5530792
50
101.4912878
51
138.3133814
0
ARC
8
back_labelLayer
10
21.0846811
20
94.9030458
40
2.3544773
50
89.5891896
51
102.1787415
0
ARC
8
back_labelLayer
10
21.099085
20
94.5507262
40
2.7067376
50
77.7702171
51
89.9475573
0
ARC
8
back_labelLayer
10
21.0478604
20
94.2681045
40
2.9938126
50
74.6797081
51
77.957893
0
ARC
8
back_labelLayer
10
21.3245802
20
95.2706162
40
1.9538138
50
70.0946334
51
74.7385933
0
ARC
8
back_labelLayer
10
21.5878296
20
95.9920585
40
1.1858468
50
63.503328
51
70.1861547
0
ARC
8
back_labelLayer
10
21.7211167
20
96.2701483
40
0.877515
50
62.9261353
51
63.1910936
0
ARC
8
back_labelLayer
10
20.9508994
20
94.0622961
40
2.6683276
50
68.3294495
51
74.8830944
0
ARC
8
back_labelLayer
10
20.8101278
20
93.5631473
40
3.1869206
50
74.7801217
51
77.4496659
0
ARC
8
back_labelLayer
10
20.957931
20
94.2568975
40
2.4776383
50
77.2998484
51
81.7344987
0
ARC
8
back_labelLayer
10
21.0657286
20
95.0080252
40
1.7188162
50
81.6910155
51
87.5079276
0
ARC
8
back_labelLayer
10
21.0865254
20
95.3966704
40
1.32964
50
87.67505
51
89.9748355
0
ARC
8
back_labelLayer
10
21.0573754
20
95.3961892
40
1.3304535
50
88.7194027
51
112.5667913
0
ARC
8
back_labelLayer
10
20.9628375
20
95.7087542
40
1.0060709
50
114.4265726
51
161.6632776
0
ARC
8
back_labelLayer
10
21.9019728
20
95.3411658
40
2.0138743
50
160.1418232
51
175.1368257
0
ARC
8
back_labelLayer
10
23.1946335
20
95.1960138
40
3.3143721
50
174.5310374
51
180.1549137
0
ARC
8
back_labelLayer
10
22.7850709
20
95.1720537
40
2.9048362
50
179.7041568
51
188.0743812
0
ARC
8
back_labelLayer
10
21.7387819
20
95.0189699
40
1.8474235
50
187.9315323
51
200.38855
0
ARC
8
back_labelLayer
10
21.173046
20
94.8093932
40
1.2441169
50
200.4183318
51
216.63927
0
ARC
8
back_labelLayer
10
20.9358765
20
94.6398464
40
0.9526445
50
216.9695216
51
261.3103091
0
ARC
8
back_labelLayer
10
21.0405436
20
95.1278146
40
1.4511297
50
260.1359088
51
270.2692667
0
ARC
8
back_labelLayer
10
21.0357141
20
96.187522
40
2.510848
50
270.2658273
51
286.28917
0
ARC
8
back_labelLayer
10
20.883078
20
96.7567636
40
3.1000795
50
286.0460405
51
292.3653989
0
ARC
8
back_labelLayer
10
21.2895772
20
94.8796403
40
1.7061281
50
282.0344252
51
296.9454433
0
ARC
8
back_labelLayer
10
21.1141112
20
95.6703985
40
2.516101
50
272.5980777
51
282.1878404
0
ARC
8
back_labelLayer
10
21.0637965
20
96.4420427
40
3.2892681
50
269.9655084
51
272.8643241
0
LINE
8
back_labelLayer
10
23.5658203
20
95.2520916
11
23.5947266
21
95.2520916
0
LINE
8
back_labelLayer
10
24.0680664
20
95.8302166
11
25.347168
21
97.1851971
0
LINE
8
back_labelLayer
10
25.347168
20
97.1851971
11
26.0589844
21
97.1851971
0
LINE
8
back_labelLayer
10
26.0589844
20
97.1851971
11
24.4546875
21
95.4977947
0
LINE
8
back_labelLayer
10
24.4546875
20
95.4977947
11
26.1709961
21
93.2250408
0
LINE
8
back_labelLayer
10
26.1709961
20
93.2250408
11
25.4447266
21
93.2250408
0
LINE
8
back_labelLayer
10
25.4447266
20
93.2250408
11
24.0463867
21
95.0967205
0
LINE
8
back_labelLayer
10
24.0463867
20
95.0967205
11
23.5947266
21
94.7064861
0
LINE
8
back_labelLayer
10
23.5947266
20
94.7064861
11
23.5947266
21
93.2250408
0
LINE
8
back_labelLayer
10
23.5947266
20
93.2250408
11
23.0021484
21
93.2250408
0
LINE
8
back_labelLayer
10
23.0021484
20
93.2250408
11
23.0021484
21
98.8473064
0
LINE
8
back_labelLayer
10
23.0021484
20
98.8473064
11
23.5947266
21
98.8473064
0
LINE
8
back_labelLayer
10
23.5947266
20
98.8473064
11
23.5947266
21
95.8663494
0
ARC
8
back_labelLayer
10
26.4926918
20
93.2007938
40
3.5504965
50
142.3232517
51
144.7075853
0
ARC
8
back_labelLayer
10
28.3841224
20
91.7418929
40
5.9391992
50
140.4332021
51
142.3365149
0
ARC
8
back_labelLayer
10
30.8485046
20
89.7132441
40
9.1311535
50
139.2799238
51
140.4702602
0
ARC
8
back_labelLayer
10
33.6976584
20
87.2631454
40
12.8889002
50
138.3417615
51
139.2876648
0
ARC
8
back_labelLayer
10
19.5981281
20
95.8738216
40
3.9966054
50
358.2738546
51
359.8928782
0
ARC
8
back_labelLayer
10
16.489753
20
95.9604287
40
7.1061823
50
357.5040564
51
358.3308087
0
ARC
8
back_labelLayer
10
11.8319594
20
96.1661581
40
11.7685166
50
356.6325904
51
357.4909426
0
ARC
8
back_labelLayer
10
4.0970095
20
96.6173115
40
19.5166118
50
356.0329123
51
356.6442316
0
ARC
8
back_labelLayer
10
-0.6238515
20
96.9349095
40
24.2481361
50
356.0204805
51
356.0559938
0
LINE
8
right_outsideCutPath
10
43
20
126
11
43
21
105.02
0
LINE
8
right_outsideCutPath
10
43
20
105.02
11
40
21
105.02
0
LINE
8
right_outsideCutPath
10
40
20
105.02
11
40
21
86.98
0
LINE
8
right_outsideCutPath
10
40
20
86.98
11
43
21
86.98
0
LINE
8
right_outsideCutPath
10
43
20
86.98
11
43
21
68.94
0
LINE
8
right_outsideCutPath
10
43
20
68.94
11
43
21
66
0
LINE
8
right_outsideCutPath
10
43
20
66
11
58.82
21
66
0
LINE
8
right_outsideCutPath
10
58.82
20
66
11
58.82
21
69
0
LINE
8
right_outsideCutPath
10
58.82
20
69
11
76.86
21
69
0
LINE
8
right_outsideCutPath
10
76.86
20
69
11
76.86
21
66
0
LINE
8
right_outsideCutPath
10
76.86
20
66
11
94.9
21
66
0
LINE
8
right_outsideCutPath
10
94.9
20
66
11
94.9
21
69
0
LINE
8
right_outsideCutPath
10
94.9
20
69
11
112.94
21
69
0
LINE
8
right_outsideCutPath
10
112.94
20
69
11
112.94
21
66
0
LINE
8
right_outsideCutPath
10
112.94
20
66
11
130.98
21
66
0
LINE
8
right_outsideCutPath
10
130.98
20
66
11
130.98
21
69
0
LINE
8
right_outsideCutPath
10
130.98
20
69
11
149.02
21
69
0
LINE
8
right_outsideCutPath
10
149.02
20
69
11
149.02
21
66
0
LINE
8
right_outsideCutPath
10
149.02
20
66
11
167.06
21
66
0
LINE
8
right_outsideCutPath
10
167.06
20
66
11
167.06
21
69
0
LINE
8
right_outsideCutPath
10
167.06
20
69
11
185.1
21
69
0
LINE
8
right_outsideCutPath
10
185.1
20
69
11
185.1
21
66
0
LINE
8
right_outsideCutPath
10
185.1
20
66
11
203.14
21
66
0
LINE
8
right_outsideCutPath
10
203.14
20
66
11
203.14
21
69
0
LINE
8
right_outsideCutPath
10
203.14
20
69
11
221.18
21
69
0
LINE
8
right_outsideCutPath
10
221.18
20
69
11
221.18
21
66
0
LINE
8
right_outsideCutPath
10
221.18
20
66
11
237
21
66
0
LINE
8
right_outsideCutPath
10
237
20
66
11
237
21
86.98
0
LINE
8
right_outsideCutPath
10
237
20
86.98
11
240
21
86.98
0
LINE
8
right_outsideCutPath
10
240
20
86.98
11
240
21
105.02
0
LINE
8
right_outsideCutPath
10
240
20
105.02
11
237
21
105.02
0
LINE
8
right_outsideCutPath
10
237
20
105.02
11
237
21
123.06
0
LINE
8
right_outsideCutPath
10
237
20
123.06
11
237
21
126
0
LINE
8
right_outsideCutPath
10
237
20
126
11
221.18
21
126
0
LINE
8
right_outsideCutPath
10
221.18
20
126
11
221.18
21
123
0
LINE
8
right_outsideCutPath
10
221.18
20
123
11
203.14
21
123
0
LINE
8
right_outsideCutPath
10
203.14
20
123
11
203.14
21
126
0
LINE
8
right_outsideCutPath
10
203.14
20
126
11
185.1
21
126
0
LINE
8
right_outsideCutPath
10
185.1
20
126
11
185.1
21
123
0
LINE
8
right_outsideCutPath
10
185.1
20
123
11
167.06
21
123
0
LINE
8
right_outsideCutPath
10
167.06
20
123
11
167.06
21
126
0
LINE
8
right_outsideCutPath
10
167.06
20
126
11
149.02
21
126
0
LINE
8
right_outsideCutPath
10
149.02
20
126
11
149.02
21
123
0
LINE
8
right_outsideCutPath
10
149.02
20
123
11
130.98
21
123
0
LINE
8
right_outsideCutPath
10
130.98
20
123
11
130.98
21
126
0
LINE
8
right_outsideCutPath
10
130.98
20
126
11
112.94
21
126
0
LINE
8
right_outsideCutPath
10
112.94
20
126
11
112.94
21
123
0
LINE
8
right_outsideCutPath
10
112.94
20
123
11
94.9
21
123
0
LINE
8
right_outsideCutPath
10
94.9
20
123
11
94.9
21
126
0
LINE
8
right_outsideCutPath
10
94.9
20
126
11
76.86
21
126
0
LINE
8
right_outsideCutPath
10
76.86
20
126
11
76.86
21
123
0
LINE
8
right_outsideCutPath
10
76.86
20
123
11
58.82
21
123
0
LINE
8
right_outsideCutPath
10
58.82
20
123
11
58.82
21
126
0
LINE
8
right_outsideCutPath
10
58.82
20
126
11
43
21
126
0
LINE
8
right_labelLayer
10
131.2841797
20
99.3515978
11
131.1494141
21
98.4492541
0
LINE
8
right_labelLayer
10
128.5595703
20
96.3281603
11
128.5595703
21
92.8828478
0
LINE
8
right_labelLayer
10
128.5595703
20
92.8828478
11
127.5869141
21
92.8828478
0
LINE
8
right_labelLayer
10
127.5869141
20
92.8828478
11
127.5869141
21
99.3047228
0
LINE
8
right_labelLayer
10
127.5869141
20
99.3047228
11
128.3896484
21
99.3047228
0
LINE
8
right_labelLayer
10
128.3896484
20
99.3047228
11
128.5009766
21
98.1152697
0
LINE
8
right_labelLayer
10
128.5009766
20
98.1152697
11
128.5478516
21
98.1152697
0
ARC
8
right_labelLayer
10
130.5265872
20
94.9566308
40
4.4652907
50
84.9922934
51
90.1281292
0
ARC
8
right_labelLayer
10
130.633818
20
96.1580478
40
3.2590999
50
78.489206
51
85.026578
0
ARC
8
right_labelLayer
10
130.2175864
20
94.2649205
40
4.2868345
50
77.4454139
51
81.6359922
0
ARC
8
right_labelLayer
10
130.4043702
20
95.5523689
40
2.9859107
50
81.5884597
51
87.1916805
0
ARC
8
right_labelLayer
10
130.4449301
20
96.2556505
40
2.2814946
50
87.3437172
51
89.965871
0
ARC
8
right_labelLayer
10
130.4355096
20
96.8518542
40
1.685325
50
89.633529
51
137.0880829
0
ARC
8
right_labelLayer
10
130.8489861
20
96.3868589
40
2.3055145
50
135.6207307
51
138.8377984
0
ARC
8
right_labelLayer
10
130.7885143
20
96.4458957
40
2.2211354
50
138.9575867
51
174.5422106
0
ARC
8
right_labelLayer
10
131.5118885
20
96.3327107
40
2.9523215
50
173.6907919
51
180.0883096
0
ARC
8
right_labelLayer
10
131.409626
20
96.5029568
40
3.2847079
50
139.413952
51
150.6032546
0
ARC
8
right_labelLayer
10
130.820661
20
97.0076374
40
2.5090906
50
124.2321211
51
139.416124
0
ARC
8
right_labelLayer
10
130.5057614
20
97.4829789
40
1.9389618
50
89.679674
51
124.4405597
0
LINE
8
right_labelLayer
10
133.4580078
20
99.3047228
11
133.4580078
21
92.8828478
0
LINE
8
right_labelLayer
10
133.4580078
20
92.8828478
11
132.4853516
21
92.8828478
0
LINE
8
right_labelLayer
10
132.4853516
20
92.8828478
11
132.4853516
21
99.3047228
0
LINE
8
right_labelLayer
10
132.4853516
20
99.3047228
11
133.4580078
21
99.3047228
0
ARC
8
right_labelLayer
10
133.4811336
20
101.0516243
40
1.0778339
50
170.8452476
51
180.3544122
0
ARC
8
right_labelLayer
10
133.077635
20
101.1190881
40
0.6687457
50
155.9679298
51
171.0514946
0
ARC
8
right_labelLayer
10
132.8821946
20
101.2057937
40
0.4549362
50
133.7879252
51
155.9171857
0
ARC
8
right_labelLayer
10
132.9543503
20
101.1260228
40
0.5624631
50
92.6446546
51
133.4710021
0
ARC
8
right_labelLayer
10
132.9771405
20
100.9470152
40
0.7424733
50
89.9692443
51
93.7641536
0
ARC
8
right_labelLayer
10
132.9864197
20
101.1164804
40
0.5730769
50
46.3708348
51
90.8879139
0
ARC
8
right_labelLayer
10
133.0434537
20
101.1753607
40
0.4911058
50
17.7252486
51
46.4473265
0
ARC
8
right_labelLayer
10
132.7775004
20
101.0837753
40
0.7723423
50
4.9426659
51
18.1901932
0
ARC
8
right_labelLayer
10
132.439142
20
101.0471947
40
1.1126181
50
359.8847744
51
5.31818
0
ARC
8
right_labelLayer
10
132.545434
20
101.0381222
40
1.006347
50
349.8344246
51
0.3891471
0
ARC
8
right_labelLayer
10
132.9117974
20
100.9697765
40
0.6336776
50
332.632169
51
350.0706087
0
ARC
8
right_labelLayer
10
133.0543948
20
100.8993616
40
0.4746805
50
313.6153908
51
332.2678154
0
ARC
8
right_labelLayer
10
132.9856713
20
100.9619375
40
0.5674292
50
269.1788288
51
314.280739
0
ARC
8
right_labelLayer
10
132.9710919
20
101.012381
40
0.617848
50
250.5000603
51
270.5978888
0
ARC
8
right_labelLayer
10
132.9523935
20
100.942462
40
0.5457276
50
225.1300567
51
249.900185
0
ARC
8
right_labelLayer
10
132.9231211
20
100.9101255
40
0.5021629
50
197.7934066
51
224.894131
0
ARC
8
right_labelLayer
10
133.1971184
20
101.0040213
40
0.791767
50
184.9925882
51
198.2040513
0
ARC
8
right_labelLayer
10
133.5516778
20
101.042563
40
1.1483601
50
179.8805448
51
185.3687518
0
LINE
8
right_labelLayer
10
138.5556641
20
99.3047228
11
140.7763672
21
99.3047228
0
LINE
8
right_labelLayer
10
140.7763672
20
99.3047228
11
140.7763672
21
98.6894884
0
LINE
8
right_labelLayer
10
140.7763672
20
98.6894884
11
139.5869141
21
98.5488634
0
LINE
8
right_labelLayer
10
137.3955078
20
93.9023791
11
138.5322266
21
93.9023791
0
LINE
8
right_labelLayer
10
138.2216797
20
93.0293322
11
137.0556641
21
93.0293322
0
ARC
8
right_labelLayer
10
138.3474189
20
97.5679414
40
1.5806822
50
29.4583921
51
38.3576804
0
ARC
8
right_labelLayer
10
137.7014822
20
97.1992019
40
2.3244532
50
23.1845517
51
29.542204
0
ARC
8
right_labelLayer
10
137.0847944
20
96.9257358
40
2.9990126
50
21.2507909
51
23.3487608
0
ARC
8
right_labelLayer
10
138.1327629
20
97.3425219
40
1.8712583
50
6.8505143
51
20.9871995
0
ARC
8
right_labelLayer
10
137.6057665
20
97.2710691
40
2.4030286
50
359.8710362
51
7.0432357
0
ARC
8
right_labelLayer
10
137.7791384
20
97.2424754
40
2.2297712
50
342.5649978
51
0.5957657
0
ARC
8
right_labelLayer
10
138.1903784
20
97.1289172
40
1.8034611
50
310.6097657
51
342.0923769
0
ARC
8
right_labelLayer
10
137.9597717
20
97.3971542
40
2.1571989
50
284.931571
51
310.6222763
0
ARC
8
right_labelLayer
10
137.6711955
20
98.408359
40
3.2086678
50
272.5334736
51
285.2579877
0
ARC
8
right_labelLayer
10
137.5970018
20
99.4216782
40
4.2243779
50
269.9691413
51
272.931276
0
ARC
8
right_labelLayer
10
137.5877884
20
98.323227
40
3.1259338
50
263.4836445
51
270.1271716
0
ARC
8
right_labelLayer
10
137.5368529
20
97.8394975
40
2.6395524
50
259.4962766
51
263.3905106
0
ARC
8
right_labelLayer
10
137.8520017
20
93.7074561
40
1.7307979
50
117.3934666
51
128.4095245
0
ARC
8
right_labelLayer
10
137.4064291
20
94.2602217
40
1.0208477
50
128.088195
51
147.1400144
0
ARC
8
right_labelLayer
10
137.1663791
20
94.4213147
40
0.7318163
50
147.5369392
51
180.2591989
0
ARC
8
right_labelLayer
10
136.9386479
20
94.4117739
40
0.5041161
50
179.291892
51
198.3580686
0
ARC
8
right_labelLayer
10
136.8442616
20
94.3869683
40
0.4067678
50
199.2291879
51
239.5691196
0
ARC
8
right_labelLayer
10
136.9223912
20
94.4948882
40
0.539543
50
238.2197789
51
239.8462927
0
ARC
8
right_labelLayer
10
136.984955
20
94.6235378
40
0.6822922
50
240.7302324
51
254.5026952
0
ARC
8
right_labelLayer
10
137.1711716
20
95.2652271
40
1.3504311
50
254.1636384
51
262.2123264
0
ARC
8
right_labelLayer
10
137.3186714
20
96.2954334
40
2.3911312
50
262.05552
51
267.2084009
0
ARC
8
right_labelLayer
10
137.3899334
20
97.6023523
40
3.6999776
50
267.0918559
51
270.0863228
0
ARC
8
right_labelLayer
10
138.5534897
20
89.9209616
40
3.9814742
50
81.574402
51
90.3059903
0
ARC
8
right_labelLayer
10
138.7718843
20
91.3452733
40
2.5405456
50
68.3671191
51
81.7399437
0
ARC
8
right_labelLayer
10
139.0571253
20
92.0742438
40
1.7577673
50
52.1879451
51
68.2500743
0
ARC
8
right_labelLayer
10
139.2567182
20
92.3431804
40
1.4229537
50
8.6201291
51
51.8982617
0
ARC
8
right_labelLayer
10
138.5571832
20
92.1951652
40
2.1371744
50
359.7430879
51
9.7326459
0
ARC
8
right_labelLayer
10
138.5885171
20
92.1591121
40
2.1059852
50
340.5268813
51
0.7201681
0
ARC
8
right_labelLayer
10
138.8979356
20
92.0820714
40
1.7888436
50
302.9903728
51
339.5494431
0
ARC
8
right_labelLayer
10
138.5738636
20
92.4937101
40
2.3110592
50
303.1867453
51
304.1726087
0
ARC
8
right_labelLayer
10
138.2704103
20
93.0189379
40
2.9169114
50
286.2542199
51
302.5279884
0
ARC
8
right_labelLayer
10
137.7195213
20
94.8360292
40
4.8156087
50
276.4939992
51
286.4953466
0
ARC
8
right_labelLayer
10
137.3758064
20
97.7093072
40
7.7093426
50
269.7544984
51
276.6169554
0
ARC
8
right_labelLayer
10
137.317102
20
95.4495131
40
5.4495383
50
262.5634902
51
270.2699068
0
ARC
8
right_labelLayer
10
137.0501961
20
93.4712004
40
3.453331
50
251.2102033
51
262.7063923
0
ARC
8
right_labelLayer
10
136.6654916
20
92.3420339
40
2.2604294
50
235.9668216
51
251.2229017
0
ARC
8
right_labelLayer
10
136.2577377
20
91.7603284
40
1.5502024
50
208.903617
51
236.423153
0
ARC
8
right_labelLayer
10
136.2951708
20
91.7446374
40
1.5757101
50
182.2079908
51
207.7461672
0
ARC
8
right_labelLayer
10
136.7716622
20
91.7922349
40
2.0538891
50
179.9785438
51
183.0227078
0
ARC
8
right_labelLayer
10
136.204783
20
91.8190966
40
1.4872385
50
138.3916167
51
181.0052657
0
ARC
8
right_labelLayer
10
136.3618371
20
91.6779515
40
1.6983938
50
113.8121326
51
138.3496219
0
ARC
8
right_labelLayer
10
136.6597485
20
91.0346394
40
2.4072561
50
102.2870611
51
114.1172949
0
ARC
8
right_labelLayer
10
136.5661398
20
94.305328
40
1.0094899
50
216.5861421
51
245.4968716
0
ARC
8
right_labelLayer
10
136.7104839
20
94.4278079
40
1.1984578
50
215.4649337
51
217.1748205
0
ARC
8
right_labelLayer
10
136.4699457
20
94.2540712
40
0.9017458
50
182.1767379
51
215.341533
0
ARC
8
right_labelLayer
10
136.6843304
20
94.2770649
40
1.1169477
50
179.9838832
51
182.9377112
0
ARC
8
right_labelLayer
10
136.6796322
20
94.2867814
40
1.1122892
50
161.7226161
51
180.4843343
0
ARC
8
right_labelLayer
10
136.5573344
20
94.3201532
40
0.9857178
50
144.4963509
51
161.3351101
0
ARC
8
right_labelLayer
10
136.8833248
20
94.0771985
40
1.3922222
50
132.7258731
51
144.1480304
0
ARC
8
right_labelLayer
10
137.4058229
20
93.5192314
40
2.1566263
50
125.2212676
51
132.8654987
0
ARC
8
right_labelLayer
10
137.9310562
20
92.7898872
40
3.0553827
50
121.2352113
51
125.3795488
0
ARC
8
right_labelLayer
10
136.9999036
20
96.9774405
40
1.7051452
50
215.1640888
51
247.4747894
0
ARC
8
right_labelLayer
10
137.3181527
20
97.2342822
40
2.1134043
50
212.4712708
51
215.8875177
0
ARC
8
right_labelLayer
10
137.2344963
20
97.1744342
40
2.0107037
50
183.0160731
51
212.3123155
0
ARC
8
right_labelLayer
10
137.6757767
20
97.2236175
40
2.4540974
50
179.9760181
51
183.6206942
0
ARC
8
right_labelLayer
10
138.0317483
20
97.2483805
40
2.8101689
50
166.819593
51
180.4839499
0
ARC
8
right_labelLayer
10
137.0995037
20
97.4837511
40
1.8488881
50
132.3287739
51
167.3340751
0
ARC
8
right_labelLayer
10
137.2242255
20
97.3044734
40
2.0656095
50
106.2189005
51
131.5377521
0
ARC
8
right_labelLayer
10
137.539795
20
96.2826833
40
3.1349245
50
93.6329817
51
106.5408696
0
ARC
8
right_labelLayer
10
137.6428145
20
95.1260881
40
4.2958247
50
89.9380282
51
94.0267731
0
ARC
8
right_labelLayer
10
137.6594943
20
95.6936692
40
3.7282605
50
82.5852258
51
90.1849288
0
ARC
8
right_labelLayer
10
137.7734146
20
96.5750909
40
2.8395079
50
74.0089192
51
82.5694669
0
ARC
8
right_labelLayer
10
136.6320579
20
91.7914378
40
0.9768748
50
179.2207828
51
200.9355106
0
ARC
8
right_labelLayer
10
136.5158857
20
91.7645384
40
0.8589166
50
202.0286872
51
236.1457594
0
ARC
8
right_labelLayer
10
136.6910194
20
91.9869196
40
1.1413622
50
235.0635676
51
238.5039582
0
ARC
8
right_labelLayer
10
136.894505
20
92.350389
40
1.5576789
50
239.1066008
51
254.4863109
0
ARC
8
right_labelLayer
10
137.1658886
20
93.2861161
40
2.5319258
50
254.2324423
51
263.4937082
0
ARC
8
right_labelLayer
10
137.3363525
20
94.7299304
40
3.9857609
50
263.4108489
51
270.1457342
0
ARC
8
right_labelLayer
10
137.3544876
20
95.7406754
40
4.9964994
50
269.9082945
51
270.0000525
0
ARC
8
right_labelLayer
10
137.3778009
20
97.2828717
40
6.5387373
50
269.7957564
51
275.3990873
0
ARC
8
right_labelLayer
10
137.6225237
20
94.7705227
40
4.0145143
50
275.2957006
51
283.3515841
0
ARC
8
right_labelLayer
10
138.0212298
20
93.1283227
40
2.3246455
50
283.1370735
51
295.8573035
0
ARC
8
right_labelLayer
10
138.3166536
20
92.4833678
40
1.6154917
50
296.404847
51
301.8009309
0
ARC
8
right_labelLayer
10
138.4324895
20
92.3237054
40
1.4188276
50
301.2230521
51
318.6238272
0
ARC
8
right_labelLayer
10
138.6937353
20
92.0823831
40
1.0633115
50
319.0765393
51
1.1406878
0
ARC
8
right_labelLayer
10
138.4409016
20
92.1139761
40
1.3159757
50
359.5460992
51
10.9904864
0
ARC
8
right_labelLayer
10
138.9492121
20
92.2173655
40
0.7972906
50
10.6609371
51
30.9361145
0
ARC
8
right_labelLayer
10
139.1103846
20
92.306809
40
0.6130957
50
31.509603
51
58.0777113
0
ARC
8
right_labelLayer
10
138.9593334
20
92.0363448
40
0.9226463
50
58.9971827
51
73.8586696
0
ARC
8
right_labelLayer
10
138.6540124
20
91.0368203
40
1.9677104
50
73.4099726
51
81.5906809
0
ARC
8
right_labelLayer
10
138.395327
20
89.3627891
40
3.6615911
50
81.4171898
51
86.5757103
0
ARC
8
right_labelLayer
10
138.2367905
20
86.840366
40
6.1889847
50
86.5054417
51
90.1398913
0
ARC
8
right_labelLayer
10
137.0417539
20
90.7935102
40
2.2358652
50
89.6435401
51
100.0208816
0
ARC
8
right_labelLayer
10
136.9012268
20
91.5579767
40
1.4586183
50
99.8103054
51
116.8229444
0
ARC
8
right_labelLayer
10
136.7643364
20
91.8466605
40
1.1392544
50
117.2304444
51
130.502363
0
ARC
8
right_labelLayer
10
136.6940534
20
91.93699
40
1.0249358
50
130.794473
51
169.0413581
0
ARC
8
right_labelLayer
10
137.2116279
20
91.8150994
40
1.5563891
50
168.2580642
51
180.3819984
0
ARC
8
right_labelLayer
10
138.081154
20
97.2335596
40
1.8985924
50
179.5617319
51
191.652928
0
ARC
8
right_labelLayer
10
137.4210423
20
97.0909391
40
1.2232958
50
191.355523
51
213.3660168
0
ARC
8
right_labelLayer
10
137.2625136
20
96.9994034
40
1.0406088
50
213.9573784
51
227.7971132
0
ARC
8
right_labelLayer
10
137.4004363
20
97.1666832
40
1.2572167
50
228.2620821
51
254.7341102
0
ARC
8
right_labelLayer
10
137.5766399
20
97.7707121
40
1.8863578
50
254.4016348
51
267.4348936
0
ARC
8
right_labelLayer
10
137.6226153
20
98.3873149
40
2.5044676
50
267.0154665
51
270.0322156
0
ARC
8
right_labelLayer
10
137.65266
20
98.0016275
40
2.1189732
50
269.2256608
51
284.3773503
0
ARC
8
right_labelLayer
10
137.9414727
20
96.995405
40
1.0729672
50
282.7796786
51
346.4828402
0
ARC
8
right_labelLayer
10
137.0779919
20
97.2399906
40
1.9700268
50
345.4362465
51
0.7465919
0
ARC
8
right_labelLayer
10
136.9566173
20
97.2955677
40
2.0914481
50
359.180651
51
15.0431737
0
ARC
8
right_labelLayer
10
137.9042908
20
97.5720142
40
1.1046999
50
13.9535587
51
77.667375
0
ARC
8
right_labelLayer
10
137.6323938
20
96.5976451
40
2.11544
50
76.1095378
51
90.7028214
0
ARC
8
right_labelLayer
10
137.5916961
20
96.6720771
40
2.0409021
50
89.585931
51
101.333435
0
ARC
8
right_labelLayer
10
137.4458459
20
97.3677135
40
1.3301833
50
101.0620337
51
121.9739087
0
ARC
8
right_labelLayer
10
137.3433456
20
97.5521069
40
1.1195381
50
122.5211393
51
134.9967207
0
ARC
8
right_labelLayer
10
137.3855474
20
97.5268215
40
1.1673195
50
135.5839838
51
163.0015985
0
ARC
8
right_labelLayer
10
138.0019801
20
97.3247761
40
1.8159356
50
162.5911813
51
175.7343048
0
ARC
8
right_labelLayer
10
138.7412821
20
97.2519428
40
2.5586679
50
175.339271
51
180.0864506
0
LINE
8
right_labelLayer
10
147.4619141
20
92.8828478
11
146.4892578
21
92.8828478
0
LINE
8
right_labelLayer
10
146.4892578
20
92.8828478
11
146.4892578
21
97.0371447
0
LINE
8
right_labelLayer
10
143.0673828
20
96.2402697
11
143.0673828
21
92.8828478
0
LINE
8
right_labelLayer
10
143.0673828
20
92.8828478
11
142.0947266
21
92.8828478
0
LINE
8
right_labelLayer
10
142.0947266
20
92.8828478
11
142.0947266
21
102.0000353
0
LINE
8
right_labelLayer
10
142.0947266
20
102.0000353
11
143.0673828
21
102.0000353
0
LINE
8
right_labelLayer
10
143.0673828
20
102.0000353
11
143.0673828
21
99.2402697
0
LINE
8
right_labelLayer
10
143.0205078
20
98.4140978
11
143.0791016
21
98.4140978
0
LINE
8
right_labelLayer
10
147.4619141
20
97.0723009
11
147.4619141
21
92.8828478
0
ARC
8
right_labelLayer
10
143.7398417
20
97.0529114
40
2.7494613
50
359.6714377
51
8.6877277
0
ARC
8
right_labelLayer
10
144.7588689
20
97.2145216
40
1.7177251
50
8.4931688
51
22.6579712
0
ARC
8
right_labelLayer
10
145.276608
20
97.4296768
40
1.1570609
50
22.7024636
51
42.3419466
0
ARC
8
right_labelLayer
10
145.334806
20
97.4558569
40
1.0965906
50
43.3790826
51
71.5386074
0
ARC
8
right_labelLayer
10
145.1171846
20
96.8477702
40
1.7423518
50
71.0827676
51
84.3691548
0
ARC
8
right_labelLayer
10
145.0194921
20
96.0171511
40
2.5785963
50
84.019816
51
90.1510225
0
ARC
8
right_labelLayer
10
144.9917331
20
95.6524151
40
2.943398
50
89.5919484
51
100.3595211
0
ARC
8
right_labelLayer
10
144.7833127
20
96.74769
40
1.8285162
50
100.1067785
51
118.0847599
0
ARC
8
right_labelLayer
10
144.5713359
20
97.16364
40
1.3617782
50
118.4551334
51
139.6705879
0
ARC
8
right_labelLayer
10
144.784151
20
97.0181784
40
1.6183774
50
140.6208301
51
160.5048649
0
ARC
8
right_labelLayer
10
145.9059017
20
96.6029099
40
2.814456
50
160.1566894
51
171.5313037
0
ARC
8
right_labelLayer
10
147.7209333
20
96.3153373
40
4.6520795
50
171.3202155
51
178.3406773
0
ARC
8
right_labelLayer
10
149.3447627
20
96.242791
40
6.2773802
50
178.1079722
51
180.0230129
0
ARC
8
right_labelLayer
10
134.3177391
20
99.2298349
40
8.7496499
50
357.8674237
51
0.0683305
0
ARC
8
right_labelLayer
10
137.2902866
20
99.1164211
40
5.7749414
50
354.9828039
51
357.894422
0
ARC
8
right_labelLayer
10
139.2529561
20
98.9455135
40
3.8048454
50
351.9713565
51
354.9618426
0
ARC
8
right_labelLayer
10
144.7266158
20
97.3835206
40
1.9432942
50
119.8315832
51
147.9725932
0
ARC
8
right_labelLayer
10
144.9619228
20
97.0220477
40
2.3740474
50
116.6658011
51
120.4183294
0
ARC
8
right_labelLayer
10
145.0058668
20
96.9066195
40
2.4969514
50
96.6652577
51
116.378227
0
ARC
8
right_labelLayer
10
145.1005352
20
96.2534532
40
3.1567438
50
89.8927306
51
96.995895
0
ARC
8
right_labelLayer
10
145.1308084
20
95.4640761
40
3.9461906
50
80.686286
51
90.3537369
0
ARC
8
right_labelLayer
10
145.3765255
20
96.9093333
40
2.4802343
50
65.6022834
51
80.8844314
0
ARC
8
right_labelLayer
10
145.6715813
20
97.5738677
40
1.7531739
50
46.7401012
51
65.4130355
0
ARC
8
right_labelLayer
10
145.6916388
20
97.637191
40
1.6935578
50
19.2204257
51
45.7660745
0
ARC
8
right_labelLayer
10
144.7151095
20
97.2751849
40
2.7349038
50
6.4734097
51
19.6467774
0
ARC
8
right_labelLayer
10
143.2559831
20
97.0873863
40
4.205958
50
359.7944994
51
6.7744191
0
LINE
8
right_labelLayer
10
152.4130859
20
93.6855822
11
152.4130859
21
92.9414416
0
LINE
8
right_labelLayer
10
149.5302734
20
94.7285509
11
149.5302734
21
98.5488634
0
LINE
8
right_labelLayer
10
149.5302734
20
98.5488634
11
148.6103516
21
98.5488634
0
LINE
8
right_labelLayer
10
148.6103516
20
98.5488634
11
148.6103516
21
99.0176134
0
LINE
8
right_labelLayer
10
148.6103516
20
99.0176134
11
149.5302734
21
99.4219103
0
LINE
8
right_labelLayer
10
149.5302734
20
99.4219103
11
149.9404297
21
100.7930041
0
LINE
8
right_labelLayer
10
149.9404297
20
100.7930041
11
150.5029297
21
100.7930041
0
LINE
8
right_labelLayer
10
150.5029297
20
100.7930041
11
150.5029297
21
99.3047228
0
LINE
8
right_labelLayer
10
150.5029297
20
99.3047228
11
152.3662109
21
99.3047228
0
LINE
8
right_labelLayer
10
152.3662109
20
99.3047228
11
152.3662109
21
98.5488634
0
LINE
8
right_labelLayer
10
152.3662109
20
98.5488634
11
150.5029297
21
98.5488634
0
LINE
8
right_labelLayer
10
150.5029297
20
98.5488634
11
150.5029297
21
94.7695666
0
ARC
8
right_labelLayer
10
151.5408514
20
96.7627227
40
3.1943349
50
269.8803316
51
278.3028128
0
ARC
8
right_labelLayer
10
151.5713763
20
96.513482
40
2.9433042
50
278.4154565
51
279.0081992
0
ARC
8
right_labelLayer
10
151.212805
20
98.8041686
40
5.261883
50
278.9590101
51
280.5103943
0
ARC
8
right_labelLayer
10
151.5544435
20
96.9710784
40
3.3972294
50
280.4846699
51
282.6267916
0
ARC
8
right_labelLayer
10
151.8539834
20
95.6403032
40
2.0331605
50
282.58766
51
285.5794473
0
ARC
8
right_labelLayer
10
152.0035315
20
95.0901478
40
1.4630582
50
285.7245036
51
286.256048
0
ARC
8
right_labelLayer
10
152.0041498
20
93.8063637
40
0.9567231
50
287.9889364
51
295.3048339
0
ARC
8
right_labelLayer
10
151.7734133
20
94.5044497
40
1.6919474
50
283.3068834
51
288.1198185
0
ARC
8
right_labelLayer
10
151.5296343
20
95.5213255
40
2.7376329
50
280.0070235
51
283.3735007
0
ARC
8
right_labelLayer
10
151.3664184
20
96.4070847
40
3.6382848
50
279.1865037
51
280.114353
0
ARC
8
right_labelLayer
10
151.2664134
20
96.9759665
40
4.215843
50
275.5260628
51
279.2938845
0
ARC
8
right_labelLayer
10
151.3792464
20
95.7974202
40
3.0319087
50
270.8932098
51
275.5484296
0
ARC
8
right_labelLayer
10
151.3934024
20
95.2591913
40
2.4935312
50
270.0034988
51
270.760768
0
ARC
8
right_labelLayer
10
151.3543044
20
95.3057908
40
2.5404337
50
253.7847948
51
270.8852676
0
ARC
8
right_labelLayer
10
151.0533309
20
94.2793568
40
1.4707878
50
190.3817671
51
253.8772449
0
ARC
8
right_labelLayer
10
152.5873824
20
94.6941387
40
3.0573026
50
179.3550796
51
192.847783
0
ARC
8
right_labelLayer
10
152.4614918
20
94.7573169
40
1.9586004
50
179.6416535
51
189.7506216
0
ARC
8
right_labelLayer
10
151.7700706
20
94.6339921
40
1.2562889
50
189.5479422
51
205.7873769
0
ARC
8
right_labelLayer
10
151.48593
20
94.5029669
40
0.9434612
50
206.1294926
51
221.4083587
0
ARC
8
right_labelLayer
10
151.4540648
20
94.4787887
40
0.9035747
50
221.5949308
51
262.3505242
0
ARC
8
right_labelLayer
10
151.5298376
20
94.8684261
40
1.3000387
50
261.3265388
51
270.1913673
0
LINE
8
bottom_outsideCutPath
10
246
20
403
11
246
21
387.18
0
LINE
8
bottom_outsideCutPath
10
246
20
387.18
11
243
21
387.18
0
LINE
8
bottom_outsideCutPath
10
243
20
387.18
11
243
21
369.14
0
LINE
8
bottom_outsideCutPath
10
243
20
369.14
11
246
21
369.14
0
LINE
8
bottom_outsideCutPath
10
246
20
369.14
11
246
21
351.1
0
LINE
8
bottom_outsideCutPath
10
246
20
351.1
11
243
21
351.1
0
LINE
8
bottom_outsideCutPath
10
243
20
351.1
11
243
21
333.06
0
LINE
8
bottom_outsideCutPath
10
243
20
333.06
11
246
21
333.06
0
LINE
8
bottom_outsideCutPath
10
246
20
333.06
11
246
21
315.02
0
LINE
8
bottom_outsideCutPath
10
246
20
315.02
11
243
21
315.02
0
LINE
8
bottom_outsideCutPath
10
243
20
315.02
11
243
21
296.98
0
LINE
8
bottom_outsideCutPath
10
243
20
296.98
11
246
21
296.98
0
LINE
8
bottom_outsideCutPath
10
246
20
296.98
11
246
21
278.94
0
LINE
8
bottom_outsideCutPath
10
246
20
278.94
11
243
21
278.94
0
LINE
8
bottom_outsideCutPath
10
243
20
278.94
11
243
21
260.9
0
LINE
8
bottom_outsideCutPath
10
243
20
260.9
11
246
21
260.9
0
LINE
8
bottom_outsideCutPath
10
246
20
260.9
11
246
21
242.86
0
LINE
8
bottom_outsideCutPath
10
246
20
242.86
11
243
21
242.86
0
LINE
8
bottom_outsideCutPath
10
243
20
242.86
11
243
21
224.82
0
LINE
8
bottom_outsideCutPath
10
243
20
224.82
11
246
21
224.82
0
LINE
8
bottom_outsideCutPath
10
246
20
224.82
11
246
21
209
0
LINE
8
bottom_outsideCutPath
10
246
20
209
11
252.48
21
209
0
LINE
8
bottom_outsideCutPath
10
252.48
20
209
11
252.48
21
206
0
LINE
8
bottom_outsideCutPath
10
252.48
20
206
11
270.52
21
206
0
LINE
8
bottom_outsideCutPath
10
270.52
20
206
11
270.52
21
209
0
LINE
8
bottom_outsideCutPath
10
270.52
20
209
11
277
21
209
0
LINE
8
bottom_outsideCutPath
10
277
20
209
11
277
21
224.82
0
LINE
8
bottom_outsideCutPath
10
277
20
224.82
11
280
21
224.82
0
LINE
8
bottom_outsideCutPath
10
280
20
224.82
11
280
21
242.86
0
LINE
8
bottom_outsideCutPath
10
280
20
242.86
11
277
21
242.86
0
LINE
8
bottom_outsideCutPath
10
277
20
242.86
11
277
21
260.9
0
LINE
8
bottom_outsideCutPath
10
277
20
260.9
11
280
21
260.9
0
LINE
8
bottom_outsideCutPath
10
280
20
260.9
11
280
21
278.94
0
LINE
8
bottom_outsideCutPath
10
280
20
278.94
11
277
21
278.94
0
LINE
8
bottom_outsideCutPath
10
277
20
278.94
11
277
21
296.98
0
LINE
8
bottom_outsideCutPath
10
277
20
296.98
11
280
21
296.98
0
LINE
8
bottom_outsideCutPath
10
280
20
296.98
11
280
21
315.02
0
LINE
8
bottom_outsideCutPath
10
280
20
315.02
11
277
21
315.02
0
LINE
8
bottom_outsideCutPath
10
277
20
315.02
11
277
21
333.06
0
LINE
8
bottom_outsideCutPath
10
277
20
333.06
11
280
21
333.06
0
LINE
8
bottom_outsideCutPath
10
280
20
333.06
11
280
21
351.1
0
LINE
8
bottom_outsideCutPath
10
280
20
351.1
11
277
21
351.1
0
LINE
8
bottom_outsideCutPath
10
277
20
351.1
11
277
21
369.14
0
LINE
8
bottom_outsideCutPath
10
277
20
369.14
11
280
21
369.14
0
LINE
8
bottom_outsideCutPath
10
280
20
369.14
11
280
21
387.18
0
LINE
8
bottom_outsideCutPath
10
280
20
387.18
11
277
21
387.18
0
LINE
8
bottom_outsideCutPath
10
277
20
387.18
11
277
21
403
0
LINE
8
bottom_outsideCutPath
10
277
20
403
11
270.52
21
403
0
LINE
8
bottom_outsideCutPath
10
270.52
20
403
11
270.52
21
406
0
LINE
8
bottom_outsideCutPath
10
270.52
20
406
11
252.48
21
406
0
LINE
8
bottom_outsideCutPath
10
252.48
20
406
11
252.48
21
403
0
LINE
8
bottom_outsideCutPath
10
252.48
20
403
11
246
21
403
0
LINE
8
bottom_labelLayer
10
249.9266427
20
303.7345662
11
249.8832833
21
303.7345662
0
LINE
8
bottom_labelLayer
10
249.8832833
20
303.7345662
11
249.7568185
21
303.2250935
0
LINE
8
bottom_labelLayer
10
249.7568185
20
303.2250935
11
249.326838
21
303.2250935
0
LINE
8
bottom_labelLayer
10
249.326838
20
303.2250935
11
249.326838
21
308.8473591
0
LINE
8
bottom_labelLayer
10
249.326838
20
308.8473591
11
249.9266427
21
308.8473591
0
LINE
8
bottom_labelLayer
10
249.9266427
20
308.8473591
11
249.9266427
21
307.4815388
0
LINE
8
bottom_labelLayer
10
249.8977364
20
306.6577107
11
249.9266427
21
306.6577107
0
ARC
8
bottom_labelLayer
10
251.1876041
20
305.41716
40
1.8332171
50
74.2393621
51
90.5623567
0
ARC
8
bottom_labelLayer
10
251.3088226
20
305.8618593
40
1.3723172
50
38.5631341
51
74.0670289
0
ARC
8
bottom_labelLayer
10
250.9968744
20
305.619302
40
1.7674474
50
16.4709137
51
38.4075193
0
ARC
8
bottom_labelLayer
10
250.0981866
20
305.3375004
40
2.7091993
50
5.1338705
51
16.7973216
0
ARC
8
bottom_labelLayer
10
248.9636858
20
305.2169873
40
3.8499773
50
359.8779308
51
5.4093536
0
ARC
8
bottom_labelLayer
10
249.2969211
20
305.1880367
40
3.5167945
50
350.6562814
51
0.3380327
0
ARC
8
bottom_labelLayer
10
250.5229257
20
304.9795077
40
2.2732102
50
335.8306192
51
350.8254576
0
ARC
8
bottom_labelLayer
10
251.0622298
20
304.7467378
40
1.6858988
50
321.3161729
51
335.5436065
0
ARC
8
bottom_labelLayer
10
251.2684119
20
304.5787316
40
1.4199458
50
274.0640049
51
321.4081084
0
ARC
8
bottom_labelLayer
10
251.1723584
20
305.1871615
40
2.0343356
50
269.9226318
51
275.5482091
0
ARC
8
bottom_labelLayer
10
251.1594973
20
304.9721428
40
1.819343
50
255.7755585
51
270.3185216
0
ARC
8
bottom_labelLayer
10
251.1075815
20
304.7414787
40
1.5830069
50
245.9802037
51
255.545548
0
ARC
8
bottom_labelLayer
10
251.0070167
20
304.5076112
40
1.3284602
50
215.5850316
51
245.836153
0
ARC
8
bottom_labelLayer
10
237.4212412
20
307.470961
40
12.5054059
50
358.1123387
51
0.048464
0
ARC
8
bottom_labelLayer
10
240.9013506
20
307.3541338
40
9.0233369
50
355.7239063
51
358.1258589
0
ARC
8
bottom_labelLayer
10
242.4304847
20
307.2490976
40
7.4906333
50
355.4717749
51
355.6529812
0
ARC
8
bottom_labelLayer
10
251.045252
20
305.8776743
40
1.3637242
50
95.1835038
51
145.1108993
0
ARC
8
bottom_labelLayer
10
251.1651183
20
305.2017364
40
2.0485573
50
89.8743333
51
96.8145294
0
ARC
8
bottom_labelLayer
10
251.0703354
20
305.0625912
40
1.6854983
50
89.573133
51
100.7324457
0
ARC
8
bottom_labelLayer
10
250.9455614
20
305.6929902
40
1.0429037
50
100.4469492
51
119.670084
0
ARC
8
bottom_labelLayer
10
250.8298585
20
305.9093105
40
0.7976986
50
120.1402987
51
142.4248894
0
ARC
8
bottom_labelLayer
10
251.0212777
20
305.7826802
40
1.0267585
50
143.3382077
51
161.256001
0
ARC
8
bottom_labelLayer
10
251.8217699
20
305.4984795
40
1.8761585
50
160.892665
51
171.2334493
0
ARC
8
bottom_labelLayer
10
253.1580656
20
305.2829008
40
3.2297128
50
171.0667477
51
177.8457088
0
ARC
8
bottom_labelLayer
10
254.5479095
20
305.2122155
40
4.621268
50
177.6177004
51
180.0425339
0
ARC
8
bottom_labelLayer
10
253.8924878
20
305.193299
40
3.9658753
50
179.776272
51
185.7075065
0
ARC
8
bottom_labelLayer
10
252.3288802
20
305.0321929
40
2.394002
50
185.5924716
51
194.2050384
0
ARC
8
bottom_labelLayer
10
251.3272411
20
304.7722332
40
1.3592112
50
193.9430013
51
208.0219035
0
ARC
8
bottom_labelLayer
10
250.9220094
20
304.5660816
40
0.9046727
50
208.5537453
51
217.5604003
0
ARC
8
bottom_labelLayer
10
250.8889725
20
304.5523363
40
0.8701539
50
218.1690354
51
253.8047099
0
ARC
8
bottom_labelLayer
10
251.0503695
20
305.0499383
40
1.3931191
50
253.1382236
51
266.8482984
0
ARC
8
bottom_labelLayer
10
251.0956304
20
305.5836903
40
1.9286173
50
266.3775098
51
270.0509605
0
ARC
8
bottom_labelLayer
10
251.1101412
20
304.8507078
40
1.1957023
50
269.3868567
51
285.8630671
0
ARC
8
bottom_labelLayer
10
251.1989741
20
304.529654
40
0.8625964
50
286.0162834
51
326.8497538
0
ARC
8
bottom_labelLayer
10
250.7702167
20
304.8136902
40
1.3768945
50
326.7105097
51
343.6661655
0
ARC
8
bottom_labelLayer
10
249.9675926
20
305.0589439
40
2.2161187
50
343.4171801
51
353.6368631
0
ARC
8
bottom_labelLayer
10
248.7553391
20
305.2027822
40
3.4368563
50
353.4935144
51
0.2205448
0
ARC
8
bottom_labelLayer
10
248.6485322
20
305.2303571
40
3.5436669
50
359.7680517
51
6.309553
0
ARC
8
bottom_labelLayer
10
249.9833511
20
305.3835386
40
2.2001058
50
6.1648365
51
16.0396662
0
ARC
8
bottom_labelLayer
10
250.843222
20
305.6369431
40
1.3037063
50
15.7779567
51
32.0151459
0
ARC
8
bottom_labelLayer
10
251.1111214
20
305.7903334
40
0.9953054
50
32.7038973
51
35.523899
0
ARC
8
bottom_labelLayer
10
251.2094332
20
305.8602025
40
0.8746953
50
35.540846
51
79.8011075
0
ARC
8
bottom_labelLayer
10
251.0919719
20
305.3608454
40
1.3872269
50
78.6781764
51
90.3749945
0
ARC
8
bottom_labelLayer
10
254.1814935
20
305.1878991
40
3.0982469
50
349.1762084
51
0.3862439
0
ARC
8
bottom_labelLayer
10
255.2246088
20
304.9799526
40
2.0346565
50
330.2506976
51
349.4116589
0
ARC
8
bottom_labelLayer
10
255.5456151
20
304.8131065
40
1.6732293
50
318.1440179
51
329.7566165
0
ARC
8
bottom_labelLayer
10
255.6035595
20
304.7666709
40
1.5990914
50
278.8959217
51
317.9979141
0
ARC
8
bottom_labelLayer
10
255.4542753
20
305.4818986
40
2.3290929
50
269.7502566
51
279.8033482
0
ARC
8
bottom_labelLayer
10
255.4300634
20
305.0789224
40
1.9261459
50
253.5437181
51
270.4182285
0
ARC
8
bottom_labelLayer
10
255.3659433
20
304.8308901
40
1.6701327
50
238.8115219
51
253.2428526
0
ARC
8
bottom_labelLayer
10
255.3452532
20
304.789283
40
1.6238292
50
207.7947194
51
238.6757945
0
ARC
8
bottom_labelLayer
10
255.6419934
20
304.9710414
40
1.971215
50
205.6558846
51
208.4462915
0
ARC
8
bottom_labelLayer
10
255.8708807
20
305.066429
40
2.2188747
50
188.9102186
51
205.3171814
0
ARC
8
bottom_labelLayer
10
256.6416706
20
305.1969751
40
3.000598
50
179.7744935
51
189.0932543
0
ARC
8
bottom_labelLayer
10
256.755352
20
305.2298788
40
3.1143277
50
169.2442985
51
180.3880775
0
ARC
8
bottom_labelLayer
10
255.697755
20
305.4389268
40
2.0363135
50
150.7111767
51
169.469528
0
ARC
8
bottom_labelLayer
10
255.3601356
20
305.6123055
40
1.6570934
50
138.1759787
51
150.2287399
0
ARC
8
bottom_labelLayer
10
255.303971
20
305.6554046
40
1.5865082
50
99.1759392
51
137.9832808
0
ARC
8
bottom_labelLayer
10
255.4585454
20
304.9279686
40
2.3295723
50
89.7326331
51
100.0760174
0
ARC
8
bottom_labelLayer
10
255.4894395
20
305.2421191
40
2.0154957
50
73.5222732
51
90.5692259
0
ARC
8
bottom_labelLayer
10
255.607637
20
305.6715603
40
1.5701886
50
41.1445615
51
73.213398
0
ARC
8
bottom_labelLayer
10
255.3820071
20
305.4776345
40
1.8676967
50
13.5014473
51
41.070338
0
ARC
8
bottom_labelLayer
10
254.5102845
20
305.2495179
40
2.7686472
50
1.1277496
51
13.8799805
0
ARC
8
bottom_labelLayer
10
253.7596622
20
305.2092899
40
3.5200077
50
359.9917806
51
1.5419551
0
ARC
8
bottom_labelLayer
10
257.2999616
20
305.1931986
40
3.0374215
50
179.7059901
51
187.9160453
0
ARC
8
bottom_labelLayer
10
256.1859074
20
305.0331669
40
1.9119499
50
187.7638981
51
200.0977163
0
ARC
8
bottom_labelLayer
10
255.5722052
20
304.8083046
40
1.2583496
50
200.0845936
51
216.9131594
0
ARC
8
bottom_labelLayer
10
255.3480985
20
304.6482814
40
0.9830779
50
217.3009286
51
261.7099371
0
ARC
8
bottom_labelLayer
10
255.4521357
20
305.1447334
40
1.4896732
50
260.5033219
51
270.2477194
0
ARC
8
bottom_labelLayer
10
255.4719936
20
305.0482015
40
1.3931921
50
269.4481944
51
284.7256007
0
ARC
8
bottom_labelLayer
10
255.5822854
20
304.6391684
40
0.969563
50
284.5662247
51
322.6333866
0
ARC
8
bottom_labelLayer
10
255.3244182
20
304.8254658
40
1.2876016
50
323.0089403
51
342.6390382
0
ARC
8
bottom_labelLayer
10
254.5868774
20
305.0665155
40
2.063494
50
342.3615617
51
353.7537993
0
ARC
8
bottom_labelLayer
10
253.49874
20
305.197678
40
3.1594652
50
353.5363007
51
0.2014202
0
ARC
8
bottom_labelLayer
10
253.6654526
20
305.2240586
40
2.992772
50
359.7075882
51
7.8972923
0
ARC
8
bottom_labelLayer
10
254.7614917
20
305.3811867
40
1.8855457
50
7.7440025
51
20.0690424
0
ARC
8
bottom_labelLayer
10
255.3722459
20
305.6053118
40
1.234968
50
20.0256884
51
37.4350608
0
ARC
8
bottom_labelLayer
10
255.5748877
20
305.7491033
40
0.9866974
50
37.9577708
51
80.4006088
0
ARC
8
bottom_labelLayer
10
255.459733
20
305.2352949
40
1.512771
50
79.3453446
51
90.3175182
0
ARC
8
bottom_labelLayer
10
255.4384087
20
305.3206374
40
1.427464
50
89.480564
51
103.880488
0
ARC
8
bottom_labelLayer
10
255.3184654
20
305.7773824
40
0.9553072
50
103.4685206
51
142.3118974
0
ARC
8
bottom_labelLayer
10
255.5516466
20
305.6133926
40
1.2401584
50
142.9025748
51
162.3749534
0
ARC
8
bottom_labelLayer
10
256.2864042
20
305.3685374
40
2.0145936
50
162.0653343
51
173.1674748
0
ARC
8
bottom_labelLayer
10
257.4320426
20
305.222416
40
3.1694918
50
173.008579
51
180.2464141
0
LINE
8
bottom_labelLayer
10
260.1522286
20
303.720113
11
260.1522286
21
303.2612263
0
LINE
8
bottom_labelLayer
10
258.3744942
20
304.3632771
11
258.3744942
21
306.7191365
0
LINE
8
bottom_labelLayer
10
258.3744942
20
306.7191365
11
257.8072091
21
306.7191365
0
LINE
8
bottom_labelLayer
10
257.8072091
20
306.7191365
11
257.8072091
21
307.008199
0
LINE
8
bottom_labelLayer
10
257.8072091
20
307.008199
11
258.3744942
21
307.2575154
0
LINE
8
bottom_labelLayer
10
258.3744942
20
307.2575154
11
258.6274239
21
308.1030232
0
LINE
8
bottom_labelLayer
10
258.6274239
20
308.1030232
11
258.9742989
21
308.1030232
0
LINE
8
bottom_labelLayer
10
258.9742989
20
308.1030232
11
258.9742989
21
307.1852497
0
LINE
8
bottom_labelLayer
10
258.9742989
20
307.1852497
11
260.1233224
21
307.1852497
0
LINE
8
bottom_labelLayer
10
260.1233224
20
307.1852497
11
260.1233224
21
306.7191365
0
LINE
8
bottom_labelLayer
10
260.1233224
20
306.7191365
11
258.9742989
21
306.7191365
0
LINE
8
bottom_labelLayer
10
258.9742989
20
306.7191365
11
258.9742989
21
304.3885701
0
ARC
8
bottom_labelLayer
10
259.6143498
20
305.6176734
40
1.9698303
50
269.8803554
51
278.3028772
0
ARC
8
bottom_labelLayer
10
259.633839
20
305.459686
40
1.810688
50
278.4145587
51
279.0087252
0
ARC
8
bottom_labelLayer
10
259.4120788
20
306.876436
40
3.2446872
50
278.9589825
51
280.510434
0
ARC
8
bottom_labelLayer
10
259.6228308
20
305.7456723
40
2.0944518
50
280.4844949
51
282.6271344
0
ARC
8
bottom_labelLayer
10
259.8074354
20
304.9255787
40
1.2538383
50
282.5877141
51
285.5793678
0
ARC
8
bottom_labelLayer
10
259.8997219
20
304.5860556
40
0.9020067
50
285.7248856
51
286.2565552
0
ARC
8
bottom_labelLayer
10
259.9000551
20
303.7945881
40
0.5899714
50
287.9887918
51
295.3047865
0
ARC
8
bottom_labelLayer
10
259.7577399
20
304.225162
40
1.0434516
50
283.3071439
51
288.1196913
0
ARC
8
bottom_labelLayer
10
259.6074549
20
304.8520492
40
1.6880993
50
280.0069275
51
283.3736195
0
ARC
8
bottom_labelLayer
10
259.5063678
20
305.4008528
40
2.2461233
50
279.1868758
51
280.1136864
0
ARC
8
bottom_labelLayer
10
259.4451162
20
305.749149
40
2.5997356
50
275.5260841
51
279.2939555
0
ARC
8
bottom_labelLayer
10
259.514691
20
305.0224623
40
1.8697262
50
270.8932865
51
275.5483838
0
ARC
8
bottom_labelLayer
10
259.5234483
20
304.6884595
40
1.5356316
50
270.002589
51
270.7608671
0
ARC
8
bottom_labelLayer
10
259.4993131
20
304.7192397
40
1.5665988
50
253.7847825
51
270.8852773
0
ARC
8
bottom_labelLayer
10
259.3137132
20
304.0862742
40
0.906986
50
190.3817746
51
253.877236
0
ARC
8
bottom_labelLayer
10
260.2597224
20
304.3420574
40
1.8853476
50
179.3551196
51
192.8477442
0
ARC
8
bottom_labelLayer
10
260.1820822
20
304.3810161
40
1.2078069
50
179.6416559
51
189.7505968
0
ARC
8
bottom_labelLayer
10
259.7557116
20
304.304969
40
0.7747211
50
189.5480576
51
205.78729
0
ARC
8
bottom_labelLayer
10
259.5804778
20
304.2241638
40
0.5817955
50
206.1294146
51
221.4084293
0
ARC
8
bottom_labelLayer
10
259.560832
20
304.2092568
40
0.557204
50
221.5949282
51
262.3505484
0
ARC
8
bottom_labelLayer
10
259.6075607
20
304.449559
40
0.8017161
50
261.3266765
51
270.1912217
0
LINE
8
bottom_labelLayer
10
262.764631
20
303.720113
11
262.764631
21
303.2612263
0
LINE
8
bottom_labelLayer
10
260.9868966
20
304.3632771
11
260.9868966
21
306.7191365
0
LINE
8
bottom_labelLayer
10
260.9868966
20
306.7191365
11
260.4196114
21
306.7191365
0
LINE
8
bottom_labelLayer
10
260.4196114
20
306.7191365
11
260.4196114
21
307.008199
0
LINE
8
bottom_labelLayer
10
260.4196114
20
307.008199
11
260.9868966
21
307.2575154
0
LINE
8
bottom_labelLayer
10
260.9868966
20
307.2575154
11
261.2398263
21
308.1030232
0
LINE
8
bottom_labelLayer
10
261.2398263
20
308.1030232
11
261.5867013
21
308.1030232
0
LINE
8
bottom_labelLayer
10
261.5867013
20
308.1030232
11
261.5867013
21
307.1852497
0
LINE
8
bottom_labelLayer
10
261.5867013
20
307.1852497
11
262.7357247
21
307.1852497
0
LINE
8
bottom_labelLayer
10
262.7357247
20
307.1852497
11
262.7357247
21
306.7191365
0
LINE
8
bottom_labelLayer
10
262.7357247
20
306.7191365
11
261.5867013
21
306.7191365
0
LINE
8
bottom_labelLayer
10
261.5867013
20
306.7191365
11
261.5867013
21
304.3885701
0
ARC
8
bottom_labelLayer
10
262.2267521
20
305.6176734
40
1.9698303
50
269.8803554
51
278.3028772
0
ARC
8
bottom_labelLayer
10
262.2462413
20
305.459686
40
1.810688
50
278.4145587
51
279.0087252
0
ARC
8
bottom_labelLayer
10
262.0244811
20
306.876436
40
3.2446872
50
278.9589825
51
280.510434
0
ARC
8
bottom_labelLayer
10
262.2352332
20
305.7456723
40
2.0944518
50
280.4844949
51
282.6271344
0
ARC
8
bottom_labelLayer
10
262.4198377
20
304.9255787
40
1.2538383
50
282.5877141
51
285.5793678
0
ARC
8
bottom_labelLayer
10
262.5121242
20
304.5860556
40
0.9020067
50
285.7248856
51
286.2565552
0
ARC
8
bottom_labelLayer
10
262.5124575
20
303.7945881
40
0.5899714
50
287.9887918
51
295.3047865
0
ARC
8
bottom_labelLayer
10
262.3701423
20
304.225162
40
1.0434516
50
283.3071439
51
288.1196913
0
ARC
8
bottom_labelLayer
10
262.2198573
20
304.8520492
40
1.6880993
50
280.0069275
51
283.3736195
0
ARC
8
bottom_labelLayer
10
262.1187701
20
305.4008528
40
2.2461233
50
279.1868758
51
280.1136864
0
ARC
8
bottom_labelLayer
10
262.0575185
20
305.749149
40
2.5997356
50
275.5260841
51
279.2939555
0
ARC
8
bottom_labelLayer
10
262.1270933
20
305.0224623
40
1.8697262
50
270.8932865
51
275.5483838
0
ARC
8
bottom_labelLayer
10
262.1358506
20
304.6884595
40
1.5356316
50
270.002589
51
270.7608671
0
ARC
8
bottom_labelLayer
10
262.1117155
20
304.7192397
40
1.5665988
50
253.7847825
51
270.8852773
0
ARC
8
bottom_labelLayer
10
261.9261155
20
304.0862742
40
0.906986
50
190.3817746
51
253.877236
0
ARC
8
bottom_labelLayer
10
262.8721247
20
304.3420574
40
1.8853476
50
179.3551196
51
192.8477442
0
ARC
8
bottom_labelLayer
10
262.7944845
20
304.3810161
40
1.2078069
50
179.6416559
51
189.7505968
0
ARC
8
bottom_labelLayer
10
262.368114
20
304.304969
40
0.7747211
50
189.5480576
51
205.78729
0
ARC
8
bottom_labelLayer
10
262.1928801
20
304.2241638
40
0.5817955
50
206.1294146
51
221.4084293
0
ARC
8
bottom_labelLayer
10
262.1732343
20
304.2092568
40
0.557204
50
221.5949282
51
262.3505484
0
ARC
8
bottom_labelLayer
10
262.2199631
20
304.449559
40
0.8017161
50
261.3266765
51
270.1912217
0
ARC
8
bottom_labelLayer
10
263.8759271
20
305.1878991
40
3.0982469
50
349.1762084
51
0.3862439
0
ARC
8
bottom_labelLayer
10
264.9190424
20
304.9799526
40
2.0346565
50
330.2506976
51
349.4116589
0
ARC
8
bottom_labelLayer
10
265.2400487
20
304.8131065
40
1.6732293
50
318.1440179
51
329.7566165
0
ARC
8
bottom_labelLayer
10
265.2979931
20
304.7666709
40
1.5990914
50
278.8959217
51
317.9979141
0
ARC
8
bottom_labelLayer
10
265.1487089
20
305.4818986
40
2.3290929
50
269.7502566
51
279.8033482
0
ARC
8
bottom_labelLayer
10
265.124497
20
305.0789224
40
1.9261459
50
253.5437181
51
270.4182285
0
ARC
8
bottom_labelLayer
10
265.0603769
20
304.8308901
40
1.6701327
50
238.8115219
51
253.2428526
0
ARC
8
bottom_labelLayer
10
265.0396867
20
304.789283
40
1.6238292
50
207.7947194
51
238.6757945
0
ARC
8
bottom_labelLayer
10
265.336427
20
304.9710414
40
1.971215
50
205.6558846
51
208.4462915
0
ARC
8
bottom_labelLayer
10
265.5653143
20
305.066429
40
2.2188747
50
188.9102186
51
205.3171814
0
ARC
8
bottom_labelLayer
10
266.3361042
20
305.1969751
40
3.000598
50
179.7744935
51
189.0932543
0
ARC
8
bottom_labelLayer
10
266.4497856
20
305.2298788
40
3.1143277
50
169.2442985
51
180.3880775
0
ARC
8
bottom_labelLayer
10
265.3921886
20
305.4389268
40
2.0363135
50
150.7111767
51
169.469528
0
ARC
8
bottom_labelLayer
10
265.0545692
20
305.6123055
40
1.6570934
50
138.1759787
51
150.2287399
0
ARC
8
bottom_labelLayer
10
264.9984046
20
305.6554046
40
1.5865082
50
99.1759392
51
137.9832808
0
ARC
8
bottom_labelLayer
10
265.152979
20
304.9279686
40
2.3295723
50
89.7326331
51
100.0760174
0
ARC
8
bottom_labelLayer
10
265.1838731
20
305.2421191
40
2.0154957
50
73.5222732
51
90.5692259
0
ARC
8
bottom_labelLayer
10
265.3020706
20
305.6715603
40
1.5701886
50
41.1445615
51
73.213398
0
ARC
8
bottom_labelLayer
10
265.0764407
20
305.4776345
40
1.8676967
50
13.5014473
51
41.070338
0
ARC
8
bottom_labelLayer
10
264.2047181
20
305.2495179
40
2.7686472
50
1.1277496
51
13.8799805
0
ARC
8
bottom_labelLayer
10
263.4540958
20
305.2092899
40
3.5200077
50
359.9917806
51
1.5419551
0
ARC
8
bottom_labelLayer
10
266.9943952
20
305.1931986
40
3.0374215
50
179.7059901
51
187.9160453
0
ARC
8
bottom_labelLayer
10
265.8803409
20
305.0331669
40
1.9119499
50
187.7638981
51
200.0977163
0
ARC
8
bottom_labelLayer
10
265.2666387
20
304.8083046
40
1.2583496
50
200.0845936
51
216.9131594
0
ARC
8
bottom_labelLayer
10
265.0425321
20
304.6482814
40
0.9830779
50
217.3009286
51
261.7099371
0
ARC
8
bottom_labelLayer
10
265.1465693
20
305.1447334
40
1.4896732
50
260.5033219
51
270.2477194
0
ARC
8
bottom_labelLayer
10
265.1664272
20
305.0482015
40
1.3931921
50
269.4481944
51
284.7256007
0
ARC
8
bottom_labelLayer
10
265.276719
20
304.6391684
40
0.969563
50
284.5662247
51
322.6333866
0
ARC
8
bottom_labelLayer
10
265.0188517
20
304.8254658
40
1.2876016
50
323.0089403
51
342.6390382
0
ARC
8
bottom_labelLayer
10
264.281311
20
305.0665155
40
2.063494
50
342.3615617
51
353.7537993
0
ARC
8
bottom_labelLayer
10
263.1931736
20
305.197678
40
3.1594652
50
353.5363007
51
0.2014202
0
ARC
8
bottom_labelLayer
10
263.3598862
20
305.2240586
40
2.992772
50
359.7075882
51
7.8972923
0
ARC
8
bottom_labelLayer
10
264.4559252
20
305.3811867
40
1.8855457
50
7.7440025
51
20.0690424
0
ARC
8
bottom_labelLayer
10
265.0666795
20
305.6053118
40
1.234968
50
20.0256884
51
37.4350608
0
ARC
8
bottom_labelLayer
10
265.2693213
20
305.7491033
40
0.9866974
50
37.9577708
51
80.4006088
0
ARC
8
bottom_labelLayer
10
265.1541666
20
305.2352949
40
1.512771
50
79.3453446
51
90.3175182
0
ARC
8
bottom_labelLayer
10
265.1328423
20
305.3206374
40
1.427464
50
89.480564
51
103.880488
0
ARC
8
bottom_labelLayer
10
265.012899
20
305.7773824
40
0.9553072
50
103.4685206
51
142.3118974
0
ARC
8
bottom_labelLayer
10
265.2460801
20
305.6133926
40
1.2401584
50
142.9025748
51
162.3749534
0
ARC
8
bottom_labelLayer
10
265.9808378
20
305.3685374
40
2.0145936
50
162.0653343
51
173.1674748
0
ARC
8
bottom_labelLayer
10
267.1264762
20
305.222416
40
3.1694918
50
173.008579
51
180.2464141
0
LINE
8
bottom_labelLayer
10
273.673127
20
303.2250935
11
273.0733224
21
303.2250935
0
LINE
8
bottom_labelLayer
10
273.0733224
20
303.2250935
11
273.0733224
21
305.801363
0
LINE
8
bottom_labelLayer
10
271.1474435
20
305.4364216
11
271.1474435
21
303.2250935
0
LINE
8
bottom_labelLayer
10
271.1474435
20
303.2250935
11
270.5476388
21
303.2250935
0
LINE
8
bottom_labelLayer
10
270.5476388
20
303.2250935
11
270.5476388
21
305.801363
0
LINE
8
bottom_labelLayer
10
268.6253731
20
305.3027302
11
268.6253731
21
303.2250935
0
LINE
8
bottom_labelLayer
10
268.6253731
20
303.2250935
11
268.0255685
21
303.2250935
0
LINE
8
bottom_labelLayer
10
268.0255685
20
303.2250935
11
268.0255685
21
307.1852497
0
LINE
8
bottom_labelLayer
10
268.0255685
20
307.1852497
11
268.5133614
21
307.1852497
0
LINE
8
bottom_labelLayer
10
268.5133614
20
307.1852497
11
268.61092
21
306.6432576
0
LINE
8
bottom_labelLayer
10
268.61092
20
306.6432576
11
268.6398263
21
306.6432576
0
LINE
8
bottom_labelLayer
10
271.0245919
20
306.5854451
11
271.0534981
21
306.5854451
0
LINE
8
bottom_labelLayer
10
273.673127
20
305.8085896
11
273.673127
21
303.2250935
0
ARC
8
bottom_labelLayer
10
271.3038853
20
305.8107875
40
1.7694621
50
359.6948297
51
8.1471908
0
ARC
8
bottom_labelLayer
10
271.9556234
20
305.9072388
40
1.1106376
50
7.9864548
51
20.7948996
0
ARC
8
bottom_labelLayer
10
272.3159006
20
306.0452465
40
0.7248345
50
20.7071162
51
40.0218294
0
ARC
8
bottom_labelLayer
10
272.3949331
20
306.0969573
40
0.6311573
50
41.0407994
51
73.1792561
0
ARC
8
bottom_labelLayer
10
272.2805712
20
305.751071
40
0.9953827
50
72.6395006
51
86.2568522
0
ARC
8
bottom_labelLayer
10
272.2439303
20
305.3557169
40
1.392327
50
85.8143687
51
90.0684199
0
ARC
8
bottom_labelLayer
10
272.230472
20
305.2047005
40
1.5433873
50
89.5621011
51
101.2961721
0
ARC
8
bottom_labelLayer
10
272.1142302
20
305.7611908
40
0.9749206
50
101.0032461
51
121.784012
0
ARC
8
bottom_labelLayer
10
272.0258572
20
305.9189634
40
0.7943
50
122.3597321
51
140.2883618
0
ARC
8
bottom_labelLayer
10
272.1848475
20
305.8023868
40
0.9911613
50
140.9765055
51
161.1699745
0
ARC
8
bottom_labelLayer
10
272.7838147
20
305.5892274
40
1.6268935
50
160.8731738
51
172.5272503
0
ARC
8
bottom_labelLayer
10
273.7846819
20
305.4510001
40
2.6372463
50
172.3776494
51
180.18293
0
ARC
8
bottom_labelLayer
10
274.5297486
20
305.4364252
40
3.382305
50
179.8957383
51
180.0000613
0
ARC
8
bottom_labelLayer
10
268.7782017
20
305.8107875
40
1.7694621
50
359.6948297
51
8.1471908
0
ARC
8
bottom_labelLayer
10
269.4299398
20
305.9072388
40
1.1106376
50
7.9864548
51
20.7948996
0
ARC
8
bottom_labelLayer
10
269.790217
20
306.0452465
40
0.7248345
50
20.7071162
51
40.0218294
0
ARC
8
bottom_labelLayer
10
269.8708937
20
306.0980943
40
0.6291706
50
41.0610088
51
72.8993805
0
ARC
8
bottom_labelLayer
10
269.7543635
20
305.7511717
40
0.9950655
50
72.3601035
51
85.9561921
0
ARC
8
bottom_labelLayer
10
269.7149184
20
305.343487
40
1.4045568
50
85.5238938
51
90.0794473
0
ARC
8
bottom_labelLayer
10
269.7014618
20
305.2583446
40
1.4897426
50
89.5573567
51
101.4832484
0
ARC
8
bottom_labelLayer
10
269.5871169
20
305.7940679
40
0.9419946
50
101.1545876
51
123.0655649
0
ARC
8
bottom_labelLayer
10
269.5093969
20
305.9294552
40
0.7861782
50
123.7021049
51
142.3021631
0
ARC
8
bottom_labelLayer
10
269.6914622
20
305.8059417
40
1.0058569
50
143.0770357
51
161.3913593
0
ARC
8
bottom_labelLayer
10
270.4253525
20
305.5467489
40
1.7841255
50
161.023448
51
171.4468751
0
ARC
8
bottom_labelLayer
10
271.6402517
20
305.356438
40
3.0138265
50
171.3041621
51
178.3502033
0
ARC
8
bottom_labelLayer
10
272.8015774
20
305.3045699
40
4.1762048
50
178.0976035
51
180.0252391
0
ARC
8
bottom_labelLayer
10
269.6559756
20
306.0457117
40
1.1788216
50
117.1209298
51
149.5423755
0
ARC
8
bottom_labelLayer
10
269.7762857
20
305.8318767
40
1.424023
50
93.8343371
51
117.5072133
0
ARC
8
bottom_labelLayer
10
269.8095147
20
305.5375142
40
1.7200014
50
89.9661998
51
94.2830495
0
ARC
8
bottom_labelLayer
10
269.8294252
20
305.2938488
40
1.9637575
50
77.5572025
51
90.5513236
0
ARC
8
bottom_labelLayer
10
270.0116407
20
306.0775862
40
1.1592032
50
52.7027117
51
78.005395
0
ARC
8
bottom_labelLayer
10
270.0765603
20
306.1983717
40
1.0240066
50
22.2097808
51
51.4970501
0
ARC
8
bottom_labelLayer
10
272.1400708
20
305.9627278
40
1.2523645
50
119.4041841
51
150.182882
0
ARC
8
bottom_labelLayer
10
272.278979
20
305.7514886
40
1.5046903
50
118.2584474
51
120.0630323
0
ARC
8
bottom_labelLayer
10
272.2785679
20
305.7360738
40
1.5180927
50
95.8635094
51
117.9693335
0
ARC
8
bottom_labelLayer
10
272.3299447
20
305.3645852
40
1.8929319
50
89.9196367
51
96.2617548
0
ARC
8
bottom_labelLayer
10
272.3464401
20
305.1725946
40
2.0849667
50
79.9361372
51
90.3803433
0
ARC
8
bottom_labelLayer
10
272.4853635
20
305.9250001
40
1.3198724
50
62.9723124
51
80.1664784
0
ARC
8
bottom_labelLayer
10
272.6305906
20
306.2229495
40
0.9884872
50
44.229009
51
62.6229061
0
ARC
8
bottom_labelLayer
10
272.5873974
20
306.203869
40
1.0328778
50
19.561187
51
43.3161157
0
ARC
8
bottom_labelLayer
10
271.9600943
20
305.968252
40
1.7029059
50
7.5041416
51
19.9645635
0
ARC
8
bottom_labelLayer
10
270.9220628
20
305.8224801
40
2.7510992
50
359.7107087
51
7.6907224
0
ENDSEC
0
EOF