<svg width="946mm" height="403mm" viewBox="0 0 946 403" xmlns="http://www.w3.org/2000/svg" version="1.1" preserveAspectRatio="xMidYMid meet"><g id="svgGroup" stroke-linecap="round" fill-rule="evenodd" font-size="9pt" stroke="#000" stroke-width="0.25mm" fill="none" style="stroke:#000;stroke-width:0.25mm;fill:none"><path d="M 0 343 L 0 363.98 L 3 363.98 L 3 382.02 L 0 382.02 L 0 400.06 L 0 403 L 31.66 403 L 31.66 400 L 49.7 400 L 49.7 403 L 67.74 403 L 67.74 400 L 85.78 400 L 85.78 403 L 103.82 403 L 103.82 400 L 121.86 400 L 121.86 403 L 139.9 403 L 139.9 400 L 157.94 400 L 157.94 403 L 175.98 403 L 175.98 400 L 194.02 400 L 194.02 403 L 212.06 403 L 212.06 400 L 230.1 400 L 230.1 403 L 248.14 403 L 248.14 400 L 266.18 400 L 266.18 403 L 284.22 403 L 284.22 400 L 302.26 400 L 302.26 403 L 320.3 403 L 320.3 400 L 338.34 400 L 338.34 403 L 356.38 403 L 370 403 L 370 382.02 L 367 382.02 L 367 363.98 L 370 363.98 L 370 345.94 L 370 343 L 338.34 343 L 338.34 346 L 320.3 346 L 320.3 343 L 302.26 343 L 302.26 346 L 284.22 346 L 284.22 343 L 266.18 343 L 266.18 346 L 248.14 346 L 248.14 343 L 230.1 343 L 230.1 346 L 212.06 346 L 212.06 343 L 194.02 343 L 194.02 346 L 175.98 346 L 175.98 343 L 157.94 343 L 157.94 346 L 139.9 346 L 139.9 343 L 121.86 343 L 121.86 346 L 103.82 346 L 103.82 343 L 85.78 343 L 85.78 346 L 67.74 346 L 67.74 343 L 49.7 343 L 49.7 346 L 31.66 346 L 31.66 343 L 13.62 343 L 0 343 Z" id="front_outsideCutPath" stroke="#FF0000" stroke-width="0.1" style="stroke:#FF0000;stroke-width:0.1" vector-effect="non-scaling-stroke"/><path d="M 193.745 377.532 L 192.772 377.532 L 192.772 373.378 A 2.749 2.749 0 0 0 192.741 372.947 Q 192.705 372.72 192.627 372.539 A 1.157 1.157 0 0 0 192.415 372.206 Q 192.126 371.893 191.571 371.833 A 2.579 2.579 0 0 0 191.296 371.819 A 2.944 2.944 0 0 0 190.745 371.867 Q 190.149 371.981 189.819 372.364 A 1.59 1.59 0 0 0 189.543 372.847 Q 189.377 373.291 189.354 373.952 A 6.231 6.231 0 0 0 189.351 374.163 L 189.351 377.532 L 188.378 377.532 L 188.378 371.11 L 189.169 371.11 L 189.327 371.989 L 189.374 371.989 A 1.97 1.97 0 0 1 190.145 371.287 A 2.368 2.368 0 0 1 190.212 371.254 Q 190.751 370.993 191.413 370.993 Q 192.183 370.993 192.699 371.239 A 1.748 1.748 0 0 1 193.159 371.553 A 1.686 1.686 0 0 1 193.57 372.197 Q 193.745 372.67 193.745 373.343 L 193.745 377.532 Z M 175.06 371.11 L 175.06 371.866 L 173.425 371.866 L 173.425 377.532 L 172.452 377.532 L 172.452 371.866 L 171.304 371.866 L 171.304 371.427 L 172.452 371.075 L 172.452 370.718 A 3.942 3.942 0 0 1 172.544 369.824 Q 172.888 368.35 174.521 368.35 A 3.132 3.132 0 0 1 174.964 368.384 Q 175.179 368.415 175.419 368.474 A 6.296 6.296 0 0 1 175.716 368.556 L 175.464 369.335 A 4.723 4.723 0 0 0 175.097 369.231 Q 174.764 369.153 174.503 369.153 A 1.312 1.312 0 0 0 174.187 369.189 A 0.842 0.842 0 0 0 173.688 369.519 A 1.125 1.125 0 0 0 173.54 369.819 Q 173.441 370.112 173.427 370.548 A 4.592 4.592 0 0 0 173.425 370.694 L 173.425 371.11 L 175.06 371.11 Z M 198.696 376.729 L 198.696 377.474 A 0.957 0.957 0 0 1 198.583 377.519 Q 198.462 377.559 198.289 377.59 A 3.638 3.638 0 0 1 198.23 377.599 A 4.216 4.216 0 0 1 197.956 377.635 Q 197.826 377.648 197.71 377.649 A 2.494 2.494 0 0 1 197.677 377.649 A 2.54 2.54 0 0 1 196.928 377.549 Q 196.105 377.295 195.89 376.401 A 3.057 3.057 0 0 1 195.813 375.686 L 195.813 371.866 L 194.894 371.866 L 194.894 371.397 L 195.813 370.993 L 196.224 369.622 L 196.786 369.622 L 196.786 371.11 L 198.649 371.11 L 198.649 371.866 L 196.786 371.866 L 196.786 375.645 A 1.959 1.959 0 0 0 196.814 375.989 Q 196.848 376.178 196.922 376.327 A 0.943 0.943 0 0 0 197.062 376.536 A 0.904 0.904 0 0 0 197.617 376.832 A 1.3 1.3 0 0 0 197.817 376.847 A 3.194 3.194 0 0 0 198.285 376.813 A 2.943 2.943 0 0 0 198.315 376.808 Q 198.556 376.77 198.696 376.729 Z M 179.929 371.063 L 179.794 371.966 A 4.287 4.287 0 0 0 179.486 371.909 Q 179.272 371.878 179.091 371.878 A 1.685 1.685 0 0 0 177.846 372.416 A 2.306 2.306 0 0 0 177.758 372.511 A 2.221 2.221 0 0 0 177.222 373.758 A 2.952 2.952 0 0 0 177.204 374.087 L 177.204 377.532 L 176.231 377.532 L 176.231 371.11 L 177.034 371.11 L 177.146 372.3 L 177.192 372.3 A 3.285 3.285 0 0 1 177.56 371.775 A 2.509 2.509 0 0 1 178.054 371.333 A 1.939 1.939 0 0 1 179.161 370.993 A 4.465 4.465 0 0 1 179.561 371.01 A 3.259 3.259 0 0 1 179.929 371.063 Z M 186.584 375.293 A 5.024 5.024 0 0 0 186.673 374.315 A 5.708 5.708 0 0 0 186.671 374.161 Q 186.632 372.74 185.879 371.89 A 2.546 2.546 0 0 0 184.697 371.127 A 3.268 3.268 0 0 0 183.737 370.993 Q 182.343 370.993 181.558 371.869 Q 180.772 372.745 180.772 374.315 A 4.866 4.866 0 0 0 180.834 375.103 A 3.598 3.598 0 0 0 181.136 376.085 A 3.197 3.197 0 0 0 181.207 376.223 A 2.633 2.633 0 0 0 182.167 377.245 A 2.708 2.708 0 0 0 182.789 377.521 A 3.123 3.123 0 0 0 183.696 377.649 A 3.777 3.777 0 0 0 184.356 377.594 A 2.593 2.593 0 0 0 185.882 376.767 Q 186.407 376.182 186.584 375.293 Z M 181.78 374.315 A 4.926 4.926 0 0 0 181.827 375.019 Q 181.932 375.745 182.272 376.19 A 1.594 1.594 0 0 0 183.311 376.802 A 2.416 2.416 0 0 0 183.72 376.835 Q 184.675 376.835 185.17 376.193 Q 185.665 375.552 185.665 374.315 Q 185.665 373.53 185.461 372.986 A 2.003 2.003 0 0 0 185.17 372.455 A 1.6 1.6 0 0 0 184.175 371.861 A 2.453 2.453 0 0 0 183.708 371.819 A 2.315 2.315 0 0 0 183.132 371.887 A 1.549 1.549 0 0 0 182.267 372.446 A 2.011 2.011 0 0 0 181.954 373.05 Q 181.862 373.328 181.818 373.668 A 5.14 5.14 0 0 0 181.78 374.315 Z" id="front_labelLayer" stroke="#777777" fill="#777777" style="stroke:#777777;fill:#777777" vector-effect="non-scaling-stroke"/><path d="M 376 343 L 376 363.98 L 373 363.98 L 373 382.02 L 376 382.02 L 376 400.06 L 376 403 L 391.82 403 L 391.82 400 L 409.86 400 L 409.86 403 L 427.9 403 L 427.9 400 L 445.94 400 L 445.94 403 L 463.98 403 L 463.98 400 L 482.02 400 L 482.02 403 L 500.06 403 L 500.06 400 L 518.1 400 L 518.1 403 L 536.14 403 L 536.14 400 L 554.18 400 L 554.18 403 L 570 403 L 570 382.02 L 573 382.02 L 573 363.98 L 570 363.98 L 570 345.94 L 570 343 L 554.18 343 L 554.18 346 L 536.14 346 L 536.14 343 L 518.1 343 L 518.1 346 L 500.06 346 L 500.06 343 L 482.02 343 L 482.02 346 L 463.98 346 L 463.98 343 L 445.94 343 L 445.94 346 L 427.9 346 L 427.9 343 L 409.86 343 L 409.86 346 L 391.82 346 L 391.82 343 L 376 343 Z" id="left_outsideCutPath" stroke="#FF0000" stroke-width="0.1" style="stroke:#FF0000;stroke-width:0.1" vector-effect="non-scaling-stroke"/><path d="M 477.269 371.11 L 477.269 371.866 L 475.634 371.866 L 475.634 377.532 L 474.661 377.532 L 474.661 371.866 L 473.513 371.866 L 473.513 371.427 L 474.661 371.075 L 474.661 370.718 A 3.942 3.942 0 0 1 474.753 369.824 Q 475.097 368.35 476.729 368.35 A 3.132 3.132 0 0 1 477.173 368.384 Q 477.388 368.415 477.628 368.474 A 6.296 6.296 0 0 1 477.925 368.556 L 477.673 369.335 A 4.723 4.723 0 0 0 477.306 369.231 Q 476.973 369.153 476.712 369.153 A 1.312 1.312 0 0 0 476.396 369.189 A 0.842 0.842 0 0 0 475.897 369.519 A 1.125 1.125 0 0 0 475.749 369.819 Q 475.65 370.112 475.636 370.548 A 4.592 4.592 0 0 0 475.634 370.694 L 475.634 371.11 L 477.269 371.11 Z M 472.716 373.882 L 472.716 374.497 L 468.292 374.497 Q 468.312 375.269 468.571 375.788 A 1.826 1.826 0 0 0 468.863 376.214 A 1.767 1.767 0 0 0 469.791 376.737 A 2.678 2.678 0 0 0 470.39 376.8 A 5.137 5.137 0 0 0 472.314 376.419 A 5.887 5.887 0 0 0 472.44 376.366 L 472.44 377.233 A 5.839 5.839 0 0 1 471.908 377.434 A 4.465 4.465 0 0 1 471.465 377.553 A 4.083 4.083 0 0 1 471.06 377.615 Q 470.741 377.649 470.354 377.649 A 3.78 3.78 0 0 1 469.409 377.537 A 2.676 2.676 0 0 1 468.107 376.782 A 2.863 2.863 0 0 1 467.423 375.525 Q 467.304 375.079 467.287 374.549 A 5.556 5.556 0 0 1 467.284 374.374 A 5.107 5.107 0 0 1 467.379 373.361 Q 467.503 372.745 467.792 372.267 A 2.88 2.88 0 0 1 468.049 371.907 A 2.492 2.492 0 0 1 469.865 371.001 A 3.438 3.438 0 0 1 470.103 370.993 A 2.963 2.963 0 0 1 470.937 371.105 A 2.255 2.255 0 0 1 472.013 371.787 A 2.72 2.72 0 0 1 472.629 373.03 A 3.959 3.959 0 0 1 472.716 373.882 Z M 481.394 376.729 L 481.394 377.474 A 0.957 0.957 0 0 1 481.28 377.519 Q 481.159 377.559 480.986 377.59 A 3.638 3.638 0 0 1 480.928 377.599 A 4.216 4.216 0 0 1 480.653 377.635 Q 480.523 377.648 480.407 377.649 A 2.494 2.494 0 0 1 480.374 377.649 A 2.54 2.54 0 0 1 479.625 377.549 Q 478.802 377.295 478.587 376.401 A 3.057 3.057 0 0 1 478.511 375.686 L 478.511 371.866 L 477.591 371.866 L 477.591 371.397 L 478.511 370.993 L 478.921 369.622 L 479.483 369.622 L 479.483 371.11 L 481.347 371.11 L 481.347 371.866 L 479.483 371.866 L 479.483 375.645 A 1.959 1.959 0 0 0 479.512 375.989 Q 479.545 376.178 479.619 376.327 A 0.943 0.943 0 0 0 479.759 376.536 A 0.904 0.904 0 0 0 480.314 376.832 A 1.3 1.3 0 0 0 480.515 376.847 A 3.194 3.194 0 0 0 480.983 376.813 A 2.943 2.943 0 0 0 481.013 376.808 Q 481.253 376.77 481.394 376.729 Z M 465.579 368.415 L 465.579 377.532 L 464.606 377.532 L 464.606 368.415 L 465.579 368.415 Z M 468.315 373.706 L 471.673 373.706 A 3.314 3.314 0 0 0 471.633 373.173 Q 471.545 372.633 471.263 372.297 A 1.333 1.333 0 0 0 470.46 371.84 A 1.999 1.999 0 0 0 470.091 371.807 A 1.917 1.917 0 0 0 469.537 371.884 A 1.481 1.481 0 0 0 468.857 372.311 A 1.921 1.921 0 0 0 468.475 372.956 Q 468.354 373.288 468.315 373.706 Z" id="left_labelLayer" stroke="#777777" fill="#777777" style="stroke:#777777;fill:#777777" vector-effect="non-scaling-stroke"/><path d="M 579 206 L 579 221.82 L 576 221.82 L 576 239.86 L 579 239.86 L 579 257.9 L 576 257.9 L 576 275.94 L 579 275.94 L 579 293.98 L 576 293.98 L 576 312.02 L 579 312.02 L 579 330.06 L 576 330.06 L 576 348.1 L 579 348.1 L 579 366.14 L 576 366.14 L 576 384.18 L 579 384.18 L 579 400 L 607.66 400 L 607.66 403 L 625.7 403 L 625.7 400 L 643.74 400 L 643.74 403 L 661.78 403 L 661.78 400 L 679.82 400 L 679.82 403 L 697.86 403 L 697.86 400 L 715.9 400 L 715.9 403 L 733.94 403 L 733.94 400 L 751.98 400 L 751.98 403 L 770.02 403 L 770.02 400 L 788.06 400 L 788.06 403 L 806.1 403 L 806.1 400 L 824.14 400 L 824.14 403 L 842.18 403 L 842.18 400 L 860.22 400 L 860.22 403 L 878.26 403 L 878.26 400 L 896.3 400 L 896.3 403 L 914.34 403 L 914.34 400 L 932.38 400 L 943 400 L 943 384.18 L 946 384.18 L 946 366.14 L 943 366.14 L 943 348.1 L 946 348.1 L 946 330.06 L 943 330.06 L 943 312.02 L 946 312.02 L 946 293.98 L 943 293.98 L 943 275.94 L 946 275.94 L 946 257.9 L 943 257.9 L 943 239.86 L 946 239.86 L 946 221.82 L 943 221.82 L 943 206 L 914.34 206 L 914.34 203 L 896.3 203 L 896.3 206 L 878.26 206 L 878.26 203 L 860.22 203 L 860.22 206 L 842.18 206 L 842.18 203 L 824.14 203 L 824.14 206 L 806.1 206 L 806.1 203 L 788.06 203 L 788.06 206 L 770.02 206 L 770.02 203 L 751.98 203 L 751.98 206 L 733.94 206 L 733.94 203 L 715.9 203 L 715.9 206 L 697.86 206 L 697.86 203 L 679.82 203 L 679.82 206 L 661.78 206 L 661.78 203 L 643.74 203 L 643.74 206 L 625.7 206 L 625.7 203 L 607.66 203 L 607.66 206 L 589.62 206 L 579 206 Z" id="top_outsideCutPath" stroke="#FF0000" stroke-width="0.1" style="stroke:#FF0000;stroke-width:0.1" vector-effect="non-scaling-stroke"/><path d="M 775.375 308.625 L 775.14 308.625 A 30.683 30.683 0 0 1 775.342 310.892 A 25.711 25.711 0 0 1 775.375 312.18 L 775.375 320.988 L 772.133 320.988 L 772.133 289.973 L 774.769 289.973 L 775.219 292.902 L 775.375 292.902 Q 776.625 291.145 778.285 290.363 A 8.119 8.119 0 0 1 780.612 289.683 A 10.509 10.509 0 0 1 782.094 289.582 A 9.938 9.938 0 0 1 784.901 289.957 A 7.346 7.346 0 0 1 788.666 292.492 Q 790.98 295.402 790.98 300.656 A 19.01 19.01 0 0 1 790.728 303.855 Q 790.21 306.885 788.627 308.85 A 7.675 7.675 0 0 1 783.172 311.718 A 10.996 10.996 0 0 1 782.094 311.77 Q 780.004 311.77 778.275 310.998 A 7.181 7.181 0 0 1 775.375 308.625 Z M 743.695 308.703 L 743.695 311.184 A 3.189 3.189 0 0 1 743.317 311.334 Q 742.847 311.489 742.142 311.604 Q 741.185 311.759 740.407 311.769 A 8.312 8.312 0 0 1 740.297 311.77 A 8.468 8.468 0 0 1 737.801 311.434 Q 735.058 310.587 734.34 307.607 A 10.191 10.191 0 0 1 734.086 305.227 L 734.086 292.492 L 731.019 292.492 L 731.019 290.93 L 734.086 289.582 L 735.453 285.012 L 737.328 285.012 L 737.328 289.973 L 743.539 289.973 L 743.539 292.492 L 737.328 292.492 L 737.328 305.09 A 6.529 6.529 0 0 0 737.422 306.236 Q 737.535 306.866 737.781 307.364 A 3.145 3.145 0 0 0 738.246 308.059 Q 739.164 309.094 740.765 309.094 A 10.648 10.648 0 0 0 742.325 308.982 A 9.812 9.812 0 0 0 742.426 308.967 Q 743.19 308.846 743.652 308.716 A 4.868 4.868 0 0 0 743.695 308.703 Z M 766.151 303.914 A 16.747 16.747 0 0 0 766.449 300.656 A 19.028 19.028 0 0 0 766.442 300.142 Q 766.394 298.359 766.008 296.846 A 10.096 10.096 0 0 0 763.803 292.57 Q 761.156 289.582 756.664 289.582 Q 752.015 289.582 749.398 292.502 Q 747.66 294.441 747.076 297.401 A 16.834 16.834 0 0 0 746.781 300.656 A 16.219 16.219 0 0 0 746.985 303.283 A 11.994 11.994 0 0 0 747.992 306.555 A 10.656 10.656 0 0 0 748.228 307.017 A 8.777 8.777 0 0 0 751.43 310.422 A 9.028 9.028 0 0 0 753.502 311.343 A 10.412 10.412 0 0 0 756.527 311.77 A 12.59 12.59 0 0 0 758.726 311.586 A 8.644 8.644 0 0 0 763.812 308.83 A 9.044 9.044 0 0 0 764.889 307.351 Q 765.768 305.848 766.151 303.914 Z M 750.14 300.656 A 16.418 16.418 0 0 0 750.297 303.002 Q 750.469 304.192 750.831 305.157 A 6.802 6.802 0 0 0 751.781 306.906 A 5.314 5.314 0 0 0 755.242 308.944 A 8.052 8.052 0 0 0 756.605 309.055 A 7.531 7.531 0 0 0 758.592 308.808 A 5.241 5.241 0 0 0 761.439 306.916 A 6.96 6.96 0 0 0 762.523 304.805 Q 762.842 303.83 762.981 302.639 A 17.078 17.078 0 0 0 763.09 300.656 A 16.177 16.177 0 0 0 762.936 298.351 Q 762.587 295.929 761.439 294.455 Q 759.789 292.336 756.566 292.336 A 7.716 7.716 0 0 0 754.645 292.561 A 5.164 5.164 0 0 0 751.762 294.426 Q 750.14 296.516 750.14 300.656 Z M 775.375 299.934 L 775.375 300.656 Q 775.375 304.488 776.46 306.468 A 4.89 4.89 0 0 0 776.879 307.111 A 4.704 4.704 0 0 0 779.265 308.722 Q 780.328 309.055 781.703 309.055 A 5.463 5.463 0 0 0 783.827 308.656 Q 785.052 308.145 785.926 306.978 A 6.461 6.461 0 0 0 786.049 306.809 A 7.839 7.839 0 0 0 787.123 304.518 Q 787.434 303.467 787.551 302.206 A 17.273 17.273 0 0 0 787.621 300.617 Q 787.621 297.99 786.944 296.165 A 6.874 6.874 0 0 0 786.049 294.475 A 5.043 5.043 0 0 0 782.36 292.374 A 6.976 6.976 0 0 0 781.625 292.336 A 9.342 9.342 0 0 0 779.88 292.488 Q 778.908 292.673 778.161 293.084 A 4.284 4.284 0 0 0 776.879 294.152 Q 775.507 295.853 775.386 299.436 A 20.635 20.635 0 0 0 775.375 299.934 Z" id="top_labelLayer" stroke="#777777" fill="#777777" style="stroke:#777777;fill:#777777" vector-effect="non-scaling-stroke"/><path d="M 0 280 L 0 300.98 L 3 300.98 L 3 319.02 L 0 319.02 L 0 337.06 L 0 340 L 31.66 340 L 31.66 337 L 49.7 337 L 49.7 340 L 67.74 340 L 67.74 337 L 85.78 337 L 85.78 340 L 103.82 340 L 103.82 337 L 121.86 337 L 121.86 340 L 139.9 340 L 139.9 337 L 157.94 337 L 157.94 340 L 175.98 340 L 175.98 337 L 194.02 337 L 194.02 340 L 212.06 340 L 212.06 337 L 230.1 337 L 230.1 340 L 248.14 340 L 248.14 337 L 266.18 337 L 266.18 340 L 284.22 340 L 284.22 337 L 302.26 337 L 302.26 340 L 320.3 340 L 320.3 337 L 338.34 337 L 338.34 340 L 356.38 340 L 370 340 L 370 319.02 L 367 319.02 L 367 300.98 L 370 300.98 L 370 282.94 L 370 280 L 338.34 280 L 338.34 283 L 320.3 283 L 320.3 280 L 302.26 280 L 302.26 283 L 284.22 283 L 284.22 280 L 266.18 280 L 266.18 283 L 248.14 283 L 248.14 280 L 230.1 280 L 230.1 283 L 212.06 283 L 212.06 280 L 194.02 280 L 194.02 283 L 175.98 283 L 175.98 280 L 157.94 280 L 157.94 283 L 139.9 283 L 139.9 280 L 121.86 280 L 121.86 283 L 103.82 283 L 103.82 280 L 85.78 280 L 85.78 283 L 67.74 283 L 67.74 280 L 49.7 280 L 49.7 283 L 31.66 283 L 31.66 280 L 13.62 280 L 0 280 Z" id="back_outsideCutPath" stroke="#FF0000" stroke-width="0.1" style="stroke:#FF0000;stroke-width:0.1" vector-effect="non-scaling-stroke"/><path d="M 193.215 311.213 L 193.262 311.213 A 5.758 5.758 0 0 1 193.404 311.02 Q 193.643 310.71 194.029 310.275 L 196.104 308.078 L 197.258 308.078 L 194.656 310.814 L 197.439 314.5 L 196.262 314.5 L 193.994 311.465 L 193.262 312.098 L 193.262 314.5 L 192.301 314.5 L 192.301 305.383 L 193.262 305.383 L 193.262 310.217 A 6.482 6.482 0 0 1 193.259 310.4 Q 193.25 310.707 193.215 311.213 Z M 173.533 313.674 L 173.463 313.674 L 173.258 314.5 L 172.561 314.5 L 172.561 305.383 L 173.533 305.383 L 173.533 307.598 Q 173.533 308.318 173.489 308.895 A 12.201 12.201 0 0 1 173.486 308.934 L 173.533 308.934 A 2.211 2.211 0 0 1 175.147 307.996 A 3.322 3.322 0 0 1 175.549 307.973 Q 176.814 307.973 177.515 308.837 Q 178.215 309.701 178.215 311.283 A 5.703 5.703 0 0 1 178.139 312.243 Q 178.052 312.754 177.863 313.164 A 2.734 2.734 0 0 1 177.509 313.741 A 2.303 2.303 0 0 1 175.872 314.602 A 3.299 3.299 0 0 1 175.549 314.617 A 2.95 2.95 0 0 1 174.807 314.527 A 2.567 2.567 0 0 1 174.403 314.386 A 2.154 2.154 0 0 1 173.533 313.674 Z M 184.584 314.5 L 183.863 314.5 L 183.67 313.586 L 183.623 313.586 Q 183.284 314.012 182.946 314.244 A 1.792 1.792 0 0 1 182.665 314.403 A 2.243 2.243 0 0 1 182.202 314.549 Q 181.977 314.596 181.717 314.611 A 4.377 4.377 0 0 1 181.473 314.617 A 2.985 2.985 0 0 1 180.865 314.559 Q 180.331 314.448 179.976 314.125 A 1.599 1.599 0 0 1 179.493 313.282 A 2.447 2.447 0 0 1 179.434 312.725 A 1.683 1.683 0 0 1 180.391 311.136 Q 181.104 310.757 182.347 310.693 A 9.501 9.501 0 0 1 182.545 310.685 L 183.635 310.65 L 183.635 310.252 A 2.794 2.794 0 0 0 183.608 309.848 Q 183.577 309.641 183.513 309.476 A 1.085 1.085 0 0 0 183.31 309.136 A 0.987 0.987 0 0 0 182.905 308.872 Q 182.743 308.813 182.543 308.79 A 2.403 2.403 0 0 0 182.27 308.775 A 3.167 3.167 0 0 0 181.541 308.866 Q 181.031 308.987 180.453 309.268 L 180.154 308.523 A 4.485 4.485 0 0 1 181.02 308.168 A 5.105 5.105 0 0 1 181.194 308.119 A 4.504 4.504 0 0 1 182.328 307.973 A 4.108 4.108 0 0 1 182.954 308.017 Q 183.64 308.123 184.03 308.482 Q 184.584 308.992 184.584 310.117 L 184.584 314.5 Z M 190.871 308.295 L 190.572 309.121 Q 190.25 308.992 189.869 308.907 Q 189.543 308.834 189.282 308.824 A 2.156 2.156 0 0 0 189.195 308.822 A 2.157 2.157 0 0 0 188.319 308.987 Q 187.401 309.392 187.263 310.792 A 5.375 5.375 0 0 0 187.238 311.318 A 4.711 4.711 0 0 0 187.285 312.004 Q 187.336 312.352 187.444 312.635 A 2.017 2.017 0 0 0 187.716 313.135 A 1.545 1.545 0 0 0 188.717 313.733 A 2.353 2.353 0 0 0 189.131 313.768 A 4.072 4.072 0 0 0 190.254 313.604 A 5.027 5.027 0 0 0 190.777 313.422 L 190.777 314.283 A 2.767 2.767 0 0 1 190.1 314.523 Q 189.788 314.592 189.424 314.61 A 5.334 5.334 0 0 1 189.154 314.617 A 3.635 3.635 0 0 1 188.27 314.516 A 2.465 2.465 0 0 1 186.995 313.759 A 2.813 2.813 0 0 1 186.41 312.684 Q 186.281 312.258 186.245 311.745 A 5.881 5.881 0 0 1 186.23 311.33 A 5.367 5.367 0 0 1 186.314 310.354 Q 186.484 309.431 187.007 308.84 A 2.519 2.519 0 0 1 188.386 308.047 A 3.818 3.818 0 0 1 189.219 307.961 Q 189.682 307.961 190.145 308.06 A 4.855 4.855 0 0 1 190.414 308.126 Q 190.69 308.202 190.871 308.295 Z M 174.348 309.028 A 1.294 1.294 0 0 0 173.973 309.358 A 1.665 1.665 0 0 0 173.732 309.817 Q 173.569 310.273 173.54 310.966 A 7.494 7.494 0 0 0 173.533 311.283 A 6.431 6.431 0 0 0 173.565 311.948 Q 173.635 312.618 173.859 313.027 A 1.467 1.467 0 0 0 173.984 313.22 A 1.411 1.411 0 0 0 174.7 313.703 Q 175.019 313.803 175.432 313.803 A 1.939 1.939 0 0 0 175.982 313.729 A 1.399 1.399 0 0 0 176.768 313.149 A 2.233 2.233 0 0 0 177.044 312.552 Q 177.207 312.018 177.207 311.271 Q 177.207 310.083 176.812 309.468 A 1.614 1.614 0 0 0 176.768 309.402 A 1.418 1.418 0 0 0 175.865 308.831 A 2.25 2.25 0 0 0 175.408 308.787 Q 174.761 308.787 174.348 309.028 Z M 183.611 311.922 L 183.611 311.342 L 182.639 311.383 A 7.142 7.142 0 0 0 182.068 311.424 Q 181.505 311.49 181.153 311.645 A 1.494 1.494 0 0 0 180.966 311.743 A 1.038 1.038 0 0 0 180.471 312.496 A 1.536 1.536 0 0 0 180.453 312.736 A 1.39 1.39 0 0 0 180.488 313.055 Q 180.558 313.354 180.772 313.539 Q 181.048 313.777 181.514 313.809 A 2.188 2.188 0 0 0 181.666 313.814 Q 182.574 313.814 183.093 313.316 A 1.629 1.629 0 0 0 183.547 312.503 Q 183.61 312.241 183.611 311.932 A 3.098 3.098 0 0 0 183.611 311.922 Z" id="back_labelLayer" stroke="#777777" fill="#777777" style="stroke:#777777;fill:#777777" vector-effect="non-scaling-stroke"/><path d="M 376 280 L 376 300.98 L 373 300.98 L 373 319.02 L 376 319.02 L 376 337.06 L 376 340 L 391.82 340 L 391.82 337 L 409.86 337 L 409.86 340 L 427.9 340 L 427.9 337 L 445.94 337 L 445.94 340 L 463.98 340 L 463.98 337 L 482.02 337 L 482.02 340 L 500.06 340 L 500.06 337 L 518.1 337 L 518.1 340 L 536.14 340 L 536.14 337 L 554.18 337 L 554.18 340 L 570 340 L 570 319.02 L 573 319.02 L 573 300.98 L 570 300.98 L 570 282.94 L 570 280 L 554.18 280 L 554.18 283 L 536.14 283 L 536.14 280 L 518.1 280 L 518.1 283 L 500.06 283 L 500.06 280 L 482.02 280 L 482.02 283 L 463.98 283 L 463.98 280 L 445.94 280 L 445.94 283 L 427.9 283 L 427.9 280 L 409.86 280 L 409.86 283 L 391.82 283 L 391.82 280 L 376 280 Z" id="right_outsideCutPath" stroke="#FF0000" stroke-width="0.1" style="stroke:#FF0000;stroke-width:0.1" vector-effect="non-scaling-stroke"/><path d="M 480.462 313.117 L 479.489 313.117 L 479.489 308.963 A 2.749 2.749 0 0 0 479.458 308.532 Q 479.422 308.305 479.344 308.124 A 1.157 1.157 0 0 0 479.132 307.791 Q 478.842 307.478 478.288 307.418 A 2.579 2.579 0 0 0 478.013 307.404 A 2.943 2.943 0 0 0 477.462 307.452 Q 476.862 307.567 476.533 307.955 A 1.618 1.618 0 0 0 476.259 308.442 Q 476.093 308.888 476.071 309.55 A 6.277 6.277 0 0 0 476.067 309.76 L 476.067 313.117 L 475.095 313.117 L 475.095 304 L 476.067 304 L 476.067 306.76 A 8.75 8.75 0 0 1 476.061 307.096 Q 476.051 307.376 476.021 307.586 L 476.079 307.586 A 1.943 1.943 0 0 1 476.76 306.931 A 2.374 2.374 0 0 1 476.896 306.856 A 2.497 2.497 0 0 1 477.716 306.613 A 3.157 3.157 0 0 1 478.106 306.59 Q 478.881 306.59 479.401 306.832 A 1.753 1.753 0 0 1 479.873 307.149 Q 480.33 307.584 480.433 308.416 A 4.206 4.206 0 0 1 480.462 308.928 L 480.462 313.117 Z M 471.556 306.695 L 473.776 306.695 L 473.776 307.311 L 472.587 307.451 A 1.581 1.581 0 0 1 472.724 307.655 Q 472.784 307.76 472.838 307.886 A 2.999 2.999 0 0 1 472.88 307.987 A 1.871 1.871 0 0 1 472.991 308.434 A 2.403 2.403 0 0 1 473.009 308.734 A 2.23 2.23 0 0 1 472.906 309.426 A 1.803 1.803 0 0 1 472.364 310.24 Q 471.72 310.803 470.595 310.803 Q 470.308 310.803 470.056 310.756 A 1.731 1.731 0 0 0 469.777 310.936 Q 469.435 311.212 469.435 311.582 Q 469.435 311.838 469.638 311.964 A 0.54 0.54 0 0 0 469.651 311.972 Q 469.826 312.073 470.202 312.093 A 3.7 3.7 0 0 0 470.396 312.098 L 471.532 312.098 A 3.981 3.981 0 0 1 472.137 312.141 Q 472.453 312.189 472.708 312.293 A 1.758 1.758 0 0 1 473.135 312.537 A 1.423 1.423 0 0 1 473.664 313.444 A 2.137 2.137 0 0 1 473.694 313.814 A 2.106 2.106 0 0 1 473.574 314.543 Q 473.374 315.091 472.839 315.44 A 2.917 2.917 0 0 1 472.087 315.781 Q 471.716 315.894 471.264 315.949 A 7.709 7.709 0 0 1 470.343 316 A 5.45 5.45 0 0 1 469.612 315.954 Q 468.87 315.853 468.4 315.531 Q 467.762 315.093 467.721 314.316 A 2.054 2.054 0 0 1 467.718 314.207 Q 467.718 313.621 468.093 313.193 A 1.698 1.698 0 0 1 468.676 312.768 A 2.407 2.407 0 0 1 469.147 312.613 Q 468.901 312.502 468.734 312.268 A 0.902 0.902 0 0 1 468.569 311.78 A 1.117 1.117 0 0 1 468.567 311.723 A 1.112 1.112 0 0 1 468.623 311.364 A 0.986 0.986 0 0 1 468.755 311.107 A 1.392 1.392 0 0 1 468.939 310.9 Q 469.037 310.808 469.162 310.719 A 3.055 3.055 0 0 1 469.347 310.598 A 1.705 1.705 0 0 1 468.606 310.005 A 2.113 2.113 0 0 1 468.535 309.9 A 2.011 2.011 0 0 1 468.227 308.931 A 2.454 2.454 0 0 1 468.222 308.775 A 2.81 2.81 0 0 1 468.296 308.111 A 1.849 1.849 0 0 1 468.854 307.149 A 2.066 2.066 0 0 1 469.647 306.712 Q 470.086 306.578 470.647 306.578 A 3.728 3.728 0 0 1 471.141 306.609 A 2.84 2.84 0 0 1 471.556 306.695 Z M 485.413 312.314 L 485.413 313.059 A 0.957 0.957 0 0 1 485.3 313.104 Q 485.179 313.144 485.005 313.175 A 3.638 3.638 0 0 1 484.947 313.185 A 4.216 4.216 0 0 1 484.672 313.22 Q 484.543 313.233 484.427 313.234 A 2.494 2.494 0 0 1 484.394 313.234 A 2.54 2.54 0 0 1 483.645 313.134 Q 482.822 312.88 482.607 311.986 A 3.057 3.057 0 0 1 482.53 311.271 L 482.53 307.451 L 481.61 307.451 L 481.61 306.982 L 482.53 306.578 L 482.94 305.207 L 483.503 305.207 L 483.503 306.695 L 485.366 306.695 L 485.366 307.451 L 483.503 307.451 L 483.503 311.23 A 1.959 1.959 0 0 0 483.531 311.574 Q 483.565 311.763 483.639 311.913 A 0.943 0.943 0 0 0 483.778 312.121 A 0.904 0.904 0 0 0 484.334 312.417 A 1.3 1.3 0 0 0 484.534 312.432 A 3.194 3.194 0 0 0 485.002 312.398 A 2.943 2.943 0 0 0 485.032 312.394 Q 485.272 312.355 485.413 312.314 Z M 464.284 306.648 L 464.149 307.551 A 4.287 4.287 0 0 0 463.841 307.494 Q 463.627 307.463 463.446 307.463 A 1.685 1.685 0 0 0 462.201 308.001 A 2.306 2.306 0 0 0 462.113 308.096 A 2.221 2.221 0 0 0 461.577 309.343 A 2.952 2.952 0 0 0 461.56 309.672 L 461.56 313.117 L 460.587 313.117 L 460.587 306.695 L 461.39 306.695 L 461.501 307.885 L 461.548 307.885 A 3.285 3.285 0 0 1 461.915 307.36 A 2.509 2.509 0 0 1 462.409 306.918 A 1.939 1.939 0 0 1 463.517 306.578 A 4.465 4.465 0 0 1 463.916 306.595 A 3.259 3.259 0 0 1 464.284 306.648 Z M 466.458 306.695 L 466.458 313.117 L 465.485 313.117 L 465.485 306.695 L 466.458 306.695 Z M 471.222 312.971 L 470.056 312.971 Q 469.571 312.971 469.243 313.14 A 1.139 1.139 0 0 0 469.024 313.287 A 1.025 1.025 0 0 0 468.688 313.868 A 1.556 1.556 0 0 0 468.655 314.195 A 0.977 0.977 0 0 0 468.72 314.558 Q 468.812 314.791 469.037 314.949 A 1.141 1.141 0 0 0 469.095 314.986 Q 469.532 315.255 470.346 315.256 A 4.996 4.996 0 0 0 470.354 315.256 Q 471.448 315.256 472.035 314.964 A 1.615 1.615 0 0 0 472.168 314.89 A 1.419 1.419 0 0 0 472.497 314.614 A 1.063 1.063 0 0 0 472.757 313.896 Q 472.757 313.375 472.435 313.173 Q 472.189 313.019 471.614 312.982 A 6.189 6.189 0 0 0 471.222 312.971 Z M 469.399 309.582 A 1.041 1.041 0 0 0 469.563 309.771 Q 469.907 310.083 470.492 310.114 A 2.504 2.504 0 0 0 470.624 310.117 Q 471.748 310.117 471.985 309.255 A 1.97 1.97 0 0 0 472.048 308.734 A 2.091 2.091 0 0 0 471.976 308.162 Q 471.793 307.519 471.14 307.349 A 2.115 2.115 0 0 0 470.606 307.287 A 2.041 2.041 0 0 0 470.191 307.327 Q 469.936 307.38 469.741 307.504 A 1.12 1.12 0 0 0 469.552 307.656 A 1.167 1.167 0 0 0 469.269 308.132 Q 469.21 308.316 469.191 308.54 A 2.559 2.559 0 0 0 469.183 308.752 Q 469.183 309.26 469.399 309.582 Z M 465.567 304.466 A 0.455 0.455 0 0 0 465.467 304.609 Q 465.403 304.747 465.403 304.955 A 1.148 1.148 0 0 0 465.408 305.065 Q 465.418 305.163 465.445 305.243 A 0.502 0.502 0 0 0 465.567 305.444 A 0.546 0.546 0 0 0 465.765 305.57 A 0.618 0.618 0 0 0 465.978 305.605 A 0.567 0.567 0 0 0 466.382 305.444 A 0.475 0.475 0 0 0 466.475 305.322 Q 466.552 305.176 466.552 304.955 A 1.113 1.113 0 0 0 466.547 304.85 Q 466.538 304.754 466.511 304.675 A 0.491 0.491 0 0 0 466.382 304.469 A 0.573 0.573 0 0 0 465.978 304.311 Q 465.731 304.311 465.567 304.466 Z" id="right_labelLayer" stroke="#777777" fill="#777777" style="stroke:#777777;fill:#777777" vector-effect="non-scaling-stroke"/><path d="M 579 3 L 579 18.82 L 576 18.82 L 576 36.86 L 579 36.86 L 579 54.9 L 576 54.9 L 576 72.94 L 579 72.94 L 579 90.98 L 576 90.98 L 576 109.02 L 579 109.02 L 579 127.06 L 576 127.06 L 576 145.1 L 579 145.1 L 579 163.14 L 576 163.14 L 576 181.18 L 579 181.18 L 579 197 L 607.66 197 L 607.66 200 L 625.7 200 L 625.7 197 L 643.74 197 L 643.74 200 L 661.78 200 L 661.78 197 L 679.82 197 L 679.82 200 L 697.86 200 L 697.86 197 L 715.9 197 L 715.9 200 L 733.94 200 L 733.94 197 L 751.98 197 L 751.98 200 L 770.02 200 L 770.02 197 L 788.06 197 L 788.06 200 L 806.1 200 L 806.1 197 L 824.14 197 L 824.14 200 L 842.18 200 L 842.18 197 L 860.22 197 L 860.22 200 L 878.26 200 L 878.26 197 L 896.3 197 L 896.3 200 L 914.34 200 L 914.34 197 L 932.38 197 L 943 197 L 943 181.18 L 946 181.18 L 946 163.14 L 943 163.14 L 943 145.1 L 946 145.1 L 946 127.06 L 943 127.06 L 943 109.02 L 946 109.02 L 946 90.98 L 943 90.98 L 943 72.94 L 946 72.94 L 946 54.9 L 943 54.9 L 943 36.86 L 946 36.86 L 946 18.82 L 943 18.82 L 943 3 L 914.34 3 L 914.34 0 L 896.3 0 L 896.3 3 L 878.26 3 L 878.26 0 L 860.22 0 L 860.22 3 L 842.18 3 L 842.18 0 L 824.14 0 L 824.14 3 L 806.1 3 L 806.1 0 L 788.06 0 L 788.06 3 L 770.02 3 L 770.02 0 L 751.98 0 L 751.98 3 L 733.94 3 L 733.94 0 L 715.9 0 L 715.9 3 L 697.86 3 L 697.86 0 L 679.82 0 L 679.82 3 L 661.78 3 L 661.78 0 L 643.74 0 L 643.74 3 L 625.7 3 L 625.7 0 L 607.66 0 L 607.66 3 L 589.62 3 L 579 3 Z" id="bottom_outsideCutPath" stroke="#FF0000" stroke-width="0.1" style="stroke:#FF0000;stroke-width:0.1" vector-effect="non-scaling-stroke"/><path d="M 826.801 114.999 L 823.558 114.999 L 823.558 101.074 Q 823.558 99.471 823.129 98.37 A 3.918 3.918 0 0 0 822.465 97.236 A 3.412 3.412 0 0 0 820.879 96.21 Q 820.093 95.957 819.066 95.957 A 8.343 8.343 0 0 0 817.368 96.118 Q 816.359 96.328 815.598 96.811 A 4.293 4.293 0 0 0 814.594 97.695 A 5.358 5.358 0 0 0 813.685 99.339 Q 813.152 100.833 813.148 103.013 A 17.968 17.968 0 0 0 813.148 103.046 L 813.148 114.999 L 809.906 114.999 L 809.906 101.074 Q 809.906 99.471 809.477 98.37 A 3.918 3.918 0 0 0 808.812 97.236 Q 807.719 95.957 805.394 95.957 A 8.053 8.053 0 0 0 803.729 96.117 Q 801.927 96.499 800.932 97.783 A 5.437 5.437 0 0 0 800.125 99.314 Q 799.603 100.793 799.528 103.01 A 22.573 22.573 0 0 0 799.516 103.769 L 799.516 114.999 L 796.273 114.999 L 796.273 93.593 L 798.91 93.593 L 799.437 96.523 L 799.594 96.523 Q 800.512 94.96 802.182 94.082 A 7.697 7.697 0 0 1 805.222 93.229 A 9.297 9.297 0 0 1 805.922 93.203 A 10.615 10.615 0 0 1 808.311 93.451 Q 809.781 93.791 810.806 94.596 A 5.535 5.535 0 0 1 812.484 96.835 L 812.641 96.835 Q 813.598 95.156 815.414 94.179 A 8.206 8.206 0 0 1 818.424 93.264 A 10.232 10.232 0 0 1 819.555 93.203 A 11.27 11.27 0 0 1 821.599 93.376 Q 822.735 93.586 823.622 94.05 A 5.343 5.343 0 0 1 824.994 95.068 A 5.583 5.583 0 0 1 826.193 97.029 Q 826.516 97.893 826.667 98.969 A 14.871 14.871 0 0 1 826.801 101.035 L 826.801 114.999 Z M 698.441 112.246 L 698.207 112.246 L 697.523 114.999 L 695.199 114.999 L 695.199 84.609 L 698.441 84.609 L 698.441 91.992 Q 698.441 94.392 698.295 96.317 A 40.448 40.448 0 0 1 698.285 96.445 L 698.441 96.445 A 7.371 7.371 0 0 1 703.822 93.32 A 11.073 11.073 0 0 1 705.16 93.242 A 9.909 9.909 0 0 1 707.949 93.614 A 7.418 7.418 0 0 1 711.713 96.123 Q 713.582 98.429 713.954 102.271 A 20.811 20.811 0 0 1 714.047 104.277 A 19.01 19.01 0 0 1 713.795 107.475 Q 713.277 110.506 711.693 112.47 A 7.675 7.675 0 0 1 706.238 115.339 A 10.996 10.996 0 0 1 705.16 115.39 Q 703.07 115.39 701.342 114.619 A 7.181 7.181 0 0 1 698.441 112.246 Z M 753.715 112.324 L 753.715 114.804 A 3.189 3.189 0 0 1 753.337 114.954 Q 752.867 115.11 752.162 115.224 Q 751.205 115.379 750.426 115.389 A 8.312 8.312 0 0 1 750.316 115.39 A 8.468 8.468 0 0 1 747.821 115.054 Q 745.078 114.208 744.36 111.228 A 10.191 10.191 0 0 1 744.105 108.847 L 744.105 96.113 L 741.039 96.113 L 741.039 94.55 L 744.105 93.203 L 745.473 88.632 L 747.348 88.632 L 747.348 93.593 L 753.558 93.593 L 753.558 96.113 L 747.348 96.113 L 747.348 108.71 A 6.529 6.529 0 0 0 747.442 109.857 Q 747.554 110.486 747.801 110.984 A 3.145 3.145 0 0 0 748.266 111.679 Q 749.183 112.714 750.785 112.714 A 10.648 10.648 0 0 0 752.345 112.603 A 9.812 9.812 0 0 0 752.445 112.587 Q 753.209 112.466 753.671 112.336 A 4.868 4.868 0 0 0 753.715 112.324 Z M 767.836 112.324 L 767.836 114.804 A 3.189 3.189 0 0 1 767.458 114.954 Q 766.988 115.11 766.283 115.224 Q 765.326 115.379 764.547 115.389 A 8.312 8.312 0 0 1 764.437 115.39 A 8.468 8.468 0 0 1 761.942 115.054 Q 759.199 114.208 758.481 111.228 A 10.191 10.191 0 0 1 758.226 108.847 L 758.226 96.113 L 755.16 96.113 L 755.16 94.55 L 758.226 93.203 L 759.594 88.632 L 761.469 88.632 L 761.469 93.593 L 767.68 93.593 L 767.68 96.113 L 761.469 96.113 L 761.469 108.71 A 6.529 6.529 0 0 0 761.563 109.857 Q 761.675 110.486 761.922 110.984 A 3.145 3.145 0 0 0 762.387 111.679 Q 763.305 112.714 764.906 112.714 A 10.648 10.648 0 0 0 766.466 112.603 A 9.812 9.812 0 0 0 766.566 112.587 Q 767.331 112.466 767.792 112.336 A 4.868 4.868 0 0 0 767.836 112.324 Z M 737.89 107.535 A 16.747 16.747 0 0 0 738.187 104.277 A 19.028 19.028 0 0 0 738.181 103.762 Q 738.132 101.98 737.746 100.467 A 10.096 10.096 0 0 0 735.541 96.191 Q 732.894 93.203 728.402 93.203 Q 723.754 93.203 721.137 96.123 Q 719.399 98.062 718.815 101.021 A 16.834 16.834 0 0 0 718.519 104.277 A 16.219 16.219 0 0 0 718.723 106.904 A 11.994 11.994 0 0 0 719.73 110.175 A 10.656 10.656 0 0 0 719.966 110.637 A 8.777 8.777 0 0 0 723.168 114.042 A 9.028 9.028 0 0 0 725.24 114.964 A 10.412 10.412 0 0 0 728.266 115.39 A 12.59 12.59 0 0 0 730.464 115.206 A 8.644 8.644 0 0 0 735.551 112.451 A 9.044 9.044 0 0 0 736.628 110.971 Q 737.506 109.468 737.89 107.535 Z M 790.292 107.535 A 16.747 16.747 0 0 0 790.59 104.277 A 19.028 19.028 0 0 0 790.583 103.762 Q 790.535 101.98 790.149 100.467 A 10.096 10.096 0 0 0 787.943 96.191 Q 785.297 93.203 780.805 93.203 Q 776.156 93.203 773.539 96.123 Q 771.801 98.062 771.217 101.021 A 16.834 16.834 0 0 0 770.922 104.277 A 16.219 16.219 0 0 0 771.125 106.904 A 11.994 11.994 0 0 0 772.133 110.175 A 10.656 10.656 0 0 0 772.369 110.637 A 8.777 8.777 0 0 0 775.57 114.042 A 9.028 9.028 0 0 0 777.642 114.964 A 10.412 10.412 0 0 0 780.668 115.39 A 12.59 12.59 0 0 0 782.866 115.206 A 8.644 8.644 0 0 0 787.953 112.451 A 9.044 9.044 0 0 0 789.03 110.971 Q 789.908 109.468 790.292 107.535 Z M 721.879 104.277 A 16.418 16.418 0 0 0 722.035 106.622 Q 722.207 107.813 722.57 108.777 A 6.802 6.802 0 0 0 723.519 110.527 A 5.314 5.314 0 0 0 726.98 112.565 A 8.052 8.052 0 0 0 728.344 112.675 A 7.531 7.531 0 0 0 730.33 112.428 A 5.241 5.241 0 0 0 733.178 110.537 A 6.96 6.96 0 0 0 734.261 108.426 Q 734.58 107.45 734.72 106.259 A 17.078 17.078 0 0 0 734.828 104.277 A 16.177 16.177 0 0 0 734.675 101.972 Q 734.325 99.549 733.178 98.076 Q 731.527 95.957 728.305 95.957 A 7.716 7.716 0 0 0 726.384 96.182 A 5.164 5.164 0 0 0 723.5 98.046 Q 721.879 100.136 721.879 104.277 Z M 774.281 104.277 A 16.418 16.418 0 0 0 774.437 106.622 Q 774.61 107.813 774.972 108.777 A 6.802 6.802 0 0 0 775.922 110.527 A 5.314 5.314 0 0 0 779.383 112.565 A 8.052 8.052 0 0 0 780.746 112.675 A 7.531 7.531 0 0 0 782.733 112.428 A 5.241 5.241 0 0 0 785.58 110.537 A 6.96 6.96 0 0 0 786.664 108.426 Q 786.982 107.45 787.122 106.259 A 17.078 17.078 0 0 0 787.23 104.277 A 16.177 16.177 0 0 0 787.077 101.972 Q 786.728 99.549 785.58 98.076 Q 783.93 95.957 780.707 95.957 A 7.716 7.716 0 0 0 778.786 96.182 A 5.164 5.164 0 0 0 775.902 98.046 Q 774.281 100.136 774.281 104.277 Z M 704.691 95.957 A 9.111 9.111 0 0 0 702.927 96.116 Q 701.922 96.314 701.158 96.761 A 4.312 4.312 0 0 0 699.906 97.861 A 5.55 5.55 0 0 0 699.103 99.391 Q 698.441 101.246 698.441 104.277 Q 698.441 108.109 699.526 110.088 A 4.89 4.89 0 0 0 699.945 110.732 A 4.704 4.704 0 0 0 702.331 112.342 Q 703.395 112.675 704.769 112.675 A 6.463 6.463 0 0 0 706.605 112.43 A 4.663 4.663 0 0 0 709.223 110.498 Q 710.269 108.942 710.568 106.414 A 18.577 18.577 0 0 0 710.687 104.238 A 19.155 19.155 0 0 0 710.572 102.055 Q 710.275 99.481 709.223 98.007 A 4.728 4.728 0 0 0 706.212 96.102 A 7.499 7.499 0 0 0 704.691 95.957 Z" id="bottom_labelLayer" stroke="#777777" fill="#777777" style="stroke:#777777;fill:#777777" vector-effect="non-scaling-stroke"/></g></svg>