<svg width="1006mm" height="403mm" viewBox="0 0 1006 403" xmlns="http://www.w3.org/2000/svg" version="1.1" preserveAspectRatio="xMidYMid meet"><g id="svgGroup" stroke-linecap="round" fill-rule="evenodd" font-size="9pt" stroke="#000" stroke-width="0.25mm" fill="none" style="stroke:#000;stroke-width:0.25mm;fill:none"><path d="M 0 343 L 0 359.138 L 3 359.138 L 3 386.862 L 0 386.862 L 0 403 L 47.517 403 L 47.517 400 L 75.242 400 L 75.242 403 L 102.966 403 L 102.966 400 L 130.69 400 L 130.69 403 L 158.414 403 L 158.414 400 L 186.138 400 L 186.138 403 L 213.862 403 L 213.862 400 L 241.586 400 L 241.586 403 L 269.31 403 L 269.31 400 L 297.034 400 L 297.034 403 L 324.758 403 L 324.758 400 L 352.483 400 L 352.483 403 L 380.207 403 L 400 403 L 400 386.862 L 397 386.862 L 397 359.138 L 400 359.138 L 400 343 L 352.483 343 L 352.483 346 L 324.758 346 L 324.758 343 L 297.034 343 L 297.034 346 L 269.31 346 L 269.31 343 L 241.586 343 L 241.586 346 L 213.862 346 L 213.862 343 L 186.138 343 L 186.138 346 L 158.414 346 L 158.414 343 L 130.69 343 L 130.69 346 L 102.966 346 L 102.966 343 L 75.242 343 L 75.242 346 L 47.517 346 L 47.517 343 L 19.793 343 L 0 343 Z" id="front_outsideCutPath" stroke="#FF0000" stroke-width="0.1" style="stroke:#FF0000;stroke-width:0.1" vector-effect="non-scaling-stroke"/><path d="M 208.745 377.532 L 207.772 377.532 L 207.772 373.378 A 2.749 2.749 0 0 0 207.741 372.947 Q 207.705 372.72 207.627 372.539 A 1.157 1.157 0 0 0 207.415 372.206 Q 207.126 371.893 206.571 371.833 A 2.579 2.579 0 0 0 206.296 371.819 A 2.944 2.944 0 0 0 205.745 371.867 Q 205.149 371.981 204.819 372.364 A 1.59 1.59 0 0 0 204.543 372.847 Q 204.377 373.291 204.354 373.952 A 6.231 6.231 0 0 0 204.351 374.163 L 204.351 377.532 L 203.378 377.532 L 203.378 371.11 L 204.169 371.11 L 204.327 371.989 L 204.374 371.989 A 1.97 1.97 0 0 1 205.145 371.287 A 2.368 2.368 0 0 1 205.212 371.254 Q 205.751 370.993 206.413 370.993 Q 207.183 370.993 207.699 371.239 A 1.748 1.748 0 0 1 208.159 371.553 A 1.686 1.686 0 0 1 208.57 372.197 Q 208.745 372.67 208.745 373.343 L 208.745 377.532 Z M 190.06 371.11 L 190.06 371.866 L 188.425 371.866 L 188.425 377.532 L 187.452 377.532 L 187.452 371.866 L 186.304 371.866 L 186.304 371.427 L 187.452 371.075 L 187.452 370.718 A 3.942 3.942 0 0 1 187.544 369.824 Q 187.888 368.35 189.521 368.35 A 3.132 3.132 0 0 1 189.964 368.384 Q 190.179 368.415 190.419 368.474 A 6.296 6.296 0 0 1 190.716 368.556 L 190.464 369.335 A 4.723 4.723 0 0 0 190.097 369.231 Q 189.764 369.153 189.503 369.153 A 1.312 1.312 0 0 0 189.187 369.189 A 0.842 0.842 0 0 0 188.688 369.519 A 1.125 1.125 0 0 0 188.54 369.819 Q 188.441 370.112 188.427 370.548 A 4.592 4.592 0 0 0 188.425 370.694 L 188.425 371.11 L 190.06 371.11 Z M 213.696 376.729 L 213.696 377.474 A 0.957 0.957 0 0 1 213.583 377.519 Q 213.462 377.559 213.289 377.59 A 3.638 3.638 0 0 1 213.23 377.599 A 4.216 4.216 0 0 1 212.956 377.635 Q 212.826 377.648 212.71 377.649 A 2.494 2.494 0 0 1 212.677 377.649 A 2.54 2.54 0 0 1 211.928 377.549 Q 211.105 377.295 210.89 376.401 A 3.057 3.057 0 0 1 210.813 375.686 L 210.813 371.866 L 209.894 371.866 L 209.894 371.397 L 210.813 370.993 L 211.224 369.622 L 211.786 369.622 L 211.786 371.11 L 213.649 371.11 L 213.649 371.866 L 211.786 371.866 L 211.786 375.645 A 1.959 1.959 0 0 0 211.814 375.989 Q 211.848 376.178 211.922 376.327 A 0.943 0.943 0 0 0 212.062 376.536 A 0.904 0.904 0 0 0 212.617 376.832 A 1.3 1.3 0 0 0 212.817 376.847 A 3.194 3.194 0 0 0 213.285 376.813 A 2.943 2.943 0 0 0 213.315 376.808 Q 213.556 376.77 213.696 376.729 Z M 194.929 371.063 L 194.794 371.966 A 4.287 4.287 0 0 0 194.486 371.909 Q 194.272 371.878 194.091 371.878 A 1.685 1.685 0 0 0 192.846 372.416 A 2.306 2.306 0 0 0 192.758 372.511 A 2.221 2.221 0 0 0 192.222 373.758 A 2.952 2.952 0 0 0 192.204 374.087 L 192.204 377.532 L 191.231 377.532 L 191.231 371.11 L 192.034 371.11 L 192.146 372.3 L 192.192 372.3 A 3.285 3.285 0 0 1 192.56 371.775 A 2.509 2.509 0 0 1 193.054 371.333 A 1.939 1.939 0 0 1 194.161 370.993 A 4.465 4.465 0 0 1 194.561 371.01 A 3.259 3.259 0 0 1 194.929 371.063 Z M 201.584 375.293 A 5.024 5.024 0 0 0 201.673 374.315 A 5.708 5.708 0 0 0 201.671 374.161 Q 201.632 372.74 200.879 371.89 A 2.546 2.546 0 0 0 199.697 371.127 A 3.268 3.268 0 0 0 198.737 370.993 Q 197.343 370.993 196.558 371.869 Q 195.772 372.745 195.772 374.315 A 4.866 4.866 0 0 0 195.834 375.103 A 3.598 3.598 0 0 0 196.136 376.085 A 3.197 3.197 0 0 0 196.207 376.223 A 2.633 2.633 0 0 0 197.167 377.245 A 2.708 2.708 0 0 0 197.789 377.521 A 3.123 3.123 0 0 0 198.696 377.649 A 3.777 3.777 0 0 0 199.356 377.594 A 2.593 2.593 0 0 0 200.882 376.767 Q 201.407 376.182 201.584 375.293 Z M 196.78 374.315 A 4.926 4.926 0 0 0 196.827 375.019 Q 196.932 375.745 197.272 376.19 A 1.594 1.594 0 0 0 198.311 376.802 A 2.416 2.416 0 0 0 198.72 376.835 Q 199.675 376.835 200.17 376.193 Q 200.665 375.552 200.665 374.315 Q 200.665 373.53 200.461 372.986 A 2.003 2.003 0 0 0 200.17 372.455 A 1.6 1.6 0 0 0 199.175 371.861 A 2.453 2.453 0 0 0 198.708 371.819 A 2.315 2.315 0 0 0 198.132 371.887 A 1.549 1.549 0 0 0 197.267 372.446 A 2.011 2.011 0 0 0 196.954 373.05 Q 196.862 373.328 196.818 373.668 A 5.14 5.14 0 0 0 196.78 374.315 Z" id="front_labelLayer" stroke="#777777" fill="#777777" style="stroke:#777777;fill:#777777" vector-effect="non-scaling-stroke"/><path d="M 406 343 L 406 359.138 L 403 359.138 L 403 386.862 L 406 386.862 L 406 403 L 433.69 403 L 433.69 400 L 461.414 400 L 461.414 403 L 489.138 403 L 489.138 400 L 516.862 400 L 516.862 403 L 544.586 403 L 544.586 400 L 572.31 400 L 572.31 403 L 600 403 L 600 386.862 L 603 386.862 L 603 359.138 L 600 359.138 L 600 343 L 572.31 343 L 572.31 346 L 544.586 346 L 544.586 343 L 516.862 343 L 516.862 346 L 489.138 346 L 489.138 343 L 461.414 343 L 461.414 346 L 433.69 346 L 433.69 343 L 406 343 Z" id="left_outsideCutPath" stroke="#FF0000" stroke-width="0.1" style="stroke:#FF0000;stroke-width:0.1" vector-effect="non-scaling-stroke"/><path d="M 507.269 371.11 L 507.269 371.866 L 505.634 371.866 L 505.634 377.532 L 504.661 377.532 L 504.661 371.866 L 503.513 371.866 L 503.513 371.427 L 504.661 371.075 L 504.661 370.718 A 3.942 3.942 0 0 1 504.753 369.824 Q 505.097 368.35 506.729 368.35 A 3.132 3.132 0 0 1 507.173 368.384 Q 507.388 368.415 507.628 368.474 A 6.296 6.296 0 0 1 507.925 368.556 L 507.673 369.335 A 4.723 4.723 0 0 0 507.306 369.231 Q 506.973 369.153 506.712 369.153 A 1.312 1.312 0 0 0 506.396 369.189 A 0.842 0.842 0 0 0 505.897 369.519 A 1.125 1.125 0 0 0 505.749 369.819 Q 505.65 370.112 505.636 370.548 A 4.592 4.592 0 0 0 505.634 370.694 L 505.634 371.11 L 507.269 371.11 Z M 502.716 373.882 L 502.716 374.497 L 498.292 374.497 Q 498.312 375.269 498.571 375.788 A 1.826 1.826 0 0 0 498.863 376.214 A 1.767 1.767 0 0 0 499.791 376.737 A 2.678 2.678 0 0 0 500.39 376.8 A 5.137 5.137 0 0 0 502.314 376.419 A 5.887 5.887 0 0 0 502.44 376.366 L 502.44 377.233 A 5.839 5.839 0 0 1 501.908 377.434 A 4.465 4.465 0 0 1 501.465 377.553 A 4.083 4.083 0 0 1 501.06 377.615 Q 500.741 377.649 500.354 377.649 A 3.78 3.78 0 0 1 499.409 377.537 A 2.676 2.676 0 0 1 498.107 376.782 A 2.863 2.863 0 0 1 497.423 375.525 Q 497.304 375.079 497.287 374.549 A 5.556 5.556 0 0 1 497.284 374.374 A 5.107 5.107 0 0 1 497.379 373.361 Q 497.503 372.745 497.792 372.267 A 2.88 2.88 0 0 1 498.049 371.907 A 2.492 2.492 0 0 1 499.865 371.001 A 3.438 3.438 0 0 1 500.103 370.993 A 2.963 2.963 0 0 1 500.937 371.105 A 2.255 2.255 0 0 1 502.013 371.787 A 2.72 2.72 0 0 1 502.629 373.03 A 3.959 3.959 0 0 1 502.716 373.882 Z M 511.394 376.729 L 511.394 377.474 A 0.957 0.957 0 0 1 511.28 377.519 Q 511.159 377.559 510.986 377.59 A 3.638 3.638 0 0 1 510.928 377.599 A 4.216 4.216 0 0 1 510.653 377.635 Q 510.523 377.648 510.407 377.649 A 2.494 2.494 0 0 1 510.374 377.649 A 2.54 2.54 0 0 1 509.625 377.549 Q 508.802 377.295 508.587 376.401 A 3.057 3.057 0 0 1 508.511 375.686 L 508.511 371.866 L 507.591 371.866 L 507.591 371.397 L 508.511 370.993 L 508.921 369.622 L 509.483 369.622 L 509.483 371.11 L 511.347 371.11 L 511.347 371.866 L 509.483 371.866 L 509.483 375.645 A 1.959 1.959 0 0 0 509.512 375.989 Q 509.545 376.178 509.619 376.327 A 0.943 0.943 0 0 0 509.759 376.536 A 0.904 0.904 0 0 0 510.314 376.832 A 1.3 1.3 0 0 0 510.515 376.847 A 3.194 3.194 0 0 0 510.983 376.813 A 2.943 2.943 0 0 0 511.013 376.808 Q 511.253 376.77 511.394 376.729 Z M 495.579 368.415 L 495.579 377.532 L 494.606 377.532 L 494.606 368.415 L 495.579 368.415 Z M 498.315 373.706 L 501.673 373.706 A 3.314 3.314 0 0 0 501.633 373.173 Q 501.545 372.633 501.263 372.297 A 1.333 1.333 0 0 0 500.46 371.84 A 1.999 1.999 0 0 0 500.091 371.807 A 1.917 1.917 0 0 0 499.537 371.884 A 1.481 1.481 0 0 0 498.857 372.311 A 1.921 1.921 0 0 0 498.475 372.956 Q 498.354 373.288 498.315 373.706 Z" id="left_labelLayer" stroke="#777777" fill="#777777" style="stroke:#777777;fill:#777777" vector-effect="non-scaling-stroke"/><path d="M 609 206 L 609 233.69 L 606 233.69 L 606 261.414 L 609 261.414 L 609 289.138 L 606 289.138 L 606 316.862 L 609 316.862 L 609 344.586 L 606 344.586 L 606 372.31 L 609 372.31 L 609 400 L 653.517 400 L 653.517 403 L 681.242 403 L 681.242 400 L 708.966 400 L 708.966 403 L 736.69 403 L 736.69 400 L 764.414 400 L 764.414 403 L 792.138 403 L 792.138 400 L 819.862 400 L 819.862 403 L 847.586 403 L 847.586 400 L 875.31 400 L 875.31 403 L 903.034 403 L 903.034 400 L 930.758 400 L 930.758 403 L 958.483 403 L 958.483 400 L 986.207 400 L 1003 400 L 1003 372.31 L 1006 372.31 L 1006 344.586 L 1003 344.586 L 1003 316.862 L 1006 316.862 L 1006 289.138 L 1003 289.138 L 1003 261.414 L 1006 261.414 L 1006 233.69 L 1003 233.69 L 1003 206 L 958.483 206 L 958.483 203 L 930.758 203 L 930.758 206 L 903.034 206 L 903.034 203 L 875.31 203 L 875.31 206 L 847.586 206 L 847.586 203 L 819.862 203 L 819.862 206 L 792.138 206 L 792.138 203 L 764.414 203 L 764.414 206 L 736.69 206 L 736.69 203 L 708.966 203 L 708.966 206 L 681.242 206 L 681.242 203 L 653.517 203 L 653.517 206 L 625.793 206 L 609 206 Z" id="top_outsideCutPath" stroke="#FF0000" stroke-width="0.1" style="stroke:#FF0000;stroke-width:0.1" vector-effect="non-scaling-stroke"/><path d="M 820.375 308.625 L 820.14 308.625 A 30.683 30.683 0 0 1 820.342 310.892 A 25.711 25.711 0 0 1 820.375 312.18 L 820.375 320.988 L 817.133 320.988 L 817.133 289.973 L 819.769 289.973 L 820.219 292.902 L 820.375 292.902 Q 821.625 291.145 823.285 290.363 A 8.119 8.119 0 0 1 825.612 289.683 A 10.509 10.509 0 0 1 827.094 289.582 A 9.938 9.938 0 0 1 829.901 289.957 A 7.346 7.346 0 0 1 833.666 292.492 Q 835.98 295.402 835.98 300.656 A 19.01 19.01 0 0 1 835.728 303.855 Q 835.21 306.885 833.627 308.85 A 7.675 7.675 0 0 1 828.172 311.718 A 10.996 10.996 0 0 1 827.094 311.77 Q 825.004 311.77 823.275 310.998 A 7.181 7.181 0 0 1 820.375 308.625 Z M 788.695 308.703 L 788.695 311.184 A 3.189 3.189 0 0 1 788.317 311.334 Q 787.847 311.489 787.142 311.604 Q 786.185 311.759 785.407 311.769 A 8.312 8.312 0 0 1 785.297 311.77 A 8.468 8.468 0 0 1 782.801 311.434 Q 780.058 310.587 779.34 307.607 A 10.191 10.191 0 0 1 779.086 305.227 L 779.086 292.492 L 776.019 292.492 L 776.019 290.93 L 779.086 289.582 L 780.453 285.012 L 782.328 285.012 L 782.328 289.973 L 788.539 289.973 L 788.539 292.492 L 782.328 292.492 L 782.328 305.09 A 6.529 6.529 0 0 0 782.422 306.236 Q 782.535 306.866 782.781 307.364 A 3.145 3.145 0 0 0 783.246 308.059 Q 784.164 309.094 785.765 309.094 A 10.648 10.648 0 0 0 787.325 308.982 A 9.812 9.812 0 0 0 787.426 308.967 Q 788.19 308.846 788.652 308.716 A 4.868 4.868 0 0 0 788.695 308.703 Z M 811.151 303.914 A 16.747 16.747 0 0 0 811.449 300.656 A 19.028 19.028 0 0 0 811.442 300.142 Q 811.394 298.359 811.008 296.846 A 10.096 10.096 0 0 0 808.803 292.57 Q 806.156 289.582 801.664 289.582 Q 797.015 289.582 794.398 292.502 Q 792.66 294.441 792.076 297.401 A 16.834 16.834 0 0 0 791.781 300.656 A 16.219 16.219 0 0 0 791.985 303.283 A 11.994 11.994 0 0 0 792.992 306.555 A 10.656 10.656 0 0 0 793.228 307.017 A 8.777 8.777 0 0 0 796.43 310.422 A 9.028 9.028 0 0 0 798.502 311.343 A 10.412 10.412 0 0 0 801.527 311.77 A 12.59 12.59 0 0 0 803.726 311.586 A 8.644 8.644 0 0 0 808.812 308.83 A 9.044 9.044 0 0 0 809.889 307.351 Q 810.768 305.848 811.151 303.914 Z M 795.14 300.656 A 16.418 16.418 0 0 0 795.297 303.002 Q 795.469 304.192 795.831 305.157 A 6.802 6.802 0 0 0 796.781 306.906 A 5.314 5.314 0 0 0 800.242 308.944 A 8.052 8.052 0 0 0 801.605 309.055 A 7.531 7.531 0 0 0 803.592 308.808 A 5.241 5.241 0 0 0 806.439 306.916 A 6.96 6.96 0 0 0 807.523 304.805 Q 807.842 303.83 807.981 302.639 A 17.078 17.078 0 0 0 808.09 300.656 A 16.177 16.177 0 0 0 807.936 298.351 Q 807.587 295.929 806.439 294.455 Q 804.789 292.336 801.566 292.336 A 7.716 7.716 0 0 0 799.645 292.561 A 5.164 5.164 0 0 0 796.762 294.426 Q 795.14 296.516 795.14 300.656 Z M 820.375 299.934 L 820.375 300.656 Q 820.375 304.488 821.46 306.468 A 4.89 4.89 0 0 0 821.879 307.111 A 4.704 4.704 0 0 0 824.265 308.722 Q 825.328 309.055 826.703 309.055 A 5.463 5.463 0 0 0 828.827 308.656 Q 830.052 308.145 830.926 306.978 A 6.461 6.461 0 0 0 831.049 306.809 A 7.839 7.839 0 0 0 832.123 304.518 Q 832.434 303.467 832.551 302.206 A 17.273 17.273 0 0 0 832.621 300.617 Q 832.621 297.99 831.944 296.165 A 6.874 6.874 0 0 0 831.049 294.475 A 5.043 5.043 0 0 0 827.36 292.374 A 6.976 6.976 0 0 0 826.625 292.336 A 9.342 9.342 0 0 0 824.88 292.488 Q 823.908 292.673 823.161 293.084 A 4.284 4.284 0 0 0 821.879 294.152 Q 820.507 295.853 820.386 299.436 A 20.635 20.635 0 0 0 820.375 299.934 Z" id="top_labelLayer" stroke="#777777" fill="#777777" style="stroke:#777777;fill:#777777" vector-effect="non-scaling-stroke"/><path d="M 0 280 L 0 296.138 L 3 296.138 L 3 323.862 L 0 323.862 L 0 340 L 47.517 340 L 47.517 337 L 75.242 337 L 75.242 340 L 102.966 340 L 102.966 337 L 130.69 337 L 130.69 340 L 158.414 340 L 158.414 337 L 186.138 337 L 186.138 340 L 213.862 340 L 213.862 337 L 241.586 337 L 241.586 340 L 269.31 340 L 269.31 337 L 297.034 337 L 297.034 340 L 324.758 340 L 324.758 337 L 352.483 337 L 352.483 340 L 380.207 340 L 400 340 L 400 323.862 L 397 323.862 L 397 296.138 L 400 296.138 L 400 280 L 352.483 280 L 352.483 283 L 324.758 283 L 324.758 280 L 297.034 280 L 297.034 283 L 269.31 283 L 269.31 280 L 241.586 280 L 241.586 283 L 213.862 283 L 213.862 280 L 186.138 280 L 186.138 283 L 158.414 283 L 158.414 280 L 130.69 280 L 130.69 283 L 102.966 283 L 102.966 280 L 75.242 280 L 75.242 283 L 47.517 283 L 47.517 280 L 19.793 280 L 0 280 Z" id="back_outsideCutPath" stroke="#FF0000" stroke-width="0.1" style="stroke:#FF0000;stroke-width:0.1" vector-effect="non-scaling-stroke"/><path d="M 208.215 311.213 L 208.262 311.213 A 5.758 5.758 0 0 1 208.404 311.02 Q 208.643 310.71 209.029 310.275 L 211.104 308.078 L 212.258 308.078 L 209.656 310.814 L 212.439 314.5 L 211.262 314.5 L 208.994 311.465 L 208.262 312.098 L 208.262 314.5 L 207.301 314.5 L 207.301 305.383 L 208.262 305.383 L 208.262 310.217 A 6.482 6.482 0 0 1 208.259 310.4 Q 208.25 310.707 208.215 311.213 Z M 188.533 313.674 L 188.463 313.674 L 188.258 314.5 L 187.561 314.5 L 187.561 305.383 L 188.533 305.383 L 188.533 307.598 Q 188.533 308.318 188.489 308.895 A 12.201 12.201 0 0 1 188.486 308.934 L 188.533 308.934 A 2.211 2.211 0 0 1 190.147 307.996 A 3.322 3.322 0 0 1 190.549 307.973 Q 191.814 307.973 192.515 308.837 Q 193.215 309.701 193.215 311.283 A 5.703 5.703 0 0 1 193.139 312.243 Q 193.052 312.754 192.863 313.164 A 2.734 2.734 0 0 1 192.509 313.741 A 2.303 2.303 0 0 1 190.872 314.602 A 3.299 3.299 0 0 1 190.549 314.617 A 2.95 2.95 0 0 1 189.807 314.527 A 2.567 2.567 0 0 1 189.403 314.386 A 2.154 2.154 0 0 1 188.533 313.674 Z M 199.584 314.5 L 198.863 314.5 L 198.67 313.586 L 198.623 313.586 Q 198.284 314.012 197.946 314.244 A 1.792 1.792 0 0 1 197.665 314.403 A 2.243 2.243 0 0 1 197.202 314.549 Q 196.977 314.596 196.717 314.611 A 4.377 4.377 0 0 1 196.473 314.617 A 2.985 2.985 0 0 1 195.865 314.559 Q 195.331 314.448 194.976 314.125 A 1.599 1.599 0 0 1 194.493 313.282 A 2.447 2.447 0 0 1 194.434 312.725 A 1.683 1.683 0 0 1 195.391 311.136 Q 196.104 310.757 197.347 310.693 A 9.501 9.501 0 0 1 197.545 310.685 L 198.635 310.65 L 198.635 310.252 A 2.794 2.794 0 0 0 198.608 309.848 Q 198.577 309.641 198.513 309.476 A 1.085 1.085 0 0 0 198.31 309.136 A 0.987 0.987 0 0 0 197.905 308.872 Q 197.743 308.813 197.543 308.79 A 2.403 2.403 0 0 0 197.27 308.775 A 3.167 3.167 0 0 0 196.541 308.866 Q 196.031 308.987 195.453 309.268 L 195.154 308.523 A 4.485 4.485 0 0 1 196.02 308.168 A 5.105 5.105 0 0 1 196.194 308.119 A 4.504 4.504 0 0 1 197.328 307.973 A 4.108 4.108 0 0 1 197.954 308.017 Q 198.64 308.123 199.03 308.482 Q 199.584 308.992 199.584 310.117 L 199.584 314.5 Z M 205.871 308.295 L 205.572 309.121 Q 205.25 308.992 204.869 308.907 Q 204.543 308.834 204.282 308.824 A 2.156 2.156 0 0 0 204.195 308.822 A 2.157 2.157 0 0 0 203.319 308.987 Q 202.401 309.392 202.263 310.792 A 5.375 5.375 0 0 0 202.238 311.318 A 4.711 4.711 0 0 0 202.285 312.004 Q 202.336 312.352 202.444 312.635 A 2.017 2.017 0 0 0 202.716 313.135 A 1.545 1.545 0 0 0 203.717 313.733 A 2.353 2.353 0 0 0 204.131 313.768 A 4.072 4.072 0 0 0 205.254 313.604 A 5.027 5.027 0 0 0 205.777 313.422 L 205.777 314.283 A 2.767 2.767 0 0 1 205.1 314.523 Q 204.788 314.592 204.424 314.61 A 5.334 5.334 0 0 1 204.154 314.617 A 3.635 3.635 0 0 1 203.27 314.516 A 2.465 2.465 0 0 1 201.995 313.759 A 2.813 2.813 0 0 1 201.41 312.684 Q 201.281 312.258 201.245 311.745 A 5.881 5.881 0 0 1 201.23 311.33 A 5.367 5.367 0 0 1 201.314 310.354 Q 201.484 309.431 202.007 308.84 A 2.519 2.519 0 0 1 203.386 308.047 A 3.818 3.818 0 0 1 204.219 307.961 Q 204.682 307.961 205.145 308.06 A 4.855 4.855 0 0 1 205.414 308.126 Q 205.69 308.202 205.871 308.295 Z M 189.348 309.028 A 1.294 1.294 0 0 0 188.973 309.358 A 1.665 1.665 0 0 0 188.732 309.817 Q 188.569 310.273 188.54 310.966 A 7.494 7.494 0 0 0 188.533 311.283 A 6.431 6.431 0 0 0 188.565 311.948 Q 188.635 312.618 188.859 313.027 A 1.467 1.467 0 0 0 188.984 313.22 A 1.411 1.411 0 0 0 189.7 313.703 Q 190.019 313.803 190.432 313.803 A 1.939 1.939 0 0 0 190.982 313.729 A 1.399 1.399 0 0 0 191.768 313.149 A 2.233 2.233 0 0 0 192.044 312.552 Q 192.207 312.018 192.207 311.271 Q 192.207 310.083 191.812 309.468 A 1.614 1.614 0 0 0 191.768 309.402 A 1.418 1.418 0 0 0 190.865 308.831 A 2.25 2.25 0 0 0 190.408 308.787 Q 189.761 308.787 189.348 309.028 Z M 198.611 311.922 L 198.611 311.342 L 197.639 311.383 A 7.142 7.142 0 0 0 197.068 311.424 Q 196.505 311.49 196.153 311.645 A 1.494 1.494 0 0 0 195.966 311.743 A 1.038 1.038 0 0 0 195.471 312.496 A 1.536 1.536 0 0 0 195.453 312.736 A 1.39 1.39 0 0 0 195.488 313.055 Q 195.558 313.354 195.772 313.539 Q 196.048 313.777 196.514 313.809 A 2.188 2.188 0 0 0 196.666 313.814 Q 197.574 313.814 198.093 313.316 A 1.629 1.629 0 0 0 198.547 312.503 Q 198.61 312.241 198.611 311.932 A 3.098 3.098 0 0 0 198.611 311.922 Z" id="back_labelLayer" stroke="#777777" fill="#777777" style="stroke:#777777;fill:#777777" vector-effect="non-scaling-stroke"/><path d="M 406 280 L 406 296.138 L 403 296.138 L 403 323.862 L 406 323.862 L 406 340 L 433.69 340 L 433.69 337 L 461.414 337 L 461.414 340 L 489.138 340 L 489.138 337 L 516.862 337 L 516.862 340 L 544.586 340 L 544.586 337 L 572.31 337 L 572.31 340 L 600 340 L 600 323.862 L 603 323.862 L 603 296.138 L 600 296.138 L 600 280 L 572.31 280 L 572.31 283 L 544.586 283 L 544.586 280 L 516.862 280 L 516.862 283 L 489.138 283 L 489.138 280 L 461.414 280 L 461.414 283 L 433.69 283 L 433.69 280 L 406 280 Z" id="right_outsideCutPath" stroke="#FF0000" stroke-width="0.1" style="stroke:#FF0000;stroke-width:0.1" vector-effect="non-scaling-stroke"/><path d="M 510.462 313.117 L 509.489 313.117 L 509.489 308.963 A 2.749 2.749 0 0 0 509.458 308.532 Q 509.422 308.305 509.344 308.124 A 1.157 1.157 0 0 0 509.132 307.791 Q 508.842 307.478 508.288 307.418 A 2.579 2.579 0 0 0 508.013 307.404 A 2.943 2.943 0 0 0 507.462 307.452 Q 506.862 307.567 506.533 307.955 A 1.618 1.618 0 0 0 506.259 308.442 Q 506.093 308.888 506.071 309.55 A 6.277 6.277 0 0 0 506.067 309.76 L 506.067 313.117 L 505.095 313.117 L 505.095 304 L 506.067 304 L 506.067 306.76 A 8.75 8.75 0 0 1 506.061 307.096 Q 506.051 307.376 506.021 307.586 L 506.079 307.586 A 1.943 1.943 0 0 1 506.76 306.931 A 2.374 2.374 0 0 1 506.896 306.856 A 2.497 2.497 0 0 1 507.716 306.613 A 3.157 3.157 0 0 1 508.106 306.59 Q 508.881 306.59 509.401 306.832 A 1.753 1.753 0 0 1 509.873 307.149 Q 510.33 307.584 510.433 308.416 A 4.206 4.206 0 0 1 510.462 308.928 L 510.462 313.117 Z M 501.556 306.695 L 503.776 306.695 L 503.776 307.311 L 502.587 307.451 A 1.581 1.581 0 0 1 502.724 307.655 Q 502.784 307.76 502.838 307.886 A 2.999 2.999 0 0 1 502.88 307.987 A 1.871 1.871 0 0 1 502.991 308.434 A 2.403 2.403 0 0 1 503.009 308.734 A 2.23 2.23 0 0 1 502.906 309.426 A 1.803 1.803 0 0 1 502.364 310.24 Q 501.72 310.803 500.595 310.803 Q 500.308 310.803 500.056 310.756 A 1.731 1.731 0 0 0 499.777 310.936 Q 499.435 311.212 499.435 311.582 Q 499.435 311.838 499.638 311.964 A 0.54 0.54 0 0 0 499.651 311.972 Q 499.826 312.073 500.202 312.093 A 3.7 3.7 0 0 0 500.396 312.098 L 501.532 312.098 A 3.981 3.981 0 0 1 502.137 312.141 Q 502.453 312.189 502.708 312.293 A 1.758 1.758 0 0 1 503.135 312.537 A 1.423 1.423 0 0 1 503.664 313.444 A 2.137 2.137 0 0 1 503.694 313.814 A 2.106 2.106 0 0 1 503.574 314.543 Q 503.374 315.091 502.839 315.44 A 2.917 2.917 0 0 1 502.087 315.781 Q 501.716 315.894 501.264 315.949 A 7.709 7.709 0 0 1 500.343 316 A 5.45 5.45 0 0 1 499.612 315.954 Q 498.87 315.853 498.4 315.531 Q 497.762 315.093 497.721 314.316 A 2.054 2.054 0 0 1 497.718 314.207 Q 497.718 313.621 498.093 313.193 A 1.698 1.698 0 0 1 498.676 312.768 A 2.407 2.407 0 0 1 499.147 312.613 Q 498.901 312.502 498.734 312.268 A 0.902 0.902 0 0 1 498.569 311.78 A 1.117 1.117 0 0 1 498.567 311.723 A 1.112 1.112 0 0 1 498.623 311.364 A 0.986 0.986 0 0 1 498.755 311.107 A 1.392 1.392 0 0 1 498.939 310.9 Q 499.037 310.808 499.162 310.719 A 3.055 3.055 0 0 1 499.347 310.598 A 1.705 1.705 0 0 1 498.606 310.005 A 2.113 2.113 0 0 1 498.535 309.9 A 2.011 2.011 0 0 1 498.227 308.931 A 2.454 2.454 0 0 1 498.222 308.775 A 2.81 2.81 0 0 1 498.296 308.111 A 1.849 1.849 0 0 1 498.854 307.149 A 2.066 2.066 0 0 1 499.647 306.712 Q 500.086 306.578 500.647 306.578 A 3.728 3.728 0 0 1 501.141 306.609 A 2.84 2.84 0 0 1 501.556 306.695 Z M 515.413 312.314 L 515.413 313.059 A 0.957 0.957 0 0 1 515.3 313.104 Q 515.179 313.144 515.005 313.175 A 3.638 3.638 0 0 1 514.947 313.185 A 4.216 4.216 0 0 1 514.672 313.22 Q 514.543 313.233 514.427 313.234 A 2.494 2.494 0 0 1 514.394 313.234 A 2.54 2.54 0 0 1 513.645 313.134 Q 512.822 312.88 512.607 311.986 A 3.057 3.057 0 0 1 512.53 311.271 L 512.53 307.451 L 511.61 307.451 L 511.61 306.982 L 512.53 306.578 L 512.94 305.207 L 513.503 305.207 L 513.503 306.695 L 515.366 306.695 L 515.366 307.451 L 513.503 307.451 L 513.503 311.23 A 1.959 1.959 0 0 0 513.531 311.574 Q 513.565 311.763 513.639 311.913 A 0.943 0.943 0 0 0 513.778 312.121 A 0.904 0.904 0 0 0 514.334 312.417 A 1.3 1.3 0 0 0 514.534 312.432 A 3.194 3.194 0 0 0 515.002 312.398 A 2.943 2.943 0 0 0 515.032 312.394 Q 515.272 312.355 515.413 312.314 Z M 494.284 306.648 L 494.149 307.551 A 4.287 4.287 0 0 0 493.841 307.494 Q 493.627 307.463 493.446 307.463 A 1.685 1.685 0 0 0 492.201 308.001 A 2.306 2.306 0 0 0 492.113 308.096 A 2.221 2.221 0 0 0 491.577 309.343 A 2.952 2.952 0 0 0 491.56 309.672 L 491.56 313.117 L 490.587 313.117 L 490.587 306.695 L 491.39 306.695 L 491.501 307.885 L 491.548 307.885 A 3.285 3.285 0 0 1 491.915 307.36 A 2.509 2.509 0 0 1 492.409 306.918 A 1.939 1.939 0 0 1 493.517 306.578 A 4.465 4.465 0 0 1 493.916 306.595 A 3.259 3.259 0 0 1 494.284 306.648 Z M 496.458 306.695 L 496.458 313.117 L 495.485 313.117 L 495.485 306.695 L 496.458 306.695 Z M 501.222 312.971 L 500.056 312.971 Q 499.571 312.971 499.243 313.14 A 1.139 1.139 0 0 0 499.024 313.287 A 1.025 1.025 0 0 0 498.688 313.868 A 1.556 1.556 0 0 0 498.655 314.195 A 0.977 0.977 0 0 0 498.72 314.558 Q 498.812 314.791 499.037 314.949 A 1.141 1.141 0 0 0 499.095 314.986 Q 499.532 315.255 500.346 315.256 A 4.996 4.996 0 0 0 500.354 315.256 Q 501.448 315.256 502.035 314.964 A 1.615 1.615 0 0 0 502.168 314.89 A 1.419 1.419 0 0 0 502.497 314.614 A 1.063 1.063 0 0 0 502.757 313.896 Q 502.757 313.375 502.435 313.173 Q 502.189 313.019 501.614 312.982 A 6.189 6.189 0 0 0 501.222 312.971 Z M 499.399 309.582 A 1.041 1.041 0 0 0 499.563 309.771 Q 499.907 310.083 500.492 310.114 A 2.504 2.504 0 0 0 500.624 310.117 Q 501.748 310.117 501.985 309.255 A 1.97 1.97 0 0 0 502.048 308.734 A 2.091 2.091 0 0 0 501.976 308.162 Q 501.793 307.519 501.14 307.349 A 2.115 2.115 0 0 0 500.606 307.287 A 2.041 2.041 0 0 0 500.191 307.327 Q 499.936 307.38 499.741 307.504 A 1.12 1.12 0 0 0 499.552 307.656 A 1.167 1.167 0 0 0 499.269 308.132 Q 499.21 308.316 499.191 308.54 A 2.559 2.559 0 0 0 499.183 308.752 Q 499.183 309.26 499.399 309.582 Z M 495.567 304.466 A 0.455 0.455 0 0 0 495.467 304.609 Q 495.403 304.747 495.403 304.955 A 1.148 1.148 0 0 0 495.408 305.065 Q 495.418 305.163 495.445 305.243 A 0.502 0.502 0 0 0 495.567 305.444 A 0.546 0.546 0 0 0 495.765 305.57 A 0.618 0.618 0 0 0 495.978 305.605 A 0.567 0.567 0 0 0 496.382 305.444 A 0.475 0.475 0 0 0 496.475 305.322 Q 496.552 305.176 496.552 304.955 A 1.113 1.113 0 0 0 496.547 304.85 Q 496.538 304.754 496.511 304.675 A 0.491 0.491 0 0 0 496.382 304.469 A 0.573 0.573 0 0 0 495.978 304.311 Q 495.731 304.311 495.567 304.466 Z" id="right_labelLayer" stroke="#777777" fill="#777777" style="stroke:#777777;fill:#777777" vector-effect="non-scaling-stroke"/><path d="M 609 3 L 609 30.69 L 606 30.69 L 606 58.414 L 609 58.414 L 609 86.138 L 606 86.138 L 606 113.862 L 609 113.862 L 609 141.586 L 606 141.586 L 606 169.31 L 609 169.31 L 609 197 L 653.517 197 L 653.517 200 L 681.242 200 L 681.242 197 L 708.966 197 L 708.966 200 L 736.69 200 L 736.69 197 L 764.414 197 L 764.414 200 L 792.138 200 L 792.138 197 L 819.862 197 L 819.862 200 L 847.586 200 L 847.586 197 L 875.31 197 L 875.31 200 L 903.034 200 L 903.034 197 L 930.758 197 L 930.758 200 L 958.483 200 L 958.483 197 L 986.207 197 L 1003 197 L 1003 169.31 L 1006 169.31 L 1006 141.586 L 1003 141.586 L 1003 113.862 L 1006 113.862 L 1006 86.138 L 1003 86.138 L 1003 58.414 L 1006 58.414 L 1006 30.69 L 1003 30.69 L 1003 3 L 958.483 3 L 958.483 0 L 930.758 0 L 930.758 3 L 903.034 3 L 903.034 0 L 875.31 0 L 875.31 3 L 847.586 3 L 847.586 0 L 819.862 0 L 819.862 3 L 792.138 3 L 792.138 0 L 764.414 0 L 764.414 3 L 736.69 3 L 736.69 0 L 708.966 0 L 708.966 3 L 681.242 3 L 681.242 0 L 653.517 0 L 653.517 3 L 625.793 3 L 609 3 Z" id="bottom_outsideCutPath" stroke="#FF0000" stroke-width="0.1" style="stroke:#FF0000;stroke-width:0.1" vector-effect="non-scaling-stroke"/><path d="M 871.801 114.999 L 868.558 114.999 L 868.558 101.074 Q 868.558 99.471 868.129 98.37 A 3.918 3.918 0 0 0 867.465 97.236 A 3.412 3.412 0 0 0 865.879 96.21 Q 865.093 95.957 864.066 95.957 A 8.343 8.343 0 0 0 862.368 96.118 Q 861.359 96.328 860.598 96.811 A 4.293 4.293 0 0 0 859.594 97.695 A 5.358 5.358 0 0 0 858.685 99.339 Q 858.152 100.833 858.148 103.013 A 17.968 17.968 0 0 0 858.148 103.046 L 858.148 114.999 L 854.906 114.999 L 854.906 101.074 Q 854.906 99.471 854.477 98.37 A 3.918 3.918 0 0 0 853.812 97.236 Q 852.719 95.957 850.394 95.957 A 8.053 8.053 0 0 0 848.729 96.117 Q 846.927 96.499 845.932 97.783 A 5.437 5.437 0 0 0 845.125 99.314 Q 844.603 100.793 844.528 103.01 A 22.573 22.573 0 0 0 844.516 103.769 L 844.516 114.999 L 841.273 114.999 L 841.273 93.593 L 843.91 93.593 L 844.437 96.523 L 844.594 96.523 Q 845.512 94.96 847.182 94.082 A 7.697 7.697 0 0 1 850.222 93.229 A 9.297 9.297 0 0 1 850.922 93.203 A 10.615 10.615 0 0 1 853.311 93.451 Q 854.781 93.791 855.806 94.596 A 5.535 5.535 0 0 1 857.484 96.835 L 857.641 96.835 Q 858.598 95.156 860.414 94.179 A 8.206 8.206 0 0 1 863.424 93.264 A 10.232 10.232 0 0 1 864.555 93.203 A 11.27 11.27 0 0 1 866.599 93.376 Q 867.735 93.586 868.622 94.05 A 5.343 5.343 0 0 1 869.994 95.068 A 5.583 5.583 0 0 1 871.193 97.029 Q 871.516 97.893 871.667 98.969 A 14.871 14.871 0 0 1 871.801 101.035 L 871.801 114.999 Z M 743.441 112.246 L 743.207 112.246 L 742.523 114.999 L 740.199 114.999 L 740.199 84.609 L 743.441 84.609 L 743.441 91.992 Q 743.441 94.392 743.295 96.317 A 40.448 40.448 0 0 1 743.285 96.445 L 743.441 96.445 A 7.371 7.371 0 0 1 748.822 93.32 A 11.073 11.073 0 0 1 750.16 93.242 A 9.909 9.909 0 0 1 752.949 93.614 A 7.418 7.418 0 0 1 756.713 96.123 Q 758.582 98.429 758.954 102.271 A 20.811 20.811 0 0 1 759.047 104.277 A 19.01 19.01 0 0 1 758.795 107.475 Q 758.277 110.506 756.693 112.47 A 7.675 7.675 0 0 1 751.238 115.339 A 10.996 10.996 0 0 1 750.16 115.39 Q 748.07 115.39 746.342 114.619 A 7.181 7.181 0 0 1 743.441 112.246 Z M 798.715 112.324 L 798.715 114.804 A 3.189 3.189 0 0 1 798.337 114.954 Q 797.867 115.11 797.162 115.224 Q 796.205 115.379 795.426 115.389 A 8.312 8.312 0 0 1 795.316 115.39 A 8.468 8.468 0 0 1 792.821 115.054 Q 790.078 114.208 789.36 111.228 A 10.191 10.191 0 0 1 789.105 108.847 L 789.105 96.113 L 786.039 96.113 L 786.039 94.55 L 789.105 93.203 L 790.473 88.632 L 792.348 88.632 L 792.348 93.593 L 798.558 93.593 L 798.558 96.113 L 792.348 96.113 L 792.348 108.71 A 6.529 6.529 0 0 0 792.442 109.857 Q 792.554 110.486 792.801 110.984 A 3.145 3.145 0 0 0 793.266 111.679 Q 794.183 112.714 795.785 112.714 A 10.648 10.648 0 0 0 797.345 112.603 A 9.812 9.812 0 0 0 797.445 112.587 Q 798.209 112.466 798.671 112.336 A 4.868 4.868 0 0 0 798.715 112.324 Z M 812.836 112.324 L 812.836 114.804 A 3.189 3.189 0 0 1 812.458 114.954 Q 811.988 115.11 811.283 115.224 Q 810.326 115.379 809.547 115.389 A 8.312 8.312 0 0 1 809.437 115.39 A 8.468 8.468 0 0 1 806.942 115.054 Q 804.199 114.208 803.481 111.228 A 10.191 10.191 0 0 1 803.226 108.847 L 803.226 96.113 L 800.16 96.113 L 800.16 94.55 L 803.226 93.203 L 804.594 88.632 L 806.469 88.632 L 806.469 93.593 L 812.68 93.593 L 812.68 96.113 L 806.469 96.113 L 806.469 108.71 A 6.529 6.529 0 0 0 806.563 109.857 Q 806.675 110.486 806.922 110.984 A 3.145 3.145 0 0 0 807.387 111.679 Q 808.305 112.714 809.906 112.714 A 10.648 10.648 0 0 0 811.466 112.603 A 9.812 9.812 0 0 0 811.566 112.587 Q 812.331 112.466 812.792 112.336 A 4.868 4.868 0 0 0 812.836 112.324 Z M 782.89 107.535 A 16.747 16.747 0 0 0 783.187 104.277 A 19.028 19.028 0 0 0 783.181 103.762 Q 783.132 101.98 782.746 100.467 A 10.096 10.096 0 0 0 780.541 96.191 Q 777.894 93.203 773.402 93.203 Q 768.754 93.203 766.137 96.123 Q 764.399 98.062 763.815 101.021 A 16.834 16.834 0 0 0 763.519 104.277 A 16.219 16.219 0 0 0 763.723 106.904 A 11.994 11.994 0 0 0 764.73 110.175 A 10.656 10.656 0 0 0 764.966 110.637 A 8.777 8.777 0 0 0 768.168 114.042 A 9.028 9.028 0 0 0 770.24 114.964 A 10.412 10.412 0 0 0 773.266 115.39 A 12.59 12.59 0 0 0 775.464 115.206 A 8.644 8.644 0 0 0 780.551 112.451 A 9.044 9.044 0 0 0 781.628 110.971 Q 782.506 109.468 782.89 107.535 Z M 835.292 107.535 A 16.747 16.747 0 0 0 835.59 104.277 A 19.028 19.028 0 0 0 835.583 103.762 Q 835.535 101.98 835.149 100.467 A 10.096 10.096 0 0 0 832.943 96.191 Q 830.297 93.203 825.805 93.203 Q 821.156 93.203 818.539 96.123 Q 816.801 98.062 816.217 101.021 A 16.834 16.834 0 0 0 815.922 104.277 A 16.219 16.219 0 0 0 816.125 106.904 A 11.994 11.994 0 0 0 817.133 110.175 A 10.656 10.656 0 0 0 817.369 110.637 A 8.777 8.777 0 0 0 820.57 114.042 A 9.028 9.028 0 0 0 822.642 114.964 A 10.412 10.412 0 0 0 825.668 115.39 A 12.59 12.59 0 0 0 827.866 115.206 A 8.644 8.644 0 0 0 832.953 112.451 A 9.044 9.044 0 0 0 834.03 110.971 Q 834.908 109.468 835.292 107.535 Z M 766.879 104.277 A 16.418 16.418 0 0 0 767.035 106.622 Q 767.207 107.813 767.57 108.777 A 6.802 6.802 0 0 0 768.519 110.527 A 5.314 5.314 0 0 0 771.98 112.565 A 8.052 8.052 0 0 0 773.344 112.675 A 7.531 7.531 0 0 0 775.33 112.428 A 5.241 5.241 0 0 0 778.178 110.537 A 6.96 6.96 0 0 0 779.261 108.426 Q 779.58 107.45 779.72 106.259 A 17.078 17.078 0 0 0 779.828 104.277 A 16.177 16.177 0 0 0 779.675 101.972 Q 779.325 99.549 778.178 98.076 Q 776.527 95.957 773.305 95.957 A 7.716 7.716 0 0 0 771.384 96.182 A 5.164 5.164 0 0 0 768.5 98.046 Q 766.879 100.136 766.879 104.277 Z M 819.281 104.277 A 16.418 16.418 0 0 0 819.437 106.622 Q 819.61 107.813 819.972 108.777 A 6.802 6.802 0 0 0 820.922 110.527 A 5.314 5.314 0 0 0 824.383 112.565 A 8.052 8.052 0 0 0 825.746 112.675 A 7.531 7.531 0 0 0 827.733 112.428 A 5.241 5.241 0 0 0 830.58 110.537 A 6.96 6.96 0 0 0 831.664 108.426 Q 831.982 107.45 832.122 106.259 A 17.078 17.078 0 0 0 832.23 104.277 A 16.177 16.177 0 0 0 832.077 101.972 Q 831.728 99.549 830.58 98.076 Q 828.93 95.957 825.707 95.957 A 7.716 7.716 0 0 0 823.786 96.182 A 5.164 5.164 0 0 0 820.902 98.046 Q 819.281 100.136 819.281 104.277 Z M 749.691 95.957 A 9.111 9.111 0 0 0 747.927 96.116 Q 746.922 96.314 746.158 96.761 A 4.312 4.312 0 0 0 744.906 97.861 A 5.55 5.55 0 0 0 744.103 99.391 Q 743.441 101.246 743.441 104.277 Q 743.441 108.109 744.526 110.088 A 4.89 4.89 0 0 0 744.945 110.732 A 4.704 4.704 0 0 0 747.331 112.342 Q 748.395 112.675 749.769 112.675 A 6.463 6.463 0 0 0 751.605 112.43 A 4.663 4.663 0 0 0 754.223 110.498 Q 755.269 108.942 755.568 106.414 A 18.577 18.577 0 0 0 755.687 104.238 A 19.155 19.155 0 0 0 755.572 102.055 Q 755.275 99.481 754.223 98.007 A 4.728 4.728 0 0 0 751.212 96.102 A 7.499 7.499 0 0 0 749.691 95.957 Z" id="bottom_labelLayer" stroke="#777777" fill="#777777" style="stroke:#777777;fill:#777777" vector-effect="non-scaling-stroke"/></g></svg>